%TF.GenerationSoftware,KiCad,Pcbnew,10.0.1*%
%TF.CreationDate,2026-05-06T21:45:56-04:00*%
%TF.ProjectId,devboard,64657662-6f61-4726-942e-6b696361645f,rev?*%
%TF.SameCoordinates,Original*%
%TF.FileFunction,Paste,Top*%
%TF.FilePolarity,Positive*%
%FSLAX46Y46*%
G04 Gerber Fmt 4.6, Leading zero omitted, Abs format (unit mm)*
G04 Created by KiCad (PCBNEW 10.0.1) date 2026-05-06 21:45:56*
%MOMM*%
%LPD*%
G01*
G04 APERTURE LIST*
G04 Aperture macros list*
%AMRoundRect*
0 Rectangle with rounded corners*
0 $1 Rounding radius*
0 $2 $3 $4 $5 $6 $7 $8 $9 X,Y pos of 4 corners*
0 Add a 4 corners polygon primitive as box body*
4,1,4,$2,$3,$4,$5,$6,$7,$8,$9,$2,$3,0*
0 Add four circle primitives for the rounded corners*
1,1,$1+$1,$2,$3*
1,1,$1+$1,$4,$5*
1,1,$1+$1,$6,$7*
1,1,$1+$1,$8,$9*
0 Add four rect primitives between the rounded corners*
20,1,$1+$1,$2,$3,$4,$5,0*
20,1,$1+$1,$4,$5,$6,$7,0*
20,1,$1+$1,$6,$7,$8,$9,0*
20,1,$1+$1,$8,$9,$2,$3,0*%
G04 Aperture macros list end*
%ADD10RoundRect,0.140000X-0.140000X-0.170000X0.140000X-0.170000X0.140000X0.170000X-0.140000X0.170000X0*%
%ADD11RoundRect,0.135000X0.185000X-0.135000X0.185000X0.135000X-0.185000X0.135000X-0.185000X-0.135000X0*%
%ADD12RoundRect,0.140000X0.170000X-0.140000X0.170000X0.140000X-0.170000X0.140000X-0.170000X-0.140000X0*%
%ADD13RoundRect,0.140000X0.021213X-0.219203X0.219203X-0.021213X-0.021213X0.219203X-0.219203X0.021213X0*%
%ADD14RoundRect,0.200000X-0.800000X0.200000X-0.800000X-0.200000X0.800000X-0.200000X0.800000X0.200000X0*%
%ADD15RoundRect,0.135000X0.135000X0.185000X-0.135000X0.185000X-0.135000X-0.185000X0.135000X-0.185000X0*%
%ADD16RoundRect,0.135000X-0.185000X0.135000X-0.185000X-0.135000X0.185000X-0.135000X0.185000X0.135000X0*%
%ADD17RoundRect,0.140000X0.140000X0.170000X-0.140000X0.170000X-0.140000X-0.170000X0.140000X-0.170000X0*%
%ADD18RoundRect,0.225000X0.225000X0.250000X-0.225000X0.250000X-0.225000X-0.250000X0.225000X-0.250000X0*%
%ADD19RoundRect,0.150000X0.150000X-0.587500X0.150000X0.587500X-0.150000X0.587500X-0.150000X-0.587500X0*%
%ADD20RoundRect,0.250000X-0.450000X-0.350000X0.450000X-0.350000X0.450000X0.350000X-0.450000X0.350000X0*%
%ADD21RoundRect,0.140000X-0.170000X0.140000X-0.170000X-0.140000X0.170000X-0.140000X0.170000X0.140000X0*%
%ADD22RoundRect,0.150000X0.150000X0.575000X-0.150000X0.575000X-0.150000X-0.575000X0.150000X-0.575000X0*%
%ADD23RoundRect,0.075000X0.075000X0.650000X-0.075000X0.650000X-0.075000X-0.650000X0.075000X-0.650000X0*%
%ADD24RoundRect,0.249999X-0.395001X-0.395001X0.395001X-0.395001X0.395001X0.395001X-0.395001X0.395001X0*%
%ADD25RoundRect,0.050000X-0.387500X-0.050000X0.387500X-0.050000X0.387500X0.050000X-0.387500X0.050000X0*%
%ADD26RoundRect,0.050000X-0.050000X-0.387500X0.050000X-0.387500X0.050000X0.387500X-0.050000X0.387500X0*%
%ADD27RoundRect,0.040000X-0.040000X-0.605000X0.040000X-0.605000X0.040000X0.605000X-0.040000X0.605000X0*%
%ADD28RoundRect,0.062500X-0.387500X-0.062500X0.387500X-0.062500X0.387500X0.062500X-0.387500X0.062500X0*%
G04 APERTURE END LIST*
D10*
%TO.C,C9*%
X165520000Y-74000000D03*
X166480000Y-74000000D03*
%TD*%
D11*
%TO.C,R3*%
X161550000Y-67509999D03*
X161550000Y-66490001D03*
%TD*%
D12*
%TO.C,C5*%
X164500000Y-68480000D03*
X164500000Y-67520000D03*
%TD*%
D13*
%TO.C,C1*%
X165660589Y-68339411D03*
X166339411Y-67660589D03*
%TD*%
D14*
%TO.C,SW1*%
X165000000Y-54400000D03*
X165000000Y-58600000D03*
%TD*%
D15*
%TO.C,R6*%
X157509999Y-63000000D03*
X156490001Y-63000000D03*
%TD*%
D16*
%TO.C,R1*%
X162000000Y-54490001D03*
X162000000Y-55509999D03*
%TD*%
D17*
%TO.C,C3*%
X154980000Y-74500000D03*
X154020000Y-74500000D03*
%TD*%
D12*
%TO.C,C16*%
X162000000Y-81202500D03*
X162000000Y-80242500D03*
%TD*%
D18*
%TO.C,C14*%
X156775000Y-55000000D03*
X155225000Y-55000000D03*
%TD*%
D17*
%TO.C,C17*%
X159480000Y-63000000D03*
X158520000Y-63000000D03*
%TD*%
D19*
%TO.C,U6*%
X156600000Y-58937500D03*
X158500000Y-58937500D03*
X157550000Y-57062500D03*
%TD*%
D20*
%TO.C,Y1*%
X158300000Y-81722500D03*
X160500000Y-81722500D03*
X160500000Y-80022500D03*
X158300000Y-80022500D03*
%TD*%
D12*
%TO.C,C6*%
X162000000Y-63980000D03*
X162000000Y-63020000D03*
%TD*%
D21*
%TO.C,C15*%
X156500000Y-80242500D03*
X156500000Y-81202500D03*
%TD*%
D15*
%TO.C,R5*%
X161009999Y-78500000D03*
X159990001Y-78500000D03*
%TD*%
D16*
%TO.C,R7*%
X165500000Y-60490001D03*
X165500000Y-61509999D03*
%TD*%
D12*
%TO.C,C12*%
X161000000Y-63960000D03*
X161000000Y-63000000D03*
%TD*%
D18*
%TO.C,C13*%
X156775000Y-61500000D03*
X155225000Y-61500000D03*
%TD*%
D22*
%TO.C,J1*%
X163740000Y-52885000D03*
X162940000Y-52885000D03*
D23*
X161740000Y-52885000D03*
X160740000Y-52885000D03*
X160240000Y-52885000D03*
X159240000Y-52885000D03*
D22*
X158040000Y-52885000D03*
X157240000Y-52885000D03*
X157240000Y-52885000D03*
X158040000Y-52885000D03*
D23*
X158740000Y-52885000D03*
X159740000Y-52885000D03*
X161240000Y-52885000D03*
X162240000Y-52885000D03*
D22*
X162940000Y-52885000D03*
X163740000Y-52885000D03*
%TD*%
D21*
%TO.C,C2*%
X162000000Y-78270000D03*
X162000000Y-79230000D03*
%TD*%
D24*
%TO.C,U1*%
X159690000Y-72137500D03*
X159690000Y-73737500D03*
X161290000Y-72137500D03*
X161290000Y-73737500D03*
D25*
X157052500Y-70337500D03*
X157052500Y-70737500D03*
X157052500Y-71137500D03*
X157052500Y-71537500D03*
X157052500Y-71937500D03*
X157052500Y-72337500D03*
X157052500Y-72737500D03*
X157052500Y-73137500D03*
X157052500Y-73537500D03*
X157052500Y-73937500D03*
X157052500Y-74337500D03*
X157052500Y-74737500D03*
X157052500Y-75137500D03*
X157052500Y-75537500D03*
D26*
X157890000Y-76375000D03*
X158290000Y-76375000D03*
X158690000Y-76375000D03*
X159090000Y-76375000D03*
X159490000Y-76375000D03*
X159890000Y-76375000D03*
X160290000Y-76375000D03*
X160690000Y-76375000D03*
X161090000Y-76375000D03*
X161490000Y-76375000D03*
X161890000Y-76375000D03*
X162290000Y-76375000D03*
X162690000Y-76375000D03*
X163090000Y-76375000D03*
D25*
X163927500Y-75537500D03*
X163927500Y-75137500D03*
X163927500Y-74737500D03*
X163927500Y-74337500D03*
X163927500Y-73937500D03*
X163927500Y-73537500D03*
X163927500Y-73137500D03*
X163927500Y-72737500D03*
X163927500Y-72337500D03*
X163927500Y-71937500D03*
X163927500Y-71537500D03*
X163927500Y-71137500D03*
X163927500Y-70737500D03*
X163927500Y-70337500D03*
D26*
X163090000Y-69500000D03*
X162690000Y-69500000D03*
X162290000Y-69500000D03*
X161890000Y-69500000D03*
X161490000Y-69500000D03*
X161090000Y-69500000D03*
X160690000Y-69500000D03*
X160290000Y-69500000D03*
X159890000Y-69500000D03*
X159490000Y-69500000D03*
X159090000Y-69500000D03*
X158690000Y-69500000D03*
X158290000Y-69500000D03*
X157890000Y-69500000D03*
%TD*%
D16*
%TO.C,R4*%
X162550000Y-66490001D03*
X162550000Y-67509999D03*
%TD*%
D27*
%TO.C,U3*%
X158000000Y-64750000D03*
D28*
X156575000Y-64000000D03*
X156575000Y-64500000D03*
X156575000Y-65000000D03*
X156575000Y-65500000D03*
X159425000Y-65500000D03*
X159425000Y-65000000D03*
X159425000Y-64500000D03*
X159425000Y-64000000D03*
%TD*%
D10*
%TO.C,C8*%
X165020000Y-69500000D03*
X165980000Y-69500000D03*
%TD*%
D21*
%TO.C,C10*%
X163000000Y-78270000D03*
X163000000Y-79230000D03*
%TD*%
D12*
%TO.C,C7*%
X163000000Y-61980000D03*
X163000000Y-61020000D03*
%TD*%
D11*
%TO.C,R2*%
X158500000Y-55509999D03*
X158500000Y-54490001D03*
%TD*%
D12*
%TO.C,C11*%
X163500000Y-67980000D03*
X163500000Y-67020000D03*
%TD*%
D17*
%TO.C,C4*%
X155980000Y-68500000D03*
X155020000Y-68500000D03*
%TD*%
M02*
