%TF.GenerationSoftware,KiCad,Pcbnew,10.0.1*%
%TF.CreationDate,2026-05-06T21:45:56-04:00*%
%TF.ProjectId,devboard,64657662-6f61-4726-942e-6b696361645f,rev?*%
%TF.SameCoordinates,Original*%
%TF.FileFunction,Copper,L4,Bot*%
%TF.FilePolarity,Positive*%
%FSLAX46Y46*%
G04 Gerber Fmt 4.6, Leading zero omitted, Abs format (unit mm)*
G04 Created by KiCad (PCBNEW 10.0.1) date 2026-05-06 21:45:56*
%MOMM*%
%LPD*%
G01*
G04 APERTURE LIST*
G04 Aperture macros list*
%AMRoundRect*
0 Rectangle with rounded corners*
0 $1 Rounding radius*
0 $2 $3 $4 $5 $6 $7 $8 $9 X,Y pos of 4 corners*
0 Add a 4 corners polygon primitive as box body*
4,1,4,$2,$3,$4,$5,$6,$7,$8,$9,$2,$3,0*
0 Add four circle primitives for the rounded corners*
1,1,$1+$1,$2,$3*
1,1,$1+$1,$4,$5*
1,1,$1+$1,$6,$7*
1,1,$1+$1,$8,$9*
0 Add four rect primitives between the rounded corners*
20,1,$1+$1,$2,$3,$4,$5,0*
20,1,$1+$1,$4,$5,$6,$7,0*
20,1,$1+$1,$6,$7,$8,$9,0*
20,1,$1+$1,$8,$9,$2,$3,0*%
G04 Aperture macros list end*
%TA.AperFunction,ComponentPad*%
%ADD10RoundRect,0.250001X1.149999X-1.149999X1.149999X1.149999X-1.149999X1.149999X-1.149999X-1.149999X0*%
%TD*%
%TA.AperFunction,ComponentPad*%
%ADD11C,2.800000*%
%TD*%
%TA.AperFunction,ComponentPad*%
%ADD12R,2.600000X2.600000*%
%TD*%
%TA.AperFunction,ComponentPad*%
%ADD13C,2.600000*%
%TD*%
%TA.AperFunction,ComponentPad*%
%ADD14RoundRect,0.250001X-1.149999X1.149999X-1.149999X-1.149999X1.149999X-1.149999X1.149999X1.149999X0*%
%TD*%
%TA.AperFunction,ComponentPad*%
%ADD15R,1.700000X1.700000*%
%TD*%
%TA.AperFunction,ComponentPad*%
%ADD16C,1.700000*%
%TD*%
%TA.AperFunction,ComponentPad*%
%ADD17O,1.000000X2.100000*%
%TD*%
%TA.AperFunction,ComponentPad*%
%ADD18O,1.000000X1.600000*%
%TD*%
%TA.AperFunction,SMDPad,CuDef*%
%ADD19RoundRect,0.140000X-0.140000X-0.170000X0.140000X-0.170000X0.140000X0.170000X-0.140000X0.170000X0*%
%TD*%
%TA.AperFunction,SMDPad,CuDef*%
%ADD20RoundRect,0.218750X-0.218750X-0.381250X0.218750X-0.381250X0.218750X0.381250X-0.218750X0.381250X0*%
%TD*%
%TA.AperFunction,SMDPad,CuDef*%
%ADD21RoundRect,0.140000X0.170000X-0.140000X0.170000X0.140000X-0.170000X0.140000X-0.170000X-0.140000X0*%
%TD*%
%TA.AperFunction,SMDPad,CuDef*%
%ADD22RoundRect,0.250000X-0.650000X0.325000X-0.650000X-0.325000X0.650000X-0.325000X0.650000X0.325000X0*%
%TD*%
%TA.AperFunction,SMDPad,CuDef*%
%ADD23RoundRect,0.100000X0.100000X-0.850000X0.100000X0.850000X-0.100000X0.850000X-0.100000X-0.850000X0*%
%TD*%
%TA.AperFunction,SMDPad,CuDef*%
%ADD24RoundRect,0.250000X0.475000X-0.250000X0.475000X0.250000X-0.475000X0.250000X-0.475000X-0.250000X0*%
%TD*%
%TA.AperFunction,SMDPad,CuDef*%
%ADD25RoundRect,0.225000X-0.225000X-0.250000X0.225000X-0.250000X0.225000X0.250000X-0.225000X0.250000X0*%
%TD*%
%TA.AperFunction,SMDPad,CuDef*%
%ADD26RoundRect,0.250000X1.000000X0.650000X-1.000000X0.650000X-1.000000X-0.650000X1.000000X-0.650000X0*%
%TD*%
%TA.AperFunction,SMDPad,CuDef*%
%ADD27RoundRect,0.150000X0.150000X-0.512500X0.150000X0.512500X-0.150000X0.512500X-0.150000X-0.512500X0*%
%TD*%
%TA.AperFunction,ViaPad*%
%ADD28C,0.600000*%
%TD*%
%TA.AperFunction,Conductor*%
%ADD29C,0.200000*%
%TD*%
G04 APERTURE END LIST*
D10*
%TO.P,J6,1,Pin_1_1*%
%TO.N,/Motor and Power/AO1*%
X156467500Y-94000000D03*
D11*
%TO.P,J6,2,Pin_2_2*%
%TO.N,/Motor and Power/AO2*%
X156467500Y-89000000D03*
%TD*%
D12*
%TO.P,J5,1*%
%TO.N,/Motor and Power/+12V*%
X156750000Y-100300000D03*
D13*
%TO.P,J5,2*%
%TO.N,GND*%
X156750000Y-106300000D03*
%TO.P,J5,3*%
%TO.N,/Motor and Power/+12V*%
X161450000Y-103300000D03*
%TD*%
D14*
%TO.P,J7,1,Pin_1_1*%
%TO.N,/Motor and Power/BO1*%
X164500000Y-89500000D03*
D11*
%TO.P,J7,2,Pin_2_2*%
%TO.N,/Motor and Power/BO2*%
X164500000Y-94500000D03*
%TD*%
D15*
%TO.P,J2,1,Pin_1_1*%
%TO.N,GPIO0*%
X151760000Y-48120000D03*
D16*
%TO.P,J2,2,Pin_2_2*%
%TO.N,GPIO1*%
X151760000Y-50660000D03*
%TO.P,J2,3,Pin_3_3*%
%TO.N,GND*%
X151760000Y-53200000D03*
%TO.P,J2,4,Pin_4_4*%
%TO.N,AIN1*%
X151760000Y-55740000D03*
%TO.P,J2,5,Pin_5_5*%
%TO.N,AIN2*%
X151760000Y-58280000D03*
%TO.P,J2,6,Pin_6_6*%
%TO.N,PWMA*%
X151760000Y-60820000D03*
%TO.P,J2,7,Pin_7_7*%
%TO.N,BIN1*%
X151760000Y-63360000D03*
%TO.P,J2,8,Pin_8_8*%
%TO.N,GND*%
X151760000Y-65900000D03*
%TO.P,J2,9,Pin_9_9*%
%TO.N,BIN2*%
X151760000Y-68440000D03*
%TO.P,J2,10,Pin_10_10*%
%TO.N,PWMB*%
X151760000Y-70980000D03*
%TO.P,J2,11,Pin_11_11*%
%TO.N,GPIO8*%
X151760000Y-73520000D03*
%TO.P,J2,12,Pin_12_12*%
%TO.N,GPIO9*%
X151760000Y-76060000D03*
%TO.P,J2,13,Pin_13_13*%
%TO.N,GND*%
X151760000Y-78600000D03*
%TO.P,J2,14,Pin_14_14*%
%TO.N,GPIO10*%
X151760000Y-81140000D03*
%TO.P,J2,15,Pin_15_15*%
%TO.N,GPIO11*%
X151760000Y-83680000D03*
%TO.P,J2,16,Pin_16_16*%
%TO.N,GPIO12*%
X151760000Y-86220000D03*
%TO.P,J2,17,Pin_17_17*%
%TO.N,GPIO13*%
X151760000Y-88760000D03*
%TO.P,J2,18,Pin_18_18*%
%TO.N,GND*%
X151760000Y-91300000D03*
%TO.P,J2,19,Pin_19_19*%
%TO.N,GPIO14*%
X151760000Y-93840000D03*
%TO.P,J2,20,Pin_20_20*%
%TO.N,GPIO15*%
X151760000Y-96380000D03*
%TD*%
D17*
%TO.P,J1,SH,SHIELD_SH*%
%TO.N,GND*%
X164810000Y-51970000D03*
D18*
X164810000Y-47790000D03*
D17*
X156170000Y-51970000D03*
D18*
X156170000Y-47790000D03*
%TD*%
D15*
%TO.P,J3,1,Pin_1_1*%
%TO.N,VBUS*%
X169540000Y-48120000D03*
D16*
%TO.P,J3,2,Pin_2_2*%
%TO.N,GPIO29_ADC3*%
X169540000Y-50660000D03*
%TO.P,J3,3,Pin_3_3*%
%TO.N,GND*%
X169540000Y-53200000D03*
%TO.P,J3,4,Pin_4_4*%
%TO.N,GPIO28_ADC2*%
X169540000Y-55740000D03*
%TO.P,J3,5,Pin_5_5*%
%TO.N,+3V3*%
X169540000Y-58280000D03*
%TO.P,J3,6,Pin_6_6*%
%TO.N,GPIO27_ADC1*%
X169540000Y-60820000D03*
%TO.P,J3,7,Pin_7_7*%
%TO.N,GPIO26_ADC0*%
X169540000Y-63360000D03*
%TO.P,J3,8,Pin_8_8*%
%TO.N,GND*%
X169540000Y-65900000D03*
%TO.P,J3,9,Pin_9_9*%
%TO.N,GPIO24*%
X169540000Y-68440000D03*
%TO.P,J3,10,Pin_10_10*%
%TO.N,GPIO23*%
X169540000Y-70980000D03*
%TO.P,J3,11,Pin_11_11*%
%TO.N,RUN*%
X169540000Y-73520000D03*
%TO.P,J3,12,Pin_12_12*%
%TO.N,GPIO22*%
X169540000Y-76060000D03*
%TO.P,J3,13,Pin_13_13*%
%TO.N,GND*%
X169540000Y-78600000D03*
%TO.P,J3,14,Pin_14_14*%
%TO.N,GPIO21*%
X169540000Y-81140000D03*
%TO.P,J3,15,Pin_15_15*%
%TO.N,GPIO20*%
X169540000Y-83680000D03*
%TO.P,J3,16,Pin_16_16*%
%TO.N,GPIO19*%
X169540000Y-86220000D03*
%TO.P,J3,17,Pin_17_17*%
%TO.N,GPIO18*%
X169540000Y-88760000D03*
%TO.P,J3,18,Pin_18_18*%
%TO.N,GND*%
X169540000Y-91300000D03*
%TO.P,J3,19,Pin_19_19*%
%TO.N,GPIO17*%
X169540000Y-93840000D03*
%TO.P,J3,20,Pin_20_20*%
%TO.N,GPIO16*%
X169540000Y-96380000D03*
%TD*%
D19*
%TO.P,C19,1*%
%TO.N,/Motor and Power/+12V*%
X155020000Y-65500000D03*
%TO.P,C19,2*%
%TO.N,GND*%
X155980000Y-65500000D03*
%TD*%
D20*
%TO.P,L1,1,1_1*%
%TO.N,Net-(U4-SW)*%
X155937500Y-56000000D03*
%TO.P,L1,2,2_2*%
%TO.N,+3V3_BUCK*%
X158062500Y-56000000D03*
%TD*%
D21*
%TO.P,C25,1*%
%TO.N,GND*%
X156500000Y-74980000D03*
%TO.P,C25,2*%
%TO.N,+3V3*%
X156500000Y-74020000D03*
%TD*%
%TO.P,C22,1*%
%TO.N,Net-(U4-BST)*%
X157000000Y-58480000D03*
%TO.P,C22,2*%
%TO.N,Net-(U4-SW)*%
X157000000Y-57520000D03*
%TD*%
D22*
%TO.P,C23,1*%
%TO.N,/Motor and Power/+12V*%
X165500000Y-78524999D03*
%TO.P,C23,2*%
%TO.N,GND*%
X165500000Y-81475001D03*
%TD*%
D23*
%TO.P,U5,1,AO1_1*%
%TO.N,/Motor and Power/AO1*%
X162900000Y-84500000D03*
%TO.P,U5,2,AO1_2*%
X162250000Y-84500000D03*
%TO.P,U5,3,PGND1_3*%
%TO.N,GND*%
X161600000Y-84500000D03*
%TO.P,U5,4,PGND1_4*%
X160950000Y-84500000D03*
%TO.P,U5,5,AO2_5*%
%TO.N,/Motor and Power/AO2*%
X160300000Y-84500000D03*
%TO.P,U5,6,AO2_6*%
X159650000Y-84500000D03*
%TO.P,U5,7,BO2_7*%
%TO.N,/Motor and Power/BO2*%
X159000000Y-84500000D03*
%TO.P,U5,8,BO2_8*%
X158350000Y-84500000D03*
%TO.P,U5,9,PGND2_9*%
%TO.N,GND*%
X157700000Y-84500000D03*
%TO.P,U5,10,PGND2_10*%
X157050000Y-84500000D03*
%TO.P,U5,11,BO1_11*%
%TO.N,/Motor and Power/BO1*%
X156400000Y-84500000D03*
%TO.P,U5,12,BO1_12*%
X155750000Y-84500000D03*
%TO.P,U5,13,VM2_13*%
%TO.N,/Motor and Power/+12V*%
X155750000Y-77500000D03*
%TO.P,U5,14,VM3_14*%
X156400000Y-77500000D03*
%TO.P,U5,15,PWMB_15*%
%TO.N,PWMB*%
X157050000Y-77500000D03*
%TO.P,U5,16,BIN2_16*%
%TO.N,BIN2*%
X157700000Y-77500000D03*
%TO.P,U5,17,BIN1_17*%
%TO.N,BIN1*%
X158350000Y-77500000D03*
%TO.P,U5,18,GND_18*%
%TO.N,GND*%
X159000000Y-77500000D03*
%TO.P,U5,19,STBY_19*%
%TO.N,+3V3*%
X159650000Y-77500000D03*
%TO.P,U5,20,VCC_20*%
X160300000Y-77500000D03*
%TO.P,U5,21,AIN1_21*%
%TO.N,AIN1*%
X160950000Y-77500000D03*
%TO.P,U5,22,AIN2_22*%
%TO.N,AIN2*%
X161600000Y-77500000D03*
%TO.P,U5,23,PWMA_23*%
%TO.N,PWMA*%
X162250000Y-77500000D03*
%TO.P,U5,24,VM1_24*%
%TO.N,/Motor and Power/+12V*%
X162900000Y-77500000D03*
%TD*%
D21*
%TO.P,C21,1*%
%TO.N,+3V3_BUCK*%
X160500000Y-53480000D03*
%TO.P,C21,2*%
%TO.N,GND*%
X160500000Y-52520000D03*
%TD*%
D24*
%TO.P,C20,1*%
%TO.N,+3V3_BUCK*%
X159000000Y-53449999D03*
%TO.P,C20,2*%
%TO.N,GND*%
X159000000Y-51550001D03*
%TD*%
D25*
%TO.P,C18,1*%
%TO.N,/Motor and Power/+12V*%
X155225000Y-64000000D03*
%TO.P,C18,2*%
%TO.N,GND*%
X156775000Y-64000000D03*
%TD*%
D26*
%TO.P,D1,1,K_1*%
%TO.N,+3V3*%
X164500000Y-56000000D03*
%TO.P,D1,2,A_2*%
%TO.N,+3V3_BUCK*%
X160500000Y-56000000D03*
%TD*%
D27*
%TO.P,U4,1,FB_1*%
%TO.N,+3V3_BUCK*%
X157449999Y-62137500D03*
%TO.P,U4,2,EN_2*%
%TO.N,/Motor and Power/+12V*%
X156500000Y-62137500D03*
%TO.P,U4,3,IN_3*%
X155550001Y-62137500D03*
%TO.P,U4,4,GND_4*%
%TO.N,GND*%
X155550001Y-59862500D03*
%TO.P,U4,5,SW_5*%
%TO.N,Net-(U4-SW)*%
X156500000Y-59862500D03*
%TO.P,U4,6,BST_6*%
%TO.N,Net-(U4-BST)*%
X157449999Y-59862500D03*
%TD*%
D19*
%TO.P,C24,1*%
%TO.N,/Motor and Power/+12V*%
X165020000Y-77000000D03*
%TO.P,C24,2*%
%TO.N,GND*%
X165980000Y-77000000D03*
%TD*%
D26*
%TO.P,D2,1,K_1*%
%TO.N,+3V3*%
X164500000Y-59500000D03*
%TO.P,D2,2,A_2*%
%TO.N,/+3V3_USB*%
X160500000Y-59500000D03*
%TD*%
D28*
%TO.N,+3V3*%
X165660589Y-68339411D03*
X163000000Y-63000000D03*
X160512558Y-75464400D03*
X165510000Y-73990000D03*
X160190000Y-63821711D03*
X162000000Y-64500000D03*
X155980000Y-69000000D03*
X154990000Y-74490000D03*
X160890000Y-68500000D03*
%TO.N,GND*%
X154020000Y-74500000D03*
X159490000Y-75500000D03*
X153500000Y-77000000D03*
X166000000Y-63500000D03*
X156500000Y-82500000D03*
X157000000Y-86000000D03*
X160500000Y-61000000D03*
X158500000Y-63500000D03*
X163000000Y-54500000D03*
X168500000Y-79500000D03*
X166000000Y-76000000D03*
X157500000Y-83000000D03*
X163000000Y-79230000D03*
X164500000Y-66000000D03*
X165000000Y-54400000D03*
X155000000Y-86000000D03*
X158500000Y-63500000D03*
X165500000Y-57500000D03*
X160500000Y-86000000D03*
X162000000Y-61000000D03*
X163000000Y-86000000D03*
X158500000Y-63500000D03*
X164000000Y-57500000D03*
X158500000Y-86000000D03*
X157000000Y-66500000D03*
X155000000Y-68000000D03*
X160500000Y-72500000D03*
X167500000Y-95500000D03*
X166511299Y-74304502D03*
X155000000Y-58000000D03*
X160000000Y-57500000D03*
X157167969Y-79350000D03*
X155550001Y-59500000D03*
X155000000Y-91500000D03*
X155000000Y-57000000D03*
%TO.N,/Motor and Power/+12V*%
X165450000Y-97550000D03*
%TO.N,QSPI_SS*%
X160500000Y-61990000D03*
X165000000Y-65000000D03*
%TO.N,GPIO0*%
X155890570Y-70109430D03*
%TO.N,GPIO1*%
X155014214Y-70165685D03*
%TO.N,AIN1*%
X157983950Y-71005022D03*
X155000000Y-71000000D03*
%TO.N,AIN2*%
X159000000Y-70837498D03*
%TO.N,PWMA*%
X158390001Y-72296026D03*
%TO.N,BIN1*%
X158364697Y-75437891D03*
%TO.N,/+3V3_USB*%
X158687499Y-61345403D03*
%TO.N,+1V1*%
X160639646Y-67710355D03*
X162294204Y-70316049D03*
%TO.N,RUN*%
X162996866Y-71799996D03*
%TO.N,GPIO28_ADC2*%
X166500000Y-62500000D03*
X163000000Y-71000000D03*
X166500000Y-55500000D03*
%TO.N,GPIO29_ADC3*%
X167500000Y-62000000D03*
X164860000Y-70500000D03*
%TD*%
%TO.N,+3V3*%
D29*
X165660589Y-65660589D02*
X165660589Y-68339411D01*
X160890000Y-65610000D02*
X161000000Y-65500000D01*
X155030000Y-74490000D02*
X156500000Y-73020000D01*
X160368289Y-64000000D02*
X160190000Y-63821711D01*
X156500000Y-73000000D02*
X156624073Y-72875927D01*
X160300000Y-77500000D02*
X159650000Y-77500000D01*
X161000000Y-65500000D02*
X162000000Y-64500000D01*
X165600000Y-64751471D02*
X165600000Y-65248529D01*
X166000000Y-56000000D02*
X166500000Y-56500000D01*
X163175000Y-61825000D02*
X163175000Y-63175000D01*
X156624073Y-72875927D02*
X156990001Y-72875927D01*
X154990000Y-74490000D02*
X155030000Y-74490000D01*
X160580761Y-68500000D02*
X159850000Y-67769239D01*
X160300000Y-75390761D02*
X160300000Y-77500000D01*
X156500000Y-74020000D02*
X156500000Y-73000000D01*
X164000000Y-61000000D02*
X163175000Y-61825000D01*
X166500000Y-56500000D02*
X166500000Y-57500000D01*
X163175000Y-63175000D02*
X164400000Y-64400000D01*
X159218628Y-74850000D02*
X159759239Y-74850000D01*
X166500000Y-59000000D02*
X166000000Y-59500000D01*
X160890000Y-68500000D02*
X160580761Y-68500000D01*
X164500000Y-56000000D02*
X166000000Y-56000000D01*
X158301471Y-73932843D02*
X159218628Y-74850000D01*
X167000000Y-59000000D02*
X167000000Y-60000000D01*
X158046918Y-73932843D02*
X158301471Y-73932843D01*
X156500000Y-73020000D02*
X156500000Y-73000000D01*
X165424265Y-65424265D02*
X165660589Y-65660589D01*
X159759239Y-74850000D02*
X160300000Y-75390761D01*
X156990001Y-72875927D02*
X158046918Y-73932843D01*
X167000000Y-59000000D02*
X167720000Y-58280000D01*
X166500000Y-57500000D02*
X166500000Y-59000000D01*
X166500000Y-57500000D02*
X167000000Y-58000000D01*
X161000000Y-64500000D02*
X160500000Y-64000000D01*
X165600000Y-65248529D02*
X165424265Y-65424265D01*
X164400000Y-64400000D02*
X165248529Y-64400000D01*
X161000000Y-65500000D02*
X161000000Y-64500000D01*
X167720000Y-58280000D02*
X169540000Y-58280000D01*
X159850000Y-67230761D02*
X160890000Y-66190761D01*
X167000000Y-58000000D02*
X167000000Y-59000000D01*
X160500000Y-64000000D02*
X160368289Y-64000000D01*
X160890000Y-66190761D02*
X160890000Y-65610000D01*
X166000000Y-61000000D02*
X164000000Y-61000000D01*
X165248529Y-64400000D02*
X165600000Y-64751471D01*
X166000000Y-59500000D02*
X164500000Y-59500000D01*
X159850000Y-67769239D02*
X159850000Y-67230761D01*
X167000000Y-60000000D02*
X166000000Y-61000000D01*
%TO.N,GND*%
X154800000Y-91300000D02*
X155000000Y-91500000D01*
X154020000Y-72000000D02*
X155000000Y-72000000D01*
X156775000Y-64000000D02*
X158000000Y-64000000D01*
X169540000Y-91300000D02*
X167500000Y-93340000D01*
X165980000Y-76020000D02*
X166000000Y-76000000D01*
X157000000Y-69000000D02*
X156000000Y-68000000D01*
X160500000Y-86000000D02*
X160950000Y-85550000D01*
X160500000Y-71488969D02*
X160500000Y-72500000D01*
X158000000Y-64000000D02*
X158500000Y-63500000D01*
X152510000Y-79350000D02*
X157167969Y-79350000D01*
X151760000Y-91300000D02*
X154800000Y-91300000D01*
X157050000Y-84500000D02*
X157700000Y-84500000D01*
X157000000Y-84550000D02*
X157050000Y-84500000D01*
X161600000Y-84500000D02*
X160950000Y-84500000D01*
X165980000Y-77000000D02*
X165980000Y-76020000D01*
X156500000Y-70500000D02*
X157000000Y-70000000D01*
X159000000Y-75990000D02*
X159490000Y-75500000D01*
X154020000Y-72000000D02*
X154020000Y-70585685D01*
X157000000Y-86000000D02*
X157000000Y-84550000D01*
X155550001Y-58550001D02*
X155000000Y-58000000D01*
X153000000Y-67140000D02*
X151760000Y-65900000D01*
X155980000Y-65500000D02*
X155980000Y-64795000D01*
X154020000Y-74500000D02*
X154610000Y-75090000D01*
X155000000Y-72000000D02*
X156500000Y-70500000D01*
X154020000Y-74500000D02*
X154020000Y-72000000D01*
X153000000Y-69565685D02*
X153000000Y-67140000D01*
X163000000Y-79230000D02*
X163254999Y-79230000D01*
X155550001Y-59862500D02*
X155550001Y-59500000D01*
X156000000Y-68000000D02*
X155000000Y-68000000D01*
X158500000Y-86000000D02*
X158250001Y-86000000D01*
X158250001Y-86000000D02*
X157700000Y-85449999D01*
X155550001Y-59500000D02*
X155550001Y-58550001D01*
X159000000Y-77500000D02*
X159000000Y-75990000D01*
X156390000Y-75090000D02*
X156500000Y-74980000D01*
X156642109Y-74837891D02*
X156500000Y-74980000D01*
X156500000Y-70500000D02*
X156762502Y-70237498D01*
X155980000Y-64795000D02*
X156775000Y-64000000D01*
X151760000Y-78600000D02*
X152510000Y-79350000D01*
X156762502Y-70237498D02*
X159248529Y-70237498D01*
X159248529Y-70237498D02*
X160500000Y-71488969D01*
X163254999Y-79230000D02*
X165500000Y-81475001D01*
X154610000Y-75090000D02*
X156390000Y-75090000D01*
X167500000Y-93340000D02*
X167500000Y-95500000D01*
X157700000Y-85449999D02*
X157700000Y-84500000D01*
X157000000Y-70000000D02*
X157000000Y-69000000D01*
X154020000Y-70585685D02*
X153000000Y-69565685D01*
X160950000Y-85550000D02*
X160950000Y-84500000D01*
%TO.N,/Motor and Power/AO1*%
X162250000Y-86750000D02*
X156467500Y-92532500D01*
X162250000Y-84500000D02*
X162250000Y-86750000D01*
X162250000Y-84500000D02*
X162900000Y-84500000D01*
X156467500Y-92532500D02*
X156467500Y-94000000D01*
%TO.N,/Motor and Power/AO2*%
X159650000Y-84500000D02*
X159650000Y-85817500D01*
X159650000Y-84500000D02*
X160300000Y-84500000D01*
X159650000Y-85817500D02*
X156467500Y-89000000D01*
%TO.N,/Motor and Power/+12V*%
X155225000Y-64000000D02*
X154110000Y-64000000D01*
X164000000Y-75400000D02*
X162622426Y-75400000D01*
X162599999Y-78750000D02*
X162900000Y-78449999D01*
X164000000Y-77000000D02*
X165020000Y-77000000D01*
X163500000Y-77500000D02*
X164000000Y-77000000D01*
X166500000Y-96450000D02*
X166500000Y-87565686D01*
X154110000Y-65500000D02*
X154110000Y-64000000D01*
X155550001Y-62137500D02*
X154187501Y-63500000D01*
X155870761Y-66290000D02*
X154900000Y-66290000D01*
X165450000Y-97500000D02*
X166500000Y-96450000D01*
X156000000Y-77500000D02*
X156400000Y-77500000D01*
X162550000Y-75327574D02*
X162550000Y-74602577D01*
X155225000Y-64000000D02*
X155225000Y-65295000D01*
X162900000Y-77500000D02*
X163500000Y-77500000D01*
X166900000Y-83834314D02*
X166500000Y-83434314D01*
X162251471Y-74304048D02*
X162251471Y-71751471D01*
X166700000Y-81300000D02*
X167000000Y-81000000D01*
X155550001Y-63674999D02*
X155225000Y-64000000D01*
X162900000Y-78449999D02*
X162900000Y-77500000D01*
X156000000Y-77968456D02*
X156781544Y-78750000D01*
X154900000Y-66290000D02*
X154110000Y-65500000D01*
X167000000Y-81000000D02*
X167000000Y-76100000D01*
X162622426Y-75400000D02*
X162550000Y-75327574D01*
X156781544Y-78750000D02*
X162599999Y-78750000D01*
X166500000Y-83434314D02*
X166500000Y-82234745D01*
X164000000Y-77000000D02*
X164000000Y-75400000D01*
X166700000Y-82034745D02*
X166700000Y-81300000D01*
X166500000Y-82234745D02*
X166700000Y-82034745D01*
X155020000Y-65500000D02*
X154110000Y-65500000D01*
X166500000Y-87565686D02*
X166900000Y-87165686D01*
X154110000Y-64000000D02*
X154110000Y-63500000D01*
X166900000Y-87165686D02*
X166900000Y-83834314D01*
X162550000Y-74602577D02*
X162251471Y-74304048D01*
X156730761Y-67150000D02*
X155870761Y-66290000D01*
X165020000Y-77000000D02*
X165020000Y-78044999D01*
X165020000Y-78044999D02*
X165500000Y-78524999D01*
X155550001Y-62137500D02*
X155550001Y-63674999D01*
X155550001Y-62137500D02*
X156500000Y-62137500D01*
X155750000Y-77500000D02*
X156000000Y-77500000D01*
X155225000Y-65295000D02*
X155020000Y-65500000D01*
X167000000Y-76100000D02*
X166300000Y-75400000D01*
X154187501Y-63500000D02*
X154110000Y-63500000D01*
X157650000Y-67150000D02*
X156730761Y-67150000D01*
X162251471Y-71751471D02*
X157650000Y-67150000D01*
X165450000Y-97550000D02*
X165450000Y-97500000D01*
X156000000Y-77500000D02*
X156000000Y-77968456D01*
X166300000Y-75400000D02*
X164000000Y-75400000D01*
%TO.N,QSPI_SS*%
X162000000Y-63000000D02*
X164000000Y-65000000D01*
X160500000Y-61990000D02*
X161510000Y-63000000D01*
X164000000Y-65000000D02*
X165000000Y-65000000D01*
X161510000Y-63000000D02*
X162000000Y-63000000D01*
%TO.N,/Motor and Power/BO1*%
X163000000Y-80000000D02*
X163500000Y-80500000D01*
X165500000Y-83000000D02*
X166500000Y-84000000D01*
X164500000Y-83000000D02*
X165500000Y-83000000D01*
X166500000Y-87000000D02*
X164500000Y-89000000D01*
X166500000Y-84000000D02*
X166500000Y-87000000D01*
X164500000Y-89000000D02*
X164500000Y-89500000D01*
X163500000Y-82000000D02*
X164500000Y-83000000D01*
X155750000Y-80250000D02*
X156000000Y-80000000D01*
X156000000Y-80000000D02*
X163000000Y-80000000D01*
X163500000Y-80500000D02*
X163500000Y-82000000D01*
X155750000Y-84500000D02*
X155750000Y-80250000D01*
X156400000Y-84500000D02*
X155750000Y-84500000D01*
%TO.N,/Motor and Power/BO2*%
X162000000Y-92000000D02*
X164500000Y-94500000D01*
X162000000Y-88000000D02*
X162000000Y-92000000D01*
X159000000Y-83550001D02*
X160050001Y-82500000D01*
X163000000Y-82500000D02*
X164000000Y-83500000D01*
X159000000Y-84500000D02*
X159000000Y-83550001D01*
X164000000Y-86000000D02*
X162000000Y-88000000D01*
X164000000Y-83500000D02*
X164000000Y-86000000D01*
X160050001Y-82500000D02*
X163000000Y-82500000D01*
X158350000Y-84500000D02*
X159000000Y-84500000D01*
%TO.N,GPIO0*%
X154500000Y-57348529D02*
X154400000Y-57248529D01*
X154463984Y-67600000D02*
X154500000Y-67600000D01*
X153944315Y-63100000D02*
X154021815Y-63100000D01*
X154500000Y-59348529D02*
X154400000Y-59248529D01*
X154400000Y-57248529D02*
X154400000Y-57000000D01*
X154400000Y-59248529D02*
X154400000Y-58751471D01*
X154021815Y-63100000D02*
X154500000Y-62621815D01*
X154500000Y-67600000D02*
X154500000Y-66455686D01*
X154400000Y-57751471D02*
X154500000Y-57651471D01*
X154500000Y-68436017D02*
X154463983Y-68400000D01*
X154500000Y-62621815D02*
X154500000Y-59348529D01*
X154500000Y-58651471D02*
X154500000Y-58348529D01*
X154500000Y-58348529D02*
X154400000Y-58248529D01*
X154400000Y-58248529D02*
X154400000Y-57751471D01*
X154463983Y-68400000D02*
X154334315Y-68400000D01*
X154400000Y-57000000D02*
X153400000Y-56000000D01*
X153400000Y-49760000D02*
X151760000Y-48120000D01*
X153400000Y-56000000D02*
X153400000Y-49760000D01*
X154400000Y-58751471D02*
X154500000Y-58651471D01*
X154229669Y-68165685D02*
X154229669Y-67834315D01*
X155890570Y-70109430D02*
X154500000Y-68718860D01*
X154334315Y-68400000D02*
X154399149Y-68335166D01*
X154229669Y-67834315D02*
X154463984Y-67600000D01*
X153710000Y-63334315D02*
X153944315Y-63100000D01*
X153710000Y-65665685D02*
X153710000Y-63334315D01*
X154399149Y-68335166D02*
X154229669Y-68165685D01*
X154500000Y-66455686D02*
X153710000Y-65665685D01*
X154500000Y-68718860D02*
X154500000Y-68436017D01*
X154500000Y-57651471D02*
X154500000Y-57348529D01*
%TO.N,GPIO1*%
X154100000Y-68731371D02*
X153934315Y-68565685D01*
X153500000Y-62978630D02*
X153500000Y-56914314D01*
X154100000Y-68884545D02*
X154100000Y-68731371D01*
X154500000Y-69284546D02*
X154100000Y-68884545D01*
X153500000Y-56914314D02*
X153000000Y-56414314D01*
X154000000Y-67498299D02*
X154000000Y-66521372D01*
X153934315Y-68565685D02*
X153934315Y-68436017D01*
X153829669Y-67668629D02*
X154000000Y-67498299D01*
X155014214Y-70165685D02*
X154731371Y-70165685D01*
X154000000Y-66521372D02*
X153310000Y-65831370D01*
X153000000Y-51900000D02*
X151760000Y-50660000D01*
X153310000Y-65831370D02*
X153310000Y-63168629D01*
X153310000Y-63168629D02*
X153500000Y-62978630D01*
X153934315Y-68436017D02*
X153829669Y-68331370D01*
X154500000Y-69934314D02*
X154500000Y-69284546D01*
X153000000Y-56414314D02*
X153000000Y-51900000D01*
X153829669Y-68331370D02*
X153829669Y-67668629D01*
X154731371Y-70165685D02*
X154500000Y-69934314D01*
%TO.N,AIN1*%
X153429669Y-68497053D02*
X153429670Y-67502942D01*
X160950000Y-75946197D02*
X160950000Y-77500000D01*
X153100000Y-57080000D02*
X151760000Y-55740000D01*
X157983950Y-71005022D02*
X157494978Y-71005022D01*
X161162558Y-75195161D02*
X161162558Y-75733639D01*
X153700000Y-69050230D02*
X153700000Y-68897056D01*
X157390001Y-71109999D02*
X157390001Y-72710241D01*
X155000000Y-70765685D02*
X154765685Y-70765685D01*
X153429670Y-67502942D02*
X153500000Y-67432613D01*
X153500000Y-68697056D02*
X153500000Y-68567386D01*
X160289325Y-74814400D02*
X160781797Y-74814400D01*
X152910001Y-63002943D02*
X153100000Y-62812944D01*
X158467157Y-73532843D02*
X159347846Y-74413532D01*
X154100000Y-70099999D02*
X154100000Y-69450231D01*
X157390001Y-72710241D02*
X158212603Y-73532843D01*
X158212603Y-73532843D02*
X158467157Y-73532843D01*
X153100000Y-62812944D02*
X153100000Y-57080000D01*
X159888457Y-74413532D02*
X160289325Y-74814400D01*
X152910000Y-65997055D02*
X152910001Y-63002943D01*
X154765685Y-70765685D02*
X154100000Y-70099999D01*
X155000000Y-71000000D02*
X155000000Y-70765685D01*
X160781797Y-74814400D02*
X161162558Y-75195161D01*
X153500000Y-67432613D02*
X153500000Y-66587055D01*
X159347846Y-74413532D02*
X159888457Y-74413532D01*
X157494978Y-71005022D02*
X157390001Y-71109999D01*
X153500000Y-66587055D02*
X152910000Y-65997055D01*
X154100000Y-69450231D02*
X153700000Y-69050230D01*
X161162558Y-75733639D02*
X160950000Y-75946197D01*
X153500000Y-68567386D02*
X153429669Y-68497053D01*
X153700000Y-68897056D02*
X153500000Y-68697056D01*
%TO.N,AIN2*%
X160054143Y-74013532D02*
X160428112Y-74387501D01*
X158500000Y-73000000D02*
X159513532Y-74013532D01*
X158500000Y-71500000D02*
X158303974Y-71696026D01*
X157790001Y-72544555D02*
X158141472Y-72896026D01*
X160428112Y-74387501D02*
X160920583Y-74387501D01*
X158303974Y-71696026D02*
X158141472Y-71696026D01*
X157790001Y-72047497D02*
X157790001Y-72544555D01*
X158500000Y-71337498D02*
X158500000Y-71500000D01*
X158141472Y-71696026D02*
X157790001Y-72047497D01*
X158141472Y-72896026D02*
X158416125Y-72896026D01*
X158416125Y-72896026D02*
X158500000Y-72979901D01*
X161600000Y-75066918D02*
X161600000Y-77500000D01*
X159513532Y-74013532D02*
X160054143Y-74013532D01*
X160920583Y-74387501D02*
X161600000Y-75066918D01*
X159000000Y-70837498D02*
X158500000Y-71337498D01*
X158500000Y-72979901D02*
X158500000Y-73000000D01*
%TO.N,PWMA*%
X158390001Y-72296026D02*
X158390001Y-72304216D01*
X162250000Y-76164215D02*
X162250000Y-77500000D01*
X162150000Y-74768263D02*
X162150000Y-76064215D01*
X160219829Y-73613532D02*
X160593798Y-73987501D01*
X159699317Y-73613532D02*
X160219829Y-73613532D01*
X162150000Y-76064215D02*
X162250000Y-76164215D01*
X160593798Y-73987501D02*
X161369238Y-73987501D01*
X158390001Y-72304216D02*
X159699317Y-73613532D01*
X161369238Y-73987501D02*
X162150000Y-74768263D01*
%TO.N,BIN1*%
X158364697Y-75437891D02*
X158350000Y-75452588D01*
X158350000Y-75452588D02*
X158350000Y-77500000D01*
%TO.N,BIN2*%
X153000000Y-71654314D02*
X153400000Y-72054314D01*
X157000000Y-75500000D02*
X157700000Y-76200000D01*
X153000000Y-70500000D02*
X153000000Y-71654314D01*
X151760000Y-68440000D02*
X152500000Y-69180000D01*
X152500000Y-69180000D02*
X152500000Y-70000000D01*
X156856134Y-75560000D02*
X156916134Y-75500000D01*
X157700000Y-76200000D02*
X157700000Y-77500000D01*
X156083866Y-75500000D02*
X156143866Y-75560000D01*
X153400000Y-74900000D02*
X154000000Y-75500000D01*
X156916134Y-75500000D02*
X157000000Y-75500000D01*
X154000000Y-75500000D02*
X156083866Y-75500000D01*
X156143866Y-75560000D02*
X156856134Y-75560000D01*
X152500000Y-70000000D02*
X153000000Y-70500000D01*
X153400000Y-72054314D02*
X153400000Y-74900000D01*
%TO.N,PWMB*%
X156500000Y-76000000D02*
X157050000Y-76550001D01*
X157050000Y-76550001D02*
X157050000Y-77500000D01*
X153000000Y-75500000D02*
X153500000Y-76000000D01*
X153000000Y-72220000D02*
X153000000Y-75500000D01*
X151760000Y-70980000D02*
X153000000Y-72220000D01*
X153500000Y-76000000D02*
X156500000Y-76000000D01*
%TO.N,/+3V3_USB*%
X158687499Y-61345403D02*
X159000000Y-61032902D01*
X159000000Y-61032902D02*
X159000000Y-61000000D01*
X159000000Y-61000000D02*
X160500000Y-59500000D01*
%TO.N,RUN*%
X168500000Y-74560000D02*
X169540000Y-73520000D01*
X167500000Y-75000000D02*
X167940000Y-74560000D01*
X167940000Y-74560000D02*
X168500000Y-74560000D01*
X162990112Y-74800000D02*
X163190112Y-75000000D01*
X163190112Y-75000000D02*
X167500000Y-75000000D01*
X162996866Y-71799996D02*
X162990112Y-71806750D01*
X162990112Y-71806750D02*
X162990112Y-74800000D01*
%TO.N,GPIO28_ADC2*%
X167000000Y-63000000D02*
X166500000Y-62500000D01*
X163000000Y-71000000D02*
X165060589Y-68939411D01*
X165909118Y-68939411D02*
X166600000Y-68248529D01*
X166600000Y-67834314D02*
X167000000Y-67434314D01*
X166740000Y-55740000D02*
X169540000Y-55740000D01*
X166500000Y-55500000D02*
X166740000Y-55740000D01*
X165060589Y-68939411D02*
X165909118Y-68939411D01*
X167000000Y-67434314D02*
X167000000Y-63000000D01*
X166600000Y-68248529D02*
X166600000Y-67834314D01*
%TO.N,GPIO29_ADC3*%
X165000000Y-70500000D02*
X164860000Y-70500000D01*
X167500000Y-62000000D02*
X167500000Y-67500000D01*
X167000000Y-68500000D02*
X165000000Y-70500000D01*
X167500000Y-67500000D02*
X167000000Y-68000000D01*
X167000000Y-68000000D02*
X167000000Y-68500000D01*
%TO.N,Net-(U4-SW)*%
X157000000Y-57062500D02*
X155937500Y-56000000D01*
X156000000Y-56062500D02*
X155937500Y-56000000D01*
X157000000Y-57520000D02*
X157000000Y-57062500D01*
X156500000Y-59500000D02*
X156000000Y-59000000D01*
X156000000Y-59000000D02*
X156000000Y-56062500D01*
X156500000Y-59862500D02*
X156500000Y-59500000D01*
%TO.N,+3V3_BUCK*%
X157449999Y-62137500D02*
X158087499Y-61500000D01*
X159030001Y-53480000D02*
X159000000Y-53449999D01*
X160500000Y-53480000D02*
X160500000Y-56000000D01*
X159000000Y-53449999D02*
X160500000Y-54949999D01*
X158400000Y-59187499D02*
X158400000Y-58000000D01*
X158087499Y-61500000D02*
X158087499Y-59500000D01*
X160500000Y-53480000D02*
X159030001Y-53480000D01*
X160500000Y-54949999D02*
X160500000Y-56000000D01*
X158062500Y-56000000D02*
X160500000Y-56000000D01*
X158400000Y-58000000D02*
X158062500Y-57662500D01*
X158087499Y-59500000D02*
X158400000Y-59187499D01*
X158062500Y-57662500D02*
X158062500Y-56000000D01*
%TO.N,Net-(U4-BST)*%
X157449999Y-59862500D02*
X157449999Y-58929999D01*
X157449999Y-58929999D02*
X157000000Y-58480000D01*
%TD*%
%TA.AperFunction,Conductor*%
%TO.N,GND*%
G36*
X168420246Y-75160501D02*
G01*
X168420943Y-75160501D01*
X168501840Y-75160501D01*
X168509972Y-75163869D01*
X168513340Y-75172001D01*
X168510110Y-75179799D01*
X168510148Y-75179831D01*
X168510162Y-75179842D01*
X168510161Y-75179843D01*
X168510188Y-75179866D01*
X168509983Y-75180105D01*
X168509972Y-75180131D01*
X168509896Y-75180208D01*
X168509893Y-75180211D01*
X168384952Y-75352179D01*
X168288441Y-75541591D01*
X168222753Y-75743759D01*
X168189500Y-75953710D01*
X168189500Y-76166289D01*
X168222753Y-76376240D01*
X168288441Y-76578408D01*
X168288442Y-76578411D01*
X168288443Y-76578412D01*
X168384949Y-76767816D01*
X168509896Y-76939792D01*
X168660208Y-77090104D01*
X168832184Y-77215051D01*
X169021588Y-77311557D01*
X169223757Y-77377246D01*
X169289098Y-77387595D01*
X169433711Y-77410500D01*
X169433713Y-77410500D01*
X169646289Y-77410500D01*
X169730269Y-77397198D01*
X169856243Y-77377246D01*
X170058412Y-77311557D01*
X170247816Y-77215051D01*
X170419792Y-77090104D01*
X170570104Y-76939792D01*
X170628696Y-76859145D01*
X170636201Y-76854547D01*
X170644759Y-76856601D01*
X170649358Y-76864106D01*
X170649500Y-76865905D01*
X170649500Y-80334093D01*
X170646132Y-80342225D01*
X170638000Y-80345593D01*
X170629868Y-80342225D01*
X170628696Y-80340853D01*
X170625092Y-80335892D01*
X170570104Y-80260208D01*
X170419792Y-80109896D01*
X170247816Y-79984949D01*
X170058412Y-79888443D01*
X170058411Y-79888442D01*
X170058408Y-79888441D01*
X169856240Y-79822753D01*
X169646289Y-79789500D01*
X169646287Y-79789500D01*
X169433713Y-79789500D01*
X169433711Y-79789500D01*
X169223759Y-79822753D01*
X169021591Y-79888441D01*
X168924932Y-79937691D01*
X168832184Y-79984949D01*
X168832181Y-79984950D01*
X168832179Y-79984952D01*
X168660211Y-80109893D01*
X168509893Y-80260211D01*
X168384952Y-80432179D01*
X168288441Y-80621591D01*
X168222753Y-80823759D01*
X168189500Y-81033710D01*
X168189500Y-81246289D01*
X168222753Y-81456240D01*
X168288441Y-81658408D01*
X168288442Y-81658411D01*
X168288443Y-81658412D01*
X168384949Y-81847816D01*
X168509896Y-82019792D01*
X168660208Y-82170104D01*
X168832184Y-82295051D01*
X169021588Y-82391557D01*
X169021590Y-82391557D01*
X169021591Y-82391558D01*
X169044688Y-82399063D01*
X169051381Y-82404779D01*
X169052071Y-82413554D01*
X169046355Y-82420247D01*
X169044688Y-82420937D01*
X169021591Y-82428441D01*
X168924932Y-82477691D01*
X168832184Y-82524949D01*
X168832181Y-82524950D01*
X168832179Y-82524952D01*
X168660211Y-82649893D01*
X168509893Y-82800211D01*
X168384952Y-82972179D01*
X168288441Y-83161591D01*
X168222753Y-83363759D01*
X168189500Y-83573710D01*
X168189500Y-83786289D01*
X168222753Y-83996240D01*
X168288441Y-84198408D01*
X168288442Y-84198411D01*
X168288443Y-84198412D01*
X168384949Y-84387816D01*
X168509896Y-84559792D01*
X168660208Y-84710104D01*
X168832184Y-84835051D01*
X169021588Y-84931557D01*
X169021590Y-84931557D01*
X169021591Y-84931558D01*
X169044688Y-84939063D01*
X169051381Y-84944779D01*
X169052071Y-84953554D01*
X169046355Y-84960247D01*
X169044688Y-84960937D01*
X169021591Y-84968441D01*
X168924932Y-85017691D01*
X168832184Y-85064949D01*
X168832181Y-85064950D01*
X168832179Y-85064952D01*
X168660211Y-85189893D01*
X168509893Y-85340211D01*
X168384952Y-85512179D01*
X168384950Y-85512181D01*
X168384949Y-85512184D01*
X168339294Y-85601787D01*
X168288441Y-85701591D01*
X168222753Y-85903759D01*
X168189500Y-86113710D01*
X168189500Y-86326289D01*
X168222753Y-86536240D01*
X168288441Y-86738408D01*
X168288442Y-86738411D01*
X168288443Y-86738412D01*
X168384949Y-86927816D01*
X168509896Y-87099792D01*
X168660208Y-87250104D01*
X168832184Y-87375051D01*
X169021588Y-87471557D01*
X169021590Y-87471557D01*
X169021591Y-87471558D01*
X169044688Y-87479063D01*
X169051381Y-87484779D01*
X169052071Y-87493554D01*
X169046355Y-87500247D01*
X169044688Y-87500937D01*
X169021591Y-87508441D01*
X168924932Y-87557691D01*
X168832184Y-87604949D01*
X168832181Y-87604950D01*
X168832179Y-87604952D01*
X168660211Y-87729893D01*
X168509893Y-87880211D01*
X168384952Y-88052179D01*
X168288441Y-88241591D01*
X168222753Y-88443759D01*
X168189500Y-88653710D01*
X168189500Y-88866289D01*
X168222753Y-89076240D01*
X168288441Y-89278408D01*
X168288442Y-89278411D01*
X168288443Y-89278412D01*
X168384949Y-89467816D01*
X168509896Y-89639792D01*
X168660208Y-89790104D01*
X168832184Y-89915051D01*
X169021588Y-90011557D01*
X169223757Y-90077246D01*
X169328735Y-90093873D01*
X169433711Y-90110500D01*
X169433713Y-90110500D01*
X169646289Y-90110500D01*
X169730269Y-90097198D01*
X169856243Y-90077246D01*
X170058412Y-90011557D01*
X170247816Y-89915051D01*
X170419792Y-89790104D01*
X170570104Y-89639792D01*
X170628696Y-89559145D01*
X170636201Y-89554547D01*
X170644759Y-89556601D01*
X170649358Y-89564106D01*
X170649500Y-89565905D01*
X170649500Y-93034093D01*
X170646132Y-93042225D01*
X170638000Y-93045593D01*
X170629868Y-93042225D01*
X170628696Y-93040853D01*
X170625092Y-93035892D01*
X170570104Y-92960208D01*
X170419792Y-92809896D01*
X170247816Y-92684949D01*
X170058412Y-92588443D01*
X170058411Y-92588442D01*
X170058408Y-92588441D01*
X169856240Y-92522753D01*
X169646289Y-92489500D01*
X169646287Y-92489500D01*
X169433713Y-92489500D01*
X169433711Y-92489500D01*
X169223759Y-92522753D01*
X169021591Y-92588441D01*
X168999887Y-92599500D01*
X168832184Y-92684949D01*
X168832181Y-92684950D01*
X168832179Y-92684952D01*
X168660211Y-92809893D01*
X168509893Y-92960211D01*
X168384952Y-93132179D01*
X168288441Y-93321591D01*
X168222753Y-93523759D01*
X168189500Y-93733710D01*
X168189500Y-93946289D01*
X168222753Y-94156240D01*
X168288441Y-94358408D01*
X168288442Y-94358411D01*
X168288443Y-94358412D01*
X168384949Y-94547816D01*
X168509896Y-94719792D01*
X168660208Y-94870104D01*
X168832184Y-94995051D01*
X169021588Y-95091557D01*
X169021590Y-95091557D01*
X169021591Y-95091558D01*
X169044688Y-95099063D01*
X169051381Y-95104779D01*
X169052071Y-95113554D01*
X169046355Y-95120247D01*
X169044688Y-95120937D01*
X169021591Y-95128441D01*
X168924932Y-95177691D01*
X168832184Y-95224949D01*
X168832181Y-95224950D01*
X168832179Y-95224952D01*
X168660211Y-95349893D01*
X168509893Y-95500211D01*
X168384952Y-95672179D01*
X168288441Y-95861591D01*
X168222753Y-96063759D01*
X168189500Y-96273710D01*
X168189500Y-96486289D01*
X168222753Y-96696240D01*
X168288441Y-96898408D01*
X168288442Y-96898411D01*
X168288443Y-96898412D01*
X168384949Y-97087816D01*
X168509896Y-97259792D01*
X168660208Y-97410104D01*
X168832184Y-97535051D01*
X169021588Y-97631557D01*
X169223757Y-97697246D01*
X169328735Y-97713873D01*
X169433711Y-97730500D01*
X169433713Y-97730500D01*
X169646289Y-97730500D01*
X169730269Y-97717198D01*
X169856243Y-97697246D01*
X170058412Y-97631557D01*
X170247816Y-97535051D01*
X170419792Y-97410104D01*
X170570104Y-97259792D01*
X170628696Y-97179145D01*
X170636201Y-97174547D01*
X170644759Y-97176601D01*
X170649358Y-97184106D01*
X170649500Y-97185905D01*
X170649500Y-115988000D01*
X170646132Y-115996132D01*
X170638000Y-115999500D01*
X150662000Y-115999500D01*
X150653868Y-115996132D01*
X150650500Y-115988000D01*
X150650500Y-106181944D01*
X155250000Y-106181944D01*
X155250000Y-106418055D01*
X155286934Y-106651248D01*
X155359894Y-106875796D01*
X155467088Y-107086175D01*
X155527339Y-107169105D01*
X155527339Y-107169106D01*
X156034152Y-106662292D01*
X156041049Y-106678942D01*
X156128599Y-106809970D01*
X156240030Y-106921401D01*
X156371058Y-107008951D01*
X156387705Y-107015846D01*
X155880892Y-107522659D01*
X155963824Y-107582911D01*
X156174203Y-107690105D01*
X156398751Y-107763065D01*
X156631945Y-107800000D01*
X156868055Y-107800000D01*
X157101248Y-107763065D01*
X157325796Y-107690105D01*
X157536172Y-107582913D01*
X157619105Y-107522658D01*
X157112293Y-107015847D01*
X157128942Y-107008951D01*
X157259970Y-106921401D01*
X157371401Y-106809970D01*
X157458951Y-106678942D01*
X157465847Y-106662293D01*
X157972658Y-107169105D01*
X158032913Y-107086172D01*
X158140105Y-106875796D01*
X158213065Y-106651248D01*
X158250000Y-106418055D01*
X158250000Y-106181944D01*
X158213065Y-105948751D01*
X158140105Y-105724203D01*
X158032911Y-105513824D01*
X157972659Y-105430893D01*
X157972659Y-105430892D01*
X157465846Y-105937705D01*
X157458951Y-105921058D01*
X157371401Y-105790030D01*
X157259970Y-105678599D01*
X157128942Y-105591049D01*
X157112292Y-105584152D01*
X157619106Y-105077339D01*
X157536175Y-105017088D01*
X157325796Y-104909894D01*
X157101248Y-104836934D01*
X156868055Y-104800000D01*
X156631945Y-104800000D01*
X156398751Y-104836934D01*
X156174203Y-104909894D01*
X155963824Y-105017088D01*
X155880893Y-105077339D01*
X155880892Y-105077339D01*
X156387706Y-105584152D01*
X156371058Y-105591049D01*
X156240030Y-105678599D01*
X156128599Y-105790030D01*
X156041049Y-105921058D01*
X156034152Y-105937706D01*
X155527339Y-105430892D01*
X155527339Y-105430893D01*
X155467088Y-105513824D01*
X155359894Y-105724203D01*
X155286934Y-105948751D01*
X155250000Y-106181944D01*
X150650500Y-106181944D01*
X150650500Y-103181989D01*
X159649500Y-103181989D01*
X159649500Y-103418011D01*
X159680307Y-103652014D01*
X159680308Y-103652018D01*
X159680309Y-103652025D01*
X159680309Y-103652026D01*
X159741392Y-103879987D01*
X159741392Y-103879988D01*
X159831717Y-104098052D01*
X159949724Y-104302446D01*
X159949726Y-104302449D01*
X159949727Y-104302450D01*
X160093408Y-104489699D01*
X160260301Y-104656592D01*
X160447550Y-104800273D01*
X160447553Y-104800275D01*
X160651947Y-104918282D01*
X160651948Y-104918282D01*
X160651951Y-104918284D01*
X160870007Y-105008606D01*
X160870011Y-105008607D01*
X161097974Y-105069690D01*
X161097975Y-105069690D01*
X161097986Y-105069693D01*
X161331989Y-105100500D01*
X161331993Y-105100500D01*
X161568007Y-105100500D01*
X161568011Y-105100500D01*
X161802014Y-105069693D01*
X161802025Y-105069690D01*
X161802026Y-105069690D01*
X161861682Y-105053704D01*
X162029993Y-105008606D01*
X162248049Y-104918284D01*
X162452450Y-104800273D01*
X162639699Y-104656592D01*
X162806592Y-104489699D01*
X162950273Y-104302450D01*
X163068284Y-104098049D01*
X163158606Y-103879993D01*
X163219693Y-103652014D01*
X163250500Y-103418011D01*
X163250500Y-103181989D01*
X163219693Y-102947986D01*
X163158606Y-102720007D01*
X163068284Y-102501951D01*
X162950273Y-102297550D01*
X162806592Y-102110301D01*
X162639699Y-101943408D01*
X162452450Y-101799727D01*
X162452449Y-101799726D01*
X162452446Y-101799724D01*
X162248052Y-101681717D01*
X162029988Y-101591392D01*
X161802025Y-101530309D01*
X161802018Y-101530308D01*
X161802014Y-101530307D01*
X161613087Y-101505434D01*
X161568012Y-101499500D01*
X161568011Y-101499500D01*
X161331989Y-101499500D01*
X161331987Y-101499500D01*
X161241835Y-101511368D01*
X161097986Y-101530307D01*
X161097982Y-101530307D01*
X161097974Y-101530309D01*
X161097973Y-101530309D01*
X160870012Y-101591392D01*
X160870011Y-101591392D01*
X160651947Y-101681717D01*
X160447553Y-101799724D01*
X160392027Y-101842331D01*
X160260301Y-101943408D01*
X160260296Y-101943413D01*
X160260294Y-101943414D01*
X160093414Y-102110294D01*
X160093413Y-102110296D01*
X160093408Y-102110301D01*
X160003607Y-102227331D01*
X159949724Y-102297553D01*
X159831717Y-102501947D01*
X159741392Y-102720011D01*
X159741392Y-102720012D01*
X159680309Y-102947973D01*
X159680309Y-102947974D01*
X159680307Y-102947982D01*
X159680307Y-102947986D01*
X159649500Y-103181989D01*
X150650500Y-103181989D01*
X150650500Y-98952126D01*
X154949500Y-98952126D01*
X154949500Y-101647872D01*
X154955908Y-101707481D01*
X154955909Y-101707483D01*
X155006204Y-101842331D01*
X155092454Y-101957546D01*
X155207669Y-102043796D01*
X155342517Y-102094091D01*
X155402127Y-102100500D01*
X158097872Y-102100499D01*
X158157483Y-102094091D01*
X158292331Y-102043796D01*
X158407546Y-101957546D01*
X158493796Y-101842331D01*
X158544091Y-101707483D01*
X158550500Y-101647873D01*
X158550499Y-98952128D01*
X158544091Y-98892517D01*
X158493796Y-98757669D01*
X158407546Y-98642454D01*
X158292331Y-98556204D01*
X158212117Y-98526286D01*
X158157481Y-98505908D01*
X158097873Y-98499500D01*
X155402127Y-98499500D01*
X155342518Y-98505908D01*
X155342517Y-98505909D01*
X155207669Y-98556204D01*
X155207666Y-98556206D01*
X155092456Y-98642452D01*
X155092452Y-98642456D01*
X155006206Y-98757666D01*
X155006204Y-98757669D01*
X154955908Y-98892518D01*
X154949500Y-98952126D01*
X150650500Y-98952126D01*
X150650500Y-97185905D01*
X150653868Y-97177773D01*
X150662000Y-97174405D01*
X150670132Y-97177773D01*
X150671301Y-97179143D01*
X150729896Y-97259792D01*
X150880208Y-97410104D01*
X151052184Y-97535051D01*
X151241588Y-97631557D01*
X151443757Y-97697246D01*
X151548735Y-97713873D01*
X151653711Y-97730500D01*
X151653713Y-97730500D01*
X151866289Y-97730500D01*
X151950269Y-97717198D01*
X152076243Y-97697246D01*
X152278412Y-97631557D01*
X152467816Y-97535051D01*
X152639792Y-97410104D01*
X152790104Y-97259792D01*
X152915051Y-97087816D01*
X153011557Y-96898412D01*
X153077246Y-96696243D01*
X153110500Y-96486287D01*
X153110500Y-96273713D01*
X153077246Y-96063757D01*
X153011557Y-95861588D01*
X152915051Y-95672184D01*
X152790104Y-95500208D01*
X152639792Y-95349896D01*
X152629437Y-95342373D01*
X152467820Y-95224952D01*
X152467816Y-95224949D01*
X152278412Y-95128443D01*
X152278411Y-95128442D01*
X152278408Y-95128441D01*
X152255311Y-95120937D01*
X152248618Y-95115221D01*
X152247928Y-95106446D01*
X152253644Y-95099753D01*
X152255311Y-95099063D01*
X152259554Y-95097684D01*
X152278412Y-95091557D01*
X152467816Y-94995051D01*
X152639792Y-94870104D01*
X152790104Y-94719792D01*
X152915051Y-94547816D01*
X153011557Y-94358412D01*
X153077246Y-94156243D01*
X153110500Y-93946287D01*
X153110500Y-93733713D01*
X153077246Y-93523757D01*
X153011557Y-93321588D01*
X152915051Y-93132184D01*
X152790104Y-92960208D01*
X152639792Y-92809896D01*
X152467816Y-92684949D01*
X152278412Y-92588443D01*
X152278411Y-92588442D01*
X152278408Y-92588441D01*
X152076240Y-92522753D01*
X151866289Y-92489500D01*
X151866287Y-92489500D01*
X151653713Y-92489500D01*
X151653711Y-92489500D01*
X151443759Y-92522753D01*
X151241591Y-92588441D01*
X151219887Y-92599500D01*
X151052184Y-92684949D01*
X151052181Y-92684950D01*
X151052179Y-92684952D01*
X150880211Y-92809893D01*
X150729896Y-92960208D01*
X150671304Y-93040853D01*
X150663799Y-93045451D01*
X150655240Y-93043397D01*
X150650642Y-93035892D01*
X150650500Y-93034093D01*
X150650500Y-91196584D01*
X150710000Y-91196584D01*
X150710000Y-91403415D01*
X150750348Y-91606268D01*
X150750349Y-91606273D01*
X150829503Y-91797364D01*
X150861378Y-91845067D01*
X151277036Y-91429407D01*
X151294075Y-91492993D01*
X151359901Y-91607007D01*
X151452993Y-91700099D01*
X151567007Y-91765925D01*
X151630589Y-91782962D01*
X151214931Y-92198621D01*
X151262635Y-92230496D01*
X151453726Y-92309650D01*
X151453731Y-92309651D01*
X151656585Y-92350000D01*
X151863415Y-92350000D01*
X152066268Y-92309651D01*
X152066273Y-92309650D01*
X152257364Y-92230496D01*
X152305067Y-92198621D01*
X151889408Y-91782962D01*
X151952993Y-91765925D01*
X152067007Y-91700099D01*
X152160099Y-91607007D01*
X152225925Y-91492993D01*
X152242962Y-91429408D01*
X152658621Y-91845067D01*
X152690496Y-91797364D01*
X152769650Y-91606273D01*
X152769651Y-91606268D01*
X152810000Y-91403415D01*
X152810000Y-91196584D01*
X152769651Y-90993731D01*
X152769650Y-90993726D01*
X152690496Y-90802635D01*
X152658621Y-90754931D01*
X152242962Y-91170589D01*
X152225925Y-91107007D01*
X152160099Y-90992993D01*
X152067007Y-90899901D01*
X151952993Y-90834075D01*
X151889407Y-90817036D01*
X152305067Y-90401378D01*
X152257364Y-90369503D01*
X152066273Y-90290349D01*
X152066268Y-90290348D01*
X151863415Y-90250000D01*
X151656585Y-90250000D01*
X151453731Y-90290348D01*
X151453726Y-90290349D01*
X151262635Y-90369503D01*
X151214931Y-90401378D01*
X151630591Y-90817037D01*
X151567007Y-90834075D01*
X151452993Y-90899901D01*
X151359901Y-90992993D01*
X151294075Y-91107007D01*
X151277037Y-91170591D01*
X150861378Y-90754931D01*
X150829503Y-90802635D01*
X150750349Y-90993726D01*
X150750348Y-90993731D01*
X150710000Y-91196584D01*
X150650500Y-91196584D01*
X150650500Y-89565905D01*
X150653868Y-89557773D01*
X150662000Y-89554405D01*
X150670132Y-89557773D01*
X150671301Y-89559143D01*
X150729896Y-89639792D01*
X150880208Y-89790104D01*
X151052184Y-89915051D01*
X151241588Y-90011557D01*
X151443757Y-90077246D01*
X151548735Y-90093873D01*
X151653711Y-90110500D01*
X151653713Y-90110500D01*
X151866289Y-90110500D01*
X151950269Y-90097198D01*
X152076243Y-90077246D01*
X152278412Y-90011557D01*
X152467816Y-89915051D01*
X152639792Y-89790104D01*
X152790104Y-89639792D01*
X152915051Y-89467816D01*
X153011557Y-89278412D01*
X153077246Y-89076243D01*
X153109051Y-88875435D01*
X153110500Y-88866289D01*
X153110500Y-88653710D01*
X153081302Y-88469366D01*
X153077246Y-88443757D01*
X153011557Y-88241588D01*
X152915051Y-88052184D01*
X152790104Y-87880208D01*
X152639792Y-87729896D01*
X152467816Y-87604949D01*
X152278412Y-87508443D01*
X152278411Y-87508442D01*
X152278408Y-87508441D01*
X152255311Y-87500937D01*
X152248618Y-87495221D01*
X152247928Y-87486446D01*
X152253644Y-87479753D01*
X152255311Y-87479063D01*
X152259554Y-87477684D01*
X152278412Y-87471557D01*
X152467816Y-87375051D01*
X152639792Y-87250104D01*
X152790104Y-87099792D01*
X152915051Y-86927816D01*
X153011557Y-86738412D01*
X153077246Y-86536243D01*
X153110500Y-86326287D01*
X153110500Y-86113713D01*
X153100295Y-86049284D01*
X153081482Y-85930504D01*
X153077246Y-85903757D01*
X153011557Y-85701588D01*
X152915051Y-85512184D01*
X152790104Y-85340208D01*
X152639792Y-85189896D01*
X152467816Y-85064949D01*
X152278412Y-84968443D01*
X152278411Y-84968442D01*
X152278408Y-84968441D01*
X152255311Y-84960937D01*
X152248618Y-84955221D01*
X152247928Y-84946446D01*
X152253644Y-84939753D01*
X152255311Y-84939063D01*
X152259554Y-84937684D01*
X152278412Y-84931557D01*
X152467816Y-84835051D01*
X152639792Y-84710104D01*
X152790104Y-84559792D01*
X152915051Y-84387816D01*
X153011557Y-84198412D01*
X153077246Y-83996243D01*
X153110500Y-83786287D01*
X153110500Y-83573713D01*
X153077246Y-83363757D01*
X153011557Y-83161588D01*
X152915051Y-82972184D01*
X152790104Y-82800208D01*
X152639792Y-82649896D01*
X152467816Y-82524949D01*
X152278412Y-82428443D01*
X152278411Y-82428442D01*
X152278408Y-82428441D01*
X152255311Y-82420937D01*
X152248618Y-82415221D01*
X152247928Y-82406446D01*
X152253644Y-82399753D01*
X152255311Y-82399063D01*
X152259554Y-82397684D01*
X152278412Y-82391557D01*
X152467816Y-82295051D01*
X152639792Y-82170104D01*
X152790104Y-82019792D01*
X152915051Y-81847816D01*
X153011557Y-81658412D01*
X153077246Y-81456243D01*
X153110500Y-81246287D01*
X153110500Y-81033713D01*
X153077246Y-80823757D01*
X153011557Y-80621588D01*
X152915051Y-80432184D01*
X152790104Y-80260208D01*
X152639792Y-80109896D01*
X152467816Y-79984949D01*
X152278412Y-79888443D01*
X152278411Y-79888442D01*
X152278408Y-79888441D01*
X152076240Y-79822753D01*
X151866289Y-79789500D01*
X151866287Y-79789500D01*
X151653713Y-79789500D01*
X151653711Y-79789500D01*
X151443759Y-79822753D01*
X151241591Y-79888441D01*
X151144932Y-79937691D01*
X151052184Y-79984949D01*
X151052181Y-79984950D01*
X151052179Y-79984952D01*
X150880211Y-80109893D01*
X150729896Y-80260208D01*
X150671304Y-80340853D01*
X150663799Y-80345451D01*
X150655240Y-80343397D01*
X150650642Y-80335892D01*
X150650500Y-80334093D01*
X150650500Y-78496584D01*
X150710000Y-78496584D01*
X150710000Y-78703415D01*
X150750348Y-78906268D01*
X150750349Y-78906273D01*
X150829503Y-79097364D01*
X150861378Y-79145067D01*
X151277036Y-78729407D01*
X151294075Y-78792993D01*
X151359901Y-78907007D01*
X151452993Y-79000099D01*
X151567007Y-79065925D01*
X151630589Y-79082962D01*
X151214931Y-79498621D01*
X151262635Y-79530496D01*
X151453726Y-79609650D01*
X151453731Y-79609651D01*
X151656585Y-79650000D01*
X151863415Y-79650000D01*
X152066268Y-79609651D01*
X152066273Y-79609650D01*
X152257364Y-79530496D01*
X152305067Y-79498621D01*
X151889408Y-79082962D01*
X151952993Y-79065925D01*
X152067007Y-79000099D01*
X152160099Y-78907007D01*
X152225925Y-78792993D01*
X152242962Y-78729408D01*
X152658621Y-79145067D01*
X152690496Y-79097364D01*
X152769650Y-78906273D01*
X152769651Y-78906268D01*
X152810000Y-78703415D01*
X152810000Y-78496584D01*
X152769651Y-78293731D01*
X152769650Y-78293726D01*
X152690496Y-78102635D01*
X152658621Y-78054931D01*
X152242962Y-78470589D01*
X152225925Y-78407007D01*
X152160099Y-78292993D01*
X152067007Y-78199901D01*
X151952993Y-78134075D01*
X151889407Y-78117036D01*
X152305067Y-77701378D01*
X152257364Y-77669503D01*
X152066273Y-77590349D01*
X152066268Y-77590348D01*
X151863415Y-77550000D01*
X151656585Y-77550000D01*
X151453731Y-77590348D01*
X151453726Y-77590349D01*
X151262635Y-77669503D01*
X151214931Y-77701378D01*
X151630591Y-78117037D01*
X151567007Y-78134075D01*
X151452993Y-78199901D01*
X151359901Y-78292993D01*
X151294075Y-78407007D01*
X151277037Y-78470591D01*
X150861378Y-78054931D01*
X150829503Y-78102635D01*
X150750349Y-78293726D01*
X150750348Y-78293731D01*
X150710000Y-78496584D01*
X150650500Y-78496584D01*
X150650500Y-76865905D01*
X150653868Y-76857773D01*
X150662000Y-76854405D01*
X150670132Y-76857773D01*
X150671301Y-76859143D01*
X150729896Y-76939792D01*
X150880208Y-77090104D01*
X151052184Y-77215051D01*
X151241588Y-77311557D01*
X151443757Y-77377246D01*
X151509098Y-77387595D01*
X151653711Y-77410500D01*
X151653713Y-77410500D01*
X151866289Y-77410500D01*
X151950269Y-77397198D01*
X152076243Y-77377246D01*
X152278412Y-77311557D01*
X152467816Y-77215051D01*
X152639792Y-77090104D01*
X152790104Y-76939792D01*
X152915051Y-76767816D01*
X153011557Y-76578412D01*
X153059126Y-76432005D01*
X153064841Y-76425315D01*
X153073616Y-76424625D01*
X153078194Y-76427430D01*
X153131284Y-76480520D01*
X153268216Y-76559577D01*
X153420943Y-76600501D01*
X153579755Y-76600501D01*
X153579771Y-76600500D01*
X155038000Y-76600500D01*
X155046132Y-76603868D01*
X155049500Y-76612000D01*
X155049500Y-78389356D01*
X155049501Y-78389360D01*
X155064956Y-78506762D01*
X155125464Y-78652841D01*
X155221718Y-78778282D01*
X155347159Y-78874536D01*
X155493238Y-78935044D01*
X155610639Y-78950500D01*
X155889360Y-78950499D01*
X156006762Y-78935044D01*
X156070599Y-78908601D01*
X156079400Y-78908601D01*
X156088873Y-78912524D01*
X156096936Y-78915864D01*
X156100666Y-78918357D01*
X156301022Y-79118713D01*
X156301024Y-79118716D01*
X156412828Y-79230520D01*
X156499639Y-79280639D01*
X156549759Y-79309577D01*
X156702487Y-79350500D01*
X162520229Y-79350500D01*
X162520245Y-79350501D01*
X162520942Y-79350501D01*
X162679056Y-79350501D01*
X162831784Y-79309577D01*
X162881903Y-79280639D01*
X162968715Y-79230520D01*
X163080519Y-79118716D01*
X163080519Y-79118714D01*
X163081461Y-79117773D01*
X163081465Y-79117768D01*
X163267768Y-78931465D01*
X163267773Y-78931461D01*
X163268714Y-78930519D01*
X163268716Y-78930519D01*
X163380520Y-78818715D01*
X163383297Y-78813903D01*
X163386253Y-78810531D01*
X163428282Y-78778282D01*
X163524536Y-78652841D01*
X163585044Y-78506762D01*
X163600500Y-78389361D01*
X163600499Y-78103578D01*
X163603867Y-78095447D01*
X163609023Y-78092471D01*
X163609106Y-78092448D01*
X163731785Y-78059577D01*
X163781904Y-78030639D01*
X163868716Y-77980520D01*
X163980520Y-77868716D01*
X163980521Y-77868714D01*
X164245368Y-77603868D01*
X164253500Y-77600500D01*
X164360368Y-77600500D01*
X164368500Y-77603868D01*
X164371868Y-77612000D01*
X164368500Y-77620130D01*
X164287253Y-77701378D01*
X164257288Y-77731343D01*
X164257286Y-77731345D01*
X164165185Y-77880666D01*
X164165182Y-77880672D01*
X164110001Y-78047200D01*
X164109999Y-78047206D01*
X164099500Y-78149981D01*
X164099500Y-78900001D01*
X164099501Y-78900015D01*
X164109999Y-79002791D01*
X164110001Y-79002797D01*
X164165182Y-79169325D01*
X164165185Y-79169331D01*
X164165186Y-79169333D01*
X164257288Y-79318655D01*
X164381344Y-79442711D01*
X164530666Y-79534813D01*
X164530668Y-79534813D01*
X164530673Y-79534816D01*
X164617542Y-79563601D01*
X164697203Y-79589998D01*
X164697204Y-79589998D01*
X164697207Y-79589999D01*
X164744511Y-79594831D01*
X164799991Y-79600499D01*
X166200008Y-79600498D01*
X166227970Y-79597641D01*
X166302792Y-79589999D01*
X166302794Y-79589998D01*
X166302797Y-79589998D01*
X166384383Y-79562962D01*
X166393161Y-79563601D01*
X166398916Y-79570261D01*
X166399500Y-79573878D01*
X166399500Y-80746501D01*
X166399499Y-80746501D01*
X166399500Y-80746503D01*
X166398904Y-80747940D01*
X166396132Y-80754633D01*
X166396130Y-80754634D01*
X166392923Y-80757840D01*
X166384791Y-80761207D01*
X166377964Y-80758960D01*
X166362645Y-80747655D01*
X166234608Y-80702853D01*
X166204208Y-80700001D01*
X165750001Y-80700001D01*
X165750000Y-80700002D01*
X165750000Y-82249999D01*
X165750001Y-82250000D01*
X165887999Y-82250000D01*
X165896131Y-82253368D01*
X165899499Y-82261500D01*
X165899499Y-82314722D01*
X165899500Y-82314735D01*
X165899500Y-82522500D01*
X165896132Y-82530632D01*
X165888000Y-82534000D01*
X165879868Y-82530632D01*
X165868715Y-82519479D01*
X165760923Y-82457246D01*
X165731783Y-82440422D01*
X165731784Y-82440422D01*
X165579057Y-82399499D01*
X165420943Y-82399499D01*
X165420246Y-82399499D01*
X165420230Y-82399500D01*
X164753500Y-82399500D01*
X164745368Y-82396132D01*
X164103868Y-81754632D01*
X164100500Y-81746500D01*
X164100500Y-81725002D01*
X164400001Y-81725002D01*
X164400001Y-81854208D01*
X164402852Y-81884609D01*
X164447654Y-82012648D01*
X164447655Y-82012649D01*
X164528207Y-82121791D01*
X164528209Y-82121793D01*
X164637351Y-82202345D01*
X164637352Y-82202346D01*
X164765391Y-82247148D01*
X164795798Y-82250000D01*
X165249998Y-82250000D01*
X165250000Y-82249999D01*
X165250000Y-81725002D01*
X165249999Y-81725001D01*
X164400002Y-81725001D01*
X164400001Y-81725002D01*
X164100500Y-81725002D01*
X164100500Y-81095792D01*
X164400000Y-81095792D01*
X164400000Y-81225000D01*
X164400001Y-81225001D01*
X165249999Y-81225001D01*
X165250000Y-81225000D01*
X165250000Y-80700002D01*
X165249999Y-80700001D01*
X164795806Y-80700001D01*
X164795792Y-80700002D01*
X164765391Y-80702853D01*
X164637352Y-80747655D01*
X164637351Y-80747656D01*
X164528209Y-80828208D01*
X164528207Y-80828210D01*
X164447655Y-80937352D01*
X164447654Y-80937353D01*
X164402852Y-81065392D01*
X164400000Y-81095792D01*
X164100500Y-81095792D01*
X164100500Y-80579991D01*
X164100501Y-80579978D01*
X164100501Y-80420943D01*
X164086713Y-80369487D01*
X164059577Y-80268216D01*
X163980520Y-80131284D01*
X163480521Y-79631285D01*
X163480520Y-79631284D01*
X163368716Y-79519480D01*
X163368715Y-79519479D01*
X163281904Y-79469360D01*
X163231785Y-79440423D01*
X163231784Y-79440422D01*
X163079057Y-79399499D01*
X162920943Y-79399499D01*
X162920246Y-79399499D01*
X162920230Y-79399500D01*
X155920942Y-79399500D01*
X155880019Y-79410465D01*
X155768217Y-79440422D01*
X155631284Y-79519479D01*
X155269479Y-79881284D01*
X155219360Y-79968095D01*
X155190422Y-80018216D01*
X155149499Y-80170943D01*
X155149499Y-80329977D01*
X155149500Y-80329990D01*
X155149500Y-83311929D01*
X155147124Y-83318929D01*
X155125465Y-83347157D01*
X155064956Y-83493238D01*
X155049500Y-83610637D01*
X155049500Y-85389356D01*
X155049501Y-85389360D01*
X155064956Y-85506762D01*
X155125464Y-85652841D01*
X155221718Y-85778282D01*
X155347159Y-85874536D01*
X155493238Y-85935044D01*
X155610639Y-85950500D01*
X155889360Y-85950499D01*
X156006762Y-85935044D01*
X156070601Y-85908600D01*
X156079399Y-85908600D01*
X156143236Y-85935043D01*
X156143235Y-85935043D01*
X156143238Y-85935044D01*
X156260639Y-85950500D01*
X156539360Y-85950499D01*
X156656762Y-85935044D01*
X156802841Y-85874536D01*
X156928282Y-85778282D01*
X157024536Y-85652841D01*
X157085044Y-85506762D01*
X157100500Y-85389361D01*
X157100499Y-84700001D01*
X157250000Y-84700001D01*
X157250000Y-85633787D01*
X157322473Y-85601789D01*
X157322476Y-85601787D01*
X157366868Y-85557396D01*
X157375000Y-85554028D01*
X157383132Y-85557396D01*
X157427523Y-85601787D01*
X157427526Y-85601789D01*
X157500000Y-85633788D01*
X157500000Y-84700001D01*
X157499999Y-84700000D01*
X157250001Y-84700000D01*
X157250000Y-84700001D01*
X157100499Y-84700001D01*
X157100499Y-84485905D01*
X157100499Y-83610643D01*
X157100499Y-83610640D01*
X157085044Y-83493238D01*
X157032427Y-83366210D01*
X157250000Y-83366210D01*
X157250000Y-84299999D01*
X157250001Y-84300000D01*
X157499999Y-84300000D01*
X157500000Y-84299999D01*
X157500000Y-83366210D01*
X157499999Y-83366210D01*
X157427526Y-83398210D01*
X157427523Y-83398212D01*
X157383132Y-83442603D01*
X157375000Y-83445971D01*
X157366868Y-83442603D01*
X157322476Y-83398212D01*
X157322473Y-83398210D01*
X157250000Y-83366210D01*
X157032427Y-83366210D01*
X157024536Y-83347159D01*
X156928282Y-83221718D01*
X156802841Y-83125464D01*
X156656762Y-83064956D01*
X156598061Y-83057228D01*
X156539362Y-83049500D01*
X156539361Y-83049500D01*
X156362000Y-83049500D01*
X156353868Y-83046132D01*
X156350500Y-83038000D01*
X156350500Y-80612000D01*
X156353868Y-80603868D01*
X156362000Y-80600500D01*
X162746501Y-80600500D01*
X162754633Y-80603868D01*
X162896132Y-80745367D01*
X162899500Y-80753499D01*
X162899500Y-81888000D01*
X162896132Y-81896132D01*
X162888000Y-81899500D01*
X160129772Y-81899500D01*
X160129756Y-81899499D01*
X160129059Y-81899499D01*
X159970944Y-81899499D01*
X159818218Y-81940422D01*
X159681285Y-82019479D01*
X158632735Y-83068029D01*
X158624603Y-83071397D01*
X158620203Y-83070522D01*
X158606763Y-83064956D01*
X158548061Y-83057228D01*
X158489361Y-83049500D01*
X158489360Y-83049500D01*
X158210643Y-83049500D01*
X158210637Y-83049501D01*
X158093238Y-83064956D01*
X157947159Y-83125464D01*
X157821718Y-83221718D01*
X157725464Y-83347159D01*
X157664956Y-83493238D01*
X157649500Y-83610637D01*
X157649500Y-85389356D01*
X157649501Y-85389360D01*
X157664956Y-85506762D01*
X157725464Y-85652841D01*
X157821718Y-85778282D01*
X157947159Y-85874536D01*
X158093238Y-85935044D01*
X158210639Y-85950500D01*
X158489360Y-85950499D01*
X158606762Y-85935044D01*
X158670599Y-85908601D01*
X158679400Y-85908601D01*
X158684897Y-85910878D01*
X158691121Y-85917102D01*
X158691121Y-85925904D01*
X158688628Y-85929635D01*
X157326607Y-87291655D01*
X157318475Y-87295023D01*
X157312725Y-87293482D01*
X157309876Y-87291837D01*
X157079702Y-87196496D01*
X156839076Y-87132020D01*
X156839069Y-87132019D01*
X156839065Y-87132018D01*
X156639644Y-87105763D01*
X156592066Y-87099500D01*
X156592065Y-87099500D01*
X156342935Y-87099500D01*
X156342933Y-87099500D01*
X156247775Y-87112027D01*
X156095935Y-87132018D01*
X156095931Y-87132018D01*
X156095923Y-87132020D01*
X156095922Y-87132020D01*
X155855298Y-87196496D01*
X155855297Y-87196496D01*
X155625123Y-87291837D01*
X155409376Y-87416398D01*
X155337492Y-87471557D01*
X155211724Y-87568062D01*
X155211719Y-87568067D01*
X155211717Y-87568068D01*
X155035568Y-87744217D01*
X155035567Y-87744219D01*
X155035562Y-87744224D01*
X154940773Y-87867754D01*
X154883898Y-87941876D01*
X154759337Y-88157623D01*
X154663996Y-88387797D01*
X154663996Y-88387798D01*
X154599520Y-88628422D01*
X154599520Y-88628423D01*
X154599518Y-88628431D01*
X154599518Y-88628435D01*
X154567000Y-88875435D01*
X154567000Y-89124565D01*
X154599518Y-89371565D01*
X154599519Y-89371569D01*
X154599520Y-89371576D01*
X154599520Y-89371577D01*
X154663996Y-89612201D01*
X154663996Y-89612202D01*
X154759337Y-89842376D01*
X154883898Y-90058123D01*
X154883899Y-90058124D01*
X154883901Y-90058127D01*
X155035562Y-90255776D01*
X155211724Y-90431938D01*
X155392537Y-90570680D01*
X155409376Y-90583601D01*
X155625123Y-90708162D01*
X155625124Y-90708162D01*
X155625127Y-90708164D01*
X155855293Y-90803502D01*
X155855297Y-90803503D01*
X156095923Y-90867979D01*
X156095924Y-90867979D01*
X156095935Y-90867982D01*
X156342935Y-90900500D01*
X156342939Y-90900500D01*
X156592061Y-90900500D01*
X156592065Y-90900500D01*
X156839065Y-90867982D01*
X156839076Y-90867979D01*
X156839077Y-90867979D01*
X156965607Y-90834075D01*
X157079707Y-90803502D01*
X157309873Y-90708164D01*
X157525627Y-90583599D01*
X157564950Y-90553424D01*
X157573452Y-90551146D01*
X157581074Y-90555547D01*
X157583353Y-90564049D01*
X157580083Y-90570680D01*
X156098786Y-92051978D01*
X156054632Y-92096132D01*
X156046500Y-92099500D01*
X155267483Y-92099500D01*
X155164707Y-92109999D01*
X155164701Y-92110001D01*
X154998173Y-92165182D01*
X154998167Y-92165185D01*
X154848847Y-92257287D01*
X154724787Y-92381347D01*
X154632685Y-92530667D01*
X154632682Y-92530673D01*
X154577501Y-92697201D01*
X154577499Y-92697207D01*
X154567000Y-92799983D01*
X154567000Y-95200016D01*
X154577499Y-95302792D01*
X154577501Y-95302798D01*
X154632682Y-95469326D01*
X154632685Y-95469332D01*
X154632686Y-95469334D01*
X154651731Y-95500211D01*
X154702318Y-95582225D01*
X154724789Y-95618655D01*
X154848845Y-95742711D01*
X154998166Y-95834814D01*
X154998168Y-95834814D01*
X154998173Y-95834817D01*
X155078964Y-95861588D01*
X155164703Y-95889999D01*
X155164704Y-95889999D01*
X155164707Y-95890000D01*
X155255161Y-95899240D01*
X155267492Y-95900500D01*
X155267496Y-95900500D01*
X157667504Y-95900500D01*
X157667508Y-95900500D01*
X157695464Y-95897643D01*
X157770292Y-95890000D01*
X157770294Y-95889999D01*
X157770297Y-95889999D01*
X157879708Y-95853743D01*
X157936826Y-95834817D01*
X157936828Y-95834815D01*
X157936834Y-95834814D01*
X158086155Y-95742711D01*
X158210211Y-95618655D01*
X158302314Y-95469334D01*
X158357499Y-95302797D01*
X158368000Y-95200008D01*
X158368000Y-92799992D01*
X158366740Y-92787661D01*
X158357500Y-92697207D01*
X158357498Y-92697201D01*
X158357264Y-92696496D01*
X158339210Y-92642013D01*
X158302317Y-92530673D01*
X158302314Y-92530667D01*
X158302314Y-92530666D01*
X158210211Y-92381345D01*
X158086155Y-92257289D01*
X157936834Y-92165186D01*
X157936833Y-92165185D01*
X157936832Y-92165185D01*
X157936826Y-92165182D01*
X157770301Y-92110002D01*
X157770289Y-92109999D01*
X157766187Y-92109580D01*
X157758440Y-92105402D01*
X157755917Y-92096970D01*
X157759224Y-92090009D01*
X161379869Y-88469365D01*
X161388000Y-88465998D01*
X161396132Y-88469366D01*
X161399500Y-88477498D01*
X161399500Y-91920229D01*
X161399499Y-91920247D01*
X161399499Y-91920943D01*
X161399499Y-92079057D01*
X161404074Y-92096132D01*
X161440077Y-92230496D01*
X161440423Y-92231785D01*
X161455148Y-92257289D01*
X161519480Y-92368716D01*
X161631284Y-92480520D01*
X161631286Y-92480521D01*
X162791656Y-93640891D01*
X162795024Y-93649023D01*
X162793484Y-93654772D01*
X162791836Y-93657626D01*
X162696496Y-93887797D01*
X162696496Y-93887798D01*
X162632020Y-94128422D01*
X162632020Y-94128423D01*
X162632018Y-94128431D01*
X162632018Y-94128435D01*
X162628357Y-94156243D01*
X162599500Y-94375433D01*
X162599500Y-94624566D01*
X162601239Y-94637773D01*
X162632018Y-94871565D01*
X162632019Y-94871569D01*
X162632020Y-94871576D01*
X162632020Y-94871577D01*
X162696496Y-95112201D01*
X162696496Y-95112202D01*
X162696497Y-95112206D01*
X162696498Y-95112207D01*
X162699828Y-95120247D01*
X162791837Y-95342376D01*
X162916398Y-95558123D01*
X162916400Y-95558126D01*
X162916401Y-95558127D01*
X163068062Y-95755776D01*
X163244224Y-95931938D01*
X163441873Y-96083599D01*
X163441876Y-96083601D01*
X163657623Y-96208162D01*
X163657624Y-96208162D01*
X163657627Y-96208164D01*
X163887793Y-96303502D01*
X163887797Y-96303503D01*
X164128423Y-96367979D01*
X164128424Y-96367979D01*
X164128435Y-96367982D01*
X164375435Y-96400500D01*
X164375439Y-96400500D01*
X164624561Y-96400500D01*
X164624565Y-96400500D01*
X164871565Y-96367982D01*
X164871576Y-96367979D01*
X164871577Y-96367979D01*
X164934546Y-96351106D01*
X165112207Y-96303502D01*
X165342373Y-96208164D01*
X165558127Y-96083599D01*
X165755776Y-95931938D01*
X165879868Y-95807846D01*
X165888000Y-95804478D01*
X165896132Y-95807846D01*
X165899500Y-95815978D01*
X165899500Y-96196500D01*
X165896132Y-96204632D01*
X165348791Y-96751972D01*
X165342903Y-96755119D01*
X165216506Y-96780262D01*
X165216503Y-96780262D01*
X165070818Y-96840607D01*
X164939714Y-96928208D01*
X164828208Y-97039714D01*
X164740607Y-97170818D01*
X164680262Y-97316503D01*
X164680262Y-97316506D01*
X164649500Y-97471158D01*
X164649500Y-97628842D01*
X164669721Y-97730500D01*
X164680262Y-97783493D01*
X164680262Y-97783496D01*
X164726936Y-97896176D01*
X164740606Y-97929179D01*
X164828211Y-98060289D01*
X164939711Y-98171789D01*
X165070821Y-98259394D01*
X165216503Y-98319737D01*
X165371158Y-98350500D01*
X165371160Y-98350500D01*
X165528840Y-98350500D01*
X165528842Y-98350500D01*
X165683497Y-98319737D01*
X165829179Y-98259394D01*
X165960289Y-98171789D01*
X166071789Y-98060289D01*
X166159394Y-97929179D01*
X166219737Y-97783497D01*
X166250500Y-97628842D01*
X166250500Y-97553498D01*
X166253867Y-97545367D01*
X166867768Y-96931465D01*
X166867773Y-96931462D01*
X166868714Y-96930520D01*
X166868716Y-96930520D01*
X166980520Y-96818716D01*
X167030639Y-96731904D01*
X167059577Y-96681785D01*
X167100500Y-96529058D01*
X167100500Y-96370943D01*
X167100500Y-91196584D01*
X168490000Y-91196584D01*
X168490000Y-91403415D01*
X168530348Y-91606268D01*
X168530349Y-91606273D01*
X168609503Y-91797364D01*
X168641378Y-91845067D01*
X169057036Y-91429407D01*
X169074075Y-91492993D01*
X169139901Y-91607007D01*
X169232993Y-91700099D01*
X169347007Y-91765925D01*
X169410589Y-91782962D01*
X168994931Y-92198621D01*
X169042635Y-92230496D01*
X169233726Y-92309650D01*
X169233731Y-92309651D01*
X169436585Y-92350000D01*
X169643415Y-92350000D01*
X169846268Y-92309651D01*
X169846273Y-92309650D01*
X170037364Y-92230496D01*
X170085067Y-92198621D01*
X169669408Y-91782962D01*
X169732993Y-91765925D01*
X169847007Y-91700099D01*
X169940099Y-91607007D01*
X170005925Y-91492993D01*
X170022962Y-91429408D01*
X170438621Y-91845067D01*
X170470496Y-91797364D01*
X170549650Y-91606273D01*
X170549651Y-91606268D01*
X170590000Y-91403415D01*
X170590000Y-91196584D01*
X170549651Y-90993731D01*
X170549650Y-90993726D01*
X170470496Y-90802635D01*
X170438621Y-90754931D01*
X170022962Y-91170589D01*
X170005925Y-91107007D01*
X169940099Y-90992993D01*
X169847007Y-90899901D01*
X169732993Y-90834075D01*
X169669407Y-90817036D01*
X170085067Y-90401378D01*
X170037364Y-90369503D01*
X169846273Y-90290349D01*
X169846268Y-90290348D01*
X169643415Y-90250000D01*
X169436585Y-90250000D01*
X169233731Y-90290348D01*
X169233726Y-90290349D01*
X169042635Y-90369503D01*
X168994931Y-90401378D01*
X169410591Y-90817037D01*
X169347007Y-90834075D01*
X169232993Y-90899901D01*
X169139901Y-90992993D01*
X169074075Y-91107007D01*
X169057037Y-91170591D01*
X168641378Y-90754931D01*
X168609503Y-90802635D01*
X168530349Y-90993726D01*
X168530348Y-90993731D01*
X168490000Y-91196584D01*
X167100500Y-91196584D01*
X167100500Y-87819184D01*
X167103867Y-87811053D01*
X167267768Y-87647151D01*
X167267773Y-87647148D01*
X167268714Y-87646206D01*
X167268716Y-87646206D01*
X167380520Y-87534402D01*
X167459577Y-87397470D01*
X167500500Y-87244743D01*
X167500500Y-83755257D01*
X167459577Y-83602530D01*
X167380520Y-83465598D01*
X167268716Y-83353794D01*
X167268713Y-83353792D01*
X167103868Y-83188947D01*
X167100500Y-83180815D01*
X167100500Y-82488244D01*
X167103868Y-82480112D01*
X167126734Y-82457246D01*
X167180520Y-82403461D01*
X167259577Y-82266529D01*
X167300501Y-82113802D01*
X167300501Y-81955687D01*
X167300501Y-81954991D01*
X167300500Y-81954973D01*
X167300500Y-81553498D01*
X167303867Y-81545367D01*
X167367768Y-81481465D01*
X167367773Y-81481462D01*
X167368714Y-81480520D01*
X167368716Y-81480520D01*
X167480520Y-81368716D01*
X167555676Y-81238541D01*
X167559577Y-81231785D01*
X167600500Y-81079057D01*
X167600500Y-80920943D01*
X167600500Y-78496584D01*
X168490000Y-78496584D01*
X168490000Y-78703415D01*
X168530348Y-78906268D01*
X168530349Y-78906273D01*
X168609503Y-79097364D01*
X168641378Y-79145067D01*
X169057036Y-78729407D01*
X169074075Y-78792993D01*
X169139901Y-78907007D01*
X169232993Y-79000099D01*
X169347007Y-79065925D01*
X169410589Y-79082962D01*
X168994931Y-79498621D01*
X169042635Y-79530496D01*
X169233726Y-79609650D01*
X169233731Y-79609651D01*
X169436585Y-79650000D01*
X169643415Y-79650000D01*
X169846268Y-79609651D01*
X169846273Y-79609650D01*
X170037364Y-79530496D01*
X170085067Y-79498621D01*
X169669408Y-79082962D01*
X169732993Y-79065925D01*
X169847007Y-79000099D01*
X169940099Y-78907007D01*
X170005925Y-78792993D01*
X170022962Y-78729408D01*
X170438621Y-79145067D01*
X170470496Y-79097364D01*
X170549650Y-78906273D01*
X170549651Y-78906268D01*
X170590000Y-78703415D01*
X170590000Y-78496584D01*
X170549651Y-78293731D01*
X170549650Y-78293726D01*
X170470496Y-78102635D01*
X170438621Y-78054931D01*
X170022962Y-78470589D01*
X170005925Y-78407007D01*
X169940099Y-78292993D01*
X169847007Y-78199901D01*
X169732993Y-78134075D01*
X169669407Y-78117036D01*
X170085067Y-77701378D01*
X170037364Y-77669503D01*
X169846273Y-77590349D01*
X169846268Y-77590348D01*
X169643415Y-77550000D01*
X169436585Y-77550000D01*
X169233731Y-77590348D01*
X169233726Y-77590349D01*
X169042635Y-77669503D01*
X168994931Y-77701378D01*
X169410591Y-78117037D01*
X169347007Y-78134075D01*
X169232993Y-78199901D01*
X169139901Y-78292993D01*
X169074075Y-78407007D01*
X169057037Y-78470591D01*
X168641378Y-78054931D01*
X168609503Y-78102635D01*
X168530349Y-78293726D01*
X168530348Y-78293731D01*
X168490000Y-78496584D01*
X167600500Y-78496584D01*
X167600500Y-76020943D01*
X167592322Y-75990424D01*
X167591921Y-75988929D01*
X167573705Y-75920943D01*
X167559578Y-75868221D01*
X167559577Y-75868216D01*
X167480520Y-75731284D01*
X167369366Y-75620130D01*
X167365999Y-75612000D01*
X167369367Y-75603868D01*
X167377499Y-75600500D01*
X167420230Y-75600500D01*
X167420246Y-75600501D01*
X167420943Y-75600501D01*
X167579057Y-75600501D01*
X167731785Y-75559577D01*
X167801233Y-75519481D01*
X167868716Y-75480520D01*
X167980520Y-75368716D01*
X167980520Y-75368714D01*
X167981462Y-75367773D01*
X167981465Y-75367768D01*
X168185367Y-75163868D01*
X168193499Y-75160500D01*
X168420230Y-75160500D01*
X168420246Y-75160501D01*
G37*
%TD.AperFunction*%
%TA.AperFunction,Conductor*%
G36*
X161857745Y-83103868D02*
G01*
X161861113Y-83112000D01*
X161857745Y-83120132D01*
X161854014Y-83122624D01*
X161847162Y-83125462D01*
X161847159Y-83125463D01*
X161847159Y-83125464D01*
X161764426Y-83188947D01*
X161721718Y-83221718D01*
X161625464Y-83347159D01*
X161564956Y-83493238D01*
X161549500Y-83610637D01*
X161549500Y-85389356D01*
X161549501Y-85389360D01*
X161564956Y-85506762D01*
X161625464Y-85652841D01*
X161647124Y-85681068D01*
X161649500Y-85688069D01*
X161649500Y-86496500D01*
X161646132Y-86504632D01*
X158038180Y-90112583D01*
X158030048Y-90115951D01*
X158021916Y-90112583D01*
X158018548Y-90104451D01*
X158020925Y-90097450D01*
X158051095Y-90058132D01*
X158051099Y-90058127D01*
X158175664Y-89842373D01*
X158271002Y-89612207D01*
X158335482Y-89371565D01*
X158368000Y-89124565D01*
X158368000Y-88875435D01*
X158335482Y-88628435D01*
X158271002Y-88387793D01*
X158175664Y-88157627D01*
X158174015Y-88154772D01*
X158172867Y-88146047D01*
X158175841Y-88140893D01*
X160130520Y-86186216D01*
X160209577Y-86049284D01*
X160233762Y-85959022D01*
X160239120Y-85952040D01*
X160244870Y-85950499D01*
X160439356Y-85950499D01*
X160439360Y-85950499D01*
X160556762Y-85935044D01*
X160702841Y-85874536D01*
X160828282Y-85778282D01*
X160924536Y-85652841D01*
X160985044Y-85506762D01*
X161000500Y-85389361D01*
X161000499Y-84700001D01*
X161150000Y-84700001D01*
X161150000Y-85633787D01*
X161222473Y-85601789D01*
X161222476Y-85601787D01*
X161266868Y-85557396D01*
X161275000Y-85554028D01*
X161283132Y-85557396D01*
X161327523Y-85601787D01*
X161327526Y-85601789D01*
X161400000Y-85633788D01*
X161400000Y-84700001D01*
X161399999Y-84700000D01*
X161150001Y-84700000D01*
X161150000Y-84700001D01*
X161000499Y-84700001D01*
X161000499Y-84485905D01*
X161000499Y-83610643D01*
X161000499Y-83610640D01*
X160985044Y-83493238D01*
X160932427Y-83366210D01*
X161150000Y-83366210D01*
X161150000Y-84299999D01*
X161150001Y-84300000D01*
X161399999Y-84300000D01*
X161400000Y-84299999D01*
X161400000Y-83366210D01*
X161399999Y-83366210D01*
X161327526Y-83398210D01*
X161327523Y-83398212D01*
X161283132Y-83442603D01*
X161275000Y-83445971D01*
X161266868Y-83442603D01*
X161222476Y-83398212D01*
X161222473Y-83398210D01*
X161150000Y-83366210D01*
X160932427Y-83366210D01*
X160924536Y-83347159D01*
X160828282Y-83221718D01*
X160702841Y-83125464D01*
X160702837Y-83125462D01*
X160695986Y-83122624D01*
X160689762Y-83116401D01*
X160689763Y-83107599D01*
X160695986Y-83101375D01*
X160700387Y-83100500D01*
X161849613Y-83100500D01*
X161857745Y-83103868D01*
G37*
%TD.AperFunction*%
%TA.AperFunction,Conductor*%
G36*
X163219021Y-85921702D02*
G01*
X163219021Y-85930504D01*
X163216528Y-85934235D01*
X162870132Y-86280632D01*
X162862000Y-86284000D01*
X162853868Y-86280632D01*
X162850500Y-86272500D01*
X162850500Y-85961999D01*
X162853868Y-85953867D01*
X162862000Y-85950499D01*
X163039356Y-85950499D01*
X163039360Y-85950499D01*
X163156762Y-85935044D01*
X163203998Y-85915478D01*
X163212797Y-85915478D01*
X163219021Y-85921702D01*
G37*
%TD.AperFunction*%
%TA.AperFunction,Conductor*%
G36*
X166054633Y-76003868D02*
G01*
X166396132Y-76345367D01*
X166399500Y-76353499D01*
X166399500Y-76600904D01*
X166396132Y-76609036D01*
X166388000Y-76612404D01*
X166379868Y-76609036D01*
X166318021Y-76547190D01*
X166230000Y-76506144D01*
X166230000Y-76988500D01*
X166226632Y-76996632D01*
X166218500Y-77000000D01*
X165812000Y-77000000D01*
X165803868Y-76996632D01*
X165800500Y-76988500D01*
X165800500Y-76765318D01*
X165800500Y-76765310D01*
X165797643Y-76729007D01*
X165779802Y-76667601D01*
X165752496Y-76573609D01*
X165731601Y-76538276D01*
X165730000Y-76532422D01*
X165730000Y-76506145D01*
X165729999Y-76506144D01*
X165725809Y-76508098D01*
X165717016Y-76508481D01*
X165711051Y-76503529D01*
X165670117Y-76434313D01*
X165555687Y-76319883D01*
X165416395Y-76237506D01*
X165416390Y-76237503D01*
X165260997Y-76192358D01*
X165260998Y-76192358D01*
X165260995Y-76192357D01*
X165260993Y-76192357D01*
X165224690Y-76189500D01*
X164815310Y-76189500D01*
X164779007Y-76192357D01*
X164779004Y-76192357D01*
X164779002Y-76192358D01*
X164623607Y-76237504D01*
X164617853Y-76240907D01*
X164609139Y-76242147D01*
X164602101Y-76236861D01*
X164600500Y-76231008D01*
X164600500Y-76012000D01*
X164603868Y-76003868D01*
X164612000Y-76000500D01*
X166046501Y-76000500D01*
X166054633Y-76003868D01*
G37*
%TD.AperFunction*%
%TA.AperFunction,Conductor*%
G36*
X159513872Y-75453868D02*
G01*
X159696132Y-75636128D01*
X159699500Y-75644260D01*
X159699500Y-76038000D01*
X159696132Y-76046132D01*
X159688000Y-76049500D01*
X159510643Y-76049500D01*
X159510637Y-76049501D01*
X159393238Y-76064956D01*
X159247159Y-76125464D01*
X159121718Y-76221718D01*
X159025464Y-76347159D01*
X159010625Y-76382983D01*
X159004401Y-76389207D01*
X158995599Y-76389207D01*
X158989375Y-76382983D01*
X158986582Y-76376240D01*
X158974536Y-76347159D01*
X158968386Y-76339144D01*
X158952876Y-76318929D01*
X158950500Y-76311929D01*
X158950500Y-75988929D01*
X158953867Y-75980798D01*
X158986486Y-75948180D01*
X159074091Y-75817070D01*
X159134434Y-75671388D01*
X159165197Y-75516733D01*
X159165197Y-75462001D01*
X159168565Y-75453869D01*
X159176697Y-75450501D01*
X159298382Y-75450501D01*
X159298398Y-75450500D01*
X159505740Y-75450500D01*
X159513872Y-75453868D01*
G37*
%TD.AperFunction*%
%TA.AperFunction,Conductor*%
G36*
X155625393Y-66893867D02*
G01*
X156362045Y-67630520D01*
X156498977Y-67709577D01*
X156651704Y-67750501D01*
X156810516Y-67750501D01*
X156810532Y-67750500D01*
X157396501Y-67750500D01*
X157404633Y-67753868D01*
X161647603Y-71996838D01*
X161650971Y-72004970D01*
X161650971Y-73436843D01*
X161647603Y-73444975D01*
X161639471Y-73448343D01*
X161633721Y-73446802D01*
X161601021Y-73427923D01*
X161601022Y-73427923D01*
X161448295Y-73387000D01*
X161290181Y-73387000D01*
X161289484Y-73387000D01*
X161289468Y-73387001D01*
X160847297Y-73387001D01*
X160839165Y-73383633D01*
X160700350Y-73244818D01*
X160700349Y-73244816D01*
X160588545Y-73133012D01*
X160588544Y-73133011D01*
X160494918Y-73078957D01*
X160451612Y-73053954D01*
X160451613Y-73053954D01*
X160298886Y-73013031D01*
X160140772Y-73013031D01*
X160140075Y-73013031D01*
X160140059Y-73013032D01*
X159952816Y-73013032D01*
X159944684Y-73009664D01*
X159193869Y-72258849D01*
X159190501Y-72250717D01*
X159190501Y-72217185D01*
X159182940Y-72179175D01*
X159159738Y-72062529D01*
X159099395Y-71916847D01*
X159024686Y-71805038D01*
X159022970Y-71796406D01*
X159024287Y-71792905D01*
X159059577Y-71731784D01*
X159083186Y-71643671D01*
X159088544Y-71636689D01*
X159092046Y-71635370D01*
X159233497Y-71607235D01*
X159379179Y-71546892D01*
X159510289Y-71459287D01*
X159621789Y-71347787D01*
X159709394Y-71216677D01*
X159769737Y-71070995D01*
X159800500Y-70916340D01*
X159800500Y-70758656D01*
X159769737Y-70604001D01*
X159709394Y-70458319D01*
X159621789Y-70327209D01*
X159510289Y-70215709D01*
X159510285Y-70215706D01*
X159379181Y-70128105D01*
X159233495Y-70067760D01*
X159140366Y-70049235D01*
X159078842Y-70036998D01*
X158921158Y-70036998D01*
X158844357Y-70052274D01*
X158766506Y-70067760D01*
X158766503Y-70067760D01*
X158620818Y-70128105D01*
X158489714Y-70215706D01*
X158397774Y-70307644D01*
X158389642Y-70311012D01*
X158383253Y-70309074D01*
X158363131Y-70295629D01*
X158217445Y-70235284D01*
X158119017Y-70215706D01*
X158062792Y-70204522D01*
X157905108Y-70204522D01*
X157848883Y-70215706D01*
X157750456Y-70235284D01*
X157750453Y-70235284D01*
X157604768Y-70295629D01*
X157473664Y-70383230D01*
X157455741Y-70401153D01*
X157447609Y-70404521D01*
X157415921Y-70404521D01*
X157263194Y-70445444D01*
X157240895Y-70458319D01*
X157126262Y-70524501D01*
X156909480Y-70741283D01*
X156866237Y-70816185D01*
X156830423Y-70878215D01*
X156789500Y-71030942D01*
X156789500Y-71189976D01*
X156789501Y-71189989D01*
X156789501Y-72263927D01*
X156786133Y-72272059D01*
X156778001Y-72275427D01*
X156703844Y-72275427D01*
X156703828Y-72275426D01*
X156703131Y-72275426D01*
X156545016Y-72275426D01*
X156392290Y-72316349D01*
X156255357Y-72395406D01*
X156019479Y-72631284D01*
X155992916Y-72677292D01*
X155991089Y-72679674D01*
X154984633Y-73686132D01*
X154976501Y-73689500D01*
X154911158Y-73689500D01*
X154834357Y-73704776D01*
X154756506Y-73720262D01*
X154756503Y-73720262D01*
X154610818Y-73780607D01*
X154479714Y-73868208D01*
X154368208Y-73979714D01*
X154280607Y-74110818D01*
X154220262Y-74256503D01*
X154220262Y-74256506D01*
X154207802Y-74319146D01*
X154189500Y-74411158D01*
X154189500Y-74568842D01*
X154205895Y-74651265D01*
X154220262Y-74723493D01*
X154220262Y-74723496D01*
X154280607Y-74869181D01*
X154288913Y-74881611D01*
X154290630Y-74890243D01*
X154285740Y-74897562D01*
X154279351Y-74899500D01*
X154253499Y-74899500D01*
X154245367Y-74896132D01*
X154003868Y-74654633D01*
X154000500Y-74646501D01*
X154000500Y-71975257D01*
X153998673Y-71968440D01*
X153998673Y-71968439D01*
X153976532Y-71885807D01*
X153959578Y-71822535D01*
X153959577Y-71822530D01*
X153880520Y-71685598D01*
X153768716Y-71573794D01*
X153768713Y-71573792D01*
X153603868Y-71408947D01*
X153600500Y-71400815D01*
X153600500Y-70579991D01*
X153600501Y-70579978D01*
X153600501Y-70477500D01*
X153603869Y-70469368D01*
X153612001Y-70466000D01*
X153620133Y-70469368D01*
X154196132Y-71045367D01*
X154199500Y-71053498D01*
X154199500Y-71078842D01*
X154208043Y-71121789D01*
X154230262Y-71233493D01*
X154230262Y-71233496D01*
X154290607Y-71379181D01*
X154344134Y-71459289D01*
X154378211Y-71510289D01*
X154489711Y-71621789D01*
X154620821Y-71709394D01*
X154766503Y-71769737D01*
X154921158Y-71800500D01*
X154921160Y-71800500D01*
X155078840Y-71800500D01*
X155078842Y-71800500D01*
X155233497Y-71769737D01*
X155379179Y-71709394D01*
X155510289Y-71621789D01*
X155621789Y-71510289D01*
X155709394Y-71379179D01*
X155769737Y-71233497D01*
X155800500Y-71078842D01*
X155800500Y-70921430D01*
X155803868Y-70913298D01*
X155812000Y-70909930D01*
X155969410Y-70909930D01*
X155969412Y-70909930D01*
X156124067Y-70879167D01*
X156269749Y-70818824D01*
X156400859Y-70731219D01*
X156512359Y-70619719D01*
X156599964Y-70488609D01*
X156660307Y-70342927D01*
X156691070Y-70188272D01*
X156691070Y-70030588D01*
X156660307Y-69875933D01*
X156599964Y-69730251D01*
X156517832Y-69607333D01*
X156516116Y-69598701D01*
X156519261Y-69592815D01*
X156601789Y-69510289D01*
X156689394Y-69379179D01*
X156749737Y-69233497D01*
X156780500Y-69078842D01*
X156780500Y-68921158D01*
X156749737Y-68766503D01*
X156689394Y-68620821D01*
X156601789Y-68489711D01*
X156490289Y-68378211D01*
X156479135Y-68370758D01*
X156359181Y-68290607D01*
X156213495Y-68230262D01*
X156120366Y-68211737D01*
X156058842Y-68199500D01*
X155901158Y-68199500D01*
X155824357Y-68214776D01*
X155746506Y-68230262D01*
X155746503Y-68230262D01*
X155600818Y-68290607D01*
X155469714Y-68378208D01*
X155358208Y-68489714D01*
X155270616Y-68620804D01*
X155263297Y-68625694D01*
X155254665Y-68623977D01*
X155252922Y-68622547D01*
X155103869Y-68473494D01*
X155100501Y-68465362D01*
X155100501Y-68356960D01*
X155076263Y-68266506D01*
X155059577Y-68204233D01*
X154980520Y-68067301D01*
X154939359Y-68026140D01*
X154935991Y-68018008D01*
X154939359Y-68009876D01*
X154980520Y-67968716D01*
X155059577Y-67831784D01*
X155100500Y-67679057D01*
X155100500Y-66902000D01*
X155103868Y-66893868D01*
X155112000Y-66890500D01*
X155617262Y-66890500D01*
X155625393Y-66893867D01*
G37*
%TD.AperFunction*%
%TA.AperFunction,Conductor*%
G36*
X168331353Y-58883868D02*
G01*
X168333468Y-58886779D01*
X168384949Y-58987816D01*
X168384952Y-58987820D01*
X168489697Y-59131991D01*
X168509896Y-59159792D01*
X168660208Y-59310104D01*
X168832184Y-59435051D01*
X169021588Y-59531557D01*
X169021590Y-59531557D01*
X169021591Y-59531558D01*
X169044688Y-59539063D01*
X169051381Y-59544779D01*
X169052071Y-59553554D01*
X169046355Y-59560247D01*
X169044688Y-59560937D01*
X169021591Y-59568441D01*
X168924932Y-59617691D01*
X168832184Y-59664949D01*
X168832181Y-59664950D01*
X168832179Y-59664952D01*
X168660211Y-59789893D01*
X168509893Y-59940211D01*
X168384952Y-60112179D01*
X168288441Y-60301591D01*
X168222753Y-60503759D01*
X168189500Y-60713710D01*
X168189500Y-60926289D01*
X168222753Y-61136240D01*
X168288441Y-61338408D01*
X168288442Y-61338411D01*
X168288443Y-61338412D01*
X168384949Y-61527816D01*
X168509896Y-61699792D01*
X168660208Y-61850104D01*
X168832184Y-61975051D01*
X169021588Y-62071557D01*
X169021590Y-62071557D01*
X169021591Y-62071558D01*
X169044688Y-62079063D01*
X169051381Y-62084779D01*
X169052071Y-62093554D01*
X169046355Y-62100247D01*
X169044688Y-62100937D01*
X169021591Y-62108441D01*
X168948068Y-62145903D01*
X168832184Y-62204949D01*
X168832181Y-62204950D01*
X168832179Y-62204952D01*
X168660211Y-62329893D01*
X168509893Y-62480211D01*
X168384952Y-62652179D01*
X168384950Y-62652181D01*
X168384949Y-62652184D01*
X168352594Y-62715685D01*
X168288441Y-62841591D01*
X168222753Y-63043759D01*
X168189500Y-63253710D01*
X168189500Y-63466289D01*
X168222753Y-63676240D01*
X168288441Y-63878408D01*
X168288442Y-63878411D01*
X168288443Y-63878412D01*
X168384949Y-64067816D01*
X168509896Y-64239792D01*
X168660208Y-64390104D01*
X168832184Y-64515051D01*
X169021588Y-64611557D01*
X169223757Y-64677246D01*
X169328735Y-64693873D01*
X169433711Y-64710500D01*
X169433713Y-64710500D01*
X169646289Y-64710500D01*
X169730269Y-64697198D01*
X169856243Y-64677246D01*
X170058412Y-64611557D01*
X170247816Y-64515051D01*
X170419792Y-64390104D01*
X170570104Y-64239792D01*
X170628696Y-64159145D01*
X170636201Y-64154547D01*
X170644759Y-64156601D01*
X170649358Y-64164106D01*
X170649500Y-64165905D01*
X170649500Y-67634093D01*
X170646132Y-67642225D01*
X170638000Y-67645593D01*
X170629868Y-67642225D01*
X170628696Y-67640853D01*
X170625092Y-67635892D01*
X170570104Y-67560208D01*
X170419792Y-67409896D01*
X170247816Y-67284949D01*
X170058412Y-67188443D01*
X170058411Y-67188442D01*
X170058408Y-67188441D01*
X169856240Y-67122753D01*
X169646289Y-67089500D01*
X169646287Y-67089500D01*
X169433713Y-67089500D01*
X169433711Y-67089500D01*
X169223759Y-67122753D01*
X169021591Y-67188441D01*
X168941878Y-67229057D01*
X168832184Y-67284949D01*
X168832181Y-67284950D01*
X168832179Y-67284952D01*
X168660211Y-67409893D01*
X168509893Y-67560211D01*
X168384952Y-67732179D01*
X168384950Y-67732181D01*
X168384949Y-67732184D01*
X168348831Y-67803069D01*
X168288441Y-67921591D01*
X168222753Y-68123759D01*
X168189500Y-68333710D01*
X168189500Y-68546289D01*
X168222753Y-68756240D01*
X168288441Y-68958408D01*
X168288442Y-68958411D01*
X168288443Y-68958412D01*
X168384949Y-69147816D01*
X168384952Y-69147820D01*
X168469686Y-69264448D01*
X168509896Y-69319792D01*
X168660208Y-69470104D01*
X168832184Y-69595051D01*
X169021588Y-69691557D01*
X169021590Y-69691557D01*
X169021591Y-69691558D01*
X169044688Y-69699063D01*
X169051381Y-69704779D01*
X169052071Y-69713554D01*
X169046355Y-69720247D01*
X169044688Y-69720937D01*
X169021591Y-69728441D01*
X168976799Y-69751264D01*
X168832184Y-69824949D01*
X168832181Y-69824950D01*
X168832179Y-69824952D01*
X168660211Y-69949893D01*
X168509893Y-70100211D01*
X168384952Y-70272179D01*
X168384950Y-70272181D01*
X168384949Y-70272184D01*
X168356911Y-70327212D01*
X168288441Y-70461591D01*
X168222753Y-70663759D01*
X168189500Y-70873710D01*
X168189500Y-71086289D01*
X168222753Y-71296240D01*
X168288441Y-71498408D01*
X168288442Y-71498411D01*
X168288443Y-71498412D01*
X168384949Y-71687816D01*
X168509896Y-71859792D01*
X168660208Y-72010104D01*
X168832184Y-72135051D01*
X169021588Y-72231557D01*
X169021590Y-72231557D01*
X169021591Y-72231558D01*
X169044688Y-72239063D01*
X169051381Y-72244779D01*
X169052071Y-72253554D01*
X169046355Y-72260247D01*
X169044688Y-72260937D01*
X169021591Y-72268441D01*
X168939476Y-72310281D01*
X168832184Y-72364949D01*
X168832181Y-72364950D01*
X168832179Y-72364952D01*
X168660211Y-72489893D01*
X168509893Y-72640211D01*
X168384952Y-72812179D01*
X168288441Y-73001591D01*
X168222753Y-73203759D01*
X168189500Y-73413710D01*
X168189500Y-73626289D01*
X168222753Y-73836240D01*
X168257795Y-73944089D01*
X168257650Y-73945925D01*
X168258358Y-73947627D01*
X168257318Y-73950145D01*
X168257105Y-73952864D01*
X168255001Y-73955763D01*
X168254645Y-73956120D01*
X168246518Y-73959500D01*
X168019770Y-73959500D01*
X168019754Y-73959499D01*
X168019057Y-73959499D01*
X167860943Y-73959499D01*
X167708216Y-74000422D01*
X167658095Y-74029360D01*
X167571284Y-74079479D01*
X167459478Y-74191286D01*
X167254633Y-74396132D01*
X167246501Y-74399500D01*
X166220649Y-74399500D01*
X166212517Y-74396132D01*
X166209149Y-74388000D01*
X166211087Y-74381611D01*
X166219394Y-74369179D01*
X166279737Y-74223497D01*
X166310500Y-74068842D01*
X166310500Y-73911158D01*
X166279737Y-73756503D01*
X166219394Y-73610821D01*
X166131789Y-73479711D01*
X166020289Y-73368211D01*
X166020285Y-73368208D01*
X165889181Y-73280607D01*
X165743495Y-73220262D01*
X165650366Y-73201737D01*
X165588842Y-73189500D01*
X165431158Y-73189500D01*
X165359484Y-73203757D01*
X165276506Y-73220262D01*
X165276503Y-73220262D01*
X165130818Y-73280607D01*
X164999714Y-73368208D01*
X164888208Y-73479714D01*
X164800607Y-73610818D01*
X164740262Y-73756503D01*
X164740262Y-73756506D01*
X164735468Y-73780607D01*
X164709500Y-73911158D01*
X164709500Y-74068842D01*
X164711616Y-74079479D01*
X164740262Y-74223493D01*
X164740262Y-74223496D01*
X164800607Y-74369181D01*
X164808913Y-74381611D01*
X164810630Y-74390243D01*
X164805740Y-74397562D01*
X164799351Y-74399500D01*
X163602112Y-74399500D01*
X163593980Y-74396132D01*
X163590612Y-74388000D01*
X163590612Y-72343091D01*
X163593979Y-72334960D01*
X163618655Y-72310285D01*
X163706260Y-72179175D01*
X163766603Y-72033493D01*
X163797366Y-71878838D01*
X163797366Y-71721154D01*
X163766603Y-71566499D01*
X163706260Y-71420817D01*
X163698184Y-71408731D01*
X163696468Y-71400099D01*
X163698185Y-71395954D01*
X163709394Y-71379179D01*
X163769737Y-71233497D01*
X163800500Y-71078842D01*
X163800500Y-71053498D01*
X163803867Y-71045367D01*
X164085554Y-70763679D01*
X164093685Y-70760312D01*
X164101817Y-70763680D01*
X164104310Y-70767411D01*
X164150607Y-70879181D01*
X164178837Y-70921430D01*
X164238211Y-71010289D01*
X164349711Y-71121789D01*
X164480821Y-71209394D01*
X164626503Y-71269737D01*
X164781158Y-71300500D01*
X164781160Y-71300500D01*
X164938840Y-71300500D01*
X164938842Y-71300500D01*
X165093497Y-71269737D01*
X165239179Y-71209394D01*
X165370289Y-71121789D01*
X165481789Y-71010289D01*
X165569394Y-70879179D01*
X165629737Y-70733497D01*
X165632532Y-70719441D01*
X165635677Y-70713556D01*
X167367768Y-68981466D01*
X167367773Y-68981462D01*
X167368714Y-68980520D01*
X167368716Y-68980520D01*
X167480520Y-68868716D01*
X167533984Y-68776113D01*
X167559577Y-68731785D01*
X167600500Y-68579057D01*
X167600500Y-68420943D01*
X167600500Y-68253499D01*
X167603868Y-68245367D01*
X167781934Y-68067301D01*
X167980520Y-67868716D01*
X168059577Y-67731784D01*
X168065528Y-67709577D01*
X168091144Y-67613977D01*
X168100501Y-67579057D01*
X168100501Y-67420942D01*
X168100501Y-67420246D01*
X168100500Y-67420228D01*
X168100500Y-65796584D01*
X168490000Y-65796584D01*
X168490000Y-66003415D01*
X168530348Y-66206268D01*
X168530349Y-66206273D01*
X168609503Y-66397364D01*
X168641378Y-66445067D01*
X169057036Y-66029407D01*
X169074075Y-66092993D01*
X169139901Y-66207007D01*
X169232993Y-66300099D01*
X169347007Y-66365925D01*
X169410589Y-66382962D01*
X168994931Y-66798621D01*
X169042635Y-66830496D01*
X169233726Y-66909650D01*
X169233731Y-66909651D01*
X169436585Y-66950000D01*
X169643415Y-66950000D01*
X169846268Y-66909651D01*
X169846273Y-66909650D01*
X170037364Y-66830496D01*
X170085067Y-66798621D01*
X169669408Y-66382962D01*
X169732993Y-66365925D01*
X169847007Y-66300099D01*
X169940099Y-66207007D01*
X170005925Y-66092993D01*
X170022962Y-66029408D01*
X170438621Y-66445067D01*
X170470496Y-66397364D01*
X170549650Y-66206273D01*
X170549651Y-66206268D01*
X170590000Y-66003415D01*
X170590000Y-65796584D01*
X170549651Y-65593731D01*
X170549650Y-65593726D01*
X170470496Y-65402635D01*
X170438621Y-65354931D01*
X170022962Y-65770589D01*
X170005925Y-65707007D01*
X169940099Y-65592993D01*
X169847007Y-65499901D01*
X169732993Y-65434075D01*
X169669407Y-65417036D01*
X170085067Y-65001378D01*
X170037364Y-64969503D01*
X169846273Y-64890349D01*
X169846268Y-64890348D01*
X169643415Y-64850000D01*
X169436585Y-64850000D01*
X169233731Y-64890348D01*
X169233726Y-64890349D01*
X169042635Y-64969503D01*
X168994931Y-65001378D01*
X169410591Y-65417037D01*
X169347007Y-65434075D01*
X169232993Y-65499901D01*
X169139901Y-65592993D01*
X169074075Y-65707007D01*
X169057037Y-65770591D01*
X168641378Y-65354931D01*
X168609503Y-65402635D01*
X168530349Y-65593726D01*
X168530348Y-65593731D01*
X168490000Y-65796584D01*
X168100500Y-65796584D01*
X168100500Y-62536341D01*
X168103867Y-62528210D01*
X168121789Y-62510289D01*
X168209394Y-62379179D01*
X168269737Y-62233497D01*
X168300500Y-62078842D01*
X168300500Y-61921158D01*
X168269737Y-61766503D01*
X168209394Y-61620821D01*
X168121789Y-61489711D01*
X168010289Y-61378211D01*
X167996079Y-61368716D01*
X167879181Y-61290607D01*
X167855036Y-61280606D01*
X167733497Y-61230263D01*
X167733495Y-61230262D01*
X167640366Y-61211737D01*
X167578842Y-61199500D01*
X167421158Y-61199500D01*
X167344357Y-61214776D01*
X167266506Y-61230262D01*
X167266503Y-61230262D01*
X167120818Y-61290607D01*
X166989714Y-61378208D01*
X166878208Y-61489714D01*
X166790607Y-61620818D01*
X166747947Y-61723807D01*
X166741723Y-61730031D01*
X166733982Y-61730410D01*
X166733498Y-61730263D01*
X166681945Y-61720008D01*
X166578842Y-61699500D01*
X166421158Y-61699500D01*
X166344357Y-61714776D01*
X166266506Y-61730262D01*
X166266503Y-61730262D01*
X166120818Y-61790607D01*
X165989714Y-61878208D01*
X165878208Y-61989714D01*
X165790607Y-62120818D01*
X165730262Y-62266503D01*
X165730262Y-62266506D01*
X165699500Y-62421158D01*
X165699500Y-62578842D01*
X165706054Y-62611789D01*
X165730262Y-62733493D01*
X165730262Y-62733496D01*
X165790607Y-62879181D01*
X165841022Y-62954632D01*
X165878211Y-63010289D01*
X165989711Y-63121789D01*
X166120821Y-63209394D01*
X166266503Y-63269737D01*
X166390244Y-63294350D01*
X166397562Y-63299239D01*
X166399500Y-63305628D01*
X166399500Y-67180815D01*
X166396132Y-67188947D01*
X166280721Y-67304358D01*
X166272589Y-67307726D01*
X166264457Y-67304358D01*
X166261089Y-67296226D01*
X166261089Y-65740580D01*
X166261090Y-65740567D01*
X166261090Y-65581532D01*
X166239243Y-65500000D01*
X166220166Y-65428805D01*
X166190958Y-65378216D01*
X166190591Y-65377580D01*
X166189442Y-65368854D01*
X166189442Y-65368853D01*
X166200501Y-65327583D01*
X166200501Y-65168774D01*
X166200500Y-65168756D01*
X166200500Y-64672414D01*
X166186676Y-64620821D01*
X166179949Y-64595716D01*
X166159577Y-64519686D01*
X166104064Y-64423535D01*
X166080520Y-64382755D01*
X165968716Y-64270951D01*
X165968713Y-64270949D01*
X165729050Y-64031286D01*
X165729049Y-64031284D01*
X165617245Y-63919480D01*
X165617244Y-63919479D01*
X165529318Y-63868716D01*
X165480312Y-63840422D01*
X165480313Y-63840422D01*
X165327586Y-63799499D01*
X165169472Y-63799499D01*
X165168775Y-63799499D01*
X165168759Y-63799500D01*
X164653500Y-63799500D01*
X164645368Y-63796132D01*
X163803868Y-62954632D01*
X163800500Y-62946500D01*
X163800500Y-62921159D01*
X163775721Y-62796586D01*
X163775500Y-62794342D01*
X163775500Y-62078499D01*
X163778868Y-62070367D01*
X164245367Y-61603868D01*
X164253499Y-61600500D01*
X165920230Y-61600500D01*
X165920246Y-61600501D01*
X165920943Y-61600501D01*
X166079057Y-61600501D01*
X166231785Y-61559577D01*
X166296123Y-61522431D01*
X166368716Y-61480520D01*
X166480520Y-61368716D01*
X166480520Y-61368714D01*
X166481462Y-61367773D01*
X166481465Y-61367768D01*
X167480520Y-60368716D01*
X167559577Y-60231784D01*
X167600501Y-60079057D01*
X167600501Y-59920942D01*
X167600501Y-59920246D01*
X167600500Y-59920228D01*
X167600500Y-59253499D01*
X167603868Y-59245367D01*
X167965368Y-58883868D01*
X167973500Y-58880500D01*
X168323221Y-58880500D01*
X168331353Y-58883868D01*
G37*
%TD.AperFunction*%
%TA.AperFunction,Conductor*%
G36*
X162803951Y-64653186D02*
G01*
X163519478Y-65368713D01*
X163519480Y-65368716D01*
X163631284Y-65480520D01*
X163711416Y-65526784D01*
X163768215Y-65559577D01*
X163920943Y-65600500D01*
X164463658Y-65600500D01*
X164471790Y-65603868D01*
X164489711Y-65621789D01*
X164620821Y-65709394D01*
X164766503Y-65769737D01*
X164921158Y-65800500D01*
X164946501Y-65800500D01*
X164954633Y-65803868D01*
X165056721Y-65905956D01*
X165060089Y-65914088D01*
X165060089Y-67803069D01*
X165056721Y-67811201D01*
X165038797Y-67829125D01*
X164951196Y-67960229D01*
X164890851Y-68105914D01*
X164890851Y-68105917D01*
X164887302Y-68123759D01*
X164866118Y-68230262D01*
X164860089Y-68260570D01*
X164860089Y-68362626D01*
X164856721Y-68370758D01*
X164851566Y-68373734D01*
X164828804Y-68379833D01*
X164786903Y-68404026D01*
X164691873Y-68458890D01*
X164580067Y-68570697D01*
X163077361Y-70073402D01*
X163069229Y-70076770D01*
X163061097Y-70073402D01*
X163058608Y-70069677D01*
X163003598Y-69936870D01*
X162915993Y-69805760D01*
X162804493Y-69694260D01*
X162804489Y-69694257D01*
X162673385Y-69606656D01*
X162656077Y-69599487D01*
X162527701Y-69546312D01*
X162527699Y-69546311D01*
X162434570Y-69527786D01*
X162373046Y-69515549D01*
X162215362Y-69515549D01*
X162138942Y-69530750D01*
X162060710Y-69546311D01*
X162060707Y-69546311D01*
X161915022Y-69606656D01*
X161783918Y-69694257D01*
X161672412Y-69805763D01*
X161584811Y-69936867D01*
X161524466Y-70082552D01*
X161524466Y-70082555D01*
X161513287Y-70138752D01*
X161508397Y-70146070D01*
X161499764Y-70147787D01*
X161493876Y-70144640D01*
X161064457Y-69715221D01*
X160633314Y-69284079D01*
X160629947Y-69275948D01*
X160633315Y-69267816D01*
X160641447Y-69264448D01*
X160645845Y-69265322D01*
X160656503Y-69269737D01*
X160811158Y-69300500D01*
X160811160Y-69300500D01*
X160968840Y-69300500D01*
X160968842Y-69300500D01*
X161123497Y-69269737D01*
X161269179Y-69209394D01*
X161400289Y-69121789D01*
X161511789Y-69010289D01*
X161599394Y-68879179D01*
X161659737Y-68733497D01*
X161690500Y-68578842D01*
X161690500Y-68421158D01*
X161659737Y-68266503D01*
X161599394Y-68120821D01*
X161511789Y-67989711D01*
X161423110Y-67901032D01*
X161419742Y-67892900D01*
X161419962Y-67890661D01*
X161440146Y-67789197D01*
X161440146Y-67631513D01*
X161409383Y-67476858D01*
X161349040Y-67331176D01*
X161261435Y-67200066D01*
X161149935Y-67088566D01*
X161149931Y-67088563D01*
X161018827Y-67000962D01*
X161014032Y-66998976D01*
X161003106Y-66994450D01*
X160971234Y-66981248D01*
X160965010Y-66975024D01*
X160965010Y-66966222D01*
X160967500Y-66962494D01*
X161257768Y-66672227D01*
X161257773Y-66672223D01*
X161258714Y-66671281D01*
X161258716Y-66671281D01*
X161370520Y-66559477D01*
X161420639Y-66472665D01*
X161449577Y-66422546D01*
X161490500Y-66269818D01*
X161490500Y-66111704D01*
X161490500Y-65863499D01*
X161493868Y-65855367D01*
X162045368Y-65303868D01*
X162053500Y-65300500D01*
X162078840Y-65300500D01*
X162078842Y-65300500D01*
X162233497Y-65269737D01*
X162379179Y-65209394D01*
X162510289Y-65121789D01*
X162621789Y-65010289D01*
X162709394Y-64879179D01*
X162769737Y-64733497D01*
X162784540Y-64659073D01*
X162789430Y-64651756D01*
X162798062Y-64650039D01*
X162803951Y-64653186D01*
G37*
%TD.AperFunction*%
%TA.AperFunction,Conductor*%
G36*
X153120133Y-69212242D02*
G01*
X153123109Y-69217398D01*
X153133622Y-69256633D01*
X153140422Y-69282012D01*
X153196520Y-69379179D01*
X153219480Y-69418946D01*
X153331284Y-69530750D01*
X153331285Y-69530750D01*
X153496132Y-69695598D01*
X153499500Y-69703729D01*
X153499500Y-70020941D01*
X153499499Y-70122499D01*
X153496131Y-70130631D01*
X153487999Y-70133999D01*
X153479867Y-70130631D01*
X153103868Y-69754632D01*
X153100500Y-69746500D01*
X153100500Y-69259990D01*
X153100502Y-69259984D01*
X153100501Y-69259984D01*
X153100501Y-69220374D01*
X153103869Y-69212242D01*
X153112001Y-69208874D01*
X153120133Y-69212242D01*
G37*
%TD.AperFunction*%
%TA.AperFunction,Conductor*%
G36*
X155502451Y-47253868D02*
G01*
X155505819Y-47262000D01*
X155504944Y-47266401D01*
X155496900Y-47285818D01*
X155496900Y-47285821D01*
X155470000Y-47421057D01*
X155470000Y-47539999D01*
X155470001Y-47540000D01*
X155870000Y-47540000D01*
X155870000Y-48040000D01*
X155470001Y-48040000D01*
X155470000Y-48040001D01*
X155470000Y-48158942D01*
X155496900Y-48294178D01*
X155496900Y-48294181D01*
X155549669Y-48421576D01*
X155626271Y-48536220D01*
X155723779Y-48633728D01*
X155838423Y-48710330D01*
X155920000Y-48744119D01*
X155920000Y-48256988D01*
X155929940Y-48274205D01*
X155985795Y-48330060D01*
X156054204Y-48369556D01*
X156130504Y-48390000D01*
X156209496Y-48390000D01*
X156285796Y-48369556D01*
X156354205Y-48330060D01*
X156410060Y-48274205D01*
X156420000Y-48256988D01*
X156420000Y-48744119D01*
X156501576Y-48710330D01*
X156616220Y-48633728D01*
X156713728Y-48536220D01*
X156790330Y-48421576D01*
X156843099Y-48294181D01*
X156843099Y-48294178D01*
X156870000Y-48158942D01*
X156870000Y-48040001D01*
X156869999Y-48040000D01*
X156470000Y-48040000D01*
X156470000Y-47540000D01*
X156869999Y-47540000D01*
X156870000Y-47539999D01*
X156870000Y-47421057D01*
X156843099Y-47285821D01*
X156843099Y-47285818D01*
X156835056Y-47266401D01*
X156835056Y-47257599D01*
X156841280Y-47251375D01*
X156845681Y-47250500D01*
X164134319Y-47250500D01*
X164142451Y-47253868D01*
X164145819Y-47262000D01*
X164144944Y-47266401D01*
X164136900Y-47285818D01*
X164136900Y-47285821D01*
X164110000Y-47421057D01*
X164110000Y-47539999D01*
X164110001Y-47540000D01*
X164510000Y-47540000D01*
X164510000Y-48040000D01*
X164110001Y-48040000D01*
X164110000Y-48040001D01*
X164110000Y-48158942D01*
X164136900Y-48294178D01*
X164136900Y-48294181D01*
X164189669Y-48421576D01*
X164266271Y-48536220D01*
X164363779Y-48633728D01*
X164478423Y-48710330D01*
X164560000Y-48744119D01*
X164560000Y-48256988D01*
X164569940Y-48274205D01*
X164625795Y-48330060D01*
X164694204Y-48369556D01*
X164770504Y-48390000D01*
X164849496Y-48390000D01*
X164925796Y-48369556D01*
X164994205Y-48330060D01*
X165050060Y-48274205D01*
X165060000Y-48256988D01*
X165060000Y-48744119D01*
X165141576Y-48710330D01*
X165256220Y-48633728D01*
X165353728Y-48536220D01*
X165430330Y-48421576D01*
X165483099Y-48294181D01*
X165483099Y-48294178D01*
X165510000Y-48158942D01*
X165510000Y-48040001D01*
X165509999Y-48040000D01*
X165110000Y-48040000D01*
X165110000Y-47540000D01*
X165509999Y-47540000D01*
X165510000Y-47539999D01*
X165510000Y-47421057D01*
X165483099Y-47285821D01*
X165483099Y-47285818D01*
X165475056Y-47266401D01*
X165475056Y-47257599D01*
X165481280Y-47251375D01*
X165485681Y-47250500D01*
X168178000Y-47250500D01*
X168186132Y-47253868D01*
X168189500Y-47262000D01*
X168189500Y-49017872D01*
X168195908Y-49077481D01*
X168195909Y-49077483D01*
X168246204Y-49212331D01*
X168332454Y-49327546D01*
X168447669Y-49413796D01*
X168582517Y-49464091D01*
X168642127Y-49470500D01*
X168851893Y-49470499D01*
X168860025Y-49473867D01*
X168863393Y-49481999D01*
X168860025Y-49490131D01*
X168857114Y-49492245D01*
X168832193Y-49504943D01*
X168832180Y-49504951D01*
X168660211Y-49629893D01*
X168509893Y-49780211D01*
X168384952Y-49952179D01*
X168288441Y-50141591D01*
X168222753Y-50343759D01*
X168189500Y-50553710D01*
X168189500Y-50766289D01*
X168222753Y-50976240D01*
X168288441Y-51178408D01*
X168288442Y-51178411D01*
X168288443Y-51178412D01*
X168384949Y-51367816D01*
X168509896Y-51539792D01*
X168660208Y-51690104D01*
X168832184Y-51815051D01*
X169021588Y-51911557D01*
X169223757Y-51977246D01*
X169328735Y-51993873D01*
X169433711Y-52010500D01*
X169433713Y-52010500D01*
X169646289Y-52010500D01*
X169730269Y-51997198D01*
X169856243Y-51977246D01*
X170058412Y-51911557D01*
X170247816Y-51815051D01*
X170419792Y-51690104D01*
X170570104Y-51539792D01*
X170628696Y-51459145D01*
X170636201Y-51454547D01*
X170644759Y-51456601D01*
X170649358Y-51464106D01*
X170649500Y-51465905D01*
X170649500Y-54934093D01*
X170646132Y-54942225D01*
X170638000Y-54945593D01*
X170629868Y-54942225D01*
X170628696Y-54940853D01*
X170625092Y-54935892D01*
X170570104Y-54860208D01*
X170419792Y-54709896D01*
X170247816Y-54584949D01*
X170058412Y-54488443D01*
X170058411Y-54488442D01*
X170058408Y-54488441D01*
X169856240Y-54422753D01*
X169646289Y-54389500D01*
X169646287Y-54389500D01*
X169433713Y-54389500D01*
X169433711Y-54389500D01*
X169223759Y-54422753D01*
X169021591Y-54488441D01*
X168937333Y-54531373D01*
X168832184Y-54584949D01*
X168832181Y-54584950D01*
X168832179Y-54584952D01*
X168660211Y-54709893D01*
X168509893Y-54860211D01*
X168384952Y-55032179D01*
X168333468Y-55133221D01*
X168326775Y-55138937D01*
X168323221Y-55139500D01*
X167224815Y-55139500D01*
X167216683Y-55136132D01*
X167214191Y-55132403D01*
X167209394Y-55120821D01*
X167121789Y-54989711D01*
X167010289Y-54878211D01*
X167010285Y-54878208D01*
X166879181Y-54790607D01*
X166733495Y-54730262D01*
X166631106Y-54709896D01*
X166578842Y-54699500D01*
X166421158Y-54699500D01*
X166344357Y-54714776D01*
X166266506Y-54730262D01*
X166266503Y-54730262D01*
X166120818Y-54790607D01*
X166057424Y-54832965D01*
X166048791Y-54834682D01*
X166042903Y-54831535D01*
X165968656Y-54757288D01*
X165819334Y-54665186D01*
X165819333Y-54665185D01*
X165819332Y-54665185D01*
X165819326Y-54665182D01*
X165652798Y-54610001D01*
X165652792Y-54609999D01*
X165550011Y-54599500D01*
X163449997Y-54599500D01*
X163449983Y-54599501D01*
X163347207Y-54609999D01*
X163347201Y-54610001D01*
X163180673Y-54665182D01*
X163180667Y-54665185D01*
X163031346Y-54757286D01*
X162907286Y-54881346D01*
X162815185Y-55030667D01*
X162815182Y-55030673D01*
X162760001Y-55197201D01*
X162759999Y-55197207D01*
X162749500Y-55299982D01*
X162749500Y-56700002D01*
X162749501Y-56700016D01*
X162759999Y-56802792D01*
X162760001Y-56802798D01*
X162815182Y-56969326D01*
X162815185Y-56969332D01*
X162815186Y-56969334D01*
X162907288Y-57118656D01*
X163031344Y-57242712D01*
X163180666Y-57334814D01*
X163180668Y-57334814D01*
X163180673Y-57334817D01*
X163292013Y-57371710D01*
X163347203Y-57389999D01*
X163347204Y-57389999D01*
X163347207Y-57390000D01*
X163394511Y-57394832D01*
X163449991Y-57400500D01*
X165550008Y-57400499D01*
X165577970Y-57397642D01*
X165652792Y-57390000D01*
X165652794Y-57389999D01*
X165652797Y-57389999D01*
X165762208Y-57353743D01*
X165819326Y-57334817D01*
X165819328Y-57334815D01*
X165819334Y-57334814D01*
X165881965Y-57296182D01*
X165890652Y-57294781D01*
X165897788Y-57299934D01*
X165899500Y-57305971D01*
X165899500Y-57420229D01*
X165899499Y-57420247D01*
X165899499Y-57579977D01*
X165899500Y-57579990D01*
X165899500Y-58194027D01*
X165896132Y-58202159D01*
X165888000Y-58205527D01*
X165881963Y-58203815D01*
X165819333Y-58165185D01*
X165819331Y-58165184D01*
X165652798Y-58110001D01*
X165652792Y-58109999D01*
X165550011Y-58099500D01*
X163449997Y-58099500D01*
X163449983Y-58099501D01*
X163347207Y-58109999D01*
X163347201Y-58110001D01*
X163180673Y-58165182D01*
X163180667Y-58165185D01*
X163031346Y-58257286D01*
X163031344Y-58257288D01*
X162907288Y-58381344D01*
X162907286Y-58381346D01*
X162815185Y-58530667D01*
X162815182Y-58530673D01*
X162760001Y-58697201D01*
X162759999Y-58697207D01*
X162749500Y-58799982D01*
X162749500Y-60200002D01*
X162749501Y-60200016D01*
X162759999Y-60302792D01*
X162760001Y-60302798D01*
X162815182Y-60469326D01*
X162815185Y-60469332D01*
X162815186Y-60469334D01*
X162907288Y-60618656D01*
X163031344Y-60742712D01*
X163180666Y-60834814D01*
X163180668Y-60834814D01*
X163180673Y-60834817D01*
X163247852Y-60857077D01*
X163264580Y-60862620D01*
X163271240Y-60868375D01*
X163271879Y-60877153D01*
X163269095Y-60881668D01*
X162806286Y-61344478D01*
X162694479Y-61456284D01*
X162648949Y-61535147D01*
X162615422Y-61593216D01*
X162574499Y-61745943D01*
X162574499Y-61904977D01*
X162574500Y-61904990D01*
X162574500Y-62315409D01*
X162571132Y-62323541D01*
X162569389Y-62324971D01*
X162489714Y-62378208D01*
X162378208Y-62489714D01*
X162367198Y-62506192D01*
X162359879Y-62511082D01*
X162351886Y-62509762D01*
X162238375Y-62444228D01*
X162231783Y-62440422D01*
X162231784Y-62440422D01*
X162079057Y-62399499D01*
X161920943Y-62399499D01*
X161920246Y-62399499D01*
X161920230Y-62399500D01*
X161763500Y-62399500D01*
X161755368Y-62396132D01*
X161303868Y-61944632D01*
X161300500Y-61936500D01*
X161300500Y-61911159D01*
X161299273Y-61904990D01*
X161269737Y-61756503D01*
X161209394Y-61610821D01*
X161121789Y-61479711D01*
X161010289Y-61368211D01*
X161010285Y-61368208D01*
X160879181Y-61280607D01*
X160733495Y-61220262D01*
X160629115Y-61199500D01*
X160578842Y-61189500D01*
X160421158Y-61189500D01*
X160344357Y-61204776D01*
X160266506Y-61220262D01*
X160266503Y-61220262D01*
X160120818Y-61280607D01*
X159989714Y-61368208D01*
X159878208Y-61479714D01*
X159790607Y-61610818D01*
X159730262Y-61756503D01*
X159730262Y-61756506D01*
X159728273Y-61766506D01*
X159699500Y-61911158D01*
X159699500Y-62068842D01*
X159719823Y-62171012D01*
X159730262Y-62223493D01*
X159730262Y-62223496D01*
X159790607Y-62369181D01*
X159840752Y-62444228D01*
X159878211Y-62500289D01*
X159989711Y-62611789D01*
X160120821Y-62699394D01*
X160266503Y-62759737D01*
X160421158Y-62790500D01*
X160446501Y-62790500D01*
X160454632Y-62793867D01*
X161141284Y-63480520D01*
X161278216Y-63559577D01*
X161430943Y-63600501D01*
X161589755Y-63600501D01*
X161589771Y-63600500D01*
X161746501Y-63600500D01*
X161754633Y-63603868D01*
X161846812Y-63696047D01*
X161850180Y-63704179D01*
X161846812Y-63712311D01*
X161840924Y-63715458D01*
X161766506Y-63730262D01*
X161766503Y-63730262D01*
X161620818Y-63790607D01*
X161489714Y-63878208D01*
X161378208Y-63989714D01*
X161378207Y-63989716D01*
X161370267Y-64001597D01*
X161362948Y-64006486D01*
X161354316Y-64004768D01*
X161352574Y-64003339D01*
X160980521Y-63631285D01*
X160967736Y-63618500D01*
X160964589Y-63612611D01*
X160962180Y-63600500D01*
X160959737Y-63588214D01*
X160899394Y-63442532D01*
X160811789Y-63311422D01*
X160700289Y-63199922D01*
X160583355Y-63121789D01*
X160569181Y-63112318D01*
X160423495Y-63051973D01*
X160330366Y-63033448D01*
X160268842Y-63021211D01*
X160111158Y-63021211D01*
X160034357Y-63036487D01*
X159956506Y-63051973D01*
X159956503Y-63051973D01*
X159810818Y-63112318D01*
X159679714Y-63199919D01*
X159568208Y-63311425D01*
X159480607Y-63442529D01*
X159420262Y-63588214D01*
X159420262Y-63588217D01*
X159402753Y-63676240D01*
X159394953Y-63715458D01*
X159389500Y-63742870D01*
X159389500Y-63900551D01*
X159420262Y-64055204D01*
X159420262Y-64055207D01*
X159480607Y-64200892D01*
X159513420Y-64250000D01*
X159568211Y-64332000D01*
X159679711Y-64443500D01*
X159810821Y-64531105D01*
X159956503Y-64591448D01*
X160111158Y-64622211D01*
X160111160Y-64622211D01*
X160268211Y-64622211D01*
X160276343Y-64625579D01*
X160396132Y-64745367D01*
X160399500Y-64753499D01*
X160399500Y-65255489D01*
X160397959Y-65261239D01*
X160380273Y-65291873D01*
X160330422Y-65378216D01*
X160289499Y-65530943D01*
X160289499Y-65689977D01*
X160289500Y-65689990D01*
X160289500Y-65937261D01*
X160286132Y-65945393D01*
X159369479Y-66862045D01*
X159325210Y-66938723D01*
X159290422Y-66998977D01*
X159249499Y-67151704D01*
X159249499Y-67310738D01*
X159249500Y-67310751D01*
X159249500Y-67689468D01*
X159249499Y-67689486D01*
X159249499Y-67848295D01*
X159257412Y-67877829D01*
X159256263Y-67886555D01*
X159249280Y-67891913D01*
X159240554Y-67890764D01*
X159238172Y-67888937D01*
X158130521Y-66781286D01*
X158130520Y-66781284D01*
X158018716Y-66669480D01*
X158018715Y-66669479D01*
X157899117Y-66600430D01*
X157881783Y-66590422D01*
X157881784Y-66590422D01*
X157729057Y-66549499D01*
X157570943Y-66549499D01*
X157570246Y-66549499D01*
X157570230Y-66549500D01*
X156984261Y-66549500D01*
X156976129Y-66546132D01*
X156358545Y-65928549D01*
X156355177Y-65920417D01*
X156358545Y-65912285D01*
X156402807Y-65868023D01*
X156453481Y-65759354D01*
X156454713Y-65750000D01*
X156139535Y-65750000D01*
X156133785Y-65748459D01*
X156102544Y-65730422D01*
X156102545Y-65730422D01*
X155988524Y-65699870D01*
X155981541Y-65694512D01*
X155980000Y-65688762D01*
X155980000Y-65500001D01*
X155979999Y-65500000D01*
X155812000Y-65500000D01*
X155803868Y-65496632D01*
X155800500Y-65488500D01*
X155800500Y-65468873D01*
X155800892Y-65465897D01*
X155818549Y-65400000D01*
X155825501Y-65374057D01*
X155825501Y-65249999D01*
X156230000Y-65249999D01*
X156230001Y-65250000D01*
X156454713Y-65250000D01*
X156453481Y-65240645D01*
X156402807Y-65131976D01*
X156318021Y-65047190D01*
X156230000Y-65006144D01*
X156230000Y-65249999D01*
X155825501Y-65249999D01*
X155825501Y-65215942D01*
X155825501Y-65215246D01*
X155825500Y-65215228D01*
X155825500Y-64877216D01*
X155828868Y-64869084D01*
X155830960Y-64867429D01*
X155903044Y-64822968D01*
X156022968Y-64703044D01*
X156112003Y-64558697D01*
X156149958Y-64444152D01*
X156155712Y-64437495D01*
X156164490Y-64436856D01*
X156171119Y-64442551D01*
X156201879Y-64502920D01*
X156297076Y-64598117D01*
X156417034Y-64659238D01*
X156417037Y-64659239D01*
X156516547Y-64674999D01*
X156524999Y-64674998D01*
X156525000Y-64674998D01*
X156525000Y-64250001D01*
X157025000Y-64250001D01*
X157025000Y-64674998D01*
X157025001Y-64674999D01*
X157033452Y-64674999D01*
X157132962Y-64659239D01*
X157132965Y-64659238D01*
X157252923Y-64598117D01*
X157348117Y-64502923D01*
X157409238Y-64382965D01*
X157409239Y-64382962D01*
X157425000Y-64283453D01*
X157425000Y-64250001D01*
X157424999Y-64250000D01*
X157025001Y-64250000D01*
X157025000Y-64250001D01*
X156525000Y-64250001D01*
X156525000Y-63325001D01*
X157025000Y-63325001D01*
X157025000Y-63749999D01*
X157025001Y-63750000D01*
X157424998Y-63750000D01*
X157424999Y-63749999D01*
X157424999Y-63716547D01*
X157409239Y-63617037D01*
X157409238Y-63617034D01*
X157348117Y-63497076D01*
X157252923Y-63401882D01*
X157132965Y-63340761D01*
X157132962Y-63340760D01*
X157033453Y-63325000D01*
X157025001Y-63325000D01*
X157025000Y-63325001D01*
X156525000Y-63325001D01*
X156525000Y-63324999D01*
X156516548Y-63325000D01*
X156417037Y-63340760D01*
X156417034Y-63340761D01*
X156297076Y-63401882D01*
X156201879Y-63497079D01*
X156172247Y-63555235D01*
X156165554Y-63560951D01*
X156156780Y-63560260D01*
X156151064Y-63553567D01*
X156150501Y-63550014D01*
X156150501Y-63284752D01*
X156153869Y-63276620D01*
X156162001Y-63273252D01*
X156165206Y-63273708D01*
X156247431Y-63297598D01*
X156284306Y-63300500D01*
X156284315Y-63300500D01*
X156715685Y-63300500D01*
X156715694Y-63300500D01*
X156752569Y-63297598D01*
X156857788Y-63267028D01*
X156910396Y-63251745D01*
X156910396Y-63251744D01*
X156910398Y-63251744D01*
X156969145Y-63216999D01*
X156977858Y-63215759D01*
X156980852Y-63217000D01*
X157039601Y-63251744D01*
X157039602Y-63251745D01*
X157113631Y-63273252D01*
X157197430Y-63297598D01*
X157234305Y-63300500D01*
X157234314Y-63300500D01*
X157665684Y-63300500D01*
X157665693Y-63300500D01*
X157702568Y-63297598D01*
X157799501Y-63269436D01*
X157860392Y-63251746D01*
X157860393Y-63251744D01*
X157860397Y-63251744D01*
X158001864Y-63168081D01*
X158118080Y-63051865D01*
X158201743Y-62910398D01*
X158201743Y-62910394D01*
X158201745Y-62910393D01*
X158221734Y-62841588D01*
X158247597Y-62752569D01*
X158250499Y-62715694D01*
X158250499Y-62190998D01*
X158253866Y-62182867D01*
X158354942Y-62081790D01*
X158363073Y-62078423D01*
X158367471Y-62079297D01*
X158454002Y-62115140D01*
X158608657Y-62145903D01*
X158608659Y-62145903D01*
X158766339Y-62145903D01*
X158766341Y-62145903D01*
X158920996Y-62115140D01*
X159066678Y-62054797D01*
X159197788Y-61967192D01*
X159309288Y-61855692D01*
X159396893Y-61724582D01*
X159457236Y-61578900D01*
X159487999Y-61424245D01*
X159487999Y-61391743D01*
X159489539Y-61385994D01*
X159524709Y-61325076D01*
X159526529Y-61322704D01*
X159945367Y-60903867D01*
X159953499Y-60900499D01*
X161550003Y-60900499D01*
X161550008Y-60900499D01*
X161577970Y-60897642D01*
X161652792Y-60890000D01*
X161652794Y-60889999D01*
X161652797Y-60889999D01*
X161762208Y-60853743D01*
X161819326Y-60834817D01*
X161819328Y-60834815D01*
X161819334Y-60834814D01*
X161968656Y-60742712D01*
X162092712Y-60618656D01*
X162184814Y-60469334D01*
X162186991Y-60462766D01*
X162216443Y-60373884D01*
X162239999Y-60302797D01*
X162240123Y-60301591D01*
X162250499Y-60200017D01*
X162250499Y-60200016D01*
X162250500Y-60200009D01*
X162250499Y-58799992D01*
X162249238Y-58787650D01*
X162240000Y-58697207D01*
X162239998Y-58697201D01*
X162184817Y-58530673D01*
X162184814Y-58530667D01*
X162184814Y-58530666D01*
X162092712Y-58381344D01*
X161968656Y-58257288D01*
X161819334Y-58165186D01*
X161819333Y-58165185D01*
X161819332Y-58165185D01*
X161819326Y-58165182D01*
X161652798Y-58110001D01*
X161652792Y-58109999D01*
X161550011Y-58099500D01*
X159449997Y-58099500D01*
X159449983Y-58099501D01*
X159347207Y-58109999D01*
X159347201Y-58110001D01*
X159180673Y-58165182D01*
X159180667Y-58165185D01*
X159031346Y-58257286D01*
X159031339Y-58257292D01*
X159020131Y-58268500D01*
X159012000Y-58271868D01*
X159003868Y-58268499D01*
X159000500Y-58260368D01*
X159000500Y-57920943D01*
X158981231Y-57849029D01*
X158959578Y-57768220D01*
X158959577Y-57768215D01*
X158930149Y-57717245D01*
X158880520Y-57631284D01*
X158768716Y-57519480D01*
X158768713Y-57519478D01*
X158666368Y-57417133D01*
X158663000Y-57409001D01*
X158663000Y-56997266D01*
X158666368Y-56989134D01*
X158668460Y-56987479D01*
X158730391Y-56949281D01*
X158775908Y-56903763D01*
X158784038Y-56900396D01*
X158792170Y-56903764D01*
X158794954Y-56908279D01*
X158815182Y-56969326D01*
X158815185Y-56969332D01*
X158815186Y-56969334D01*
X158907288Y-57118656D01*
X159031344Y-57242712D01*
X159180666Y-57334814D01*
X159180668Y-57334814D01*
X159180673Y-57334817D01*
X159292013Y-57371710D01*
X159347203Y-57389999D01*
X159347204Y-57389999D01*
X159347207Y-57390000D01*
X159394511Y-57394832D01*
X159449991Y-57400500D01*
X161550008Y-57400499D01*
X161577970Y-57397642D01*
X161652792Y-57390000D01*
X161652794Y-57389999D01*
X161652797Y-57389999D01*
X161762208Y-57353743D01*
X161819326Y-57334817D01*
X161819328Y-57334815D01*
X161819334Y-57334814D01*
X161968656Y-57242712D01*
X162092712Y-57118656D01*
X162184814Y-56969334D01*
X162239999Y-56802797D01*
X162250500Y-56700009D01*
X162250499Y-55299992D01*
X162249238Y-55287650D01*
X162240000Y-55197207D01*
X162239998Y-55197201D01*
X162184817Y-55030673D01*
X162184814Y-55030667D01*
X162184814Y-55030666D01*
X162092712Y-54881344D01*
X161968656Y-54757288D01*
X161819334Y-54665186D01*
X161819333Y-54665185D01*
X161819332Y-54665185D01*
X161819326Y-54665182D01*
X161652798Y-54610001D01*
X161652792Y-54609999D01*
X161550017Y-54599500D01*
X161550009Y-54599500D01*
X161112000Y-54599500D01*
X161103868Y-54596132D01*
X161100500Y-54588000D01*
X161100500Y-54100067D01*
X161103867Y-54091936D01*
X161180117Y-54015687D01*
X161262494Y-53876395D01*
X161262494Y-53876391D01*
X161262496Y-53876390D01*
X161299211Y-53750015D01*
X161307643Y-53720993D01*
X161310500Y-53684690D01*
X161310500Y-53275310D01*
X161307643Y-53239007D01*
X161281778Y-53149981D01*
X161262496Y-53083609D01*
X161262494Y-53083605D01*
X161180117Y-52944313D01*
X161065687Y-52829883D01*
X160996468Y-52788947D01*
X160991184Y-52781909D01*
X160991901Y-52774189D01*
X160993854Y-52770000D01*
X160967577Y-52770000D01*
X160961723Y-52768399D01*
X160926390Y-52747503D01*
X160770997Y-52702358D01*
X160770998Y-52702358D01*
X160770995Y-52702357D01*
X160770993Y-52702357D01*
X160734690Y-52699500D01*
X160265310Y-52699500D01*
X160229007Y-52702357D01*
X160229004Y-52702357D01*
X160229002Y-52702358D01*
X160085463Y-52744059D01*
X160076715Y-52743093D01*
X160072467Y-52739053D01*
X160067713Y-52731345D01*
X160067712Y-52731343D01*
X159943656Y-52607287D01*
X159794334Y-52515185D01*
X159794333Y-52515184D01*
X159794332Y-52515184D01*
X159794326Y-52515181D01*
X159627798Y-52460000D01*
X159627792Y-52459998D01*
X159525011Y-52449499D01*
X158474997Y-52449499D01*
X158474983Y-52449500D01*
X158372207Y-52459998D01*
X158372201Y-52460000D01*
X158205673Y-52515181D01*
X158205667Y-52515184D01*
X158056346Y-52607285D01*
X157932286Y-52731345D01*
X157840185Y-52880666D01*
X157840182Y-52880672D01*
X157785001Y-53047200D01*
X157784999Y-53047206D01*
X157774500Y-53149981D01*
X157774500Y-53750001D01*
X157774501Y-53750015D01*
X157784999Y-53852791D01*
X157785001Y-53852797D01*
X157840182Y-54019325D01*
X157840185Y-54019331D01*
X157840186Y-54019333D01*
X157932288Y-54168655D01*
X158056344Y-54292711D01*
X158205666Y-54384813D01*
X158205668Y-54384813D01*
X158205673Y-54384816D01*
X158317013Y-54421709D01*
X158372203Y-54439998D01*
X158372204Y-54439998D01*
X158372207Y-54439999D01*
X158419511Y-54444831D01*
X158474991Y-54450499D01*
X159146500Y-54450498D01*
X159154632Y-54453866D01*
X159306651Y-54605885D01*
X159310019Y-54614017D01*
X159306651Y-54622149D01*
X159302136Y-54624933D01*
X159180673Y-54665182D01*
X159180667Y-54665185D01*
X159031346Y-54757286D01*
X158907286Y-54881346D01*
X158815185Y-55030667D01*
X158815182Y-55030673D01*
X158794954Y-55091719D01*
X158789199Y-55098379D01*
X158780421Y-55099018D01*
X158775906Y-55096234D01*
X158771391Y-55091719D01*
X158730391Y-55050719D01*
X158587287Y-54962451D01*
X158587286Y-54962450D01*
X158587285Y-54962450D01*
X158587279Y-54962447D01*
X158427686Y-54909564D01*
X158427680Y-54909562D01*
X158329182Y-54899500D01*
X158329174Y-54899500D01*
X157795826Y-54899500D01*
X157795817Y-54899500D01*
X157697319Y-54909562D01*
X157697313Y-54909564D01*
X157537720Y-54962447D01*
X157537714Y-54962450D01*
X157394611Y-55050717D01*
X157275717Y-55169611D01*
X157187450Y-55312714D01*
X157187447Y-55312720D01*
X157134564Y-55472313D01*
X157134562Y-55472319D01*
X157124500Y-55570817D01*
X157124500Y-56310001D01*
X157121132Y-56318133D01*
X157113000Y-56321501D01*
X157104868Y-56318133D01*
X156878868Y-56092133D01*
X156875500Y-56084001D01*
X156875500Y-55570829D01*
X156875499Y-55570817D01*
X156865437Y-55472319D01*
X156865435Y-55472313D01*
X156812552Y-55312720D01*
X156812549Y-55312714D01*
X156812549Y-55312713D01*
X156724281Y-55169609D01*
X156605391Y-55050719D01*
X156462287Y-54962451D01*
X156462286Y-54962450D01*
X156462285Y-54962450D01*
X156462279Y-54962447D01*
X156302686Y-54909564D01*
X156302680Y-54909562D01*
X156204182Y-54899500D01*
X156204174Y-54899500D01*
X155670826Y-54899500D01*
X155670817Y-54899500D01*
X155572319Y-54909562D01*
X155572313Y-54909564D01*
X155412720Y-54962447D01*
X155412714Y-54962450D01*
X155269611Y-55050717D01*
X155150717Y-55169611D01*
X155062450Y-55312714D01*
X155062447Y-55312720D01*
X155009564Y-55472313D01*
X155009562Y-55472319D01*
X154999500Y-55570817D01*
X154999500Y-56429182D01*
X155009562Y-56527680D01*
X155009564Y-56527686D01*
X155062447Y-56687279D01*
X155062450Y-56687285D01*
X155062451Y-56687287D01*
X155150719Y-56830391D01*
X155269609Y-56949281D01*
X155394037Y-57026029D01*
X155399190Y-57033165D01*
X155399500Y-57035817D01*
X155399500Y-58920229D01*
X155399499Y-58920247D01*
X155399499Y-58988500D01*
X155396131Y-58996632D01*
X155388000Y-59000000D01*
X155366783Y-59000000D01*
X155298751Y-59009912D01*
X155298748Y-59009913D01*
X155193812Y-59061213D01*
X155111214Y-59143811D01*
X155096032Y-59174865D01*
X155089435Y-59180691D01*
X155080650Y-59180145D01*
X155074824Y-59173548D01*
X155074600Y-59172815D01*
X155063662Y-59131991D01*
X155059577Y-59116745D01*
X155002041Y-59017088D01*
X155000500Y-59011338D01*
X155000500Y-58988660D01*
X155002040Y-58982911D01*
X155059577Y-58883255D01*
X155100500Y-58730528D01*
X155100500Y-58269472D01*
X155097235Y-58257288D01*
X155097234Y-58257286D01*
X155076917Y-58181459D01*
X155059578Y-58116750D01*
X155059577Y-58116745D01*
X155002041Y-58017088D01*
X155000500Y-58011338D01*
X155000500Y-57988660D01*
X155002040Y-57982911D01*
X155059577Y-57883255D01*
X155092337Y-57760993D01*
X155100500Y-57730529D01*
X155100500Y-57572414D01*
X155100500Y-57269472D01*
X155100163Y-57268216D01*
X155095253Y-57249893D01*
X155077057Y-57181981D01*
X155059578Y-57116750D01*
X155059577Y-57116745D01*
X155009148Y-57029399D01*
X155002042Y-57017090D01*
X155000501Y-57011340D01*
X155000501Y-56920943D01*
X154959577Y-56768217D01*
X154959577Y-56768216D01*
X154880520Y-56631284D01*
X154003868Y-55754632D01*
X154000500Y-55746500D01*
X154000500Y-51351057D01*
X155470000Y-51351057D01*
X155470000Y-51719999D01*
X155470001Y-51720000D01*
X155870000Y-51720000D01*
X155870000Y-52220000D01*
X155470001Y-52220000D01*
X155470000Y-52220001D01*
X155470000Y-52588942D01*
X155496900Y-52724178D01*
X155496900Y-52724181D01*
X155549669Y-52851576D01*
X155626271Y-52966220D01*
X155723779Y-53063728D01*
X155838423Y-53140330D01*
X155920000Y-53174119D01*
X155920000Y-52686988D01*
X155929940Y-52704205D01*
X155985795Y-52760060D01*
X156054204Y-52799556D01*
X156130504Y-52820000D01*
X156209496Y-52820000D01*
X156285796Y-52799556D01*
X156354205Y-52760060D01*
X156410060Y-52704205D01*
X156420000Y-52686988D01*
X156420000Y-53174119D01*
X156501576Y-53140330D01*
X156616220Y-53063728D01*
X156713728Y-52966220D01*
X156790330Y-52851576D01*
X156843099Y-52724181D01*
X156843099Y-52724178D01*
X156870000Y-52588942D01*
X156870000Y-52270000D01*
X160006146Y-52270000D01*
X160249999Y-52270000D01*
X160250000Y-52269999D01*
X160750000Y-52269999D01*
X160750001Y-52270000D01*
X160993853Y-52270000D01*
X160970583Y-52220097D01*
X160952807Y-52181976D01*
X160868023Y-52097192D01*
X160759354Y-52046518D01*
X160750000Y-52045287D01*
X160750000Y-52269999D01*
X160250000Y-52269999D01*
X160250000Y-52045287D01*
X160240645Y-52046518D01*
X160131976Y-52097192D01*
X160047192Y-52181976D01*
X160006146Y-52270000D01*
X156870000Y-52270000D01*
X156870000Y-52220001D01*
X156869999Y-52220000D01*
X156470000Y-52220000D01*
X156470000Y-51720000D01*
X156869999Y-51720000D01*
X156870000Y-51719999D01*
X156870000Y-51364234D01*
X157024500Y-51364234D01*
X157024500Y-51515765D01*
X157063717Y-51662129D01*
X157063721Y-51662139D01*
X157097127Y-51720000D01*
X157139485Y-51793365D01*
X157246635Y-51900515D01*
X157377865Y-51976281D01*
X157524234Y-52015500D01*
X157675766Y-52015500D01*
X157822135Y-51976281D01*
X157953365Y-51900515D01*
X158055369Y-51798510D01*
X158063500Y-51795143D01*
X158071632Y-51798511D01*
X158075000Y-51806643D01*
X158075000Y-51854194D01*
X158075001Y-51854208D01*
X158077852Y-51884609D01*
X158122654Y-52012648D01*
X158122655Y-52012649D01*
X158203207Y-52121791D01*
X158203209Y-52121793D01*
X158312351Y-52202345D01*
X158312352Y-52202346D01*
X158440391Y-52247148D01*
X158470798Y-52250000D01*
X158749998Y-52250000D01*
X158750000Y-52249999D01*
X158750000Y-51800002D01*
X159250000Y-51800002D01*
X159250000Y-52249999D01*
X159250001Y-52250000D01*
X159529194Y-52250000D01*
X159529207Y-52249999D01*
X159559608Y-52247148D01*
X159687647Y-52202346D01*
X159687648Y-52202345D01*
X159796790Y-52121793D01*
X159796792Y-52121791D01*
X159877344Y-52012649D01*
X159877345Y-52012648D01*
X159922147Y-51884609D01*
X159924999Y-51854209D01*
X159925000Y-51854195D01*
X159925000Y-51800002D01*
X159924999Y-51800001D01*
X159250001Y-51800001D01*
X159250000Y-51800002D01*
X158750000Y-51800002D01*
X158750000Y-51364234D01*
X162804500Y-51364234D01*
X162804500Y-51515765D01*
X162843717Y-51662129D01*
X162843721Y-51662139D01*
X162877127Y-51720000D01*
X162919485Y-51793365D01*
X163026635Y-51900515D01*
X163157865Y-51976281D01*
X163304234Y-52015500D01*
X163455766Y-52015500D01*
X163602135Y-51976281D01*
X163733365Y-51900515D01*
X163840515Y-51793365D01*
X163916281Y-51662135D01*
X163955500Y-51515766D01*
X163955500Y-51364234D01*
X163951969Y-51351057D01*
X164110000Y-51351057D01*
X164110000Y-51719999D01*
X164110001Y-51720000D01*
X164510000Y-51720000D01*
X164510000Y-52220000D01*
X164110001Y-52220000D01*
X164110000Y-52220001D01*
X164110000Y-52588942D01*
X164136900Y-52724178D01*
X164136900Y-52724181D01*
X164189669Y-52851576D01*
X164266271Y-52966220D01*
X164363779Y-53063728D01*
X164478423Y-53140330D01*
X164560000Y-53174119D01*
X164560000Y-52686988D01*
X164569940Y-52704205D01*
X164625795Y-52760060D01*
X164694204Y-52799556D01*
X164770504Y-52820000D01*
X164849496Y-52820000D01*
X164925796Y-52799556D01*
X164994205Y-52760060D01*
X165050060Y-52704205D01*
X165060000Y-52686988D01*
X165060000Y-53174119D01*
X165141576Y-53140330D01*
X165207048Y-53096584D01*
X168490000Y-53096584D01*
X168490000Y-53303415D01*
X168530348Y-53506268D01*
X168530349Y-53506273D01*
X168609503Y-53697364D01*
X168641378Y-53745067D01*
X169057036Y-53329407D01*
X169074075Y-53392993D01*
X169139901Y-53507007D01*
X169232993Y-53600099D01*
X169347007Y-53665925D01*
X169410589Y-53682962D01*
X168994931Y-54098621D01*
X169042635Y-54130496D01*
X169233726Y-54209650D01*
X169233731Y-54209651D01*
X169436585Y-54250000D01*
X169643415Y-54250000D01*
X169846268Y-54209651D01*
X169846273Y-54209650D01*
X170037364Y-54130496D01*
X170085067Y-54098621D01*
X169669408Y-53682962D01*
X169732993Y-53665925D01*
X169847007Y-53600099D01*
X169940099Y-53507007D01*
X170005925Y-53392993D01*
X170022962Y-53329408D01*
X170438621Y-53745067D01*
X170470496Y-53697364D01*
X170549650Y-53506273D01*
X170549651Y-53506268D01*
X170590000Y-53303415D01*
X170590000Y-53096584D01*
X170549651Y-52893731D01*
X170549650Y-52893726D01*
X170470496Y-52702635D01*
X170438621Y-52654931D01*
X170022962Y-53070589D01*
X170005925Y-53007007D01*
X169940099Y-52892993D01*
X169847007Y-52799901D01*
X169732993Y-52734075D01*
X169669407Y-52717036D01*
X170085067Y-52301378D01*
X170037364Y-52269503D01*
X169846273Y-52190349D01*
X169846268Y-52190348D01*
X169643415Y-52150000D01*
X169436585Y-52150000D01*
X169233731Y-52190348D01*
X169233726Y-52190349D01*
X169042635Y-52269503D01*
X168994931Y-52301378D01*
X169410591Y-52717037D01*
X169347007Y-52734075D01*
X169232993Y-52799901D01*
X169139901Y-52892993D01*
X169074075Y-53007007D01*
X169057037Y-53070591D01*
X168641378Y-52654931D01*
X168609503Y-52702635D01*
X168530349Y-52893726D01*
X168530348Y-52893731D01*
X168490000Y-53096584D01*
X165207048Y-53096584D01*
X165222204Y-53086457D01*
X165256220Y-53063728D01*
X165353728Y-52966220D01*
X165430330Y-52851576D01*
X165483099Y-52724181D01*
X165483099Y-52724178D01*
X165510000Y-52588942D01*
X165510000Y-52220001D01*
X165509999Y-52220000D01*
X165110000Y-52220000D01*
X165110000Y-51720000D01*
X165509999Y-51720000D01*
X165510000Y-51719999D01*
X165510000Y-51351057D01*
X165483099Y-51215821D01*
X165483099Y-51215818D01*
X165430330Y-51088423D01*
X165353728Y-50973779D01*
X165256220Y-50876271D01*
X165141576Y-50799669D01*
X165060000Y-50765879D01*
X165060000Y-51253011D01*
X165050060Y-51235795D01*
X164994205Y-51179940D01*
X164925796Y-51140444D01*
X164849496Y-51120000D01*
X164770504Y-51120000D01*
X164694204Y-51140444D01*
X164625795Y-51179940D01*
X164569940Y-51235795D01*
X164560000Y-51253011D01*
X164560000Y-50765879D01*
X164478423Y-50799669D01*
X164363779Y-50876271D01*
X164266271Y-50973779D01*
X164189669Y-51088423D01*
X164136900Y-51215818D01*
X164136900Y-51215821D01*
X164110000Y-51351057D01*
X163951969Y-51351057D01*
X163916281Y-51217865D01*
X163840515Y-51086635D01*
X163733365Y-50979485D01*
X163733364Y-50979484D01*
X163602139Y-50903721D01*
X163602137Y-50903720D01*
X163602135Y-50903719D01*
X163602131Y-50903718D01*
X163602129Y-50903717D01*
X163455766Y-50864500D01*
X163304234Y-50864500D01*
X163157870Y-50903717D01*
X163157860Y-50903721D01*
X163026635Y-50979484D01*
X162919484Y-51086635D01*
X162843721Y-51217860D01*
X162843717Y-51217870D01*
X162804500Y-51364234D01*
X158750000Y-51364234D01*
X158750000Y-50850002D01*
X159250000Y-50850002D01*
X159250000Y-51300000D01*
X159250001Y-51300001D01*
X159924998Y-51300001D01*
X159924999Y-51300000D01*
X159924999Y-51245807D01*
X159924998Y-51245793D01*
X159922147Y-51215392D01*
X159877345Y-51087353D01*
X159877344Y-51087352D01*
X159796792Y-50978210D01*
X159796790Y-50978208D01*
X159687648Y-50897656D01*
X159687647Y-50897655D01*
X159559608Y-50852853D01*
X159529208Y-50850001D01*
X159250001Y-50850001D01*
X159250000Y-50850002D01*
X158750000Y-50850002D01*
X158749999Y-50850001D01*
X158470806Y-50850001D01*
X158470792Y-50850002D01*
X158440391Y-50852853D01*
X158312352Y-50897655D01*
X158312351Y-50897656D01*
X158203209Y-50978208D01*
X158203207Y-50978210D01*
X158122655Y-51087352D01*
X158122654Y-51087353D01*
X158107641Y-51130257D01*
X158101775Y-51136820D01*
X158092988Y-51137314D01*
X158086827Y-51132209D01*
X158060515Y-51086635D01*
X157953364Y-50979484D01*
X157822139Y-50903721D01*
X157822137Y-50903720D01*
X157822135Y-50903719D01*
X157822131Y-50903718D01*
X157822129Y-50903717D01*
X157675766Y-50864500D01*
X157524234Y-50864500D01*
X157377870Y-50903717D01*
X157377860Y-50903721D01*
X157246635Y-50979484D01*
X157139484Y-51086635D01*
X157063721Y-51217860D01*
X157063717Y-51217870D01*
X157024500Y-51364234D01*
X156870000Y-51364234D01*
X156870000Y-51351057D01*
X156843099Y-51215821D01*
X156843099Y-51215818D01*
X156790330Y-51088423D01*
X156713728Y-50973779D01*
X156616220Y-50876271D01*
X156501576Y-50799669D01*
X156420000Y-50765879D01*
X156420000Y-51253011D01*
X156410060Y-51235795D01*
X156354205Y-51179940D01*
X156285796Y-51140444D01*
X156209496Y-51120000D01*
X156130504Y-51120000D01*
X156054204Y-51140444D01*
X155985795Y-51179940D01*
X155929940Y-51235795D01*
X155920000Y-51253011D01*
X155920000Y-50765879D01*
X155838423Y-50799669D01*
X155723779Y-50876271D01*
X155626271Y-50973779D01*
X155549669Y-51088423D01*
X155496900Y-51215818D01*
X155496900Y-51215821D01*
X155470000Y-51351057D01*
X154000500Y-51351057D01*
X154000500Y-49680943D01*
X153994755Y-49659500D01*
X153959577Y-49528216D01*
X153959577Y-49528215D01*
X153922555Y-49464091D01*
X153880520Y-49391284D01*
X153768716Y-49279480D01*
X153768713Y-49279478D01*
X153113867Y-48624632D01*
X153110499Y-48616500D01*
X153110499Y-47262000D01*
X153113867Y-47253868D01*
X153121999Y-47250500D01*
X155494319Y-47250500D01*
X155502451Y-47253868D01*
G37*
%TD.AperFunction*%
%TA.AperFunction,Conductor*%
G36*
X150670132Y-64157773D02*
G01*
X150671301Y-64159143D01*
X150729896Y-64239792D01*
X150880208Y-64390104D01*
X151052184Y-64515051D01*
X151241588Y-64611557D01*
X151443757Y-64677246D01*
X151548735Y-64693873D01*
X151653711Y-64710500D01*
X151653713Y-64710500D01*
X151866289Y-64710500D01*
X151950269Y-64697198D01*
X152076243Y-64677246D01*
X152278412Y-64611557D01*
X152292779Y-64604235D01*
X152301553Y-64603545D01*
X152308246Y-64609260D01*
X152309500Y-64614482D01*
X152309500Y-64982824D01*
X152306132Y-64990956D01*
X152298000Y-64994324D01*
X152291611Y-64992386D01*
X152257364Y-64969503D01*
X152066273Y-64890349D01*
X152066268Y-64890348D01*
X151863415Y-64850000D01*
X151656585Y-64850000D01*
X151453731Y-64890348D01*
X151453726Y-64890349D01*
X151262635Y-64969503D01*
X151214931Y-65001378D01*
X151630590Y-65417037D01*
X151567007Y-65434075D01*
X151452993Y-65499901D01*
X151359901Y-65592993D01*
X151294075Y-65707007D01*
X151277037Y-65770591D01*
X150861378Y-65354931D01*
X150829503Y-65402635D01*
X150750349Y-65593726D01*
X150750348Y-65593731D01*
X150710000Y-65796584D01*
X150710000Y-66003415D01*
X150750348Y-66206268D01*
X150750349Y-66206273D01*
X150829503Y-66397364D01*
X150861378Y-66445067D01*
X151277036Y-66029407D01*
X151294075Y-66092993D01*
X151359901Y-66207007D01*
X151452993Y-66300099D01*
X151567007Y-66365925D01*
X151630589Y-66382962D01*
X151214931Y-66798621D01*
X151262635Y-66830496D01*
X151453726Y-66909650D01*
X151453731Y-66909651D01*
X151656585Y-66950000D01*
X151863415Y-66950000D01*
X152066268Y-66909651D01*
X152066273Y-66909650D01*
X152257364Y-66830496D01*
X152305067Y-66798621D01*
X151889408Y-66382962D01*
X151952993Y-66365925D01*
X152067007Y-66300099D01*
X152160099Y-66207007D01*
X152225925Y-66092993D01*
X152242962Y-66029409D01*
X152314579Y-66101026D01*
X152317555Y-66106181D01*
X152350422Y-66228839D01*
X152374082Y-66269818D01*
X152391564Y-66300099D01*
X152429480Y-66365771D01*
X152541284Y-66477575D01*
X152541286Y-66477576D01*
X152896132Y-66832422D01*
X152899500Y-66840554D01*
X152899500Y-67217139D01*
X152897960Y-67222888D01*
X152894399Y-67229057D01*
X152894398Y-67229058D01*
X152871792Y-67268214D01*
X152871792Y-67268215D01*
X152870093Y-67271155D01*
X152870091Y-67271161D01*
X152862388Y-67299912D01*
X152829169Y-67423880D01*
X152829169Y-67578583D01*
X152825801Y-67586715D01*
X152817669Y-67590083D01*
X152809537Y-67586715D01*
X152808365Y-67585343D01*
X152805935Y-67581998D01*
X152790104Y-67560208D01*
X152639792Y-67409896D01*
X152467816Y-67284949D01*
X152278412Y-67188443D01*
X152278411Y-67188442D01*
X152278408Y-67188441D01*
X152076240Y-67122753D01*
X151866289Y-67089500D01*
X151866287Y-67089500D01*
X151653713Y-67089500D01*
X151653711Y-67089500D01*
X151443759Y-67122753D01*
X151241591Y-67188441D01*
X151161878Y-67229057D01*
X151052184Y-67284949D01*
X151052181Y-67284950D01*
X151052179Y-67284952D01*
X150880211Y-67409893D01*
X150880208Y-67409896D01*
X150729896Y-67560208D01*
X150690831Y-67613977D01*
X150671304Y-67640853D01*
X150663799Y-67645451D01*
X150655240Y-67643397D01*
X150650642Y-67635892D01*
X150650500Y-67634093D01*
X150650500Y-64165905D01*
X150653868Y-64157773D01*
X150662000Y-64154405D01*
X150670132Y-64157773D01*
G37*
%TD.AperFunction*%
%TA.AperFunction,Conductor*%
G36*
X155696132Y-59865868D02*
G01*
X155699500Y-59874000D01*
X155699500Y-60440694D01*
X155702402Y-60477569D01*
X155702402Y-60477572D01*
X155702403Y-60477573D01*
X155748253Y-60635393D01*
X155748256Y-60635398D01*
X155831919Y-60776865D01*
X155948135Y-60893081D01*
X156089602Y-60976744D01*
X156089603Y-60976744D01*
X156089606Y-60976746D01*
X156131637Y-60988957D01*
X156138507Y-60994460D01*
X156139472Y-61003208D01*
X156133969Y-61010078D01*
X156131637Y-61011043D01*
X156089606Y-61023253D01*
X156030854Y-61057999D01*
X156022140Y-61059239D01*
X156019146Y-61057999D01*
X155960394Y-61023253D01*
X155802574Y-60977403D01*
X155802575Y-60977403D01*
X155802572Y-60977402D01*
X155802570Y-60977402D01*
X155765695Y-60974500D01*
X155334307Y-60974500D01*
X155297432Y-60977402D01*
X155297429Y-60977402D01*
X155297427Y-60977403D01*
X155139607Y-61023253D01*
X155117854Y-61036118D01*
X155109140Y-61037358D01*
X155102101Y-61032073D01*
X155100500Y-61026219D01*
X155100500Y-60598238D01*
X155103868Y-60590106D01*
X155112000Y-60586738D01*
X155120132Y-60590106D01*
X155193812Y-60663786D01*
X155298748Y-60715086D01*
X155298755Y-60715088D01*
X155300001Y-60715269D01*
X155300001Y-59874000D01*
X155303369Y-59865868D01*
X155311501Y-59862500D01*
X155688000Y-59862500D01*
X155696132Y-59865868D01*
G37*
%TD.AperFunction*%
%TA.AperFunction,Conductor*%
G36*
X150670132Y-51457773D02*
G01*
X150671301Y-51459143D01*
X150729896Y-51539792D01*
X150880208Y-51690104D01*
X151052184Y-51815051D01*
X151241588Y-51911557D01*
X151443757Y-51977246D01*
X151548735Y-51993873D01*
X151653711Y-52010500D01*
X151653713Y-52010500D01*
X151866289Y-52010500D01*
X151950269Y-51997198D01*
X152076243Y-51977246D01*
X152184088Y-51942204D01*
X152192863Y-51942894D01*
X152195774Y-51945009D01*
X152396132Y-52145367D01*
X152399500Y-52153499D01*
X152399500Y-52342960D01*
X152396132Y-52351092D01*
X152388000Y-52354460D01*
X152381611Y-52352522D01*
X152257364Y-52269503D01*
X152066273Y-52190349D01*
X152066268Y-52190348D01*
X151863415Y-52150000D01*
X151656585Y-52150000D01*
X151453731Y-52190348D01*
X151453726Y-52190349D01*
X151262635Y-52269503D01*
X151214931Y-52301378D01*
X151630590Y-52717037D01*
X151567007Y-52734075D01*
X151452993Y-52799901D01*
X151359901Y-52892993D01*
X151294075Y-53007007D01*
X151277037Y-53070591D01*
X150861378Y-52654931D01*
X150829503Y-52702635D01*
X150750349Y-52893726D01*
X150750348Y-52893731D01*
X150710000Y-53096584D01*
X150710000Y-53303415D01*
X150750348Y-53506268D01*
X150750349Y-53506273D01*
X150829503Y-53697364D01*
X150861378Y-53745067D01*
X151277036Y-53329407D01*
X151294075Y-53392993D01*
X151359901Y-53507007D01*
X151452993Y-53600099D01*
X151567007Y-53665925D01*
X151630590Y-53682962D01*
X151214931Y-54098621D01*
X151262635Y-54130496D01*
X151453726Y-54209650D01*
X151453731Y-54209651D01*
X151656585Y-54250000D01*
X151863415Y-54250000D01*
X152066268Y-54209651D01*
X152066273Y-54209650D01*
X152257364Y-54130496D01*
X152381611Y-54047477D01*
X152390244Y-54045760D01*
X152397562Y-54050650D01*
X152399500Y-54057039D01*
X152399500Y-54531373D01*
X152396132Y-54539505D01*
X152388000Y-54542873D01*
X152382779Y-54541620D01*
X152278408Y-54488441D01*
X152076240Y-54422753D01*
X151866289Y-54389500D01*
X151866287Y-54389500D01*
X151653713Y-54389500D01*
X151653711Y-54389500D01*
X151443759Y-54422753D01*
X151241591Y-54488441D01*
X151157333Y-54531373D01*
X151052184Y-54584949D01*
X151052181Y-54584950D01*
X151052179Y-54584952D01*
X150880211Y-54709893D01*
X150729896Y-54860208D01*
X150671304Y-54940853D01*
X150663799Y-54945451D01*
X150655240Y-54943397D01*
X150650642Y-54935892D01*
X150650500Y-54934093D01*
X150650500Y-51465905D01*
X150653868Y-51457773D01*
X150662000Y-51454405D01*
X150670132Y-51457773D01*
G37*
%TD.AperFunction*%
%TD*%
M02*
