M48
; DRILL file KiCad 10.0.1 date 2026-05-06T21:46:24
; FORMAT={-:-/ absolute / metric / decimal}
; #@! TF.CreationDate,2026-05-06T21:46:24-04:00
; #@! TF.GenerationSoftware,Kicad,Pcbnew,10.0.1
; #@! TF.FileFunction,Plated,1,4,PTH
FMAT,2
METRIC
; #@! TA.AperFunction,Plated,PTH,ViaDrill
T1C0.300
; #@! TA.AperFunction,Plated,PTH,ComponentDrill
T2C0.600
; #@! TA.AperFunction,Plated,PTH,ComponentDrill
T3C1.000
; #@! TA.AperFunction,Plated,PTH,ComponentDrill
T4C1.300
; #@! TA.AperFunction,Plated,PTH,ComponentDrill
T5C1.600
%
G90
G05
T1
X153.5Y-77.0
X154.02Y-74.5
X154.99Y-74.49
X155.0Y-57.0
X155.0Y-58.0
X155.0Y-68.0
X155.0Y-71.0
X155.0Y-86.0
X155.0Y-91.5
X155.014Y-70.166
X155.55Y-59.5
X155.891Y-70.109
X155.98Y-69.0
X156.5Y-82.5
X157.0Y-66.5
X157.0Y-86.0
X157.168Y-79.35
X157.5Y-83.0
X157.984Y-71.005
X158.365Y-75.438
X158.39Y-72.296
X158.5Y-63.5
X158.5Y-63.5
X158.5Y-63.5
X158.5Y-86.0
X158.687Y-61.345
X159.0Y-70.837
X159.49Y-75.5
X160.0Y-57.5
X160.19Y-63.822
X160.5Y-61.0
X160.5Y-61.99
X160.5Y-72.5
X160.5Y-86.0
X160.513Y-75.464
X160.64Y-67.71
X160.89Y-68.5
X162.0Y-61.0
X162.0Y-64.5
X162.294Y-70.316
X162.997Y-71.8
X163.0Y-54.5
X163.0Y-63.0
X163.0Y-71.0
X163.0Y-79.23
X163.0Y-86.0
X164.0Y-57.5
X164.5Y-66.0
X164.86Y-70.5
X165.0Y-54.4
X165.0Y-65.0
X165.45Y-97.55
X165.5Y-57.5
X165.51Y-73.99
X165.661Y-68.339
X166.0Y-63.5
X166.0Y-76.0
X166.5Y-55.5
X166.5Y-62.5
X166.511Y-74.305
X167.5Y-62.0
X167.5Y-95.5
X168.5Y-79.5
T3
X151.76Y-48.12
X151.76Y-50.66
X151.76Y-53.2
X151.76Y-55.74
X151.76Y-58.28
X151.76Y-60.82
X151.76Y-63.36
X151.76Y-65.9
X151.76Y-68.44
X151.76Y-70.98
X151.76Y-73.52
X151.76Y-76.06
X151.76Y-78.6
X151.76Y-81.14
X151.76Y-83.68
X151.76Y-86.22
X151.76Y-88.76
X151.76Y-91.3
X151.76Y-93.84
X151.76Y-96.38
X169.54Y-48.12
X169.54Y-50.66
X169.54Y-53.2
X169.54Y-55.74
X169.54Y-58.28
X169.54Y-60.82
X169.54Y-63.36
X169.54Y-65.9
X169.54Y-68.44
X169.54Y-70.98
X169.54Y-73.52
X169.54Y-76.06
X169.54Y-78.6
X169.54Y-81.14
X169.54Y-83.68
X169.54Y-86.22
X169.54Y-88.76
X169.54Y-91.3
X169.54Y-93.84
X169.54Y-96.38
T4
X156.468Y-89.0
X156.468Y-94.0
X164.5Y-89.5
X164.5Y-94.5
T5
X156.75Y-100.3
X156.75Y-106.3
X161.45Y-103.3
T2
G00X156.17Y-48.09
M15
G01X156.17Y-47.49
M16
G05
G00X156.17Y-52.52
M15
G01X156.17Y-51.42
M16
G05
G00X164.81Y-48.09
M15
G01X164.81Y-47.49
M16
G05
G00X164.81Y-52.52
M15
G01X164.81Y-51.42
M16
G05
M30
