%TF.GenerationSoftware,KiCad,Pcbnew,10.0.1*%
%TF.CreationDate,2026-05-06T21:45:55-04:00*%
%TF.ProjectId,devboard,64657662-6f61-4726-942e-6b696361645f,rev?*%
%TF.SameCoordinates,Original*%
%TF.FileFunction,Copper,L1,Top*%
%TF.FilePolarity,Positive*%
%FSLAX46Y46*%
G04 Gerber Fmt 4.6, Leading zero omitted, Abs format (unit mm)*
G04 Created by KiCad (PCBNEW 10.0.1) date 2026-05-06 21:45:55*
%MOMM*%
%LPD*%
G01*
G04 APERTURE LIST*
G04 Aperture macros list*
%AMRoundRect*
0 Rectangle with rounded corners*
0 $1 Rounding radius*
0 $2 $3 $4 $5 $6 $7 $8 $9 X,Y pos of 4 corners*
0 Add a 4 corners polygon primitive as box body*
4,1,4,$2,$3,$4,$5,$6,$7,$8,$9,$2,$3,0*
0 Add four circle primitives for the rounded corners*
1,1,$1+$1,$2,$3*
1,1,$1+$1,$4,$5*
1,1,$1+$1,$6,$7*
1,1,$1+$1,$8,$9*
0 Add four rect primitives between the rounded corners*
20,1,$1+$1,$2,$3,$4,$5,0*
20,1,$1+$1,$4,$5,$6,$7,0*
20,1,$1+$1,$6,$7,$8,$9,0*
20,1,$1+$1,$8,$9,$2,$3,0*%
G04 Aperture macros list end*
%TA.AperFunction,Conductor*%
%ADD10C,0.200000*%
%TD*%
%TA.AperFunction,SMDPad,CuDef*%
%ADD11RoundRect,0.140000X-0.140000X-0.170000X0.140000X-0.170000X0.140000X0.170000X-0.140000X0.170000X0*%
%TD*%
%TA.AperFunction,ComponentPad*%
%ADD12RoundRect,0.250001X1.149999X-1.149999X1.149999X1.149999X-1.149999X1.149999X-1.149999X-1.149999X0*%
%TD*%
%TA.AperFunction,ComponentPad*%
%ADD13C,2.800000*%
%TD*%
%TA.AperFunction,SMDPad,CuDef*%
%ADD14RoundRect,0.135000X0.185000X-0.135000X0.185000X0.135000X-0.185000X0.135000X-0.185000X-0.135000X0*%
%TD*%
%TA.AperFunction,SMDPad,CuDef*%
%ADD15RoundRect,0.140000X0.170000X-0.140000X0.170000X0.140000X-0.170000X0.140000X-0.170000X-0.140000X0*%
%TD*%
%TA.AperFunction,SMDPad,CuDef*%
%ADD16RoundRect,0.140000X0.021213X-0.219203X0.219203X-0.021213X-0.021213X0.219203X-0.219203X0.021213X0*%
%TD*%
%TA.AperFunction,ComponentPad*%
%ADD17R,2.600000X2.600000*%
%TD*%
%TA.AperFunction,ComponentPad*%
%ADD18C,2.600000*%
%TD*%
%TA.AperFunction,SMDPad,CuDef*%
%ADD19RoundRect,0.200000X-0.800000X0.200000X-0.800000X-0.200000X0.800000X-0.200000X0.800000X0.200000X0*%
%TD*%
%TA.AperFunction,SMDPad,CuDef*%
%ADD20RoundRect,0.135000X0.135000X0.185000X-0.135000X0.185000X-0.135000X-0.185000X0.135000X-0.185000X0*%
%TD*%
%TA.AperFunction,SMDPad,CuDef*%
%ADD21RoundRect,0.135000X-0.185000X0.135000X-0.185000X-0.135000X0.185000X-0.135000X0.185000X0.135000X0*%
%TD*%
%TA.AperFunction,SMDPad,CuDef*%
%ADD22RoundRect,0.140000X0.140000X0.170000X-0.140000X0.170000X-0.140000X-0.170000X0.140000X-0.170000X0*%
%TD*%
%TA.AperFunction,ComponentPad*%
%ADD23RoundRect,0.250001X-1.149999X1.149999X-1.149999X-1.149999X1.149999X-1.149999X1.149999X1.149999X0*%
%TD*%
%TA.AperFunction,ComponentPad*%
%ADD24R,1.700000X1.700000*%
%TD*%
%TA.AperFunction,ComponentPad*%
%ADD25C,1.700000*%
%TD*%
%TA.AperFunction,SMDPad,CuDef*%
%ADD26RoundRect,0.225000X0.225000X0.250000X-0.225000X0.250000X-0.225000X-0.250000X0.225000X-0.250000X0*%
%TD*%
%TA.AperFunction,SMDPad,CuDef*%
%ADD27RoundRect,0.150000X0.150000X-0.587500X0.150000X0.587500X-0.150000X0.587500X-0.150000X-0.587500X0*%
%TD*%
%TA.AperFunction,SMDPad,CuDef*%
%ADD28RoundRect,0.250000X-0.450000X-0.350000X0.450000X-0.350000X0.450000X0.350000X-0.450000X0.350000X0*%
%TD*%
%TA.AperFunction,SMDPad,CuDef*%
%ADD29RoundRect,0.140000X-0.170000X0.140000X-0.170000X-0.140000X0.170000X-0.140000X0.170000X0.140000X0*%
%TD*%
%TA.AperFunction,SMDPad,CuDef*%
%ADD30RoundRect,0.150000X0.150000X0.575000X-0.150000X0.575000X-0.150000X-0.575000X0.150000X-0.575000X0*%
%TD*%
%TA.AperFunction,SMDPad,CuDef*%
%ADD31RoundRect,0.075000X0.075000X0.650000X-0.075000X0.650000X-0.075000X-0.650000X0.075000X-0.650000X0*%
%TD*%
%TA.AperFunction,ComponentPad*%
%ADD32O,1.000000X2.100000*%
%TD*%
%TA.AperFunction,ComponentPad*%
%ADD33O,1.000000X1.600000*%
%TD*%
%TA.AperFunction,SMDPad,CuDef*%
%ADD34RoundRect,0.050000X-0.387500X-0.050000X0.387500X-0.050000X0.387500X0.050000X-0.387500X0.050000X0*%
%TD*%
%TA.AperFunction,SMDPad,CuDef*%
%ADD35RoundRect,0.050000X-0.050000X-0.387500X0.050000X-0.387500X0.050000X0.387500X-0.050000X0.387500X0*%
%TD*%
%TA.AperFunction,HeatsinkPad*%
%ADD36R,3.200000X3.200000*%
%TD*%
%TA.AperFunction,SMDPad,CuDef*%
%ADD37RoundRect,0.062500X-0.387500X-0.062500X0.387500X-0.062500X0.387500X0.062500X-0.387500X0.062500X0*%
%TD*%
%TA.AperFunction,HeatsinkPad*%
%ADD38R,0.200000X1.600000*%
%TD*%
%TA.AperFunction,ViaPad*%
%ADD39C,0.600000*%
%TD*%
G04 APERTURE END LIST*
%TO.N,+3V3*%
D10*
X162000000Y-64000000D02*
X162000000Y-64500000D01*
%TD*%
D11*
%TO.P,C9,1*%
%TO.N,+3V3*%
X165520000Y-74000000D03*
%TO.P,C9,2*%
%TO.N,GND*%
X166480000Y-74000000D03*
%TD*%
D12*
%TO.P,J6,1,Pin_1_1*%
%TO.N,/Motor and Power/AO1*%
X156467500Y-94000000D03*
D13*
%TO.P,J6,2,Pin_2_2*%
%TO.N,/Motor and Power/AO2*%
X156467500Y-89000000D03*
%TD*%
D14*
%TO.P,R3,1*%
%TO.N,Net-(U1-USB_DP)*%
X161550000Y-67509999D03*
%TO.P,R3,2*%
%TO.N,USB_D+*%
X161550000Y-66490001D03*
%TD*%
D15*
%TO.P,C5,1*%
%TO.N,+3V3*%
X164500000Y-68480000D03*
%TO.P,C5,2*%
%TO.N,GND*%
X164500000Y-67520000D03*
%TD*%
D16*
%TO.P,C1,1*%
%TO.N,+3V3*%
X165660589Y-68339411D03*
%TO.P,C1,2*%
%TO.N,GND*%
X166339411Y-67660589D03*
%TD*%
D17*
%TO.P,J5,1*%
%TO.N,/Motor and Power/+12V*%
X156750000Y-100300000D03*
D18*
%TO.P,J5,2*%
%TO.N,GND*%
X156750000Y-106300000D03*
%TO.P,J5,3*%
%TO.N,/Motor and Power/+12V*%
X161450000Y-103300000D03*
%TD*%
D19*
%TO.P,SW1,1,1_1*%
%TO.N,GND*%
X165000000Y-54400000D03*
%TO.P,SW1,2,2_2*%
%TO.N,Net-(R7-Pad1)*%
X165000000Y-58600000D03*
%TD*%
D20*
%TO.P,R6,1*%
%TO.N,+3V3*%
X157509999Y-63000000D03*
%TO.P,R6,2*%
%TO.N,QSPI_SS*%
X156490001Y-63000000D03*
%TD*%
D21*
%TO.P,R1,1*%
%TO.N,Net-(J1-CC1)*%
X162000000Y-54490001D03*
%TO.P,R1,2*%
%TO.N,GND*%
X162000000Y-55509999D03*
%TD*%
D22*
%TO.P,C3,1*%
%TO.N,+3V3*%
X154980000Y-74500000D03*
%TO.P,C3,2*%
%TO.N,GND*%
X154020000Y-74500000D03*
%TD*%
D15*
%TO.P,C16,1*%
%TO.N,GND*%
X162000000Y-81202500D03*
%TO.P,C16,2*%
%TO.N,Net-(C16-Pad2)*%
X162000000Y-80242500D03*
%TD*%
D23*
%TO.P,J7,1,Pin_1_1*%
%TO.N,/Motor and Power/BO1*%
X164500000Y-89500000D03*
D13*
%TO.P,J7,2,Pin_2_2*%
%TO.N,/Motor and Power/BO2*%
X164500000Y-94500000D03*
%TD*%
D24*
%TO.P,J2,1,Pin_1_1*%
%TO.N,GPIO0*%
X151760000Y-48120000D03*
D25*
%TO.P,J2,2,Pin_2_2*%
%TO.N,GPIO1*%
X151760000Y-50660000D03*
%TO.P,J2,3,Pin_3_3*%
%TO.N,GND*%
X151760000Y-53200000D03*
%TO.P,J2,4,Pin_4_4*%
%TO.N,AIN1*%
X151760000Y-55740000D03*
%TO.P,J2,5,Pin_5_5*%
%TO.N,AIN2*%
X151760000Y-58280000D03*
%TO.P,J2,6,Pin_6_6*%
%TO.N,PWMA*%
X151760000Y-60820000D03*
%TO.P,J2,7,Pin_7_7*%
%TO.N,BIN1*%
X151760000Y-63360000D03*
%TO.P,J2,8,Pin_8_8*%
%TO.N,GND*%
X151760000Y-65900000D03*
%TO.P,J2,9,Pin_9_9*%
%TO.N,BIN2*%
X151760000Y-68440000D03*
%TO.P,J2,10,Pin_10_10*%
%TO.N,PWMB*%
X151760000Y-70980000D03*
%TO.P,J2,11,Pin_11_11*%
%TO.N,GPIO8*%
X151760000Y-73520000D03*
%TO.P,J2,12,Pin_12_12*%
%TO.N,GPIO9*%
X151760000Y-76060000D03*
%TO.P,J2,13,Pin_13_13*%
%TO.N,GND*%
X151760000Y-78600000D03*
%TO.P,J2,14,Pin_14_14*%
%TO.N,GPIO10*%
X151760000Y-81140000D03*
%TO.P,J2,15,Pin_15_15*%
%TO.N,GPIO11*%
X151760000Y-83680000D03*
%TO.P,J2,16,Pin_16_16*%
%TO.N,GPIO12*%
X151760000Y-86220000D03*
%TO.P,J2,17,Pin_17_17*%
%TO.N,GPIO13*%
X151760000Y-88760000D03*
%TO.P,J2,18,Pin_18_18*%
%TO.N,GND*%
X151760000Y-91300000D03*
%TO.P,J2,19,Pin_19_19*%
%TO.N,GPIO14*%
X151760000Y-93840000D03*
%TO.P,J2,20,Pin_20_20*%
%TO.N,GPIO15*%
X151760000Y-96380000D03*
%TD*%
D26*
%TO.P,C14,1*%
%TO.N,VBUS*%
X156775000Y-55000000D03*
%TO.P,C14,2*%
%TO.N,GND*%
X155225000Y-55000000D03*
%TD*%
D22*
%TO.P,C17,1*%
%TO.N,+3V3*%
X159480000Y-63000000D03*
%TO.P,C17,2*%
%TO.N,GND*%
X158520000Y-63000000D03*
%TD*%
D27*
%TO.P,U6,1,GND_1*%
%TO.N,GND*%
X156600000Y-58937500D03*
%TO.P,U6,2,VO_2*%
%TO.N,/+3V3_USB*%
X158500000Y-58937500D03*
%TO.P,U6,3,VI_3*%
%TO.N,VBUS*%
X157550000Y-57062500D03*
%TD*%
D28*
%TO.P,Y1,1,1_1*%
%TO.N,XIN*%
X158300000Y-81722500D03*
%TO.P,Y1,2,G_2*%
%TO.N,GND*%
X160500000Y-81722500D03*
%TO.P,Y1,3,3_3*%
%TO.N,Net-(C16-Pad2)*%
X160500000Y-80022500D03*
%TO.P,Y1,4,G_4*%
%TO.N,GND*%
X158300000Y-80022500D03*
%TD*%
D15*
%TO.P,C6,1*%
%TO.N,+3V3*%
X162000000Y-63980000D03*
%TO.P,C6,2*%
%TO.N,GND*%
X162000000Y-63020000D03*
%TD*%
D29*
%TO.P,C15,1*%
%TO.N,GND*%
X156500000Y-80242500D03*
%TO.P,C15,2*%
%TO.N,XIN*%
X156500000Y-81202500D03*
%TD*%
D20*
%TO.P,R5,1*%
%TO.N,Net-(C16-Pad2)*%
X161009999Y-78500000D03*
%TO.P,R5,2*%
%TO.N,XOUT*%
X159990001Y-78500000D03*
%TD*%
D21*
%TO.P,R7,1*%
%TO.N,Net-(R7-Pad1)*%
X165500000Y-60490001D03*
%TO.P,R7,2*%
%TO.N,QSPI_SS*%
X165500000Y-61509999D03*
%TD*%
D15*
%TO.P,C12,1*%
%TO.N,+1V1*%
X161000000Y-63960000D03*
%TO.P,C12,2*%
%TO.N,GND*%
X161000000Y-63000000D03*
%TD*%
D26*
%TO.P,C13,1*%
%TO.N,/+3V3_USB*%
X156775000Y-61500000D03*
%TO.P,C13,2*%
%TO.N,GND*%
X155225000Y-61500000D03*
%TD*%
D30*
%TO.P,J1,A1,GND_A1*%
%TO.N,GND*%
X163740000Y-52885000D03*
%TO.P,J1,A4,VBUS_A4*%
%TO.N,VBUS*%
X162940000Y-52885000D03*
D31*
%TO.P,J1,A5,CC1_A5*%
%TO.N,Net-(J1-CC1)*%
X161740000Y-52885000D03*
%TO.P,J1,A6,D+_A6*%
%TO.N,USB_D+*%
X160740000Y-52885000D03*
%TO.P,J1,A7,D-_A7*%
%TO.N,USB_D-*%
X160240000Y-52885000D03*
%TO.P,J1,A8*%
%TO.N,N/C*%
X159240000Y-52885000D03*
D30*
%TO.P,J1,A9,VBUS_A9*%
%TO.N,VBUS*%
X158040000Y-52885000D03*
%TO.P,J1,A12,GND_A12*%
%TO.N,GND*%
X157240000Y-52885000D03*
%TO.P,J1,B1,GND_B1*%
X157240000Y-52885000D03*
%TO.P,J1,B4,VBUS_B4*%
%TO.N,VBUS*%
X158040000Y-52885000D03*
D31*
%TO.P,J1,B5,CC2_B5*%
%TO.N,Net-(J1-CC2)*%
X158740000Y-52885000D03*
%TO.P,J1,B6,D+_B6*%
%TO.N,USB_D+*%
X159740000Y-52885000D03*
%TO.P,J1,B7,D-_B7*%
%TO.N,USB_D-*%
X161240000Y-52885000D03*
%TO.P,J1,B8*%
%TO.N,N/C*%
X162240000Y-52885000D03*
D30*
%TO.P,J1,B9,VBUS_B9*%
%TO.N,VBUS*%
X162940000Y-52885000D03*
%TO.P,J1,B12,GND_B12*%
%TO.N,GND*%
X163740000Y-52885000D03*
D32*
%TO.P,J1,SH,SHIELD_SH*%
X164810000Y-51970000D03*
D33*
X164810000Y-47790000D03*
D32*
X156170000Y-51970000D03*
D33*
X156170000Y-47790000D03*
%TD*%
D29*
%TO.P,C2,1*%
%TO.N,+3V3*%
X162000000Y-78270000D03*
%TO.P,C2,2*%
%TO.N,GND*%
X162000000Y-79230000D03*
%TD*%
D34*
%TO.P,U1,1,IOVDD_1*%
%TO.N,+3V3*%
X157052500Y-70337500D03*
%TO.P,U1,2,GPIO0_2*%
%TO.N,GPIO0*%
X157052500Y-70737500D03*
%TO.P,U1,3,GPIO1_3*%
%TO.N,GPIO1*%
X157052500Y-71137500D03*
%TO.P,U1,4,GPIO2_4*%
%TO.N,AIN1*%
X157052500Y-71537500D03*
%TO.P,U1,5,GPIO3_5*%
%TO.N,AIN2*%
X157052500Y-71937500D03*
%TO.P,U1,6,GPIO4_6*%
%TO.N,PWMA*%
X157052500Y-72337500D03*
%TO.P,U1,7,GPIO5_7*%
%TO.N,BIN1*%
X157052500Y-72737500D03*
%TO.P,U1,8,GPIO6_8*%
%TO.N,BIN2*%
X157052500Y-73137500D03*
%TO.P,U1,9,GPIO7_9*%
%TO.N,PWMB*%
X157052500Y-73537500D03*
%TO.P,U1,10,IOVDD_10*%
%TO.N,+3V3*%
X157052500Y-73937500D03*
%TO.P,U1,11,GPIO8_11*%
%TO.N,GPIO8*%
X157052500Y-74337500D03*
%TO.P,U1,12,GPIO9_12*%
%TO.N,GPIO9*%
X157052500Y-74737500D03*
%TO.P,U1,13,GPIO10_13*%
%TO.N,GPIO10*%
X157052500Y-75137500D03*
%TO.P,U1,14,GPIO11_14*%
%TO.N,GPIO11*%
X157052500Y-75537500D03*
D35*
%TO.P,U1,15,GPIO12_15*%
%TO.N,GPIO12*%
X157890000Y-76375000D03*
%TO.P,U1,16,GPIO13_16*%
%TO.N,GPIO13*%
X158290000Y-76375000D03*
%TO.P,U1,17,GPIO14_17*%
%TO.N,GPIO14*%
X158690000Y-76375000D03*
%TO.P,U1,18,GPIO15_18*%
%TO.N,GPIO15*%
X159090000Y-76375000D03*
%TO.P,U1,19,TESTEN_19*%
%TO.N,GND*%
X159490000Y-76375000D03*
%TO.P,U1,20,XIN_20*%
%TO.N,XIN*%
X159890000Y-76375000D03*
%TO.P,U1,21,XOUT_21*%
%TO.N,XOUT*%
X160290000Y-76375000D03*
%TO.P,U1,22,IOVDD_22*%
%TO.N,+3V3*%
X160690000Y-76375000D03*
%TO.P,U1,23,DVDD_23*%
%TO.N,+1V1*%
X161090000Y-76375000D03*
%TO.P,U1,24,SWCLK_24*%
%TO.N,unconnected-(U1-SWCLK-Pad24)*%
X161490000Y-76375000D03*
%TO.P,U1,25,SWDIO_25*%
%TO.N,unconnected-(U1-SWDIO-Pad25)*%
X161890000Y-76375000D03*
%TO.P,U1,26,RUN_26*%
%TO.N,RUN*%
X162290000Y-76375000D03*
%TO.P,U1,27,GPIO16_27*%
%TO.N,GPIO16*%
X162690000Y-76375000D03*
%TO.P,U1,28,GPIO17_28*%
%TO.N,GPIO17*%
X163090000Y-76375000D03*
D34*
%TO.P,U1,29,GPIO18_29*%
%TO.N,GPIO18*%
X163927500Y-75537500D03*
%TO.P,U1,30,GPIO19_30*%
%TO.N,GPIO19*%
X163927500Y-75137500D03*
%TO.P,U1,31,GPIO20_31*%
%TO.N,GPIO20*%
X163927500Y-74737500D03*
%TO.P,U1,32,GPIO21_32*%
%TO.N,GPIO21*%
X163927500Y-74337500D03*
%TO.P,U1,33,IOVDD_33*%
%TO.N,+3V3*%
X163927500Y-73937500D03*
%TO.P,U1,34,GPIO22_34*%
%TO.N,GPIO22*%
X163927500Y-73537500D03*
%TO.P,U1,35,GPIO23_35*%
%TO.N,GPIO23*%
X163927500Y-73137500D03*
%TO.P,U1,36,GPIO24_36*%
%TO.N,GPIO24*%
X163927500Y-72737500D03*
%TO.P,U1,37,GPIO25_37*%
%TO.N,unconnected-(U1-GPIO25-Pad37)*%
X163927500Y-72337500D03*
%TO.P,U1,38,GPIO26/ADC0_38*%
%TO.N,GPIO26_ADC0*%
X163927500Y-71937500D03*
%TO.P,U1,39,GPIO27/ADC1_39*%
%TO.N,GPIO27_ADC1*%
X163927500Y-71537500D03*
%TO.P,U1,40,GPIO28/ADC2_40*%
%TO.N,GPIO28_ADC2*%
X163927500Y-71137500D03*
%TO.P,U1,41,GPIO29/ADC3_41*%
%TO.N,GPIO29_ADC3*%
X163927500Y-70737500D03*
%TO.P,U1,42,IOVDD_42*%
%TO.N,+3V3*%
X163927500Y-70337500D03*
D35*
%TO.P,U1,43,ADC_AVDD_43*%
X163090000Y-69500000D03*
%TO.P,U1,44,VREG_VIN_44*%
X162690000Y-69500000D03*
%TO.P,U1,45,VREG_VOUT_45*%
%TO.N,+1V1*%
X162290000Y-69500000D03*
%TO.P,U1,46,USB_DM_46*%
%TO.N,Net-(U1-USB_DM)*%
X161890000Y-69500000D03*
%TO.P,U1,47,USB_DP_47*%
%TO.N,Net-(U1-USB_DP)*%
X161490000Y-69500000D03*
%TO.P,U1,48,USB_VDD_48*%
%TO.N,+3V3*%
X161090000Y-69500000D03*
%TO.P,U1,49,IOVDD_49*%
X160690000Y-69500000D03*
%TO.P,U1,50,DVDD_50*%
%TO.N,+1V1*%
X160290000Y-69500000D03*
%TO.P,U1,51,QSPI_SD3_51*%
%TO.N,QSPI_SD3*%
X159890000Y-69500000D03*
%TO.P,U1,52,QSPI_SCLK_52*%
%TO.N,QSPI_SCLK*%
X159490000Y-69500000D03*
%TO.P,U1,53,QSPI_SD0_53*%
%TO.N,QSPI_SD0*%
X159090000Y-69500000D03*
%TO.P,U1,54,QSPI_SD2_54*%
%TO.N,QSPI_SD2*%
X158690000Y-69500000D03*
%TO.P,U1,55,QSPI_SD1_55*%
%TO.N,QSPI_SD1*%
X158290000Y-69500000D03*
%TO.P,U1,56,~{QSPI_SS}_56*%
%TO.N,QSPI_SS*%
X157890000Y-69500000D03*
D36*
%TO.P,U1,57,GND_57*%
%TO.N,GND*%
X160490000Y-72937500D03*
%TD*%
D21*
%TO.P,R4,1*%
%TO.N,USB_D-*%
X162550000Y-66490001D03*
%TO.P,R4,2*%
%TO.N,Net-(U1-USB_DM)*%
X162550000Y-67509999D03*
%TD*%
D24*
%TO.P,J3,1,Pin_1_1*%
%TO.N,VBUS*%
X169540000Y-48120000D03*
D25*
%TO.P,J3,2,Pin_2_2*%
%TO.N,GPIO29_ADC3*%
X169540000Y-50660000D03*
%TO.P,J3,3,Pin_3_3*%
%TO.N,GND*%
X169540000Y-53200000D03*
%TO.P,J3,4,Pin_4_4*%
%TO.N,GPIO28_ADC2*%
X169540000Y-55740000D03*
%TO.P,J3,5,Pin_5_5*%
%TO.N,+3V3*%
X169540000Y-58280000D03*
%TO.P,J3,6,Pin_6_6*%
%TO.N,GPIO27_ADC1*%
X169540000Y-60820000D03*
%TO.P,J3,7,Pin_7_7*%
%TO.N,GPIO26_ADC0*%
X169540000Y-63360000D03*
%TO.P,J3,8,Pin_8_8*%
%TO.N,GND*%
X169540000Y-65900000D03*
%TO.P,J3,9,Pin_9_9*%
%TO.N,GPIO24*%
X169540000Y-68440000D03*
%TO.P,J3,10,Pin_10_10*%
%TO.N,GPIO23*%
X169540000Y-70980000D03*
%TO.P,J3,11,Pin_11_11*%
%TO.N,RUN*%
X169540000Y-73520000D03*
%TO.P,J3,12,Pin_12_12*%
%TO.N,GPIO22*%
X169540000Y-76060000D03*
%TO.P,J3,13,Pin_13_13*%
%TO.N,GND*%
X169540000Y-78600000D03*
%TO.P,J3,14,Pin_14_14*%
%TO.N,GPIO21*%
X169540000Y-81140000D03*
%TO.P,J3,15,Pin_15_15*%
%TO.N,GPIO20*%
X169540000Y-83680000D03*
%TO.P,J3,16,Pin_16_16*%
%TO.N,GPIO19*%
X169540000Y-86220000D03*
%TO.P,J3,17,Pin_17_17*%
%TO.N,GPIO18*%
X169540000Y-88760000D03*
%TO.P,J3,18,Pin_18_18*%
%TO.N,GND*%
X169540000Y-91300000D03*
%TO.P,J3,19,Pin_19_19*%
%TO.N,GPIO17*%
X169540000Y-93840000D03*
%TO.P,J3,20,Pin_20_20*%
%TO.N,GPIO16*%
X169540000Y-96380000D03*
%TD*%
D37*
%TO.P,U3,1,~{CS}_1*%
%TO.N,QSPI_SS*%
X156575000Y-64000000D03*
%TO.P,U3,2,DO/IO_{1}_2*%
%TO.N,QSPI_SD1*%
X156575000Y-64500000D03*
%TO.P,U3,3,~{WP}/IO_{2}_3*%
%TO.N,QSPI_SD2*%
X156575000Y-65000000D03*
%TO.P,U3,4,GND_4*%
%TO.N,GND*%
X156575000Y-65500000D03*
%TO.P,U3,5,DI/IO_{0}_5*%
%TO.N,QSPI_SD0*%
X159425000Y-65500000D03*
%TO.P,U3,6,CLK_6*%
%TO.N,QSPI_SCLK*%
X159425000Y-65000000D03*
%TO.P,U3,7,~{HOLD}/~{RESET}/IO_{3}_7*%
%TO.N,QSPI_SD3*%
X159425000Y-64500000D03*
%TO.P,U3,8,VCC_8*%
%TO.N,+3V3*%
X159425000Y-64000000D03*
D38*
%TO.P,U3,9*%
%TO.N,N/C*%
X158000000Y-64750000D03*
%TD*%
D11*
%TO.P,C8,1*%
%TO.N,+3V3*%
X165020000Y-69500000D03*
%TO.P,C8,2*%
%TO.N,GND*%
X165980000Y-69500000D03*
%TD*%
D29*
%TO.P,C10,1*%
%TO.N,+1V1*%
X163000000Y-78270000D03*
%TO.P,C10,2*%
%TO.N,GND*%
X163000000Y-79230000D03*
%TD*%
D15*
%TO.P,C7,1*%
%TO.N,+3V3*%
X163000000Y-61980000D03*
%TO.P,C7,2*%
%TO.N,GND*%
X163000000Y-61020000D03*
%TD*%
D14*
%TO.P,R2,1*%
%TO.N,GND*%
X158500000Y-55509999D03*
%TO.P,R2,2*%
%TO.N,Net-(J1-CC2)*%
X158500000Y-54490001D03*
%TD*%
D15*
%TO.P,C11,1*%
%TO.N,+1V1*%
X163500000Y-67980000D03*
%TO.P,C11,2*%
%TO.N,GND*%
X163500000Y-67020000D03*
%TD*%
D22*
%TO.P,C4,1*%
%TO.N,+3V3*%
X155980000Y-68500000D03*
%TO.P,C4,2*%
%TO.N,GND*%
X155020000Y-68500000D03*
%TD*%
D39*
%TO.N,+3V3*%
X165660589Y-68339411D03*
X163000000Y-63000000D03*
X160512558Y-75464400D03*
X165510000Y-73990000D03*
X160190000Y-63821711D03*
X162000000Y-64500000D03*
X155980000Y-69000000D03*
X154990000Y-74490000D03*
X160890000Y-68500000D03*
%TO.N,GND*%
X154020000Y-74500000D03*
X159490000Y-75500000D03*
X153500000Y-77000000D03*
X166000000Y-63500000D03*
X156500000Y-82500000D03*
X157000000Y-86000000D03*
X160500000Y-61000000D03*
X158500000Y-63500000D03*
X163000000Y-54500000D03*
X168500000Y-79500000D03*
X166000000Y-76000000D03*
X157500000Y-83000000D03*
X163000000Y-79230000D03*
X164500000Y-66000000D03*
X165000000Y-54400000D03*
X155000000Y-86000000D03*
X158500000Y-63500000D03*
X165500000Y-57500000D03*
X160500000Y-86000000D03*
X162000000Y-61000000D03*
X163000000Y-86000000D03*
X158500000Y-63500000D03*
X164000000Y-57500000D03*
X158500000Y-86000000D03*
X157000000Y-66500000D03*
X155000000Y-68000000D03*
X160500000Y-72500000D03*
X167500000Y-95500000D03*
X166511299Y-74304502D03*
X155000000Y-58000000D03*
X160000000Y-57500000D03*
X157167969Y-79350000D03*
X155550001Y-59500000D03*
X155000000Y-91500000D03*
X155000000Y-57000000D03*
%TO.N,/Motor and Power/+12V*%
X165450000Y-97550000D03*
%TO.N,QSPI_SS*%
X160500000Y-61990000D03*
X165000000Y-65000000D03*
%TO.N,GPIO0*%
X155890570Y-70109430D03*
%TO.N,GPIO1*%
X155014214Y-70165685D03*
%TO.N,AIN1*%
X157983950Y-71005022D03*
X155000000Y-71000000D03*
%TO.N,AIN2*%
X159000000Y-70837498D03*
%TO.N,PWMA*%
X158390001Y-72296026D03*
%TO.N,BIN1*%
X158364697Y-75437891D03*
%TO.N,/+3V3_USB*%
X158687499Y-61345403D03*
%TO.N,+1V1*%
X160639646Y-67710355D03*
X162294204Y-70316049D03*
%TO.N,RUN*%
X162996866Y-71799996D03*
%TO.N,GPIO28_ADC2*%
X166500000Y-62500000D03*
X163000000Y-71000000D03*
X166500000Y-55500000D03*
%TO.N,GPIO29_ADC3*%
X167500000Y-62000000D03*
X164860000Y-70500000D03*
%TD*%
%TO.N,+3V3*%
D10*
X162690000Y-69500000D02*
X163090000Y-69500000D01*
X160334314Y-70900000D02*
X160665686Y-70900000D01*
X161090000Y-69500000D02*
X161090000Y-68700000D01*
X161610000Y-77880000D02*
X162000000Y-78270000D01*
X160690000Y-76375000D02*
X160690000Y-77570000D01*
X163090000Y-69500000D02*
X163480000Y-69500000D01*
X155980000Y-69265000D02*
X157052500Y-70337500D01*
X160900000Y-69710000D02*
X160690000Y-69500000D01*
X165510000Y-73990000D02*
X165520000Y-74000000D01*
X161980000Y-78000000D02*
X162000000Y-78020000D01*
X165660589Y-68339411D02*
X165660589Y-68859411D01*
X154990000Y-74490000D02*
X154980000Y-74500000D01*
X159425000Y-64000000D02*
X160011711Y-64000000D01*
X164765000Y-69500000D02*
X163927500Y-70337500D01*
X160011711Y-64000000D02*
X160190000Y-63821711D01*
X159425000Y-64000000D02*
X159425000Y-63055000D01*
X157052500Y-73937500D02*
X155542500Y-73937500D01*
X159425000Y-63055000D02*
X159480000Y-63000000D01*
X160690000Y-77570000D02*
X161000000Y-77880000D01*
X161000000Y-77880000D02*
X161610000Y-77880000D01*
X157052500Y-70337500D02*
X157152502Y-70237498D01*
X162000000Y-64500000D02*
X162000000Y-63980000D01*
X158870000Y-62390000D02*
X158119999Y-62390000D01*
X157152502Y-70237498D02*
X159671812Y-70237498D01*
X159480000Y-63000000D02*
X158870000Y-62390000D01*
X162500000Y-63980000D02*
X162000000Y-63980000D01*
X165020000Y-69500000D02*
X164765000Y-69500000D01*
X163480000Y-69500000D02*
X164500000Y-68480000D01*
X163000000Y-63480000D02*
X162500000Y-63980000D01*
X160690000Y-68700000D02*
X160890000Y-68500000D01*
X164500000Y-68480000D02*
X165520000Y-68480000D01*
X159671812Y-70237498D02*
X160334314Y-70900000D01*
X160665686Y-70900000D02*
X160900000Y-70665686D01*
X161090000Y-68700000D02*
X160890000Y-68500000D01*
X165520000Y-68480000D02*
X165660589Y-68339411D01*
X163927500Y-73937500D02*
X165457500Y-73937500D01*
X160690000Y-75641842D02*
X160512558Y-75464400D01*
X163000000Y-63000000D02*
X163000000Y-61980000D01*
X155542500Y-73937500D02*
X154990000Y-74490000D01*
X165660589Y-68859411D02*
X165020000Y-69500000D01*
X160690000Y-76375000D02*
X160690000Y-75641842D01*
X155980000Y-68500000D02*
X155980000Y-69000000D01*
X165457500Y-73937500D02*
X165510000Y-73990000D01*
X160900000Y-70665686D02*
X160900000Y-69710000D01*
X158119999Y-62390000D02*
X157509999Y-63000000D01*
X155980000Y-69000000D02*
X155980000Y-69265000D01*
X163000000Y-63480000D02*
X163000000Y-63000000D01*
X160690000Y-69500000D02*
X160690000Y-68700000D01*
X160690000Y-69500000D02*
X161090000Y-69500000D01*
%TO.N,GND*%
X163500000Y-67020000D02*
X164000000Y-67020000D01*
X160500000Y-81722500D02*
X161480000Y-81722500D01*
X162000000Y-79230000D02*
X163000000Y-79230000D01*
X164500000Y-67520000D02*
X166198822Y-67520000D01*
X164000000Y-67020000D02*
X164500000Y-67520000D01*
X166339411Y-63839411D02*
X166000000Y-63500000D01*
X163000000Y-80202500D02*
X163000000Y-79230000D01*
X156500000Y-80242500D02*
X158080000Y-80242500D01*
X156575000Y-66075000D02*
X157000000Y-66500000D01*
X159490000Y-75500000D02*
X159490000Y-73937500D01*
X155000000Y-68000000D02*
X155000000Y-68370330D01*
X165980000Y-69500000D02*
X166000000Y-69500000D01*
X159490000Y-76375000D02*
X159490000Y-75500000D01*
X167000000Y-68321178D02*
X166339411Y-67660589D01*
X158080000Y-80242500D02*
X158300000Y-80022500D01*
X162000000Y-81202500D02*
X163000000Y-80202500D01*
X166198822Y-67520000D02*
X166339411Y-67660589D01*
X167000000Y-68500000D02*
X167000000Y-68321178D01*
X159490000Y-73937500D02*
X160490000Y-72937500D01*
X166480000Y-74000000D02*
X166480000Y-74273203D01*
X162000000Y-63020000D02*
X162000000Y-61000000D01*
X158300000Y-78685391D02*
X158300000Y-80022500D01*
X161480000Y-81722500D02*
X162000000Y-81202500D01*
X156575000Y-65500000D02*
X156575000Y-66075000D01*
X159490000Y-76375000D02*
X159490000Y-77495391D01*
X166339411Y-67660589D02*
X166339411Y-63839411D01*
X166000000Y-69500000D02*
X167000000Y-68500000D01*
X159490000Y-77495391D02*
X158300000Y-78685391D01*
X166480000Y-74273203D02*
X166511299Y-74304502D01*
%TO.N,Net-(U1-USB_DP)*%
X161490000Y-69500000D02*
X161490000Y-67569999D01*
X161490000Y-67569999D02*
X161550000Y-67509999D01*
%TO.N,USB_D+*%
X163775000Y-64465001D02*
X162758392Y-65481609D01*
X160740000Y-52885000D02*
X160740000Y-53972501D01*
X162258392Y-65481609D02*
X161550000Y-66190001D01*
X161626309Y-57944507D02*
X162888948Y-59207146D01*
X160007590Y-53910000D02*
X160472410Y-53910000D01*
X160740000Y-53972501D02*
X160765000Y-53997501D01*
X160765000Y-57083198D02*
X161626309Y-57944507D01*
X162758392Y-65481609D02*
X162258392Y-65481609D01*
X163775000Y-60093198D02*
X163775000Y-64465001D01*
X159740000Y-52885000D02*
X159740000Y-53642410D01*
X162888948Y-59207146D02*
X163775000Y-60093198D01*
X161550000Y-66190001D02*
X161550000Y-66490001D01*
X159740000Y-53642410D02*
X160007590Y-53910000D01*
X160472410Y-53910000D02*
X160740000Y-53642410D01*
X160740000Y-53642410D02*
X160740000Y-52885000D01*
X160765000Y-53997501D02*
X160765000Y-57083198D01*
%TO.N,/Motor and Power/+12V*%
X158450000Y-100300000D02*
X161450000Y-103300000D01*
X161450000Y-103300000D02*
X165500000Y-99250000D01*
X165500000Y-99250000D02*
X165500000Y-97500000D01*
X156750000Y-100300000D02*
X158450000Y-100300000D01*
%TO.N,Net-(R7-Pad1)*%
X165500000Y-60490001D02*
X165500000Y-59100000D01*
X165500000Y-59100000D02*
X165000000Y-58600000D01*
%TO.N,QSPI_SS*%
X155423860Y-66665685D02*
X157890000Y-69131826D01*
X157890000Y-69131826D02*
X157890000Y-69500000D01*
X155423860Y-65010454D02*
X155423860Y-66665685D01*
X155425000Y-65009315D02*
X155423860Y-65010454D01*
X155869929Y-64175000D02*
X155425000Y-64619928D01*
X156350000Y-64000000D02*
X156275000Y-64075000D01*
X165000000Y-62009999D02*
X165500000Y-61509999D01*
X156150000Y-64000000D02*
X156350000Y-64000000D01*
X165000000Y-65000000D02*
X165000000Y-62009999D01*
X155425000Y-64619928D02*
X155425000Y-65009315D01*
X156490001Y-63915001D02*
X156575000Y-64000000D01*
X157510000Y-61990000D02*
X156500000Y-63000000D01*
X156490001Y-63000000D02*
X156490001Y-63915001D01*
X156275000Y-64075000D02*
X156035614Y-64075000D01*
X155935614Y-64175000D02*
X155869929Y-64175000D01*
X156500000Y-63000000D02*
X156490001Y-63000000D01*
X156035614Y-64075000D02*
X155935614Y-64175000D01*
X160500000Y-61990000D02*
X157510000Y-61990000D01*
%TO.N,Net-(J1-CC1)*%
X162000000Y-54490001D02*
X161740000Y-54230001D01*
X161740000Y-54230001D02*
X161740000Y-52885000D01*
%TO.N,Net-(C16-Pad2)*%
X160720000Y-80242500D02*
X160500000Y-80022500D01*
X161009999Y-79512501D02*
X160500000Y-80022500D01*
X161009999Y-78500000D02*
X161009999Y-79512501D01*
X162000000Y-80242500D02*
X160720000Y-80242500D01*
%TO.N,GPIO0*%
X157052500Y-70737500D02*
X156518640Y-70737500D01*
X156518640Y-70737500D02*
X155890570Y-70109430D01*
%TO.N,GPIO1*%
X155986029Y-71137500D02*
X155014214Y-70165685D01*
X157052500Y-71137500D02*
X155986029Y-71137500D01*
%TO.N,AIN1*%
X157983950Y-71005022D02*
X158000000Y-71021072D01*
X157586360Y-71537500D02*
X157052500Y-71537500D01*
X155537500Y-71537500D02*
X155000000Y-71000000D01*
X157052500Y-71537500D02*
X155537500Y-71537500D01*
X158000000Y-71021072D02*
X158000000Y-71123860D01*
X158000000Y-71123860D02*
X157586360Y-71537500D01*
%TO.N,AIN2*%
X154200000Y-69200000D02*
X154000000Y-69000000D01*
X158590000Y-71247499D02*
X157899998Y-71937500D01*
X153500000Y-60000000D02*
X153480000Y-60000000D01*
X153480000Y-60000000D02*
X151760000Y-58280000D01*
X153500000Y-63934314D02*
X153500000Y-60000000D01*
X154000000Y-69000000D02*
X154000000Y-64434314D01*
X154437500Y-71937500D02*
X154200000Y-71700000D01*
X154200000Y-71700000D02*
X154200000Y-69200000D01*
X158790002Y-70837498D02*
X159000000Y-70837498D01*
X157052500Y-71937500D02*
X154437500Y-71937500D01*
X158590000Y-71037500D02*
X158790002Y-70837498D01*
X158590000Y-71247499D02*
X158590000Y-71037500D01*
X154000000Y-64434314D02*
X153500000Y-63934314D01*
X157899998Y-71937500D02*
X157052500Y-71937500D01*
%TO.N,PWMA*%
X153565685Y-64565685D02*
X153000000Y-64000000D01*
X153000000Y-62060000D02*
X151760000Y-60820000D01*
X154034558Y-72337500D02*
X153800000Y-72102942D01*
X158348527Y-72337500D02*
X158390001Y-72296026D01*
X153800000Y-69668628D02*
X153565685Y-69434314D01*
X157052500Y-72337500D02*
X154034558Y-72337500D01*
X153565685Y-69434314D02*
X153565685Y-64565685D01*
X153000000Y-64000000D02*
X153000000Y-62060000D01*
X157052500Y-72337500D02*
X158348527Y-72337500D01*
X153800000Y-72102942D02*
X153800000Y-69668628D01*
%TO.N,BIN1*%
X157052500Y-72737500D02*
X153868872Y-72737500D01*
X153000000Y-64600000D02*
X151760000Y-63360000D01*
X153400000Y-69834314D02*
X153000000Y-69434314D01*
X153000000Y-69434314D02*
X153000000Y-64600000D01*
X153400000Y-72268628D02*
X153400000Y-69834314D01*
X157737500Y-72737500D02*
X157052500Y-72737500D01*
X153868872Y-72737500D02*
X153400000Y-72268628D01*
X158364697Y-75437891D02*
X158401471Y-75401117D01*
X158401471Y-73401471D02*
X157737500Y-72737500D01*
X158401471Y-75401117D02*
X158401471Y-73401471D01*
%TO.N,BIN2*%
X151760000Y-68440000D02*
X151760000Y-68760000D01*
X153000000Y-72434314D02*
X153703186Y-73137500D01*
X153703186Y-73137500D02*
X157052500Y-73137500D01*
X151760000Y-68760000D02*
X153000000Y-70000000D01*
X153000000Y-70000000D02*
X153000000Y-72434314D01*
%TO.N,PWMB*%
X151760000Y-71760000D02*
X153537500Y-73537500D01*
X153537500Y-73537500D02*
X157052500Y-73537500D01*
X151760000Y-70980000D02*
X151760000Y-71760000D01*
%TO.N,GPIO8*%
X157052500Y-74337500D02*
X156078634Y-74337500D01*
X152850000Y-74850000D02*
X152850000Y-74610000D01*
X154916134Y-75500000D02*
X153500000Y-75500000D01*
X153500000Y-75500000D02*
X152850000Y-74850000D01*
X152850000Y-74610000D02*
X151760000Y-73520000D01*
X156078634Y-74337500D02*
X154916134Y-75500000D01*
%TO.N,GPIO9*%
X154921820Y-76060000D02*
X151760000Y-76060000D01*
X156244320Y-74737500D02*
X154921820Y-76060000D01*
X157052500Y-74737500D02*
X156244320Y-74737500D01*
%TO.N,GPIO10*%
X152910000Y-78746140D02*
X152910000Y-79990000D01*
X157052500Y-75137500D02*
X156518640Y-75137500D01*
X156518640Y-75137500D02*
X152910000Y-78746140D01*
X152910000Y-79990000D02*
X151760000Y-81140000D01*
%TO.N,GPIO11*%
X156684326Y-75537500D02*
X153500000Y-78721826D01*
X153500000Y-78721826D02*
X153500000Y-81940000D01*
X153500000Y-81940000D02*
X151760000Y-83680000D01*
X157052500Y-75537500D02*
X156684326Y-75537500D01*
%TO.N,GPIO12*%
X153900000Y-78887512D02*
X153900000Y-82600000D01*
X157890000Y-76375000D02*
X157265000Y-77000000D01*
X157265000Y-77000000D02*
X155787512Y-77000000D01*
X153500000Y-84480000D02*
X151760000Y-86220000D01*
X155787512Y-77000000D02*
X153900000Y-78887512D01*
X153900000Y-82600000D02*
X153500000Y-83000000D01*
X153500000Y-83000000D02*
X153500000Y-84480000D01*
%TO.N,GPIO13*%
X154000000Y-84545686D02*
X153000000Y-85545685D01*
X153000000Y-85545685D02*
X153000000Y-87520000D01*
X157698860Y-77500000D02*
X155853198Y-77500000D01*
X154300000Y-82765686D02*
X154000000Y-83065685D01*
X158290000Y-76375000D02*
X158290000Y-76908860D01*
X155853198Y-77500000D02*
X154300000Y-79053198D01*
X154000000Y-83065685D02*
X154000000Y-84545686D01*
X153000000Y-87520000D02*
X151760000Y-88760000D01*
X154300000Y-79053198D02*
X154300000Y-82765686D01*
X158290000Y-76908860D02*
X157698860Y-77500000D01*
%TO.N,GPIO14*%
X154700000Y-79218884D02*
X154699999Y-83200001D01*
X153400000Y-85711372D02*
X153400000Y-92200000D01*
X157864545Y-77900000D02*
X156018884Y-77900000D01*
X156018884Y-77900000D02*
X154700000Y-79218884D01*
X158690000Y-77074546D02*
X157864545Y-77900000D01*
X154400000Y-84711372D02*
X153400000Y-85711372D01*
X154400000Y-83500000D02*
X154400000Y-84711372D01*
X153400000Y-92200000D02*
X151760000Y-93840000D01*
X158690000Y-76375000D02*
X158690000Y-77074546D01*
X154699999Y-83200001D02*
X154400000Y-83500000D01*
%TO.N,GPIO15*%
X153800000Y-94340000D02*
X151760000Y-96380000D01*
X159090000Y-77240232D02*
X158030230Y-78300000D01*
X159090000Y-76375000D02*
X159090000Y-77240232D01*
X155100000Y-79384570D02*
X155099999Y-83365687D01*
X155099999Y-83365687D02*
X154800000Y-83665686D01*
X156184570Y-78300000D02*
X155100000Y-79384570D01*
X154800000Y-84877058D02*
X153800000Y-85877058D01*
X154800000Y-83665686D02*
X154800000Y-84877058D01*
X153800000Y-85877058D02*
X153800000Y-94340000D01*
X158030230Y-78300000D02*
X156184570Y-78300000D01*
%TO.N,VBUS*%
X164532410Y-49000000D02*
X168660000Y-49000000D01*
X156775000Y-55000000D02*
X156775000Y-55275000D01*
X162072410Y-51460000D02*
X164532410Y-49000000D01*
X156775000Y-55275000D02*
X157550000Y-56050000D01*
X168660000Y-49000000D02*
X169540000Y-48120000D01*
X157550000Y-56050000D02*
X157550000Y-57062500D01*
X158040000Y-53735000D02*
X158040000Y-52885000D01*
X162072410Y-51460000D02*
X158740001Y-51460000D01*
X162940000Y-52327590D02*
X162072410Y-51460000D01*
X158040000Y-52160001D02*
X158040000Y-52885000D01*
X162940000Y-52885000D02*
X162940000Y-52327590D01*
X156775000Y-55000000D02*
X158040000Y-53735000D01*
X158740001Y-51460000D02*
X158040000Y-52160001D01*
%TO.N,/+3V3_USB*%
X158532902Y-61500000D02*
X158687499Y-61345403D01*
X156775000Y-61500000D02*
X158532902Y-61500000D01*
X158500000Y-58937500D02*
X158500000Y-59775000D01*
X158500000Y-59775000D02*
X156775000Y-61500000D01*
%TO.N,XIN*%
X156500000Y-81202500D02*
X157780000Y-81202500D01*
X159420001Y-80602499D02*
X158300000Y-81722500D01*
X159420001Y-78131076D02*
X159420001Y-80602499D01*
X159890000Y-76375000D02*
X159890000Y-77661077D01*
X159890000Y-77661077D02*
X159420001Y-78131076D01*
X157780000Y-81202500D02*
X158300000Y-81722500D01*
%TO.N,XOUT*%
X160290000Y-78200001D02*
X159990001Y-78500000D01*
X160290000Y-76375000D02*
X160290000Y-78200001D01*
%TO.N,+1V1*%
X160290000Y-69500000D02*
X160290000Y-68060001D01*
X162500000Y-71448333D02*
X162500000Y-71348529D01*
X162500000Y-72151659D02*
X162396866Y-72048525D01*
X161090000Y-76375000D02*
X161090000Y-75841140D01*
X162396866Y-72048525D02*
X162396866Y-71551467D01*
X162396866Y-71003134D02*
X162290000Y-70896268D01*
X162290000Y-70311845D02*
X162294204Y-70316049D01*
X160290000Y-68060001D02*
X160639646Y-67710355D01*
X162500000Y-74956741D02*
X162500000Y-72151659D01*
X161090000Y-75841140D02*
X161293640Y-75637500D01*
X159897058Y-66725000D02*
X160340686Y-66725000D01*
X161165686Y-77480000D02*
X162210000Y-77480000D01*
X161400000Y-64748529D02*
X161400000Y-64360000D01*
X162400000Y-71248529D02*
X162400000Y-71006268D01*
X161819241Y-75637500D02*
X162500000Y-74956741D01*
X160289999Y-67989999D02*
X159800000Y-67500000D01*
X162290000Y-70896268D02*
X162290000Y-69500000D01*
X163237500Y-68762500D02*
X162493640Y-68762500D01*
X162396866Y-71003134D02*
X162400000Y-71000000D01*
X163276140Y-67980000D02*
X163500000Y-67980000D01*
X162493640Y-68762500D02*
X162290000Y-68966140D01*
X161500000Y-64848529D02*
X161400000Y-64748529D01*
X162396866Y-71551467D02*
X162500000Y-71448333D01*
X161090000Y-77404314D02*
X161165686Y-77480000D01*
X162210000Y-77480000D02*
X163000000Y-78270000D01*
X163500000Y-68500000D02*
X163237500Y-68762500D01*
X161293640Y-75637500D02*
X161819241Y-75637500D01*
X159800000Y-66822058D02*
X159897058Y-66725000D01*
X162290000Y-69500000D02*
X162290000Y-70311845D01*
X161500000Y-65565686D02*
X161500000Y-64848529D01*
X162500000Y-71348529D02*
X162400000Y-71248529D01*
X163500000Y-67980000D02*
X163500000Y-68500000D01*
X160290000Y-69500000D02*
X160289999Y-67989999D01*
X160340686Y-66725000D02*
X161500000Y-65565686D01*
X162400000Y-71006268D02*
X162396866Y-71003134D01*
X161090000Y-76375000D02*
X161090000Y-77404314D01*
X161400000Y-64360000D02*
X161000000Y-63960000D01*
X159800000Y-67500000D02*
X159800000Y-66822058D01*
X162290000Y-68966140D02*
X162290000Y-69500000D01*
%TO.N,USB_D-*%
X163433518Y-58933518D02*
X163750932Y-59250932D01*
X160972410Y-51860000D02*
X161240000Y-52127590D01*
X164500000Y-64376398D02*
X162944789Y-65931609D01*
X161240000Y-52885000D02*
X161240000Y-53972501D01*
X161240000Y-53972501D02*
X161215000Y-53997501D01*
X162944789Y-66095212D02*
X162550000Y-66490001D01*
X164500000Y-60000000D02*
X164500000Y-64376398D01*
X161215000Y-56715000D02*
X162584990Y-58084990D01*
X162947772Y-58084990D02*
X163190644Y-58327862D01*
X160240000Y-52885000D02*
X160240000Y-52127590D01*
X160507590Y-51860000D02*
X160972410Y-51860000D01*
X163750932Y-59250932D02*
X164500000Y-60000000D01*
X160240000Y-52127590D02*
X160507590Y-51860000D01*
X161240000Y-52127590D02*
X161240000Y-52885000D01*
X161215000Y-53997501D02*
X161215000Y-56715000D01*
X163190645Y-58690646D02*
X163433518Y-58933518D01*
X162944789Y-65931609D02*
X162944789Y-66095212D01*
X162584990Y-58084990D02*
G75*
G03*
X162766395Y-58085005I90710J90690D01*
G01*
X163190644Y-58509254D02*
G75*
G03*
X163190694Y-58690596I90656J-90646D01*
G01*
X162766382Y-58084991D02*
G75*
G02*
X162947794Y-58084967I90718J-90709D01*
G01*
X163190644Y-58327862D02*
G75*
G02*
X163190686Y-58509296I-90744J-90738D01*
G01*
%TO.N,Net-(J1-CC2)*%
X158500000Y-54490001D02*
X158740000Y-54250001D01*
X158740000Y-54250001D02*
X158740000Y-52885000D01*
%TO.N,RUN*%
X162862500Y-75637500D02*
X162493640Y-75637500D01*
X162990001Y-74799944D02*
X162990001Y-75490001D01*
X162996866Y-74793079D02*
X162990001Y-74799944D01*
X162493640Y-75637500D02*
X162290000Y-75841140D01*
X162290000Y-75841140D02*
X162290000Y-76375000D01*
X162990001Y-75490001D02*
X163000000Y-75500000D01*
X163000000Y-75500000D02*
X162862500Y-75637500D01*
X162996866Y-71799996D02*
X162996866Y-74793079D01*
%TO.N,GPIO16*%
X168000000Y-94840000D02*
X169540000Y-96380000D01*
X167500000Y-92500000D02*
X168000000Y-93000000D01*
X168000000Y-93000000D02*
X168000000Y-94840000D01*
X163610000Y-83610000D02*
X167500000Y-87500000D01*
X162690000Y-76375000D02*
X162690000Y-77023866D01*
X162690000Y-77023866D02*
X163610000Y-77943866D01*
X167500000Y-87500000D02*
X167500000Y-92500000D01*
X163610000Y-77943866D02*
X163610000Y-83610000D01*
%TO.N,GPIO17*%
X168000000Y-92300000D02*
X169540000Y-93840000D01*
X164010000Y-83444314D02*
X168000000Y-87434314D01*
X163090000Y-76858180D02*
X164010000Y-77778181D01*
X168000000Y-87434314D02*
X168000000Y-92300000D01*
X163090000Y-76375000D02*
X163090000Y-76858180D01*
X164010000Y-77778181D02*
X164010000Y-83444314D01*
%TO.N,GPIO18*%
X168500000Y-87368628D02*
X168500000Y-87720000D01*
X163927500Y-75537500D02*
X163927500Y-76927500D01*
X164410000Y-77410000D02*
X164410000Y-83278628D01*
X168500000Y-87720000D02*
X169540000Y-88760000D01*
X164410000Y-83278628D02*
X168500000Y-87368628D01*
X163927500Y-76927500D02*
X164410000Y-77410000D01*
%TO.N,GPIO19*%
X164810000Y-83112942D02*
X167917058Y-86220000D01*
X164810000Y-75486140D02*
X164810000Y-83112942D01*
X164461360Y-75137500D02*
X164810000Y-75486140D01*
X167917058Y-86220000D02*
X169540000Y-86220000D01*
X163927500Y-75137500D02*
X164461360Y-75137500D01*
%TO.N,GPIO20*%
X165210000Y-82390000D02*
X166500000Y-83680000D01*
X165210000Y-75210000D02*
X165210000Y-82390000D01*
X163927500Y-74737500D02*
X164737500Y-74737500D01*
X166500000Y-83680000D02*
X169540000Y-83680000D01*
X164737500Y-74737500D02*
X165210000Y-75210000D01*
%TO.N,GPIO21*%
X164921366Y-74337500D02*
X165533866Y-74950000D01*
X165533866Y-74950000D02*
X166434925Y-74950000D01*
X163927500Y-74337500D02*
X164921366Y-74337500D01*
X166640000Y-81140000D02*
X169540000Y-81140000D01*
X167050000Y-75565076D02*
X167050000Y-76434925D01*
X166000000Y-77484925D02*
X166000000Y-80500000D01*
X166000000Y-80500000D02*
X166640000Y-81140000D01*
X166434925Y-74950000D02*
X167050000Y-75565076D01*
X167050000Y-76434925D02*
X166000000Y-77484925D01*
%TO.N,GPIO22*%
X167500000Y-74000000D02*
X167500000Y-74020000D01*
X167500000Y-74020000D02*
X169540000Y-76060000D01*
X165193866Y-73390000D02*
X166890000Y-73390000D01*
X163927500Y-73537500D02*
X165046366Y-73537500D01*
X165046366Y-73537500D02*
X165193866Y-73390000D01*
X166890000Y-73390000D02*
X167500000Y-74000000D01*
%TO.N,GPIO23*%
X163927500Y-73137500D02*
X164880680Y-73137500D01*
X168000000Y-72500000D02*
X168020000Y-72500000D01*
X164880680Y-73137500D02*
X165028181Y-72990000D01*
X167500000Y-73000000D02*
X168000000Y-72500000D01*
X167490000Y-72990000D02*
X167500000Y-73000000D01*
X165028181Y-72990000D02*
X167490000Y-72990000D01*
X168020000Y-72500000D02*
X169540000Y-70980000D01*
%TO.N,GPIO24*%
X167240000Y-72260000D02*
X167240000Y-70740000D01*
X167240000Y-70740000D02*
X169540000Y-68440000D01*
X165565686Y-72500000D02*
X167000000Y-72500000D01*
X164714995Y-72737500D02*
X164862496Y-72590000D01*
X164862496Y-72590000D02*
X165475686Y-72590000D01*
X163927500Y-72737500D02*
X164714995Y-72737500D01*
X167000000Y-72500000D02*
X167240000Y-72260000D01*
X165475686Y-72590000D02*
X165565686Y-72500000D01*
%TO.N,GPIO26_ADC0*%
X163927500Y-71937500D02*
X166062500Y-71937500D01*
X168000000Y-64900000D02*
X169540000Y-63360000D01*
X166500000Y-71500000D02*
X166500000Y-70914314D01*
X167957157Y-69457157D02*
X167957157Y-68042843D01*
X167957157Y-68042843D02*
X168000000Y-68000000D01*
X166062500Y-71937500D02*
X166500000Y-71500000D01*
X168000000Y-68000000D02*
X168000000Y-64900000D01*
X166500000Y-70914314D02*
X167957157Y-69457157D01*
%TO.N,GPIO27_ADC1*%
X167500000Y-69000000D02*
X167500000Y-63500000D01*
X168000000Y-63000000D02*
X168000000Y-62360000D01*
X165462500Y-71537500D02*
X166000000Y-71000000D01*
X166000000Y-70500000D02*
X167500000Y-69000000D01*
X166000000Y-71000000D02*
X166000000Y-70500000D01*
X168000000Y-62360000D02*
X169540000Y-60820000D01*
X163927500Y-71537500D02*
X165462500Y-71537500D01*
X167500000Y-63500000D02*
X168000000Y-63000000D01*
%TO.N,GPIO28_ADC2*%
X166500000Y-62500000D02*
X166500000Y-55500000D01*
X163927500Y-71137500D02*
X163137500Y-71137500D01*
X163137500Y-71137500D02*
X163000000Y-71000000D01*
%TO.N,GPIO29_ADC3*%
X164622500Y-70737500D02*
X164860000Y-70500000D01*
X167500000Y-62000000D02*
X167500000Y-52700000D01*
X167500000Y-52700000D02*
X169540000Y-50660000D01*
X163927500Y-70737500D02*
X164622500Y-70737500D01*
%TO.N,Net-(U1-USB_DM)*%
X161890000Y-69500000D02*
X161890000Y-68169999D01*
X161890000Y-68169999D02*
X162550000Y-67509999D01*
%TO.N,QSPI_SD3*%
X160175000Y-66325000D02*
X160575000Y-65925000D01*
X159400000Y-67768629D02*
X159400000Y-66656372D01*
X159890000Y-69500000D02*
X159890000Y-68258628D01*
X159731372Y-66325000D02*
X160175000Y-66325000D01*
X159955071Y-64500000D02*
X159425000Y-64500000D01*
X160575000Y-65119929D02*
X159955071Y-64500000D01*
X159400000Y-66656372D02*
X159731372Y-66325000D01*
X160575000Y-65925000D02*
X160575000Y-65119929D01*
X159890000Y-68258628D02*
X159400000Y-67768629D01*
%TO.N,QSPI_SCLK*%
X159889386Y-65000000D02*
X159425000Y-65000000D01*
X160175000Y-65714386D02*
X160175000Y-65285614D01*
X159490000Y-69500000D02*
X159490000Y-68424314D01*
X159490000Y-68424314D02*
X159000000Y-67934314D01*
X159000000Y-66490686D02*
X159565686Y-65925000D01*
X159964386Y-65925000D02*
X160175000Y-65714386D01*
X159000000Y-67934314D02*
X159000000Y-66490686D01*
X160175000Y-65285614D02*
X159889386Y-65000000D01*
X159565686Y-65925000D02*
X159964386Y-65925000D01*
%TO.N,QSPI_SD0*%
X159090000Y-69500000D02*
X159090000Y-68590000D01*
X158500000Y-66425000D02*
X159425000Y-65500000D01*
X158500000Y-68000000D02*
X158500000Y-66425000D01*
X159090000Y-68590000D02*
X158500000Y-68000000D01*
%TO.N,QSPI_SD2*%
X157039386Y-65000000D02*
X157500000Y-65460614D01*
X157500000Y-66919239D02*
X157500000Y-67610454D01*
X157500000Y-65460614D02*
X157500000Y-66080761D01*
X156575000Y-65000000D02*
X157039386Y-65000000D01*
X157650000Y-66230761D02*
X157650000Y-66769239D01*
X157500000Y-66080761D02*
X157650000Y-66230761D01*
X158690000Y-68800455D02*
X158690000Y-69500000D01*
X157500000Y-67610454D02*
X158690000Y-68800455D01*
X157650000Y-66769239D02*
X157500000Y-66919239D01*
%TO.N,QSPI_SD1*%
X158290000Y-68966140D02*
X155823860Y-66500000D01*
X156425000Y-64575000D02*
X156500000Y-64500000D01*
X156035614Y-64575000D02*
X156425000Y-64575000D01*
X155825000Y-65175000D02*
X155825000Y-64785614D01*
X155825000Y-64785614D02*
X156035614Y-64575000D01*
X155823860Y-66500000D02*
X155823860Y-65176140D01*
X155823860Y-65176140D02*
X155825000Y-65175000D01*
X158290000Y-69500000D02*
X158290000Y-68966140D01*
X156500000Y-64500000D02*
X156575000Y-64500000D01*
%TD*%
%TA.AperFunction,Conductor*%
%TO.N,GND*%
G36*
X162538276Y-78981600D02*
G01*
X162573605Y-79002494D01*
X162573606Y-79002494D01*
X162573609Y-79002496D01*
X162667601Y-79029802D01*
X162729007Y-79047643D01*
X162765310Y-79050500D01*
X162988500Y-79050500D01*
X162996632Y-79053868D01*
X163000000Y-79062000D01*
X163000000Y-79229999D01*
X163001415Y-79231414D01*
X163006132Y-79233368D01*
X163009500Y-79241500D01*
X163009500Y-83530229D01*
X163009499Y-83530247D01*
X163009499Y-83530943D01*
X163009499Y-83689057D01*
X163050423Y-83841785D01*
X163079360Y-83891904D01*
X163129480Y-83978716D01*
X163241284Y-84090520D01*
X163241286Y-84090521D01*
X166896132Y-87745367D01*
X166899500Y-87753499D01*
X166899500Y-92420229D01*
X166899499Y-92420247D01*
X166899499Y-92420943D01*
X166899499Y-92579057D01*
X166902014Y-92588443D01*
X166940422Y-92731783D01*
X166956469Y-92759577D01*
X167019479Y-92868715D01*
X167131285Y-92980521D01*
X167396132Y-93245367D01*
X167399500Y-93253499D01*
X167399500Y-94760229D01*
X167399499Y-94760247D01*
X167399499Y-94760943D01*
X167399499Y-94919057D01*
X167440423Y-95071785D01*
X167458442Y-95102994D01*
X167519480Y-95208716D01*
X167631284Y-95320520D01*
X167631286Y-95320521D01*
X168254990Y-95944225D01*
X168258358Y-95952357D01*
X168257795Y-95955911D01*
X168222753Y-96063759D01*
X168189500Y-96273710D01*
X168189500Y-96486289D01*
X168222753Y-96696240D01*
X168288441Y-96898408D01*
X168288442Y-96898411D01*
X168288443Y-96898412D01*
X168384949Y-97087816D01*
X168509896Y-97259792D01*
X168660208Y-97410104D01*
X168832184Y-97535051D01*
X169021588Y-97631557D01*
X169223757Y-97697246D01*
X169328735Y-97713873D01*
X169433711Y-97730500D01*
X169433713Y-97730500D01*
X169646289Y-97730500D01*
X169730269Y-97717198D01*
X169856243Y-97697246D01*
X170058412Y-97631557D01*
X170247816Y-97535051D01*
X170419792Y-97410104D01*
X170570104Y-97259792D01*
X170628696Y-97179145D01*
X170636201Y-97174547D01*
X170644759Y-97176601D01*
X170649358Y-97184106D01*
X170649500Y-97185905D01*
X170649500Y-115988000D01*
X170646132Y-115996132D01*
X170638000Y-115999500D01*
X150662000Y-115999500D01*
X150653868Y-115996132D01*
X150650500Y-115988000D01*
X150650500Y-106181944D01*
X155250000Y-106181944D01*
X155250000Y-106418055D01*
X155286934Y-106651248D01*
X155359894Y-106875796D01*
X155467088Y-107086175D01*
X155527339Y-107169105D01*
X155527339Y-107169106D01*
X156034152Y-106662292D01*
X156041049Y-106678942D01*
X156128599Y-106809970D01*
X156240030Y-106921401D01*
X156371058Y-107008951D01*
X156387705Y-107015846D01*
X155880892Y-107522659D01*
X155963824Y-107582911D01*
X156174203Y-107690105D01*
X156398751Y-107763065D01*
X156631945Y-107800000D01*
X156868055Y-107800000D01*
X157101248Y-107763065D01*
X157325796Y-107690105D01*
X157536172Y-107582913D01*
X157619105Y-107522658D01*
X157112293Y-107015847D01*
X157128942Y-107008951D01*
X157259970Y-106921401D01*
X157371401Y-106809970D01*
X157458951Y-106678942D01*
X157465847Y-106662293D01*
X157972658Y-107169105D01*
X158032913Y-107086172D01*
X158140105Y-106875796D01*
X158213065Y-106651248D01*
X158250000Y-106418055D01*
X158250000Y-106181944D01*
X158213065Y-105948751D01*
X158140105Y-105724203D01*
X158032911Y-105513824D01*
X157972659Y-105430893D01*
X157972659Y-105430892D01*
X157465846Y-105937705D01*
X157458951Y-105921058D01*
X157371401Y-105790030D01*
X157259970Y-105678599D01*
X157128942Y-105591049D01*
X157112292Y-105584152D01*
X157619106Y-105077339D01*
X157536175Y-105017088D01*
X157325796Y-104909894D01*
X157101248Y-104836934D01*
X156868055Y-104800000D01*
X156631945Y-104800000D01*
X156398751Y-104836934D01*
X156174203Y-104909894D01*
X155963824Y-105017088D01*
X155880893Y-105077339D01*
X155880892Y-105077339D01*
X156387706Y-105584152D01*
X156371058Y-105591049D01*
X156240030Y-105678599D01*
X156128599Y-105790030D01*
X156041049Y-105921058D01*
X156034152Y-105937706D01*
X155527339Y-105430892D01*
X155527339Y-105430893D01*
X155467088Y-105513824D01*
X155359894Y-105724203D01*
X155286934Y-105948751D01*
X155250000Y-106181944D01*
X150650500Y-106181944D01*
X150650500Y-98952126D01*
X154949500Y-98952126D01*
X154949500Y-101647872D01*
X154955908Y-101707481D01*
X154955909Y-101707483D01*
X155006204Y-101842331D01*
X155092454Y-101957546D01*
X155207669Y-102043796D01*
X155342517Y-102094091D01*
X155402127Y-102100500D01*
X158097872Y-102100499D01*
X158157483Y-102094091D01*
X158292331Y-102043796D01*
X158407546Y-101957546D01*
X158493796Y-101842331D01*
X158544091Y-101707483D01*
X158550500Y-101647873D01*
X158550499Y-101277498D01*
X158553867Y-101269367D01*
X158561999Y-101265999D01*
X158570131Y-101269367D01*
X159817787Y-102517023D01*
X159821155Y-102525155D01*
X159820280Y-102529556D01*
X159741392Y-102720011D01*
X159741392Y-102720012D01*
X159680309Y-102947973D01*
X159680309Y-102947974D01*
X159680307Y-102947982D01*
X159680307Y-102947986D01*
X159649500Y-103181989D01*
X159649500Y-103418011D01*
X159680307Y-103652014D01*
X159680308Y-103652018D01*
X159680309Y-103652025D01*
X159680309Y-103652026D01*
X159741392Y-103879987D01*
X159741392Y-103879988D01*
X159831717Y-104098052D01*
X159949724Y-104302446D01*
X159949726Y-104302449D01*
X159949727Y-104302450D01*
X160093408Y-104489699D01*
X160260301Y-104656592D01*
X160447550Y-104800273D01*
X160447553Y-104800275D01*
X160651947Y-104918282D01*
X160651948Y-104918282D01*
X160651951Y-104918284D01*
X160870007Y-105008606D01*
X160870011Y-105008607D01*
X161097974Y-105069690D01*
X161097975Y-105069690D01*
X161097986Y-105069693D01*
X161331989Y-105100500D01*
X161331993Y-105100500D01*
X161568007Y-105100500D01*
X161568011Y-105100500D01*
X161802014Y-105069693D01*
X161802025Y-105069690D01*
X161802026Y-105069690D01*
X161861682Y-105053704D01*
X162029993Y-105008606D01*
X162248049Y-104918284D01*
X162452450Y-104800273D01*
X162639699Y-104656592D01*
X162806592Y-104489699D01*
X162950273Y-104302450D01*
X163068284Y-104098049D01*
X163158606Y-103879993D01*
X163219693Y-103652014D01*
X163250500Y-103418011D01*
X163250500Y-103181989D01*
X163219693Y-102947986D01*
X163158606Y-102720007D01*
X163079717Y-102529554D01*
X163079717Y-102520754D01*
X163082207Y-102517026D01*
X165867768Y-99731466D01*
X165867773Y-99731462D01*
X165868714Y-99730520D01*
X165868716Y-99730520D01*
X165980520Y-99618716D01*
X166030639Y-99531904D01*
X166059577Y-99481785D01*
X166100501Y-99329057D01*
X166100501Y-99170943D01*
X166100501Y-99170247D01*
X166100500Y-99170229D01*
X166100500Y-98020808D01*
X166102438Y-98014419D01*
X166159394Y-97929179D01*
X166219737Y-97783497D01*
X166250500Y-97628842D01*
X166250500Y-97471158D01*
X166219737Y-97316503D01*
X166159394Y-97170821D01*
X166071789Y-97039711D01*
X165960289Y-96928211D01*
X165915686Y-96898408D01*
X165829181Y-96840607D01*
X165683495Y-96780262D01*
X165590366Y-96761737D01*
X165528842Y-96749500D01*
X165371158Y-96749500D01*
X165294357Y-96764776D01*
X165216506Y-96780262D01*
X165216503Y-96780262D01*
X165070818Y-96840607D01*
X164939714Y-96928208D01*
X164828208Y-97039714D01*
X164740607Y-97170818D01*
X164680262Y-97316503D01*
X164680262Y-97316506D01*
X164649500Y-97471158D01*
X164649500Y-97628842D01*
X164669721Y-97730500D01*
X164680262Y-97783493D01*
X164680262Y-97783496D01*
X164740607Y-97929181D01*
X164828208Y-98060285D01*
X164828211Y-98060289D01*
X164896132Y-98128210D01*
X164899500Y-98136341D01*
X164899500Y-98996500D01*
X164896132Y-99004632D01*
X162232975Y-101667788D01*
X162224843Y-101671156D01*
X162220442Y-101670281D01*
X162029988Y-101591392D01*
X161802025Y-101530309D01*
X161802018Y-101530308D01*
X161802014Y-101530307D01*
X161613087Y-101505434D01*
X161568012Y-101499500D01*
X161568011Y-101499500D01*
X161331989Y-101499500D01*
X161331987Y-101499500D01*
X161241835Y-101511368D01*
X161097986Y-101530307D01*
X161097982Y-101530307D01*
X161097974Y-101530309D01*
X161097973Y-101530309D01*
X160870012Y-101591392D01*
X160870011Y-101591392D01*
X160679556Y-101670280D01*
X160670754Y-101670280D01*
X160667023Y-101667787D01*
X158930521Y-99931286D01*
X158930520Y-99931284D01*
X158818716Y-99819480D01*
X158818715Y-99819479D01*
X158731904Y-99769360D01*
X158681783Y-99740422D01*
X158681784Y-99740422D01*
X158559023Y-99707528D01*
X158552040Y-99702170D01*
X158550499Y-99696420D01*
X158550499Y-98952127D01*
X158544091Y-98892518D01*
X158544091Y-98892517D01*
X158493796Y-98757669D01*
X158407546Y-98642454D01*
X158292331Y-98556204D01*
X158212117Y-98526286D01*
X158157481Y-98505908D01*
X158097873Y-98499500D01*
X155402127Y-98499500D01*
X155342518Y-98505908D01*
X155342517Y-98505909D01*
X155207669Y-98556204D01*
X155207666Y-98556206D01*
X155092456Y-98642452D01*
X155092452Y-98642456D01*
X155006206Y-98757666D01*
X155006204Y-98757669D01*
X154955908Y-98892518D01*
X154949500Y-98952126D01*
X150650500Y-98952126D01*
X150650500Y-97185905D01*
X150653868Y-97177773D01*
X150662000Y-97174405D01*
X150670132Y-97177773D01*
X150671301Y-97179143D01*
X150729896Y-97259792D01*
X150880208Y-97410104D01*
X151052184Y-97535051D01*
X151241588Y-97631557D01*
X151443757Y-97697246D01*
X151548735Y-97713873D01*
X151653711Y-97730500D01*
X151653713Y-97730500D01*
X151866289Y-97730500D01*
X151950269Y-97717198D01*
X152076243Y-97697246D01*
X152278412Y-97631557D01*
X152467816Y-97535051D01*
X152639792Y-97410104D01*
X152790104Y-97259792D01*
X152915051Y-97087816D01*
X153011557Y-96898412D01*
X153077246Y-96696243D01*
X153110500Y-96486287D01*
X153110500Y-96273713D01*
X153077246Y-96063757D01*
X153042204Y-95955911D01*
X153042894Y-95947136D01*
X153045009Y-95944225D01*
X153246523Y-95742711D01*
X154280520Y-94708716D01*
X154359577Y-94571784D01*
X154400501Y-94419057D01*
X154400501Y-94260942D01*
X154400501Y-94260246D01*
X154400500Y-94260228D01*
X154400500Y-92799983D01*
X154567000Y-92799983D01*
X154567000Y-95200016D01*
X154577499Y-95302792D01*
X154577501Y-95302798D01*
X154632682Y-95469326D01*
X154632685Y-95469332D01*
X154632686Y-95469334D01*
X154687452Y-95558123D01*
X154702318Y-95582225D01*
X154724789Y-95618655D01*
X154848845Y-95742711D01*
X154998166Y-95834814D01*
X154998168Y-95834814D01*
X154998173Y-95834817D01*
X155109513Y-95871710D01*
X155164703Y-95889999D01*
X155164704Y-95889999D01*
X155164707Y-95890000D01*
X155255161Y-95899240D01*
X155267492Y-95900500D01*
X155267496Y-95900500D01*
X157667504Y-95900500D01*
X157667508Y-95900500D01*
X157695464Y-95897643D01*
X157770292Y-95890000D01*
X157770294Y-95889999D01*
X157770297Y-95889999D01*
X157879708Y-95853743D01*
X157936826Y-95834817D01*
X157936828Y-95834815D01*
X157936834Y-95834814D01*
X158086155Y-95742711D01*
X158210211Y-95618655D01*
X158302314Y-95469334D01*
X158357499Y-95302797D01*
X158368000Y-95200008D01*
X158368000Y-94375433D01*
X162599500Y-94375433D01*
X162599500Y-94624566D01*
X162601239Y-94637773D01*
X162632018Y-94871565D01*
X162632019Y-94871569D01*
X162632020Y-94871576D01*
X162632020Y-94871577D01*
X162696496Y-95112201D01*
X162696496Y-95112202D01*
X162696497Y-95112206D01*
X162696498Y-95112207D01*
X162699828Y-95120247D01*
X162791837Y-95342376D01*
X162916398Y-95558123D01*
X162916400Y-95558126D01*
X162916401Y-95558127D01*
X163068062Y-95755776D01*
X163244224Y-95931938D01*
X163441873Y-96083599D01*
X163441876Y-96083601D01*
X163657623Y-96208162D01*
X163657624Y-96208162D01*
X163657627Y-96208164D01*
X163887793Y-96303502D01*
X163887797Y-96303503D01*
X164128423Y-96367979D01*
X164128424Y-96367979D01*
X164128435Y-96367982D01*
X164375435Y-96400500D01*
X164375439Y-96400500D01*
X164624561Y-96400500D01*
X164624565Y-96400500D01*
X164871565Y-96367982D01*
X164871576Y-96367979D01*
X164871577Y-96367979D01*
X164934546Y-96351106D01*
X165112207Y-96303502D01*
X165342373Y-96208164D01*
X165558127Y-96083599D01*
X165755776Y-95931938D01*
X165931938Y-95755776D01*
X166083599Y-95558127D01*
X166208164Y-95342373D01*
X166303502Y-95112207D01*
X166367982Y-94871565D01*
X166400500Y-94624565D01*
X166400500Y-94375435D01*
X166367982Y-94128435D01*
X166358924Y-94094631D01*
X166303503Y-93887798D01*
X166303503Y-93887797D01*
X166303502Y-93887793D01*
X166208164Y-93657627D01*
X166083599Y-93441873D01*
X165931938Y-93244224D01*
X165755776Y-93068062D01*
X165558127Y-92916401D01*
X165558126Y-92916400D01*
X165558123Y-92916398D01*
X165342376Y-92791837D01*
X165112202Y-92696496D01*
X164871576Y-92632020D01*
X164871569Y-92632019D01*
X164871565Y-92632018D01*
X164672144Y-92605763D01*
X164624566Y-92599500D01*
X164624565Y-92599500D01*
X164375435Y-92599500D01*
X164375433Y-92599500D01*
X164280275Y-92612027D01*
X164128435Y-92632018D01*
X164128431Y-92632018D01*
X164128423Y-92632020D01*
X164128422Y-92632020D01*
X163887798Y-92696496D01*
X163887797Y-92696496D01*
X163657623Y-92791837D01*
X163441876Y-92916398D01*
X163384782Y-92960208D01*
X163244224Y-93068062D01*
X163244219Y-93068067D01*
X163244217Y-93068068D01*
X163068068Y-93244217D01*
X163068067Y-93244219D01*
X163068062Y-93244224D01*
X162973273Y-93367754D01*
X162916398Y-93441876D01*
X162791837Y-93657623D01*
X162696496Y-93887797D01*
X162696496Y-93887798D01*
X162632020Y-94128422D01*
X162632020Y-94128423D01*
X162632018Y-94128431D01*
X162632018Y-94128435D01*
X162614667Y-94260228D01*
X162599500Y-94375433D01*
X158368000Y-94375433D01*
X158368000Y-92799992D01*
X158361032Y-92731783D01*
X158357500Y-92697207D01*
X158357498Y-92697201D01*
X158357264Y-92696496D01*
X158339210Y-92642013D01*
X158302317Y-92530673D01*
X158302314Y-92530667D01*
X158302314Y-92530666D01*
X158210211Y-92381345D01*
X158086155Y-92257289D01*
X157936834Y-92165186D01*
X157936833Y-92165185D01*
X157936832Y-92165185D01*
X157936826Y-92165182D01*
X157770298Y-92110001D01*
X157770292Y-92109999D01*
X157667516Y-92099500D01*
X157667508Y-92099500D01*
X155267492Y-92099500D01*
X155267483Y-92099500D01*
X155164707Y-92109999D01*
X155164701Y-92110001D01*
X154998173Y-92165182D01*
X154998167Y-92165185D01*
X154848847Y-92257287D01*
X154724787Y-92381347D01*
X154632685Y-92530667D01*
X154632682Y-92530673D01*
X154577501Y-92697201D01*
X154577499Y-92697207D01*
X154567000Y-92799983D01*
X154400500Y-92799983D01*
X154400500Y-88875435D01*
X154567000Y-88875435D01*
X154567000Y-89124565D01*
X154599518Y-89371565D01*
X154599519Y-89371569D01*
X154599520Y-89371576D01*
X154599520Y-89371577D01*
X154663996Y-89612201D01*
X154663996Y-89612202D01*
X154759337Y-89842376D01*
X154883898Y-90058123D01*
X154883900Y-90058126D01*
X154883901Y-90058127D01*
X155035562Y-90255776D01*
X155211724Y-90431938D01*
X155409373Y-90583599D01*
X155409376Y-90583601D01*
X155625123Y-90708162D01*
X155625124Y-90708162D01*
X155625127Y-90708164D01*
X155855293Y-90803502D01*
X155855297Y-90803503D01*
X156095923Y-90867979D01*
X156095924Y-90867979D01*
X156095935Y-90867982D01*
X156342935Y-90900500D01*
X156342939Y-90900500D01*
X156592061Y-90900500D01*
X156592065Y-90900500D01*
X156839065Y-90867982D01*
X156839076Y-90867979D01*
X156839077Y-90867979D01*
X156965607Y-90834075D01*
X157079707Y-90803502D01*
X157309873Y-90708164D01*
X157525627Y-90583599D01*
X157723276Y-90431938D01*
X157899438Y-90255776D01*
X158051099Y-90058127D01*
X158175664Y-89842373D01*
X158271002Y-89612207D01*
X158335482Y-89371565D01*
X158368000Y-89124565D01*
X158368000Y-88875435D01*
X158335482Y-88628435D01*
X158271002Y-88387793D01*
X158234630Y-88299983D01*
X162599500Y-88299983D01*
X162599500Y-90700016D01*
X162609999Y-90802792D01*
X162610001Y-90802798D01*
X162665182Y-90969326D01*
X162665185Y-90969332D01*
X162665186Y-90969334D01*
X162757289Y-91118655D01*
X162881345Y-91242711D01*
X163030666Y-91334814D01*
X163030668Y-91334814D01*
X163030673Y-91334817D01*
X163124254Y-91365826D01*
X163197203Y-91389999D01*
X163197204Y-91389999D01*
X163197207Y-91390000D01*
X163287661Y-91399240D01*
X163299992Y-91400500D01*
X163299996Y-91400500D01*
X165700004Y-91400500D01*
X165700008Y-91400500D01*
X165727964Y-91397643D01*
X165802792Y-91390000D01*
X165802794Y-91389999D01*
X165802797Y-91389999D01*
X165912208Y-91353743D01*
X165969326Y-91334817D01*
X165969328Y-91334815D01*
X165969334Y-91334814D01*
X166118655Y-91242711D01*
X166242711Y-91118655D01*
X166334814Y-90969334D01*
X166389999Y-90802797D01*
X166391860Y-90784588D01*
X166400499Y-90700016D01*
X166400500Y-90700004D01*
X166400500Y-88299995D01*
X166400499Y-88299983D01*
X166390000Y-88197207D01*
X166389998Y-88197201D01*
X166334817Y-88030673D01*
X166334814Y-88030667D01*
X166334814Y-88030666D01*
X166242711Y-87881345D01*
X166118655Y-87757289D01*
X166097465Y-87744219D01*
X165969332Y-87665185D01*
X165969326Y-87665182D01*
X165802798Y-87610001D01*
X165802792Y-87609999D01*
X165700016Y-87599500D01*
X165700008Y-87599500D01*
X163299992Y-87599500D01*
X163299983Y-87599500D01*
X163197207Y-87609999D01*
X163197201Y-87610001D01*
X163030673Y-87665182D01*
X163030667Y-87665185D01*
X162881347Y-87757287D01*
X162757287Y-87881347D01*
X162665185Y-88030667D01*
X162665182Y-88030673D01*
X162610001Y-88197201D01*
X162609999Y-88197207D01*
X162599500Y-88299983D01*
X158234630Y-88299983D01*
X158175664Y-88157627D01*
X158102367Y-88030673D01*
X158051101Y-87941876D01*
X158051099Y-87941873D01*
X157899438Y-87744224D01*
X157723276Y-87568062D01*
X157525627Y-87416401D01*
X157525626Y-87416400D01*
X157525623Y-87416398D01*
X157309876Y-87291837D01*
X157079702Y-87196496D01*
X156839076Y-87132020D01*
X156839069Y-87132019D01*
X156839065Y-87132018D01*
X156639644Y-87105763D01*
X156592066Y-87099500D01*
X156592065Y-87099500D01*
X156342935Y-87099500D01*
X156342933Y-87099500D01*
X156247775Y-87112027D01*
X156095935Y-87132018D01*
X156095931Y-87132018D01*
X156095923Y-87132020D01*
X156095922Y-87132020D01*
X155855298Y-87196496D01*
X155855297Y-87196496D01*
X155625123Y-87291837D01*
X155409376Y-87416398D01*
X155337492Y-87471557D01*
X155211724Y-87568062D01*
X155211719Y-87568067D01*
X155211717Y-87568068D01*
X155035568Y-87744217D01*
X155035567Y-87744219D01*
X155035562Y-87744224D01*
X154940773Y-87867754D01*
X154883898Y-87941876D01*
X154759337Y-88157623D01*
X154663996Y-88387797D01*
X154663996Y-88387798D01*
X154599520Y-88628422D01*
X154599520Y-88628423D01*
X154599518Y-88628431D01*
X154599518Y-88628435D01*
X154567000Y-88875435D01*
X154400500Y-88875435D01*
X154400500Y-86130557D01*
X154403868Y-86122425D01*
X155280520Y-85245774D01*
X155359577Y-85108842D01*
X155400501Y-84956115D01*
X155400501Y-84798000D01*
X155400501Y-84797304D01*
X155400500Y-84797286D01*
X155400500Y-83919185D01*
X155403868Y-83911053D01*
X155473138Y-83841783D01*
X155580519Y-83734403D01*
X155659576Y-83597471D01*
X155700500Y-83444744D01*
X155700500Y-83286629D01*
X155700500Y-83285933D01*
X155700499Y-83285915D01*
X155700499Y-81552320D01*
X155703867Y-81544188D01*
X155711999Y-81540820D01*
X155720131Y-81544188D01*
X155723042Y-81549112D01*
X155737503Y-81598890D01*
X155737506Y-81598895D01*
X155819883Y-81738187D01*
X155934313Y-81852617D01*
X156073605Y-81934994D01*
X156073606Y-81934994D01*
X156073609Y-81934996D01*
X156167601Y-81962302D01*
X156229007Y-81980143D01*
X156265310Y-81983000D01*
X156265319Y-81983000D01*
X156734681Y-81983000D01*
X156734690Y-81983000D01*
X156770993Y-81980143D01*
X156888840Y-81945905D01*
X156926390Y-81934996D01*
X156926391Y-81934994D01*
X156926395Y-81934994D01*
X157065687Y-81852617D01*
X157079868Y-81838434D01*
X157088000Y-81835066D01*
X157096131Y-81838434D01*
X157099500Y-81846566D01*
X157099500Y-82122502D01*
X157099501Y-82122516D01*
X157109999Y-82225292D01*
X157110001Y-82225298D01*
X157165182Y-82391826D01*
X157165185Y-82391832D01*
X157165186Y-82391834D01*
X157216387Y-82474844D01*
X157247291Y-82524949D01*
X157257288Y-82541156D01*
X157381344Y-82665212D01*
X157530666Y-82757314D01*
X157530668Y-82757314D01*
X157530673Y-82757317D01*
X157642013Y-82794210D01*
X157697203Y-82812499D01*
X157697204Y-82812499D01*
X157697207Y-82812500D01*
X157744511Y-82817332D01*
X157799991Y-82823000D01*
X158800008Y-82822999D01*
X158827970Y-82820142D01*
X158902792Y-82812500D01*
X158902794Y-82812499D01*
X158902797Y-82812499D01*
X159012208Y-82776243D01*
X159069326Y-82757317D01*
X159069328Y-82757315D01*
X159069334Y-82757314D01*
X159218656Y-82665212D01*
X159342712Y-82541156D01*
X159434814Y-82391834D01*
X159434906Y-82391558D01*
X159470166Y-82285148D01*
X159489999Y-82225297D01*
X159495638Y-82170106D01*
X159498584Y-82141265D01*
X159500500Y-82122509D01*
X159500500Y-81972501D01*
X159600001Y-81972501D01*
X159600001Y-82126707D01*
X159602852Y-82157108D01*
X159647654Y-82285147D01*
X159647655Y-82285148D01*
X159728207Y-82394290D01*
X159728209Y-82394292D01*
X159837351Y-82474844D01*
X159837352Y-82474845D01*
X159965391Y-82519647D01*
X159995798Y-82522499D01*
X160249998Y-82522499D01*
X160250000Y-82522498D01*
X160250000Y-81972501D01*
X160750000Y-81972501D01*
X160750000Y-82522498D01*
X160750001Y-82522499D01*
X161004194Y-82522499D01*
X161004207Y-82522498D01*
X161034608Y-82519647D01*
X161162647Y-82474845D01*
X161162648Y-82474844D01*
X161271790Y-82394292D01*
X161271792Y-82394290D01*
X161352344Y-82285148D01*
X161352345Y-82285147D01*
X161397147Y-82157108D01*
X161399999Y-82126708D01*
X161400000Y-82126694D01*
X161400000Y-81972501D01*
X161399999Y-81972500D01*
X160750001Y-81972500D01*
X160750000Y-81972501D01*
X160250000Y-81972501D01*
X160249999Y-81972500D01*
X159600002Y-81972500D01*
X159600001Y-81972501D01*
X159500500Y-81972501D01*
X159500499Y-81746779D01*
X159500499Y-81375999D01*
X159503866Y-81367868D01*
X159582260Y-81289474D01*
X159590389Y-81286108D01*
X159598521Y-81289476D01*
X159601889Y-81297608D01*
X159601839Y-81298681D01*
X159600000Y-81318289D01*
X159600000Y-81472499D01*
X159600001Y-81472500D01*
X161399998Y-81472500D01*
X161399999Y-81472499D01*
X161399999Y-81452500D01*
X161506146Y-81452500D01*
X161547192Y-81540523D01*
X161631976Y-81625307D01*
X161740645Y-81675981D01*
X161750000Y-81677211D01*
X161750000Y-81452501D01*
X162250000Y-81452501D01*
X162250000Y-81677210D01*
X162259354Y-81675981D01*
X162368023Y-81625307D01*
X162452807Y-81540523D01*
X162493854Y-81452500D01*
X162250001Y-81452500D01*
X162250000Y-81452501D01*
X161750000Y-81452501D01*
X161749999Y-81452500D01*
X161506146Y-81452500D01*
X161399999Y-81452500D01*
X161399999Y-81318306D01*
X161399998Y-81318292D01*
X161397147Y-81287891D01*
X161352345Y-81159852D01*
X161352344Y-81159851D01*
X161281794Y-81064260D01*
X161279675Y-81055717D01*
X161284218Y-81048178D01*
X161284975Y-81047666D01*
X161418656Y-80965212D01*
X161463784Y-80920082D01*
X161471915Y-80916715D01*
X161477766Y-80918315D01*
X161503531Y-80933552D01*
X161508815Y-80940590D01*
X161508099Y-80948309D01*
X161506145Y-80952499D01*
X161506146Y-80952500D01*
X161532423Y-80952500D01*
X161538276Y-80954100D01*
X161573605Y-80974994D01*
X161573606Y-80974994D01*
X161573609Y-80974996D01*
X161667601Y-81002302D01*
X161729007Y-81020143D01*
X161765310Y-81023000D01*
X161765319Y-81023000D01*
X162234681Y-81023000D01*
X162234690Y-81023000D01*
X162270993Y-81020143D01*
X162364989Y-80992834D01*
X162426390Y-80974996D01*
X162426391Y-80974994D01*
X162426395Y-80974994D01*
X162461723Y-80954100D01*
X162467577Y-80952500D01*
X162493853Y-80952500D01*
X162491900Y-80948310D01*
X162491517Y-80939517D01*
X162496466Y-80933553D01*
X162565687Y-80892617D01*
X162680117Y-80778187D01*
X162762494Y-80638895D01*
X162762494Y-80638891D01*
X162762496Y-80638890D01*
X162787628Y-80552383D01*
X162807643Y-80483493D01*
X162810500Y-80447190D01*
X162810500Y-80037810D01*
X162807643Y-80001507D01*
X162779453Y-79904476D01*
X162762496Y-79846109D01*
X162748684Y-79822754D01*
X162680117Y-79706813D01*
X162667103Y-79693799D01*
X162663736Y-79685669D01*
X162667104Y-79677537D01*
X162675236Y-79674169D01*
X162680096Y-79675246D01*
X162740645Y-79703481D01*
X162750000Y-79704711D01*
X162750000Y-79480001D01*
X162749999Y-79480000D01*
X162324750Y-79480000D01*
X162321542Y-79479543D01*
X162270997Y-79464858D01*
X162270998Y-79464858D01*
X162270995Y-79464857D01*
X162270993Y-79464857D01*
X162234690Y-79462000D01*
X162011500Y-79462000D01*
X162003368Y-79458632D01*
X162000000Y-79450500D01*
X162000000Y-79062000D01*
X162003368Y-79053868D01*
X162011500Y-79050500D01*
X162234681Y-79050500D01*
X162234690Y-79050500D01*
X162270993Y-79047643D01*
X162364989Y-79020334D01*
X162426390Y-79002496D01*
X162426391Y-79002494D01*
X162426395Y-79002494D01*
X162461723Y-78981600D01*
X162467577Y-78980000D01*
X162532423Y-78980000D01*
X162538276Y-78981600D01*
G37*
%TD.AperFunction*%
%TA.AperFunction,Conductor*%
G36*
X170644759Y-89556601D02*
G01*
X170649358Y-89564106D01*
X170649500Y-89565905D01*
X170649500Y-93034093D01*
X170646132Y-93042225D01*
X170638000Y-93045593D01*
X170629868Y-93042225D01*
X170628696Y-93040853D01*
X170625092Y-93035892D01*
X170570104Y-92960208D01*
X170419792Y-92809896D01*
X170247816Y-92684949D01*
X170058412Y-92588443D01*
X170058411Y-92588442D01*
X170058408Y-92588441D01*
X169856240Y-92522753D01*
X169646289Y-92489500D01*
X169646287Y-92489500D01*
X169433713Y-92489500D01*
X169433711Y-92489500D01*
X169223759Y-92522753D01*
X169115911Y-92557795D01*
X169107136Y-92557105D01*
X169104225Y-92554990D01*
X168603868Y-92054633D01*
X168600500Y-92046501D01*
X168600500Y-91821799D01*
X168603868Y-91813667D01*
X168612000Y-91810299D01*
X168620132Y-91813667D01*
X168621562Y-91815410D01*
X168641378Y-91845067D01*
X169057036Y-91429407D01*
X169074075Y-91492993D01*
X169139901Y-91607007D01*
X169232993Y-91700099D01*
X169347007Y-91765925D01*
X169410589Y-91782962D01*
X168994931Y-92198621D01*
X169042635Y-92230496D01*
X169233726Y-92309650D01*
X169233731Y-92309651D01*
X169436585Y-92350000D01*
X169643415Y-92350000D01*
X169846268Y-92309651D01*
X169846273Y-92309650D01*
X170037364Y-92230496D01*
X170085067Y-92198621D01*
X169669408Y-91782962D01*
X169732993Y-91765925D01*
X169847007Y-91700099D01*
X169940099Y-91607007D01*
X170005925Y-91492993D01*
X170022962Y-91429408D01*
X170438621Y-91845067D01*
X170470496Y-91797364D01*
X170549650Y-91606273D01*
X170549651Y-91606268D01*
X170590000Y-91403415D01*
X170590000Y-91196584D01*
X170549651Y-90993731D01*
X170549650Y-90993726D01*
X170470496Y-90802635D01*
X170438621Y-90754931D01*
X170022962Y-91170589D01*
X170005925Y-91107007D01*
X169940099Y-90992993D01*
X169847007Y-90899901D01*
X169732993Y-90834075D01*
X169669407Y-90817036D01*
X170085067Y-90401378D01*
X170037364Y-90369503D01*
X169846273Y-90290349D01*
X169846268Y-90290348D01*
X169643415Y-90250000D01*
X169436585Y-90250000D01*
X169233731Y-90290348D01*
X169233726Y-90290349D01*
X169042635Y-90369503D01*
X168994931Y-90401378D01*
X169410591Y-90817037D01*
X169347007Y-90834075D01*
X169232993Y-90899901D01*
X169139901Y-90992993D01*
X169074075Y-91107007D01*
X169057037Y-91170591D01*
X168641378Y-90754931D01*
X168621562Y-90784588D01*
X168614243Y-90789478D01*
X168605611Y-90787761D01*
X168600721Y-90780442D01*
X168600500Y-90778199D01*
X168600500Y-89758159D01*
X168603868Y-89750027D01*
X168612000Y-89746659D01*
X168620130Y-89750026D01*
X168660208Y-89790104D01*
X168832184Y-89915051D01*
X169021588Y-90011557D01*
X169223757Y-90077246D01*
X169328735Y-90093873D01*
X169433711Y-90110500D01*
X169433713Y-90110500D01*
X169646289Y-90110500D01*
X169730269Y-90097198D01*
X169856243Y-90077246D01*
X170058412Y-90011557D01*
X170247816Y-89915051D01*
X170419792Y-89790104D01*
X170570104Y-89639792D01*
X170628696Y-89559145D01*
X170636201Y-89554547D01*
X170644759Y-89556601D01*
G37*
%TD.AperFunction*%
%TA.AperFunction,Conductor*%
G36*
X150670132Y-89557773D02*
G01*
X150671301Y-89559143D01*
X150729896Y-89639792D01*
X150880208Y-89790104D01*
X151052184Y-89915051D01*
X151241588Y-90011557D01*
X151443757Y-90077246D01*
X151548735Y-90093873D01*
X151653711Y-90110500D01*
X151653713Y-90110500D01*
X151866289Y-90110500D01*
X151950269Y-90097198D01*
X152076243Y-90077246D01*
X152278412Y-90011557D01*
X152467816Y-89915051D01*
X152639792Y-89790104D01*
X152779869Y-89650026D01*
X152788000Y-89646659D01*
X152796132Y-89650027D01*
X152799500Y-89658159D01*
X152799500Y-91027030D01*
X152796132Y-91035162D01*
X152788000Y-91038530D01*
X152779868Y-91035162D01*
X152776721Y-91029273D01*
X152769651Y-90993731D01*
X152769650Y-90993726D01*
X152690496Y-90802635D01*
X152658621Y-90754931D01*
X152242962Y-91170589D01*
X152225925Y-91107007D01*
X152160099Y-90992993D01*
X152067007Y-90899901D01*
X151952993Y-90834075D01*
X151889407Y-90817036D01*
X152305067Y-90401378D01*
X152257364Y-90369503D01*
X152066273Y-90290349D01*
X152066268Y-90290348D01*
X151863415Y-90250000D01*
X151656585Y-90250000D01*
X151453731Y-90290348D01*
X151453726Y-90290349D01*
X151262635Y-90369503D01*
X151214931Y-90401378D01*
X151630591Y-90817037D01*
X151567007Y-90834075D01*
X151452993Y-90899901D01*
X151359901Y-90992993D01*
X151294075Y-91107007D01*
X151277037Y-91170591D01*
X150861378Y-90754931D01*
X150829503Y-90802635D01*
X150750349Y-90993726D01*
X150750348Y-90993731D01*
X150710000Y-91196584D01*
X150710000Y-91403415D01*
X150750348Y-91606268D01*
X150750349Y-91606273D01*
X150829503Y-91797364D01*
X150861378Y-91845067D01*
X151277036Y-91429407D01*
X151294075Y-91492993D01*
X151359901Y-91607007D01*
X151452993Y-91700099D01*
X151567007Y-91765925D01*
X151630589Y-91782962D01*
X151214931Y-92198621D01*
X151262635Y-92230496D01*
X151453726Y-92309650D01*
X151453731Y-92309651D01*
X151656585Y-92350000D01*
X151863415Y-92350000D01*
X152066268Y-92309651D01*
X152066273Y-92309650D01*
X152257364Y-92230496D01*
X152305067Y-92198621D01*
X151889408Y-91782962D01*
X151952993Y-91765925D01*
X152067007Y-91700099D01*
X152160099Y-91607007D01*
X152225925Y-91492993D01*
X152242962Y-91429408D01*
X152658621Y-91845067D01*
X152690496Y-91797364D01*
X152769650Y-91606273D01*
X152769651Y-91606268D01*
X152776721Y-91570726D01*
X152781611Y-91563407D01*
X152790243Y-91561690D01*
X152797562Y-91566580D01*
X152799500Y-91572969D01*
X152799500Y-91946500D01*
X152796132Y-91954632D01*
X152195773Y-92554990D01*
X152187641Y-92558358D01*
X152184088Y-92557795D01*
X152076243Y-92522754D01*
X152076240Y-92522753D01*
X151866289Y-92489500D01*
X151866287Y-92489500D01*
X151653713Y-92489500D01*
X151653711Y-92489500D01*
X151443759Y-92522753D01*
X151241591Y-92588441D01*
X151219887Y-92599500D01*
X151052184Y-92684949D01*
X151052181Y-92684950D01*
X151052179Y-92684952D01*
X150880211Y-92809893D01*
X150729896Y-92960208D01*
X150671304Y-93040853D01*
X150663799Y-93045451D01*
X150655240Y-93043397D01*
X150650642Y-93035892D01*
X150650500Y-93034093D01*
X150650500Y-89565905D01*
X150653868Y-89557773D01*
X150662000Y-89554405D01*
X150670132Y-89557773D01*
G37*
%TD.AperFunction*%
%TA.AperFunction,Conductor*%
G36*
X158816133Y-78379596D02*
G01*
X158819501Y-78387728D01*
X158819501Y-79211305D01*
X158816133Y-79219437D01*
X158808001Y-79222805D01*
X158806929Y-79222755D01*
X158804213Y-79222500D01*
X158550001Y-79222500D01*
X158550000Y-79222501D01*
X158550000Y-80011000D01*
X158546632Y-80019132D01*
X158538500Y-80022500D01*
X158300001Y-80022500D01*
X158300000Y-80022501D01*
X158300000Y-80261000D01*
X158296632Y-80269132D01*
X158288500Y-80272500D01*
X157400002Y-80272500D01*
X157400001Y-80272501D01*
X157400001Y-80426707D01*
X157402852Y-80457108D01*
X157447939Y-80585960D01*
X157447728Y-80586033D01*
X157448465Y-80593892D01*
X157442848Y-80600668D01*
X157437476Y-80602000D01*
X157120068Y-80602000D01*
X157111936Y-80598632D01*
X157099264Y-80585960D01*
X157065687Y-80552383D01*
X156996468Y-80511447D01*
X156991184Y-80504409D01*
X156991901Y-80496689D01*
X156993854Y-80492500D01*
X156967577Y-80492500D01*
X156961723Y-80490899D01*
X156926390Y-80470003D01*
X156770997Y-80424858D01*
X156770998Y-80424858D01*
X156770995Y-80424857D01*
X156770993Y-80424857D01*
X156734690Y-80422000D01*
X156265310Y-80422000D01*
X156229007Y-80424857D01*
X156229004Y-80424857D01*
X156229002Y-80424858D01*
X156073609Y-80470003D01*
X156038277Y-80490899D01*
X156032423Y-80492500D01*
X156006145Y-80492500D01*
X156008098Y-80496689D01*
X156008481Y-80505482D01*
X156003529Y-80511446D01*
X155934316Y-80552380D01*
X155819882Y-80666814D01*
X155737505Y-80806106D01*
X155723042Y-80855889D01*
X155717539Y-80862759D01*
X155708791Y-80863724D01*
X155701921Y-80858221D01*
X155700499Y-80852681D01*
X155700499Y-79992500D01*
X156006146Y-79992500D01*
X156249999Y-79992500D01*
X156250000Y-79992499D01*
X156750000Y-79992499D01*
X156750001Y-79992500D01*
X156993853Y-79992500D01*
X156952807Y-79904476D01*
X156868023Y-79819692D01*
X156759354Y-79769018D01*
X156750000Y-79767787D01*
X156750000Y-79992499D01*
X156250000Y-79992499D01*
X156250000Y-79767787D01*
X156240645Y-79769018D01*
X156131976Y-79819692D01*
X156047192Y-79904476D01*
X156006146Y-79992500D01*
X155700499Y-79992500D01*
X155700499Y-79638069D01*
X155703867Y-79629937D01*
X155715513Y-79618291D01*
X157400000Y-79618291D01*
X157400000Y-79772499D01*
X157400001Y-79772500D01*
X158049999Y-79772500D01*
X158050000Y-79772499D01*
X158050000Y-79222501D01*
X158049999Y-79222500D01*
X157795806Y-79222500D01*
X157795792Y-79222501D01*
X157765391Y-79225352D01*
X157637352Y-79270154D01*
X157637351Y-79270155D01*
X157528209Y-79350707D01*
X157528207Y-79350709D01*
X157447655Y-79459851D01*
X157447654Y-79459852D01*
X157402852Y-79587891D01*
X157400000Y-79618291D01*
X155715513Y-79618291D01*
X155723908Y-79609896D01*
X156429938Y-78903868D01*
X156438070Y-78900500D01*
X157951172Y-78900500D01*
X158109287Y-78900501D01*
X158262014Y-78859577D01*
X158321562Y-78825197D01*
X158398946Y-78780520D01*
X158510750Y-78668716D01*
X158510751Y-78668714D01*
X158799869Y-78379596D01*
X158808001Y-78376228D01*
X158816133Y-78379596D01*
G37*
%TD.AperFunction*%
%TA.AperFunction,Conductor*%
G36*
X166948032Y-74298248D02*
G01*
X166951304Y-74300539D01*
X166991089Y-74340324D01*
X166992916Y-74342706D01*
X167013417Y-74378216D01*
X167019480Y-74388716D01*
X167131284Y-74500520D01*
X167131286Y-74500521D01*
X168254990Y-75624225D01*
X168258358Y-75632357D01*
X168257795Y-75635911D01*
X168222753Y-75743759D01*
X168189500Y-75953710D01*
X168189500Y-76166289D01*
X168222753Y-76376240D01*
X168288441Y-76578408D01*
X168288442Y-76578411D01*
X168288443Y-76578412D01*
X168384949Y-76767816D01*
X168509896Y-76939792D01*
X168660208Y-77090104D01*
X168832184Y-77215051D01*
X169021588Y-77311557D01*
X169223757Y-77377246D01*
X169328735Y-77393873D01*
X169433711Y-77410500D01*
X169433713Y-77410500D01*
X169646289Y-77410500D01*
X169730269Y-77397198D01*
X169856243Y-77377246D01*
X170058412Y-77311557D01*
X170247816Y-77215051D01*
X170419792Y-77090104D01*
X170570104Y-76939792D01*
X170628696Y-76859145D01*
X170636201Y-76854547D01*
X170644759Y-76856601D01*
X170649358Y-76864106D01*
X170649500Y-76865905D01*
X170649500Y-80334093D01*
X170646132Y-80342225D01*
X170638000Y-80345593D01*
X170629868Y-80342225D01*
X170628696Y-80340853D01*
X170625092Y-80335892D01*
X170570104Y-80260208D01*
X170419792Y-80109896D01*
X170247816Y-79984949D01*
X170058412Y-79888443D01*
X170058411Y-79888442D01*
X170058408Y-79888441D01*
X169856240Y-79822753D01*
X169646289Y-79789500D01*
X169646287Y-79789500D01*
X169433713Y-79789500D01*
X169433711Y-79789500D01*
X169223759Y-79822753D01*
X169021591Y-79888441D01*
X168990121Y-79904476D01*
X168832184Y-79984949D01*
X168832181Y-79984950D01*
X168832179Y-79984952D01*
X168660211Y-80109893D01*
X168509893Y-80260211D01*
X168384952Y-80432179D01*
X168384950Y-80432181D01*
X168384949Y-80432184D01*
X168365678Y-80470006D01*
X168333468Y-80533221D01*
X168326775Y-80538937D01*
X168323221Y-80539500D01*
X166893500Y-80539500D01*
X166885368Y-80536132D01*
X166603868Y-80254632D01*
X166600500Y-80246500D01*
X166600500Y-78496584D01*
X168490000Y-78496584D01*
X168490000Y-78703415D01*
X168530348Y-78906268D01*
X168530349Y-78906273D01*
X168609503Y-79097364D01*
X168641378Y-79145067D01*
X169057036Y-78729407D01*
X169074075Y-78792993D01*
X169139901Y-78907007D01*
X169232993Y-79000099D01*
X169347007Y-79065925D01*
X169410589Y-79082962D01*
X168994931Y-79498621D01*
X169042635Y-79530496D01*
X169233726Y-79609650D01*
X169233731Y-79609651D01*
X169436585Y-79650000D01*
X169643415Y-79650000D01*
X169846268Y-79609651D01*
X169846273Y-79609650D01*
X170037364Y-79530496D01*
X170085067Y-79498621D01*
X169669408Y-79082962D01*
X169732993Y-79065925D01*
X169847007Y-79000099D01*
X169940099Y-78907007D01*
X170005925Y-78792993D01*
X170022962Y-78729408D01*
X170438621Y-79145067D01*
X170470496Y-79097364D01*
X170549650Y-78906273D01*
X170549651Y-78906268D01*
X170590000Y-78703415D01*
X170590000Y-78496584D01*
X170549651Y-78293731D01*
X170549650Y-78293726D01*
X170470496Y-78102635D01*
X170438621Y-78054931D01*
X170022962Y-78470589D01*
X170005925Y-78407007D01*
X169940099Y-78292993D01*
X169847007Y-78199901D01*
X169732993Y-78134075D01*
X169669407Y-78117036D01*
X170085067Y-77701378D01*
X170037364Y-77669503D01*
X169846273Y-77590349D01*
X169846268Y-77590348D01*
X169643415Y-77550000D01*
X169436585Y-77550000D01*
X169233731Y-77590348D01*
X169233726Y-77590349D01*
X169042635Y-77669503D01*
X168994931Y-77701378D01*
X169410591Y-78117037D01*
X169347007Y-78134075D01*
X169232993Y-78199901D01*
X169139901Y-78292993D01*
X169074075Y-78407007D01*
X169057037Y-78470591D01*
X168641378Y-78054931D01*
X168609503Y-78102635D01*
X168530349Y-78293726D01*
X168530348Y-78293731D01*
X168490000Y-78496584D01*
X166600500Y-78496584D01*
X166600500Y-77738423D01*
X166603867Y-77730292D01*
X167417768Y-76916390D01*
X167417773Y-76916387D01*
X167418714Y-76915445D01*
X167418716Y-76915445D01*
X167530520Y-76803641D01*
X167592831Y-76695715D01*
X167609577Y-76666710D01*
X167650500Y-76513983D01*
X167650500Y-76355868D01*
X167650500Y-75565197D01*
X167650501Y-75486019D01*
X167609577Y-75333292D01*
X167530520Y-75196360D01*
X166915446Y-74581286D01*
X166915445Y-74581284D01*
X166808458Y-74474297D01*
X166805090Y-74466165D01*
X166808458Y-74458033D01*
X166811730Y-74455742D01*
X166818023Y-74452807D01*
X166902807Y-74368023D01*
X166932749Y-74303811D01*
X166939239Y-74297865D01*
X166948032Y-74298248D01*
G37*
%TD.AperFunction*%
%TA.AperFunction,Conductor*%
G36*
X154126773Y-76663868D02*
G01*
X154130141Y-76672000D01*
X154126773Y-76680132D01*
X152705920Y-78100982D01*
X152697788Y-78104350D01*
X152689656Y-78100982D01*
X152688226Y-78099239D01*
X152658621Y-78054931D01*
X152242962Y-78470590D01*
X152225925Y-78407007D01*
X152160099Y-78292993D01*
X152067007Y-78199901D01*
X151952993Y-78134075D01*
X151889407Y-78117036D01*
X152305067Y-77701378D01*
X152257364Y-77669503D01*
X152066273Y-77590349D01*
X152066268Y-77590348D01*
X151863415Y-77550000D01*
X151656585Y-77550000D01*
X151453731Y-77590348D01*
X151453726Y-77590349D01*
X151262635Y-77669503D01*
X151214931Y-77701378D01*
X151630591Y-78117037D01*
X151567007Y-78134075D01*
X151452993Y-78199901D01*
X151359901Y-78292993D01*
X151294075Y-78407007D01*
X151277037Y-78470591D01*
X150861378Y-78054931D01*
X150829503Y-78102635D01*
X150750349Y-78293726D01*
X150750348Y-78293731D01*
X150710000Y-78496584D01*
X150710000Y-78703415D01*
X150750348Y-78906268D01*
X150750349Y-78906273D01*
X150829503Y-79097364D01*
X150861378Y-79145067D01*
X151277036Y-78729407D01*
X151294075Y-78792993D01*
X151359901Y-78907007D01*
X151452993Y-79000099D01*
X151567007Y-79065925D01*
X151630590Y-79082962D01*
X151214931Y-79498621D01*
X151262635Y-79530496D01*
X151453726Y-79609650D01*
X151453731Y-79609651D01*
X151656585Y-79650000D01*
X151863415Y-79650000D01*
X152066268Y-79609651D01*
X152066273Y-79609650D01*
X152257364Y-79530496D01*
X152291611Y-79507613D01*
X152300243Y-79505896D01*
X152307562Y-79510786D01*
X152309500Y-79517175D01*
X152309500Y-79736500D01*
X152306132Y-79744632D01*
X152195773Y-79854990D01*
X152187641Y-79858358D01*
X152184088Y-79857795D01*
X152076243Y-79822754D01*
X152076240Y-79822753D01*
X151866289Y-79789500D01*
X151866287Y-79789500D01*
X151653713Y-79789500D01*
X151653711Y-79789500D01*
X151443759Y-79822753D01*
X151241591Y-79888441D01*
X151210121Y-79904476D01*
X151052184Y-79984949D01*
X151052181Y-79984950D01*
X151052179Y-79984952D01*
X150880211Y-80109893D01*
X150729896Y-80260208D01*
X150671304Y-80340853D01*
X150663799Y-80345451D01*
X150655240Y-80343397D01*
X150650642Y-80335892D01*
X150650500Y-80334093D01*
X150650500Y-76865905D01*
X150653868Y-76857773D01*
X150662000Y-76854405D01*
X150670132Y-76857773D01*
X150671301Y-76859143D01*
X150729896Y-76939792D01*
X150880208Y-77090104D01*
X151052184Y-77215051D01*
X151241588Y-77311557D01*
X151443757Y-77377246D01*
X151548735Y-77393873D01*
X151653711Y-77410500D01*
X151653713Y-77410500D01*
X151866289Y-77410500D01*
X151950269Y-77397198D01*
X152076243Y-77377246D01*
X152278412Y-77311557D01*
X152467816Y-77215051D01*
X152639792Y-77090104D01*
X152790104Y-76939792D01*
X152915051Y-76767816D01*
X152959769Y-76680050D01*
X152966532Y-76666779D01*
X152973225Y-76661063D01*
X152976779Y-76660500D01*
X154118641Y-76660500D01*
X154126773Y-76663868D01*
G37*
%TD.AperFunction*%
%TA.AperFunction,Conductor*%
G36*
X166189558Y-75553868D02*
G01*
X166446132Y-75810442D01*
X166449500Y-75818574D01*
X166449500Y-76181426D01*
X166446132Y-76189558D01*
X165830132Y-76805558D01*
X165822000Y-76808926D01*
X165813868Y-76805558D01*
X165810500Y-76797426D01*
X165810500Y-75562000D01*
X165813868Y-75553868D01*
X165822000Y-75550500D01*
X166181426Y-75550500D01*
X166189558Y-75553868D01*
G37*
%TD.AperFunction*%
%TA.AperFunction,Conductor*%
G36*
X161515099Y-70535601D02*
G01*
X161518389Y-70536256D01*
X161519043Y-70537235D01*
X161520132Y-70537686D01*
X161523279Y-70543575D01*
X161524465Y-70549540D01*
X161524466Y-70549545D01*
X161539827Y-70586629D01*
X161584810Y-70695228D01*
X161672415Y-70826338D01*
X161686131Y-70840054D01*
X161689499Y-70848185D01*
X161689499Y-70975324D01*
X161719231Y-71086287D01*
X161730423Y-71128053D01*
X161743383Y-71150500D01*
X161797958Y-71245027D01*
X161799499Y-71250776D01*
X161799499Y-71327585D01*
X161816537Y-71391173D01*
X161816537Y-71397125D01*
X161796365Y-71472410D01*
X161796365Y-71631444D01*
X161796366Y-71631457D01*
X161796366Y-71968754D01*
X161796365Y-71968772D01*
X161796365Y-71969468D01*
X161796365Y-72127582D01*
X161811344Y-72183484D01*
X161834108Y-72268441D01*
X161837289Y-72280310D01*
X161845527Y-72294578D01*
X161897959Y-72385393D01*
X161899500Y-72391142D01*
X161899500Y-74703241D01*
X161896132Y-74711373D01*
X161573874Y-75033632D01*
X161565742Y-75037000D01*
X161214582Y-75037000D01*
X161201465Y-75040514D01*
X161192738Y-75039365D01*
X161188927Y-75035795D01*
X161134349Y-74954114D01*
X161134347Y-74954111D01*
X161022847Y-74842611D01*
X161022843Y-74842608D01*
X160891739Y-74755007D01*
X160851887Y-74738500D01*
X160778266Y-74708005D01*
X160746053Y-74694662D01*
X160647439Y-74675047D01*
X160591400Y-74663900D01*
X160433716Y-74663900D01*
X160377677Y-74675047D01*
X160279064Y-74694662D01*
X160279061Y-74694662D01*
X160133376Y-74755007D01*
X160002272Y-74842608D01*
X159890766Y-74954114D01*
X159803165Y-75085218D01*
X159742820Y-75230903D01*
X159742820Y-75230906D01*
X159712058Y-75385559D01*
X159712058Y-75438367D01*
X159708690Y-75446499D01*
X159704777Y-75449065D01*
X159567660Y-75503137D01*
X159567656Y-75503139D01*
X159496949Y-75556759D01*
X159488434Y-75558989D01*
X159483051Y-75556759D01*
X159412343Y-75503139D01*
X159412339Y-75503137D01*
X159271565Y-75447623D01*
X159271566Y-75447623D01*
X159183110Y-75437000D01*
X159183102Y-75437000D01*
X159176697Y-75437000D01*
X159168565Y-75433632D01*
X159165197Y-75425500D01*
X159165197Y-75359050D01*
X159160074Y-75333293D01*
X159134434Y-75204394D01*
X159074091Y-75058712D01*
X159059584Y-75037000D01*
X159003909Y-74953676D01*
X159001971Y-74947287D01*
X159001971Y-73481462D01*
X159001972Y-73481449D01*
X159001972Y-73322414D01*
X158961048Y-73169687D01*
X158961048Y-73169686D01*
X158881991Y-73032755D01*
X158830327Y-72981091D01*
X158826959Y-72972959D01*
X158830327Y-72964827D01*
X158832063Y-72963402D01*
X158900290Y-72917815D01*
X159011790Y-72806315D01*
X159099395Y-72675205D01*
X159159738Y-72529523D01*
X159190501Y-72374868D01*
X159190501Y-72217184D01*
X159159738Y-72062529D01*
X159099395Y-71916847D01*
X159011790Y-71785737D01*
X158964525Y-71738472D01*
X158961157Y-71730340D01*
X158964525Y-71722208D01*
X159045369Y-71641366D01*
X159053501Y-71637998D01*
X159078840Y-71637998D01*
X159078842Y-71637998D01*
X159233497Y-71607235D01*
X159379179Y-71546892D01*
X159510289Y-71459287D01*
X159621789Y-71347787D01*
X159709394Y-71216677D01*
X159729860Y-71167266D01*
X159736083Y-71161044D01*
X159744885Y-71161044D01*
X159748616Y-71163537D01*
X159853792Y-71268713D01*
X159853794Y-71268716D01*
X159965598Y-71380520D01*
X160052409Y-71430639D01*
X160102529Y-71459577D01*
X160255256Y-71500500D01*
X160255257Y-71500500D01*
X160585916Y-71500500D01*
X160585932Y-71500501D01*
X160586629Y-71500501D01*
X160744743Y-71500501D01*
X160897471Y-71459577D01*
X160947590Y-71430639D01*
X161034402Y-71380520D01*
X161146206Y-71268716D01*
X161146206Y-71268714D01*
X161147148Y-71267773D01*
X161147152Y-71267768D01*
X161267768Y-71147152D01*
X161267773Y-71147148D01*
X161268714Y-71146206D01*
X161268716Y-71146206D01*
X161380520Y-71034402D01*
X161437666Y-70935422D01*
X161459577Y-70897471D01*
X161500501Y-70744743D01*
X161500501Y-70586629D01*
X161500501Y-70585933D01*
X161500500Y-70585915D01*
X161500500Y-70545818D01*
X161501783Y-70542718D01*
X161502438Y-70539429D01*
X161503417Y-70538774D01*
X161503868Y-70537686D01*
X161506969Y-70536401D01*
X161509757Y-70534539D01*
X161510911Y-70534768D01*
X161512000Y-70534318D01*
X161515099Y-70535601D01*
G37*
%TD.AperFunction*%
%TA.AperFunction,Conductor*%
G36*
X153068384Y-73917620D02*
G01*
X153168784Y-74018020D01*
X153305716Y-74097077D01*
X153458443Y-74138001D01*
X153576330Y-74138001D01*
X153584462Y-74141369D01*
X153587830Y-74149501D01*
X153586753Y-74154361D01*
X153546518Y-74240645D01*
X153545287Y-74250000D01*
X154008500Y-74250000D01*
X154016632Y-74253368D01*
X154020000Y-74261500D01*
X154020000Y-74738500D01*
X154016632Y-74746632D01*
X154008500Y-74750000D01*
X153603999Y-74750000D01*
X153595867Y-74746632D01*
X153453869Y-74604634D01*
X153450501Y-74596502D01*
X153450501Y-74530943D01*
X153412848Y-74390423D01*
X153409577Y-74378216D01*
X153330520Y-74241284D01*
X153045007Y-73955772D01*
X153044300Y-73954063D01*
X153042893Y-73952862D01*
X153042679Y-73950151D01*
X153041640Y-73947641D01*
X153042201Y-73944094D01*
X153049317Y-73922195D01*
X153055031Y-73915505D01*
X153063806Y-73914815D01*
X153068384Y-73917620D01*
G37*
%TD.AperFunction*%
%TA.AperFunction,Conductor*%
G36*
X155502451Y-47253868D02*
G01*
X155505819Y-47262000D01*
X155504944Y-47266401D01*
X155496900Y-47285818D01*
X155496900Y-47285821D01*
X155470000Y-47421057D01*
X155470000Y-47539999D01*
X155470001Y-47540000D01*
X155870000Y-47540000D01*
X155870000Y-48040000D01*
X155470001Y-48040000D01*
X155470000Y-48040001D01*
X155470000Y-48158942D01*
X155496900Y-48294178D01*
X155496900Y-48294181D01*
X155549669Y-48421576D01*
X155626271Y-48536220D01*
X155723779Y-48633728D01*
X155838423Y-48710330D01*
X155920000Y-48744119D01*
X155920000Y-48256988D01*
X155929940Y-48274205D01*
X155985795Y-48330060D01*
X156054204Y-48369556D01*
X156130504Y-48390000D01*
X156209496Y-48390000D01*
X156285796Y-48369556D01*
X156354205Y-48330060D01*
X156410060Y-48274205D01*
X156420000Y-48256988D01*
X156420000Y-48744119D01*
X156501576Y-48710330D01*
X156616220Y-48633728D01*
X156713728Y-48536220D01*
X156790330Y-48421576D01*
X156843099Y-48294181D01*
X156843099Y-48294178D01*
X156870000Y-48158942D01*
X156870000Y-48040001D01*
X156869999Y-48040000D01*
X156470000Y-48040000D01*
X156470000Y-47540000D01*
X156869999Y-47540000D01*
X156870000Y-47539999D01*
X156870000Y-47421057D01*
X156843099Y-47285821D01*
X156843099Y-47285818D01*
X156835056Y-47266401D01*
X156835056Y-47257599D01*
X156841280Y-47251375D01*
X156845681Y-47250500D01*
X164134319Y-47250500D01*
X164142451Y-47253868D01*
X164145819Y-47262000D01*
X164144944Y-47266401D01*
X164136900Y-47285818D01*
X164136900Y-47285821D01*
X164110000Y-47421057D01*
X164110000Y-47539999D01*
X164110001Y-47540000D01*
X164510000Y-47540000D01*
X164510000Y-48040000D01*
X164110001Y-48040000D01*
X164110000Y-48040001D01*
X164110000Y-48158942D01*
X164136900Y-48294178D01*
X164136900Y-48294181D01*
X164189669Y-48421576D01*
X164222822Y-48471194D01*
X164224539Y-48479827D01*
X164219649Y-48487145D01*
X164219010Y-48487542D01*
X164163694Y-48519479D01*
X164051888Y-48631286D01*
X161827043Y-50856132D01*
X161818911Y-50859500D01*
X158819771Y-50859500D01*
X158819755Y-50859499D01*
X158819058Y-50859499D01*
X158660944Y-50859499D01*
X158508217Y-50900422D01*
X158458096Y-50929360D01*
X158371285Y-50979479D01*
X158259479Y-51091286D01*
X158145640Y-51205124D01*
X158137508Y-51208492D01*
X158129376Y-51205124D01*
X158127549Y-51202742D01*
X158060515Y-51086635D01*
X157953364Y-50979484D01*
X157822139Y-50903721D01*
X157822137Y-50903720D01*
X157822135Y-50903719D01*
X157822131Y-50903718D01*
X157822129Y-50903717D01*
X157675766Y-50864500D01*
X157524234Y-50864500D01*
X157377870Y-50903717D01*
X157377860Y-50903721D01*
X157246635Y-50979484D01*
X157139484Y-51086635D01*
X157063721Y-51217860D01*
X157063717Y-51217870D01*
X157024500Y-51364234D01*
X157024500Y-51515765D01*
X157063717Y-51662129D01*
X157063721Y-51662139D01*
X157139484Y-51793364D01*
X157246635Y-51900515D01*
X157333324Y-51950565D01*
X157338682Y-51957548D01*
X157337533Y-51966274D01*
X157337473Y-51966378D01*
X157288253Y-52049606D01*
X157242403Y-52207426D01*
X157242402Y-52207431D01*
X157239500Y-52244306D01*
X157239500Y-52244314D01*
X157239500Y-52873500D01*
X157236132Y-52881632D01*
X157228000Y-52885000D01*
X157001500Y-52885000D01*
X156993368Y-52881632D01*
X156990000Y-52873500D01*
X156990000Y-51969730D01*
X156989999Y-51969730D01*
X156988752Y-51969912D01*
X156887500Y-52019409D01*
X156887500Y-52208500D01*
X156884132Y-52216632D01*
X156876000Y-52220000D01*
X156470000Y-52220000D01*
X156470000Y-51720000D01*
X156869999Y-51720000D01*
X156870000Y-51719999D01*
X156870000Y-51351057D01*
X156843099Y-51215821D01*
X156843099Y-51215818D01*
X156790330Y-51088423D01*
X156713728Y-50973779D01*
X156616220Y-50876271D01*
X156501576Y-50799669D01*
X156420000Y-50765879D01*
X156420000Y-51253011D01*
X156410060Y-51235795D01*
X156354205Y-51179940D01*
X156285796Y-51140444D01*
X156209496Y-51120000D01*
X156130504Y-51120000D01*
X156054204Y-51140444D01*
X155985795Y-51179940D01*
X155929940Y-51235795D01*
X155920000Y-51253011D01*
X155920000Y-50765879D01*
X155838423Y-50799669D01*
X155723779Y-50876271D01*
X155626271Y-50973779D01*
X155549669Y-51088423D01*
X155496900Y-51215818D01*
X155496900Y-51215821D01*
X155470000Y-51351057D01*
X155470000Y-51719999D01*
X155470001Y-51720000D01*
X155870000Y-51720000D01*
X155870000Y-52220000D01*
X155470001Y-52220000D01*
X155470000Y-52220001D01*
X155470000Y-52588942D01*
X155496900Y-52724178D01*
X155496900Y-52724181D01*
X155549669Y-52851576D01*
X155626271Y-52966220D01*
X155723779Y-53063728D01*
X155838423Y-53140330D01*
X155920000Y-53174119D01*
X155920000Y-52686988D01*
X155929940Y-52704205D01*
X155985795Y-52760060D01*
X156054204Y-52799556D01*
X156130504Y-52820000D01*
X156209496Y-52820000D01*
X156285796Y-52799556D01*
X156354205Y-52760060D01*
X156410060Y-52704205D01*
X156420000Y-52686988D01*
X156420000Y-53174119D01*
X156501576Y-53140330D01*
X156616220Y-53063728D01*
X156713728Y-52966220D01*
X156718938Y-52958423D01*
X156726256Y-52953533D01*
X156734889Y-52955250D01*
X156739779Y-52962568D01*
X156740000Y-52964812D01*
X156740000Y-53493217D01*
X156749912Y-53561249D01*
X156749913Y-53561252D01*
X156801213Y-53666188D01*
X156883811Y-53748786D01*
X156988747Y-53800086D01*
X156988750Y-53800087D01*
X157056781Y-53809999D01*
X157087999Y-53809999D01*
X157096130Y-53813367D01*
X157099499Y-53821499D01*
X157096131Y-53829630D01*
X157096131Y-53829631D01*
X156904631Y-54021132D01*
X156896499Y-54024500D01*
X156501661Y-54024500D01*
X156501647Y-54024501D01*
X156402296Y-54034649D01*
X156402290Y-54034651D01*
X156241310Y-54087993D01*
X156241304Y-54087996D01*
X156096958Y-54177030D01*
X155977030Y-54296958D01*
X155887996Y-54441304D01*
X155887993Y-54441310D01*
X155850041Y-54555843D01*
X155844286Y-54562503D01*
X155835508Y-54563142D01*
X155828878Y-54557447D01*
X155798117Y-54497076D01*
X155702923Y-54401882D01*
X155582965Y-54340761D01*
X155582962Y-54340760D01*
X155483453Y-54325000D01*
X155475001Y-54325000D01*
X155475000Y-54325001D01*
X155475000Y-55674998D01*
X155475001Y-55674999D01*
X155483452Y-55674999D01*
X155582962Y-55659239D01*
X155582965Y-55659238D01*
X155702923Y-55598117D01*
X155798117Y-55502923D01*
X155828878Y-55442551D01*
X155835571Y-55436835D01*
X155844346Y-55437525D01*
X155850041Y-55444155D01*
X155887993Y-55558689D01*
X155887996Y-55558695D01*
X155887997Y-55558697D01*
X155900423Y-55578842D01*
X155959733Y-55674999D01*
X155977032Y-55703044D01*
X156096956Y-55822968D01*
X156241303Y-55912003D01*
X156241305Y-55912003D01*
X156241310Y-55912006D01*
X156336748Y-55943630D01*
X156402292Y-55965349D01*
X156402293Y-55965349D01*
X156402296Y-55965350D01*
X156444656Y-55969676D01*
X156501655Y-55975500D01*
X156621500Y-55975499D01*
X156629632Y-55978867D01*
X156816887Y-56166123D01*
X156820255Y-56174255D01*
X156818654Y-56180109D01*
X156798253Y-56214606D01*
X156752403Y-56372426D01*
X156752402Y-56372431D01*
X156749500Y-56409306D01*
X156749500Y-57715694D01*
X156752402Y-57752569D01*
X156752402Y-57752572D01*
X156752403Y-57752573D01*
X156798253Y-57910393D01*
X156798256Y-57910398D01*
X156829813Y-57963759D01*
X156849742Y-57997456D01*
X156850982Y-58006170D01*
X156850000Y-58007756D01*
X156850000Y-58687499D01*
X156850001Y-58687500D01*
X157099998Y-58687500D01*
X157099999Y-58687499D01*
X157099999Y-58316782D01*
X157090087Y-58248750D01*
X157088872Y-58246265D01*
X157088326Y-58237481D01*
X157094151Y-58230882D01*
X157102935Y-58230336D01*
X157105055Y-58231313D01*
X157139602Y-58251744D01*
X157139603Y-58251744D01*
X157139606Y-58251746D01*
X157235066Y-58279479D01*
X157297431Y-58297598D01*
X157334306Y-58300500D01*
X157688000Y-58300500D01*
X157696132Y-58303868D01*
X157699500Y-58312000D01*
X157699500Y-59590694D01*
X157702402Y-59627569D01*
X157702402Y-59627572D01*
X157702403Y-59627573D01*
X157722069Y-59695265D01*
X157721103Y-59704013D01*
X157719158Y-59706605D01*
X156904631Y-60521132D01*
X156896499Y-60524500D01*
X156501661Y-60524500D01*
X156501647Y-60524501D01*
X156402296Y-60534649D01*
X156402290Y-60534651D01*
X156241310Y-60587993D01*
X156241304Y-60587996D01*
X156096958Y-60677030D01*
X155977030Y-60796958D01*
X155887996Y-60941304D01*
X155887993Y-60941310D01*
X155850041Y-61055843D01*
X155844286Y-61062503D01*
X155835508Y-61063142D01*
X155828878Y-61057447D01*
X155798117Y-60997076D01*
X155702923Y-60901882D01*
X155582965Y-60840761D01*
X155582962Y-60840760D01*
X155483453Y-60825000D01*
X155475001Y-60825000D01*
X155475000Y-60825001D01*
X155475000Y-62174998D01*
X155475001Y-62174999D01*
X155483452Y-62174999D01*
X155582962Y-62159239D01*
X155582965Y-62159238D01*
X155702923Y-62098117D01*
X155798117Y-62002923D01*
X155828878Y-61942551D01*
X155835571Y-61936835D01*
X155844346Y-61937525D01*
X155850041Y-61944155D01*
X155887993Y-62058689D01*
X155887996Y-62058695D01*
X155887997Y-62058697D01*
X155912312Y-62098117D01*
X155959733Y-62174999D01*
X155977032Y-62203044D01*
X156027607Y-62253619D01*
X156030975Y-62261751D01*
X156027607Y-62269883D01*
X156025329Y-62271649D01*
X155962406Y-62308862D01*
X155848865Y-62422403D01*
X155767129Y-62560611D01*
X155722337Y-62714791D01*
X155722336Y-62714796D01*
X155719501Y-62750819D01*
X155719501Y-62750826D01*
X155719501Y-62750827D01*
X155719501Y-63249171D01*
X155720348Y-63259937D01*
X155722336Y-63285204D01*
X155722336Y-63285207D01*
X155722337Y-63285208D01*
X155767129Y-63439388D01*
X155800125Y-63495183D01*
X155801365Y-63503897D01*
X155796080Y-63510936D01*
X155795977Y-63510996D01*
X155781280Y-63519482D01*
X155761152Y-63539609D01*
X155758771Y-63541436D01*
X155666895Y-63594481D01*
X155650990Y-63610385D01*
X155645837Y-63613361D01*
X155638144Y-63615423D01*
X155501213Y-63694479D01*
X155442194Y-63753499D01*
X155389409Y-63806284D01*
X155389407Y-63806285D01*
X155130094Y-64065598D01*
X155056286Y-64139406D01*
X154944479Y-64251212D01*
X154865425Y-64388139D01*
X154865421Y-64388149D01*
X154840671Y-64480519D01*
X154824499Y-64540870D01*
X154824499Y-64699905D01*
X154824500Y-64699918D01*
X154824500Y-64925495D01*
X154824138Y-64928356D01*
X154824109Y-64928468D01*
X154823394Y-64931133D01*
X154823393Y-64931256D01*
X154823360Y-64931385D01*
X154823360Y-65009049D01*
X154823325Y-65089735D01*
X154823360Y-65090266D01*
X154823360Y-66585914D01*
X154823359Y-66585932D01*
X154823359Y-66744741D01*
X154864282Y-66897468D01*
X154880467Y-66925501D01*
X154935025Y-67020000D01*
X154943340Y-67034401D01*
X155055144Y-67146205D01*
X155055146Y-67146206D01*
X155618548Y-67709608D01*
X155621916Y-67717740D01*
X155618548Y-67725872D01*
X155613625Y-67728783D01*
X155583605Y-67737506D01*
X155444314Y-67819882D01*
X155329880Y-67934316D01*
X155288947Y-68003529D01*
X155281909Y-68008814D01*
X155274190Y-68008098D01*
X155270000Y-68006144D01*
X155270000Y-68032422D01*
X155268399Y-68038276D01*
X155247503Y-68073609D01*
X155202358Y-68229002D01*
X155202357Y-68229007D01*
X155199500Y-68265310D01*
X155199500Y-68734690D01*
X155202104Y-68767782D01*
X155202357Y-68770993D01*
X155205736Y-68782624D01*
X155205971Y-68788075D01*
X155191815Y-68859245D01*
X155179500Y-68921158D01*
X155179500Y-69078842D01*
X155187875Y-69120944D01*
X155210262Y-69233493D01*
X155210262Y-69233496D01*
X155229135Y-69279058D01*
X155270606Y-69379179D01*
X155271529Y-69380560D01*
X155273797Y-69383955D01*
X155275514Y-69392588D01*
X155270624Y-69399906D01*
X155261991Y-69401623D01*
X155259835Y-69400969D01*
X155247714Y-69395949D01*
X155247712Y-69395948D01*
X155247711Y-69395948D01*
X155247709Y-69395947D01*
X155247707Y-69395947D01*
X155194301Y-69385324D01*
X155093056Y-69365185D01*
X154935372Y-69365185D01*
X154896416Y-69372933D01*
X154814243Y-69389278D01*
X154805611Y-69387561D01*
X154800721Y-69380242D01*
X154800500Y-69377999D01*
X154800500Y-69279991D01*
X154800501Y-69279978D01*
X154800501Y-69120944D01*
X154792530Y-69091195D01*
X154769147Y-69003931D01*
X154770000Y-68997454D01*
X154770000Y-68006145D01*
X154769999Y-68006144D01*
X154681978Y-68047190D01*
X154620132Y-68109036D01*
X154612000Y-68112404D01*
X154603868Y-68109036D01*
X154600500Y-68100904D01*
X154600500Y-64514305D01*
X154600501Y-64514292D01*
X154600501Y-64355257D01*
X154598748Y-64348714D01*
X154559577Y-64202530D01*
X154480520Y-64065598D01*
X154103868Y-63688946D01*
X154100500Y-63680814D01*
X154100500Y-61750001D01*
X154575001Y-61750001D01*
X154575001Y-61783452D01*
X154590760Y-61882962D01*
X154590761Y-61882965D01*
X154651882Y-62002923D01*
X154747076Y-62098117D01*
X154867034Y-62159238D01*
X154867037Y-62159239D01*
X154966547Y-62174999D01*
X154974999Y-62174998D01*
X154975000Y-62174998D01*
X154975000Y-61750001D01*
X154974999Y-61750000D01*
X154575002Y-61750000D01*
X154575001Y-61750001D01*
X154100500Y-61750001D01*
X154100500Y-61216546D01*
X154575000Y-61216546D01*
X154575000Y-61249999D01*
X154575001Y-61250000D01*
X154974999Y-61250000D01*
X154975000Y-61249999D01*
X154975000Y-60824999D01*
X154966548Y-60825000D01*
X154867037Y-60840760D01*
X154867034Y-60840761D01*
X154747076Y-60901882D01*
X154651882Y-60997076D01*
X154590761Y-61117034D01*
X154590760Y-61117037D01*
X154575000Y-61216546D01*
X154100500Y-61216546D01*
X154100500Y-59920943D01*
X154064181Y-59785398D01*
X154059577Y-59768216D01*
X153980520Y-59631284D01*
X153868716Y-59519480D01*
X153868715Y-59519479D01*
X153822706Y-59492916D01*
X153820324Y-59491089D01*
X153516736Y-59187501D01*
X156100001Y-59187501D01*
X156100001Y-59558217D01*
X156109912Y-59626249D01*
X156109913Y-59626252D01*
X156161213Y-59731188D01*
X156243811Y-59813786D01*
X156348747Y-59865086D01*
X156348754Y-59865088D01*
X156350000Y-59865269D01*
X156350000Y-59187501D01*
X156850000Y-59187501D01*
X156850000Y-59865268D01*
X156851245Y-59865088D01*
X156851252Y-59865086D01*
X156956188Y-59813786D01*
X157038786Y-59731188D01*
X157090086Y-59626252D01*
X157090087Y-59626249D01*
X157100000Y-59558218D01*
X157100000Y-59187501D01*
X157099999Y-59187500D01*
X156850001Y-59187500D01*
X156850000Y-59187501D01*
X156350000Y-59187501D01*
X156349999Y-59187500D01*
X156100002Y-59187500D01*
X156100001Y-59187501D01*
X153516736Y-59187501D01*
X153045009Y-58715774D01*
X153041641Y-58707642D01*
X153042204Y-58704088D01*
X153047594Y-58687499D01*
X153077246Y-58596243D01*
X153110500Y-58386287D01*
X153110500Y-58316781D01*
X156100000Y-58316781D01*
X156100000Y-58687499D01*
X156100001Y-58687500D01*
X156349999Y-58687500D01*
X156350000Y-58687499D01*
X156350000Y-58009730D01*
X156349999Y-58009730D01*
X156348751Y-58009912D01*
X156348747Y-58009913D01*
X156243811Y-58061213D01*
X156161213Y-58143811D01*
X156109913Y-58248747D01*
X156109912Y-58248750D01*
X156100000Y-58316781D01*
X153110500Y-58316781D01*
X153110500Y-58173713D01*
X153077246Y-57963757D01*
X153011557Y-57761588D01*
X152915051Y-57572184D01*
X152790104Y-57400208D01*
X152639792Y-57249896D01*
X152467816Y-57124949D01*
X152278412Y-57028443D01*
X152278411Y-57028442D01*
X152278408Y-57028441D01*
X152255311Y-57020937D01*
X152248618Y-57015221D01*
X152247928Y-57006446D01*
X152253644Y-56999753D01*
X152255311Y-56999063D01*
X152259554Y-56997684D01*
X152278412Y-56991557D01*
X152467816Y-56895051D01*
X152639792Y-56770104D01*
X152790104Y-56619792D01*
X152915051Y-56447816D01*
X153011557Y-56258412D01*
X153077246Y-56056243D01*
X153105290Y-55879181D01*
X153110500Y-55846289D01*
X153110500Y-55633710D01*
X153080477Y-55444155D01*
X153077246Y-55423757D01*
X153020789Y-55250001D01*
X154575001Y-55250001D01*
X154575001Y-55283452D01*
X154590760Y-55382962D01*
X154590761Y-55382965D01*
X154651882Y-55502923D01*
X154747076Y-55598117D01*
X154867034Y-55659238D01*
X154867037Y-55659239D01*
X154966547Y-55674999D01*
X154974999Y-55674998D01*
X154975000Y-55674998D01*
X154975000Y-55250001D01*
X154974999Y-55250000D01*
X154575002Y-55250000D01*
X154575001Y-55250001D01*
X153020789Y-55250001D01*
X153011557Y-55221588D01*
X152915051Y-55032184D01*
X152790104Y-54860208D01*
X152646442Y-54716546D01*
X154575000Y-54716546D01*
X154575000Y-54749999D01*
X154575001Y-54750000D01*
X154974999Y-54750000D01*
X154975000Y-54749999D01*
X154975000Y-54324999D01*
X154966548Y-54325000D01*
X154867037Y-54340760D01*
X154867034Y-54340761D01*
X154747076Y-54401882D01*
X154651882Y-54497076D01*
X154590761Y-54617034D01*
X154590760Y-54617037D01*
X154575000Y-54716546D01*
X152646442Y-54716546D01*
X152639792Y-54709896D01*
X152611281Y-54689182D01*
X152511982Y-54617037D01*
X152467816Y-54584949D01*
X152278412Y-54488443D01*
X152278411Y-54488442D01*
X152278408Y-54488441D01*
X152076240Y-54422753D01*
X151866289Y-54389500D01*
X151866287Y-54389500D01*
X151653713Y-54389500D01*
X151653711Y-54389500D01*
X151443759Y-54422753D01*
X151241591Y-54488441D01*
X151144932Y-54537691D01*
X151052184Y-54584949D01*
X151052181Y-54584950D01*
X151052179Y-54584952D01*
X150880211Y-54709893D01*
X150880208Y-54709896D01*
X150729896Y-54860208D01*
X150701905Y-54898735D01*
X150671304Y-54940853D01*
X150663799Y-54945451D01*
X150655240Y-54943397D01*
X150650642Y-54935892D01*
X150650500Y-54934093D01*
X150650500Y-53096584D01*
X150710000Y-53096584D01*
X150710000Y-53303415D01*
X150750348Y-53506268D01*
X150750349Y-53506273D01*
X150829503Y-53697364D01*
X150861378Y-53745067D01*
X151277036Y-53329407D01*
X151294075Y-53392993D01*
X151359901Y-53507007D01*
X151452993Y-53600099D01*
X151567007Y-53665925D01*
X151630589Y-53682962D01*
X151214931Y-54098621D01*
X151262635Y-54130496D01*
X151453726Y-54209650D01*
X151453731Y-54209651D01*
X151656585Y-54250000D01*
X151863415Y-54250000D01*
X152066268Y-54209651D01*
X152066273Y-54209650D01*
X152257364Y-54130496D01*
X152305067Y-54098621D01*
X151889408Y-53682962D01*
X151952993Y-53665925D01*
X152067007Y-53600099D01*
X152160099Y-53507007D01*
X152225925Y-53392993D01*
X152242962Y-53329408D01*
X152658621Y-53745067D01*
X152690496Y-53697364D01*
X152769650Y-53506273D01*
X152769651Y-53506268D01*
X152810000Y-53303415D01*
X152810000Y-53096584D01*
X152769651Y-52893731D01*
X152769650Y-52893726D01*
X152690496Y-52702635D01*
X152658621Y-52654931D01*
X152242962Y-53070589D01*
X152225925Y-53007007D01*
X152160099Y-52892993D01*
X152067007Y-52799901D01*
X151952993Y-52734075D01*
X151889407Y-52717036D01*
X152305067Y-52301378D01*
X152257364Y-52269503D01*
X152152006Y-52225862D01*
X152066273Y-52190349D01*
X152066268Y-52190348D01*
X151863415Y-52150000D01*
X151656585Y-52150000D01*
X151453731Y-52190348D01*
X151453726Y-52190349D01*
X151262635Y-52269503D01*
X151214931Y-52301378D01*
X151630591Y-52717037D01*
X151567007Y-52734075D01*
X151452993Y-52799901D01*
X151359901Y-52892993D01*
X151294075Y-53007007D01*
X151277037Y-53070591D01*
X150861378Y-52654931D01*
X150829503Y-52702635D01*
X150750349Y-52893726D01*
X150750348Y-52893731D01*
X150710000Y-53096584D01*
X150650500Y-53096584D01*
X150650500Y-51465905D01*
X150653868Y-51457773D01*
X150662000Y-51454405D01*
X150670132Y-51457773D01*
X150671301Y-51459143D01*
X150729896Y-51539792D01*
X150880208Y-51690104D01*
X151052184Y-51815051D01*
X151241588Y-51911557D01*
X151443757Y-51977246D01*
X151548735Y-51993873D01*
X151653711Y-52010500D01*
X151653713Y-52010500D01*
X151866289Y-52010500D01*
X151950269Y-51997198D01*
X152076243Y-51977246D01*
X152278412Y-51911557D01*
X152467816Y-51815051D01*
X152639792Y-51690104D01*
X152790104Y-51539792D01*
X152915051Y-51367816D01*
X153011557Y-51178412D01*
X153077246Y-50976243D01*
X153110500Y-50766287D01*
X153110500Y-50553713D01*
X153077246Y-50343757D01*
X153011557Y-50141588D01*
X152915051Y-49952184D01*
X152790104Y-49780208D01*
X152639792Y-49629896D01*
X152627967Y-49621305D01*
X152467820Y-49504952D01*
X152467816Y-49504949D01*
X152442881Y-49492244D01*
X152437167Y-49485553D01*
X152437857Y-49476778D01*
X152444550Y-49471062D01*
X152448104Y-49470499D01*
X152657873Y-49470499D01*
X152677742Y-49468363D01*
X152717483Y-49464091D01*
X152852331Y-49413796D01*
X152967546Y-49327546D01*
X153053796Y-49212331D01*
X153104091Y-49077483D01*
X153110500Y-49017873D01*
X153110499Y-47261999D01*
X153113867Y-47253868D01*
X153121999Y-47250500D01*
X155494319Y-47250500D01*
X155502451Y-47253868D01*
G37*
%TD.AperFunction*%
%TA.AperFunction,Conductor*%
G36*
X165721598Y-62283866D02*
G01*
X165724966Y-62291998D01*
X165724745Y-62294241D01*
X165717653Y-62329896D01*
X165699500Y-62421158D01*
X165699500Y-62578842D01*
X165719823Y-62681012D01*
X165730262Y-62733493D01*
X165730262Y-62733496D01*
X165790607Y-62879181D01*
X165878094Y-63010114D01*
X165878211Y-63010289D01*
X165989711Y-63121789D01*
X166120821Y-63209394D01*
X166266503Y-63269737D01*
X166421158Y-63300500D01*
X166421160Y-63300500D01*
X166578840Y-63300500D01*
X166578842Y-63300500D01*
X166733497Y-63269737D01*
X166879179Y-63209394D01*
X166993171Y-63133226D01*
X167001801Y-63131510D01*
X167009120Y-63136400D01*
X167010837Y-63145032D01*
X167009517Y-63148539D01*
X166974384Y-63209394D01*
X166940422Y-63268216D01*
X166899499Y-63420943D01*
X166899499Y-63579977D01*
X166899500Y-63579990D01*
X166899500Y-67559064D01*
X166896132Y-67567196D01*
X166888000Y-67570564D01*
X166879868Y-67567196D01*
X166877194Y-67562997D01*
X166857609Y-67509189D01*
X166857603Y-67509178D01*
X166851859Y-67501692D01*
X166692964Y-67660588D01*
X166865395Y-67833019D01*
X166877194Y-67800605D01*
X166883140Y-67794115D01*
X166891933Y-67793732D01*
X166898423Y-67799678D01*
X166899500Y-67804538D01*
X166899500Y-68746500D01*
X166896132Y-68754632D01*
X166451304Y-69199458D01*
X166443172Y-69202826D01*
X166435040Y-69199458D01*
X166432749Y-69196186D01*
X166402807Y-69131976D01*
X166318021Y-69047190D01*
X166250261Y-69015592D01*
X166244314Y-69009103D01*
X166244013Y-69002197D01*
X166261090Y-68938468D01*
X166261090Y-68889893D01*
X166264457Y-68881762D01*
X166378437Y-68767783D01*
X166402087Y-68740093D01*
X166480047Y-68598282D01*
X166520292Y-68441538D01*
X166520292Y-68279710D01*
X166500293Y-68201819D01*
X166501533Y-68193105D01*
X166507500Y-68188152D01*
X166511840Y-68186572D01*
X166493260Y-68167992D01*
X166490254Y-68162723D01*
X166480047Y-68122966D01*
X166402087Y-67981155D01*
X166378437Y-67953465D01*
X166340131Y-67915159D01*
X166338701Y-67913416D01*
X166282380Y-67829125D01*
X166282378Y-67829122D01*
X166170878Y-67717622D01*
X166158884Y-67709608D01*
X166086582Y-67661297D01*
X166084839Y-67659867D01*
X166065825Y-67640853D01*
X166046535Y-67621563D01*
X166018845Y-67597913D01*
X165877034Y-67519953D01*
X165877033Y-67519952D01*
X165877032Y-67519952D01*
X165837278Y-67509745D01*
X165832006Y-67506738D01*
X165813425Y-67488157D01*
X165811845Y-67492499D01*
X165805899Y-67498989D01*
X165798179Y-67499705D01*
X165720291Y-67479708D01*
X165720290Y-67479708D01*
X165558462Y-67479708D01*
X165558460Y-67479708D01*
X165401719Y-67519952D01*
X165330812Y-67558933D01*
X165259907Y-67597913D01*
X165259906Y-67597914D01*
X165232217Y-67621563D01*
X165045734Y-67808044D01*
X165037602Y-67811412D01*
X165031748Y-67809811D01*
X165028760Y-67808044D01*
X164996469Y-67788947D01*
X164991184Y-67781908D01*
X164991901Y-67774187D01*
X164993854Y-67770000D01*
X164967578Y-67770000D01*
X164961724Y-67768399D01*
X164926390Y-67747503D01*
X164770997Y-67702358D01*
X164770998Y-67702358D01*
X164770995Y-67702357D01*
X164770993Y-67702357D01*
X164734690Y-67699500D01*
X164734681Y-67699500D01*
X164511500Y-67699500D01*
X164503368Y-67696132D01*
X164500000Y-67688000D01*
X164500000Y-67520001D01*
X164499999Y-67520000D01*
X164261500Y-67520000D01*
X164253368Y-67516632D01*
X164250000Y-67508500D01*
X164250000Y-67269999D01*
X164750000Y-67269999D01*
X164750001Y-67270000D01*
X164993853Y-67270000D01*
X164952807Y-67181976D01*
X164905434Y-67134603D01*
X166166979Y-67134603D01*
X166339410Y-67307034D01*
X166498306Y-67148138D01*
X166490819Y-67142394D01*
X166490817Y-67142392D01*
X166378154Y-67101386D01*
X166258240Y-67101386D01*
X166166979Y-67134603D01*
X164905434Y-67134603D01*
X164868023Y-67097192D01*
X164759354Y-67046518D01*
X164750000Y-67045287D01*
X164750000Y-67269999D01*
X164250000Y-67269999D01*
X164250000Y-67045287D01*
X164240645Y-67046518D01*
X164131976Y-67097192D01*
X164047190Y-67181978D01*
X164027500Y-67224201D01*
X164027500Y-67258500D01*
X164025975Y-67262182D01*
X164024747Y-67265966D01*
X164024327Y-67266159D01*
X164024132Y-67266632D01*
X164016906Y-67269964D01*
X164001828Y-67271156D01*
X164000159Y-67270614D01*
X163998430Y-67270919D01*
X163997118Y-67270000D01*
X163967577Y-67270000D01*
X163961723Y-67268399D01*
X163957935Y-67266159D01*
X163926395Y-67247506D01*
X163926390Y-67247503D01*
X163770997Y-67202358D01*
X163770998Y-67202358D01*
X163770995Y-67202357D01*
X163770993Y-67202357D01*
X163734690Y-67199500D01*
X163734681Y-67199500D01*
X163511500Y-67199500D01*
X163503368Y-67196132D01*
X163500000Y-67188000D01*
X163500000Y-67020001D01*
X163499999Y-67020000D01*
X163269930Y-67020000D01*
X163268549Y-67019428D01*
X163267070Y-67019639D01*
X163264624Y-67017802D01*
X163261798Y-67016632D01*
X163260032Y-67014354D01*
X163255005Y-67005854D01*
X163253764Y-66997140D01*
X163255004Y-66994146D01*
X163281112Y-66950000D01*
X163322869Y-66879394D01*
X163322869Y-66879390D01*
X163322871Y-66879389D01*
X163346336Y-66798621D01*
X163354651Y-66769999D01*
X163750000Y-66769999D01*
X163750001Y-66770000D01*
X163993853Y-66770000D01*
X163952807Y-66681976D01*
X163868023Y-66597192D01*
X163759354Y-66546518D01*
X163750000Y-66545287D01*
X163750000Y-66769999D01*
X163354651Y-66769999D01*
X163367665Y-66725205D01*
X163370500Y-66689182D01*
X163370499Y-66523500D01*
X163373867Y-66515369D01*
X163425309Y-66463928D01*
X163475428Y-66377116D01*
X163504366Y-66326997D01*
X163542268Y-66185541D01*
X163545242Y-66180389D01*
X164303067Y-65422564D01*
X164311198Y-65419197D01*
X164319330Y-65422565D01*
X164320759Y-65424307D01*
X164378211Y-65510289D01*
X164489711Y-65621789D01*
X164620821Y-65709394D01*
X164766503Y-65769737D01*
X164921158Y-65800500D01*
X164921160Y-65800500D01*
X165078840Y-65800500D01*
X165078842Y-65800500D01*
X165233497Y-65769737D01*
X165379179Y-65709394D01*
X165510289Y-65621789D01*
X165621789Y-65510289D01*
X165709394Y-65379179D01*
X165769737Y-65233497D01*
X165800500Y-65078842D01*
X165800500Y-64921158D01*
X165769737Y-64766503D01*
X165709394Y-64620821D01*
X165621789Y-64489711D01*
X165603868Y-64471790D01*
X165600500Y-64463658D01*
X165600500Y-62291998D01*
X165603868Y-62283866D01*
X165612000Y-62280498D01*
X165713466Y-62280498D01*
X165721598Y-62283866D01*
G37*
%TD.AperFunction*%
%TA.AperFunction,Conductor*%
G36*
X170644759Y-64156601D02*
G01*
X170649358Y-64164106D01*
X170649500Y-64165905D01*
X170649500Y-67634093D01*
X170646132Y-67642225D01*
X170638000Y-67645593D01*
X170629868Y-67642225D01*
X170628696Y-67640853D01*
X170625092Y-67635892D01*
X170570104Y-67560208D01*
X170419792Y-67409896D01*
X170247816Y-67284949D01*
X170058412Y-67188443D01*
X170058411Y-67188442D01*
X170058408Y-67188441D01*
X169856240Y-67122753D01*
X169646289Y-67089500D01*
X169646287Y-67089500D01*
X169433713Y-67089500D01*
X169433711Y-67089500D01*
X169223759Y-67122753D01*
X169021591Y-67188441D01*
X169006497Y-67196132D01*
X168832184Y-67284949D01*
X168832181Y-67284950D01*
X168832179Y-67284952D01*
X168660211Y-67409893D01*
X168620132Y-67449972D01*
X168612000Y-67453340D01*
X168603868Y-67449972D01*
X168600500Y-67441840D01*
X168600500Y-66421799D01*
X168603868Y-66413667D01*
X168612000Y-66410299D01*
X168620132Y-66413667D01*
X168621562Y-66415410D01*
X168641378Y-66445067D01*
X169057036Y-66029407D01*
X169074075Y-66092993D01*
X169139901Y-66207007D01*
X169232993Y-66300099D01*
X169347007Y-66365925D01*
X169410589Y-66382962D01*
X168994931Y-66798621D01*
X169042635Y-66830496D01*
X169233726Y-66909650D01*
X169233731Y-66909651D01*
X169436585Y-66950000D01*
X169643415Y-66950000D01*
X169846268Y-66909651D01*
X169846273Y-66909650D01*
X170037364Y-66830496D01*
X170085067Y-66798621D01*
X169669408Y-66382962D01*
X169732993Y-66365925D01*
X169847007Y-66300099D01*
X169940099Y-66207007D01*
X170005925Y-66092993D01*
X170022962Y-66029408D01*
X170438621Y-66445067D01*
X170470496Y-66397364D01*
X170549650Y-66206273D01*
X170549651Y-66206268D01*
X170590000Y-66003415D01*
X170590000Y-65796584D01*
X170549651Y-65593731D01*
X170549650Y-65593726D01*
X170470496Y-65402635D01*
X170438621Y-65354931D01*
X170022962Y-65770589D01*
X170005925Y-65707007D01*
X169940099Y-65592993D01*
X169847007Y-65499901D01*
X169732993Y-65434075D01*
X169669407Y-65417036D01*
X170085067Y-65001378D01*
X170037364Y-64969503D01*
X169846273Y-64890349D01*
X169846268Y-64890348D01*
X169643415Y-64850000D01*
X169436585Y-64850000D01*
X169233731Y-64890348D01*
X169233726Y-64890349D01*
X169042635Y-64969503D01*
X168994931Y-65001378D01*
X169410591Y-65417037D01*
X169347007Y-65434075D01*
X169232993Y-65499901D01*
X169139901Y-65592993D01*
X169074075Y-65707007D01*
X169057037Y-65770591D01*
X168641378Y-65354931D01*
X168621562Y-65384588D01*
X168614243Y-65389478D01*
X168605611Y-65387761D01*
X168600721Y-65380442D01*
X168600500Y-65378199D01*
X168600500Y-65153498D01*
X168603867Y-65145367D01*
X169104225Y-64645008D01*
X169112357Y-64641641D01*
X169115911Y-64642204D01*
X169223757Y-64677246D01*
X169328735Y-64693873D01*
X169433711Y-64710500D01*
X169433713Y-64710500D01*
X169646289Y-64710500D01*
X169730269Y-64697198D01*
X169856243Y-64677246D01*
X170058412Y-64611557D01*
X170247816Y-64515051D01*
X170419792Y-64390104D01*
X170570104Y-64239792D01*
X170628696Y-64159145D01*
X170636201Y-64154547D01*
X170644759Y-64156601D01*
G37*
%TD.AperFunction*%
%TA.AperFunction,Conductor*%
G36*
X150670132Y-64157773D02*
G01*
X150671301Y-64159143D01*
X150729896Y-64239792D01*
X150880208Y-64390104D01*
X151052184Y-64515051D01*
X151241588Y-64611557D01*
X151443757Y-64677246D01*
X151548735Y-64693873D01*
X151653711Y-64710500D01*
X151653713Y-64710500D01*
X151866289Y-64710500D01*
X151950269Y-64697198D01*
X152076243Y-64677246D01*
X152184088Y-64642204D01*
X152192863Y-64642894D01*
X152195774Y-64645009D01*
X152396132Y-64845367D01*
X152399500Y-64853499D01*
X152399500Y-65042960D01*
X152396132Y-65051092D01*
X152388000Y-65054460D01*
X152381611Y-65052522D01*
X152257364Y-64969503D01*
X152066273Y-64890349D01*
X152066268Y-64890348D01*
X151863415Y-64850000D01*
X151656585Y-64850000D01*
X151453731Y-64890348D01*
X151453726Y-64890349D01*
X151262635Y-64969503D01*
X151214931Y-65001378D01*
X151630590Y-65417037D01*
X151567007Y-65434075D01*
X151452993Y-65499901D01*
X151359901Y-65592993D01*
X151294075Y-65707007D01*
X151277037Y-65770591D01*
X150861378Y-65354931D01*
X150829503Y-65402635D01*
X150750349Y-65593726D01*
X150750348Y-65593731D01*
X150710000Y-65796584D01*
X150710000Y-66003415D01*
X150750348Y-66206268D01*
X150750349Y-66206273D01*
X150829503Y-66397364D01*
X150861378Y-66445067D01*
X151277036Y-66029407D01*
X151294075Y-66092993D01*
X151359901Y-66207007D01*
X151452993Y-66300099D01*
X151567007Y-66365925D01*
X151630590Y-66382962D01*
X151214931Y-66798621D01*
X151262635Y-66830496D01*
X151453726Y-66909650D01*
X151453731Y-66909651D01*
X151656585Y-66950000D01*
X151863415Y-66950000D01*
X152066268Y-66909651D01*
X152066273Y-66909650D01*
X152257364Y-66830496D01*
X152381611Y-66747477D01*
X152390244Y-66745760D01*
X152397562Y-66750650D01*
X152399500Y-66757039D01*
X152399500Y-67231373D01*
X152396132Y-67239505D01*
X152388000Y-67242873D01*
X152382779Y-67241620D01*
X152278408Y-67188441D01*
X152076240Y-67122753D01*
X151866289Y-67089500D01*
X151866287Y-67089500D01*
X151653713Y-67089500D01*
X151653711Y-67089500D01*
X151443759Y-67122753D01*
X151241591Y-67188441D01*
X151226497Y-67196132D01*
X151052184Y-67284949D01*
X151052181Y-67284950D01*
X151052179Y-67284952D01*
X150880211Y-67409893D01*
X150729896Y-67560208D01*
X150671304Y-67640853D01*
X150663799Y-67645451D01*
X150655240Y-67643397D01*
X150650642Y-67635892D01*
X150650500Y-67634093D01*
X150650500Y-64165905D01*
X150653868Y-64157773D01*
X150662000Y-64154405D01*
X150670132Y-64157773D01*
G37*
%TD.AperFunction*%
%TA.AperFunction,Conductor*%
G36*
X156696632Y-65628867D02*
G01*
X156700000Y-65636999D01*
X156700000Y-65824999D01*
X156700001Y-65825000D01*
X156888000Y-65825000D01*
X156896132Y-65828368D01*
X156899500Y-65836500D01*
X156899500Y-66000990D01*
X156899499Y-66001008D01*
X156899499Y-66001704D01*
X156899499Y-66159818D01*
X156906392Y-66185543D01*
X156940422Y-66312544D01*
X156957162Y-66341538D01*
X157019479Y-66449476D01*
X157046132Y-66476129D01*
X157049500Y-66484261D01*
X157049500Y-66515739D01*
X157046132Y-66523871D01*
X157019479Y-66550523D01*
X156991217Y-66599477D01*
X156940422Y-66687454D01*
X156928698Y-66731208D01*
X156923340Y-66738190D01*
X156914613Y-66739339D01*
X156909458Y-66736363D01*
X156427728Y-66254632D01*
X156424360Y-66246500D01*
X156424360Y-65836500D01*
X156427728Y-65828368D01*
X156435860Y-65825000D01*
X156449999Y-65825000D01*
X156450000Y-65824999D01*
X156450000Y-65636999D01*
X156453368Y-65628867D01*
X156461500Y-65625499D01*
X156688500Y-65625499D01*
X156696632Y-65628867D01*
G37*
%TD.AperFunction*%
%TA.AperFunction,Conductor*%
G36*
X158634133Y-63003368D02*
G01*
X158696132Y-63065367D01*
X158699500Y-63073499D01*
X158699500Y-63234690D01*
X158702357Y-63270993D01*
X158702357Y-63270996D01*
X158702358Y-63270997D01*
X158747504Y-63426392D01*
X158752072Y-63434118D01*
X158753311Y-63442832D01*
X158749174Y-63449094D01*
X158635964Y-63535964D01*
X158545721Y-63653571D01*
X158545720Y-63653572D01*
X158545720Y-63653573D01*
X158538336Y-63671396D01*
X158532112Y-63677619D01*
X158523310Y-63677618D01*
X158518506Y-63673886D01*
X158500059Y-63649244D01*
X158457546Y-63592454D01*
X158342331Y-63506204D01*
X158311875Y-63494844D01*
X158277481Y-63482016D01*
X158271039Y-63476018D01*
X158270000Y-63471241D01*
X158270000Y-63313218D01*
X158270457Y-63310009D01*
X158277664Y-63285204D01*
X158280499Y-63249181D01*
X158280498Y-63083498D01*
X158283866Y-63075367D01*
X158355866Y-63003368D01*
X158363998Y-63000000D01*
X158626001Y-63000000D01*
X158634133Y-63003368D01*
G37*
%TD.AperFunction*%
%TA.AperFunction,Conductor*%
G36*
X159357242Y-54111790D02*
G01*
X159360986Y-54112779D01*
X159361799Y-54113490D01*
X159361855Y-54113511D01*
X159361876Y-54113557D01*
X159362149Y-54113796D01*
X159371285Y-54122931D01*
X159371286Y-54122931D01*
X159527068Y-54278713D01*
X159527070Y-54278716D01*
X159638874Y-54390520D01*
X159775806Y-54469577D01*
X159887609Y-54499534D01*
X159928532Y-54510500D01*
X159928533Y-54510500D01*
X160153000Y-54510500D01*
X160161132Y-54513868D01*
X160164500Y-54522000D01*
X160164500Y-57003427D01*
X160164499Y-57003445D01*
X160164499Y-57162254D01*
X160205422Y-57314981D01*
X160222180Y-57344006D01*
X160279654Y-57443556D01*
X160284480Y-57451914D01*
X160396284Y-57563718D01*
X160396286Y-57563719D01*
X163171132Y-60338565D01*
X163174500Y-60346697D01*
X163174500Y-61008500D01*
X163171132Y-61016632D01*
X163163000Y-61020000D01*
X163000001Y-61020000D01*
X163000000Y-61020001D01*
X163000000Y-61188000D01*
X162996632Y-61196132D01*
X162988500Y-61199500D01*
X162765310Y-61199500D01*
X162729007Y-61202357D01*
X162729004Y-61202357D01*
X162729002Y-61202358D01*
X162573609Y-61247503D01*
X162538277Y-61268399D01*
X162532423Y-61270000D01*
X162506145Y-61270000D01*
X162508098Y-61274189D01*
X162508481Y-61282982D01*
X162503529Y-61288946D01*
X162434316Y-61329880D01*
X162319882Y-61444314D01*
X162237503Y-61583609D01*
X162192358Y-61739002D01*
X162192357Y-61739007D01*
X162189500Y-61775310D01*
X162189500Y-62184690D01*
X162192357Y-62220993D01*
X162192357Y-62220996D01*
X162192358Y-62220997D01*
X162237503Y-62376390D01*
X162237506Y-62376395D01*
X162319883Y-62515687D01*
X162330715Y-62526519D01*
X162337769Y-62533573D01*
X162339053Y-62536674D01*
X162340916Y-62539462D01*
X162340686Y-62540616D01*
X162341137Y-62541705D01*
X162339199Y-62548094D01*
X162326515Y-62567076D01*
X162319196Y-62571966D01*
X162312093Y-62571110D01*
X162259354Y-62546518D01*
X162250000Y-62545287D01*
X162250000Y-62716564D01*
X162249125Y-62720965D01*
X162230262Y-62766503D01*
X162230262Y-62766506D01*
X162199500Y-62921159D01*
X162199500Y-63008500D01*
X162196132Y-63016632D01*
X162188000Y-63020000D01*
X162000001Y-63020000D01*
X162000000Y-63020001D01*
X162000000Y-63188000D01*
X161996632Y-63196132D01*
X161988500Y-63199500D01*
X161765310Y-63199500D01*
X161729007Y-63202357D01*
X161729004Y-63202357D01*
X161729002Y-63202358D01*
X161573609Y-63247503D01*
X161538276Y-63268399D01*
X161532422Y-63270000D01*
X161501398Y-63270000D01*
X161495544Y-63268399D01*
X161478146Y-63258110D01*
X161472861Y-63251071D01*
X161472758Y-63250259D01*
X161472499Y-63250000D01*
X161467578Y-63250000D01*
X161461724Y-63248399D01*
X161426390Y-63227503D01*
X161270997Y-63182358D01*
X161270998Y-63182358D01*
X161270995Y-63182357D01*
X161270993Y-63182357D01*
X161234690Y-63179500D01*
X160765310Y-63179500D01*
X160729007Y-63182357D01*
X160729004Y-63182357D01*
X160729002Y-63182358D01*
X160695814Y-63191999D01*
X160687065Y-63191033D01*
X160686217Y-63190518D01*
X160569181Y-63112318D01*
X160423495Y-63051973D01*
X160307051Y-63028811D01*
X160269755Y-63021392D01*
X160262438Y-63016503D01*
X160260500Y-63010114D01*
X160260500Y-62772555D01*
X160263868Y-62764423D01*
X160272000Y-62761055D01*
X160274236Y-62761275D01*
X160421158Y-62790500D01*
X160421160Y-62790500D01*
X160578840Y-62790500D01*
X160578842Y-62790500D01*
X160733497Y-62759737D01*
X160754892Y-62750875D01*
X160759293Y-62750000D01*
X161493162Y-62750000D01*
X161493162Y-62748517D01*
X161493161Y-62748515D01*
X161516162Y-62748515D01*
X161516162Y-62750067D01*
X161524132Y-62753368D01*
X161527500Y-62761500D01*
X161527500Y-62769999D01*
X161527501Y-62770000D01*
X161749999Y-62770000D01*
X161750000Y-62769999D01*
X161750000Y-62545287D01*
X161740645Y-62546518D01*
X161631976Y-62597192D01*
X161547190Y-62681978D01*
X161516162Y-62748515D01*
X161493161Y-62748515D01*
X161452807Y-62661976D01*
X161368023Y-62577192D01*
X161259354Y-62526519D01*
X161209841Y-62520000D01*
X161129841Y-62520000D01*
X161121709Y-62516632D01*
X161118341Y-62508500D01*
X161121529Y-62500801D01*
X161121491Y-62500769D01*
X161121475Y-62500759D01*
X161121476Y-62500757D01*
X161121433Y-62500722D01*
X161121694Y-62500404D01*
X161121708Y-62500369D01*
X161121789Y-62500289D01*
X161209394Y-62369179D01*
X161269737Y-62223497D01*
X161300500Y-62068842D01*
X161300500Y-61911158D01*
X161269737Y-61756503D01*
X161209394Y-61610821D01*
X161121789Y-61479711D01*
X161010289Y-61368211D01*
X161010285Y-61368208D01*
X160879181Y-61280607D01*
X160853573Y-61270000D01*
X160733497Y-61220263D01*
X160733495Y-61220262D01*
X160629115Y-61199500D01*
X160578842Y-61189500D01*
X160421158Y-61189500D01*
X160356522Y-61202357D01*
X160266506Y-61220262D01*
X160266503Y-61220262D01*
X160120818Y-61280607D01*
X159989714Y-61368208D01*
X159971790Y-61386132D01*
X159963658Y-61389500D01*
X159499499Y-61389500D01*
X159491367Y-61386132D01*
X159487999Y-61378000D01*
X159487999Y-61266562D01*
X159484705Y-61250000D01*
X159457236Y-61111906D01*
X159396893Y-60966224D01*
X159309288Y-60835114D01*
X159244174Y-60770000D01*
X162506146Y-60770000D01*
X162749999Y-60770000D01*
X162750000Y-60769999D01*
X162750000Y-60545287D01*
X162740645Y-60546518D01*
X162631976Y-60597192D01*
X162547192Y-60681976D01*
X162506146Y-60770000D01*
X159244174Y-60770000D01*
X159197788Y-60723614D01*
X159197784Y-60723611D01*
X159066680Y-60636010D01*
X158920994Y-60575665D01*
X158827865Y-60557140D01*
X158766341Y-60544903D01*
X158608657Y-60544903D01*
X158608654Y-60544903D01*
X158608112Y-60544957D01*
X158599689Y-60542401D01*
X158595540Y-60534639D01*
X158598096Y-60526216D01*
X158598843Y-60525390D01*
X158867768Y-60256466D01*
X158867773Y-60256462D01*
X158868714Y-60255520D01*
X158868716Y-60255520D01*
X158980520Y-60143716D01*
X159030247Y-60057583D01*
X159034348Y-60053439D01*
X159051865Y-60043081D01*
X159168081Y-59926865D01*
X159251744Y-59785398D01*
X159251744Y-59785394D01*
X159251746Y-59785393D01*
X159275389Y-59704013D01*
X159297598Y-59627569D01*
X159300500Y-59590694D01*
X159300500Y-58284306D01*
X159297598Y-58247431D01*
X159276180Y-58173710D01*
X159251746Y-58089606D01*
X159251744Y-58089602D01*
X159168081Y-57948135D01*
X159051865Y-57831919D01*
X158910398Y-57748256D01*
X158910393Y-57748253D01*
X158752573Y-57702403D01*
X158752574Y-57702403D01*
X158752571Y-57702402D01*
X158752569Y-57702402D01*
X158715694Y-57699500D01*
X158715685Y-57699500D01*
X158362000Y-57699500D01*
X158353868Y-57696132D01*
X158350500Y-57688000D01*
X158350500Y-56409314D01*
X158350500Y-56409306D01*
X158347598Y-56372431D01*
X158329479Y-56310066D01*
X158301746Y-56214606D01*
X158276804Y-56172431D01*
X158218081Y-56073135D01*
X158153869Y-56008923D01*
X158150501Y-56000791D01*
X158150501Y-55970943D01*
X158149002Y-55965349D01*
X158146772Y-55957027D01*
X158147920Y-55948304D01*
X158154903Y-55942945D01*
X158162740Y-55943630D01*
X158226959Y-55973575D01*
X158250000Y-55976608D01*
X158250000Y-55760000D01*
X158750000Y-55760000D01*
X158750000Y-55976608D01*
X158773040Y-55973575D01*
X158880111Y-55923647D01*
X158963648Y-55840110D01*
X159001006Y-55759999D01*
X158750001Y-55759999D01*
X158750000Y-55760000D01*
X158250000Y-55760000D01*
X158249999Y-55759999D01*
X158082605Y-55759999D01*
X158074473Y-55756631D01*
X158072646Y-55754249D01*
X158030520Y-55681284D01*
X157722140Y-55372904D01*
X157718772Y-55364772D01*
X157718831Y-55363614D01*
X157725500Y-55298345D01*
X157725499Y-54918671D01*
X157728867Y-54910540D01*
X157736999Y-54907172D01*
X157745131Y-54910540D01*
X157746897Y-54912816D01*
X157808865Y-55017599D01*
X157922402Y-55131136D01*
X158020562Y-55189187D01*
X158025847Y-55196226D01*
X158025131Y-55203946D01*
X157998994Y-55259999D01*
X158243983Y-55259999D01*
X158244884Y-55260034D01*
X158245185Y-55260057D01*
X158250819Y-55260501D01*
X158749180Y-55260500D01*
X158754751Y-55260061D01*
X158755104Y-55260034D01*
X158756005Y-55259999D01*
X159001006Y-55259999D01*
X159001006Y-55259998D01*
X158974868Y-55203946D01*
X158974483Y-55195153D01*
X158979433Y-55189190D01*
X159077598Y-55131136D01*
X159191135Y-55017599D01*
X159272869Y-54879394D01*
X159272869Y-54879390D01*
X159272871Y-54879389D01*
X159290569Y-54818466D01*
X159317665Y-54725205D01*
X159320500Y-54689182D01*
X159320499Y-54405214D01*
X159320891Y-54402239D01*
X159324031Y-54390520D01*
X159340500Y-54329059D01*
X159340500Y-54170944D01*
X159340500Y-54122000D01*
X159342108Y-54118116D01*
X159343583Y-54114163D01*
X159343781Y-54114076D01*
X159343868Y-54113868D01*
X159351590Y-54110507D01*
X159351786Y-54110500D01*
X159352720Y-54110500D01*
X159353066Y-54110454D01*
X159353608Y-54110435D01*
X159357242Y-54111790D01*
G37*
%TD.AperFunction*%
%TA.AperFunction,Conductor*%
G36*
X170644759Y-51456601D02*
G01*
X170649358Y-51464106D01*
X170649500Y-51465905D01*
X170649500Y-54934093D01*
X170646132Y-54942225D01*
X170638000Y-54945593D01*
X170629868Y-54942225D01*
X170628696Y-54940853D01*
X170625092Y-54935892D01*
X170570104Y-54860208D01*
X170419792Y-54709896D01*
X170391281Y-54689182D01*
X170291982Y-54617037D01*
X170247816Y-54584949D01*
X170058412Y-54488443D01*
X170058411Y-54488442D01*
X170058408Y-54488441D01*
X169856240Y-54422753D01*
X169646289Y-54389500D01*
X169646287Y-54389500D01*
X169433713Y-54389500D01*
X169433711Y-54389500D01*
X169223759Y-54422753D01*
X169021591Y-54488441D01*
X168924932Y-54537691D01*
X168832184Y-54584949D01*
X168832181Y-54584950D01*
X168832179Y-54584952D01*
X168660211Y-54709893D01*
X168509893Y-54860211D01*
X168384952Y-55032179D01*
X168288441Y-55221591D01*
X168222753Y-55423759D01*
X168189500Y-55633710D01*
X168189500Y-55846289D01*
X168222753Y-56056240D01*
X168288441Y-56258408D01*
X168288442Y-56258411D01*
X168288443Y-56258412D01*
X168384949Y-56447816D01*
X168509896Y-56619792D01*
X168660208Y-56770104D01*
X168832184Y-56895051D01*
X169021588Y-56991557D01*
X169021590Y-56991557D01*
X169021591Y-56991558D01*
X169044688Y-56999063D01*
X169051381Y-57004779D01*
X169052071Y-57013554D01*
X169046355Y-57020247D01*
X169044688Y-57020937D01*
X169021591Y-57028441D01*
X168924932Y-57077691D01*
X168832184Y-57124949D01*
X168832181Y-57124950D01*
X168832179Y-57124952D01*
X168660211Y-57249893D01*
X168509893Y-57400211D01*
X168384952Y-57572179D01*
X168384950Y-57572181D01*
X168384949Y-57572184D01*
X168368498Y-57604471D01*
X168288441Y-57761591D01*
X168222753Y-57963759D01*
X168189500Y-58173710D01*
X168189500Y-58386289D01*
X168222753Y-58596240D01*
X168288441Y-58798408D01*
X168288442Y-58798411D01*
X168288443Y-58798412D01*
X168384949Y-58987816D01*
X168509896Y-59159792D01*
X168660208Y-59310104D01*
X168832184Y-59435051D01*
X169021588Y-59531557D01*
X169021590Y-59531557D01*
X169021591Y-59531558D01*
X169044688Y-59539063D01*
X169051381Y-59544779D01*
X169052071Y-59553554D01*
X169046355Y-59560247D01*
X169044688Y-59560937D01*
X169021591Y-59568441D01*
X168924932Y-59617691D01*
X168832184Y-59664949D01*
X168832181Y-59664950D01*
X168832179Y-59664952D01*
X168660211Y-59789893D01*
X168509893Y-59940211D01*
X168384952Y-60112179D01*
X168288441Y-60301591D01*
X168222753Y-60503759D01*
X168189500Y-60713710D01*
X168189500Y-60926289D01*
X168222753Y-61136240D01*
X168222754Y-61136243D01*
X168243307Y-61199500D01*
X168257795Y-61244087D01*
X168257105Y-61252862D01*
X168254990Y-61255773D01*
X168120132Y-61390632D01*
X168112000Y-61394000D01*
X168103868Y-61390632D01*
X168100500Y-61382500D01*
X168100500Y-53096584D01*
X168490000Y-53096584D01*
X168490000Y-53303415D01*
X168530348Y-53506268D01*
X168530349Y-53506273D01*
X168609503Y-53697364D01*
X168641378Y-53745067D01*
X169057036Y-53329407D01*
X169074075Y-53392993D01*
X169139901Y-53507007D01*
X169232993Y-53600099D01*
X169347007Y-53665925D01*
X169410589Y-53682962D01*
X168994931Y-54098621D01*
X169042635Y-54130496D01*
X169233726Y-54209650D01*
X169233731Y-54209651D01*
X169436585Y-54250000D01*
X169643415Y-54250000D01*
X169846268Y-54209651D01*
X169846273Y-54209650D01*
X170037364Y-54130496D01*
X170085067Y-54098621D01*
X169669408Y-53682962D01*
X169732993Y-53665925D01*
X169847007Y-53600099D01*
X169940099Y-53507007D01*
X170005925Y-53392993D01*
X170022962Y-53329408D01*
X170438621Y-53745067D01*
X170470496Y-53697364D01*
X170549650Y-53506273D01*
X170549651Y-53506268D01*
X170590000Y-53303415D01*
X170590000Y-53096584D01*
X170549651Y-52893731D01*
X170549650Y-52893726D01*
X170470496Y-52702635D01*
X170438621Y-52654931D01*
X170022962Y-53070589D01*
X170005925Y-53007007D01*
X169940099Y-52892993D01*
X169847007Y-52799901D01*
X169732993Y-52734075D01*
X169669407Y-52717036D01*
X170085067Y-52301378D01*
X170037364Y-52269503D01*
X169846273Y-52190349D01*
X169846268Y-52190348D01*
X169643415Y-52150000D01*
X169436585Y-52150000D01*
X169233731Y-52190348D01*
X169233726Y-52190349D01*
X169042635Y-52269503D01*
X168994931Y-52301378D01*
X169410591Y-52717037D01*
X169347007Y-52734075D01*
X169232993Y-52799901D01*
X169139901Y-52892993D01*
X169074075Y-53007007D01*
X169057037Y-53070591D01*
X168641378Y-52654931D01*
X168609503Y-52702635D01*
X168530349Y-52893726D01*
X168530348Y-52893731D01*
X168490000Y-53096584D01*
X168100500Y-53096584D01*
X168100500Y-52953498D01*
X168103867Y-52945367D01*
X169104225Y-51945008D01*
X169112357Y-51941641D01*
X169115911Y-51942204D01*
X169223757Y-51977246D01*
X169328735Y-51993873D01*
X169433711Y-52010500D01*
X169433713Y-52010500D01*
X169646289Y-52010500D01*
X169730269Y-51997198D01*
X169856243Y-51977246D01*
X170058412Y-51911557D01*
X170247816Y-51815051D01*
X170419792Y-51690104D01*
X170570104Y-51539792D01*
X170628696Y-51459145D01*
X170636201Y-51454547D01*
X170644759Y-51456601D01*
G37*
%TD.AperFunction*%
%TA.AperFunction,Conductor*%
G36*
X168580246Y-49600501D02*
G01*
X168580943Y-49600501D01*
X168665273Y-49600501D01*
X168673405Y-49603869D01*
X168676773Y-49612001D01*
X168673405Y-49620133D01*
X168672033Y-49621305D01*
X168660208Y-49629896D01*
X168509893Y-49780211D01*
X168384952Y-49952179D01*
X168288441Y-50141591D01*
X168222753Y-50343759D01*
X168189500Y-50553710D01*
X168189500Y-50766289D01*
X168222753Y-50976240D01*
X168257795Y-51084087D01*
X168257105Y-51092862D01*
X168254990Y-51095773D01*
X167131286Y-52219478D01*
X167019479Y-52331284D01*
X166977221Y-52404480D01*
X166940422Y-52468216D01*
X166899499Y-52620943D01*
X166899499Y-52779977D01*
X166899500Y-52779990D01*
X166899500Y-54782669D01*
X166896132Y-54790801D01*
X166888000Y-54794169D01*
X166881611Y-54792231D01*
X166879181Y-54790607D01*
X166733495Y-54730262D01*
X166631106Y-54709896D01*
X166578842Y-54699500D01*
X166421158Y-54699500D01*
X166344357Y-54714776D01*
X166266506Y-54730262D01*
X166266503Y-54730263D01*
X166188901Y-54762405D01*
X166180099Y-54762405D01*
X166173875Y-54756181D01*
X166173875Y-54747379D01*
X166174254Y-54746558D01*
X166185165Y-54725146D01*
X166185166Y-54725144D01*
X166197067Y-54650000D01*
X165250001Y-54650000D01*
X165250000Y-54650001D01*
X165250000Y-54999998D01*
X165250001Y-54999999D01*
X165831482Y-54999999D01*
X165850085Y-54997052D01*
X165858643Y-54999106D01*
X165863242Y-55006611D01*
X165861446Y-55014799D01*
X165790607Y-55120818D01*
X165730262Y-55266503D01*
X165730262Y-55266506D01*
X165699500Y-55421159D01*
X165699500Y-55578840D01*
X165730262Y-55733493D01*
X165730262Y-55733496D01*
X165790607Y-55879181D01*
X165875048Y-56005555D01*
X165878211Y-56010289D01*
X165896132Y-56028210D01*
X165899500Y-56036341D01*
X165899500Y-57690804D01*
X165896132Y-57698936D01*
X165888000Y-57702304D01*
X165886960Y-57702257D01*
X165868031Y-57700537D01*
X165856616Y-57699500D01*
X164143384Y-57699500D01*
X164119868Y-57701636D01*
X164072807Y-57705913D01*
X164072801Y-57705914D01*
X163910396Y-57756521D01*
X163764815Y-57844527D01*
X163668812Y-57940531D01*
X163660680Y-57943899D01*
X163652548Y-57940531D01*
X163643750Y-57931733D01*
X163615258Y-57903240D01*
X163577467Y-57865450D01*
X163423942Y-57711925D01*
X163423941Y-57711923D01*
X163372382Y-57660365D01*
X163369269Y-57657252D01*
X163316488Y-57604471D01*
X163316487Y-57604470D01*
X163298011Y-57593803D01*
X163297372Y-57593406D01*
X163265610Y-57572184D01*
X163202268Y-57529861D01*
X163095049Y-57485451D01*
X163069642Y-57474927D01*
X163069637Y-57474926D01*
X162953932Y-57451913D01*
X162928849Y-57446924D01*
X162928848Y-57446924D01*
X162800923Y-57446924D01*
X162792791Y-57443556D01*
X161818868Y-56469633D01*
X161815500Y-56461501D01*
X161815500Y-55760000D01*
X162250000Y-55760000D01*
X162250000Y-55976608D01*
X162273040Y-55973575D01*
X162380111Y-55923647D01*
X162463648Y-55840110D01*
X162501006Y-55759999D01*
X162250001Y-55759999D01*
X162250000Y-55760000D01*
X161815500Y-55760000D01*
X161815500Y-55521499D01*
X161818868Y-55513367D01*
X161827000Y-55509999D01*
X161999999Y-55509999D01*
X162000000Y-55509998D01*
X162000000Y-55272000D01*
X162003368Y-55263868D01*
X162011500Y-55260500D01*
X162249172Y-55260500D01*
X162249180Y-55260500D01*
X162254751Y-55260061D01*
X162255104Y-55260034D01*
X162256005Y-55259999D01*
X162501006Y-55259999D01*
X162501006Y-55259998D01*
X162474868Y-55203946D01*
X162474483Y-55195153D01*
X162479433Y-55189190D01*
X162577598Y-55131136D01*
X162691135Y-55017599D01*
X162772869Y-54879394D01*
X162772869Y-54879390D01*
X162772871Y-54879389D01*
X162790569Y-54818466D01*
X162817665Y-54725205D01*
X162820500Y-54689182D01*
X162820500Y-54650000D01*
X163802933Y-54650000D01*
X163814833Y-54725141D01*
X163814834Y-54725144D01*
X163872359Y-54838045D01*
X163961954Y-54927640D01*
X164074855Y-54985165D01*
X164074858Y-54985166D01*
X164168516Y-54999999D01*
X164749998Y-54999999D01*
X164750000Y-54999998D01*
X164750000Y-54650001D01*
X164749999Y-54650000D01*
X163802933Y-54650000D01*
X162820500Y-54650000D01*
X162820499Y-54488443D01*
X162820499Y-54290829D01*
X162820499Y-54290821D01*
X162817665Y-54254797D01*
X162787219Y-54149999D01*
X163802932Y-54149999D01*
X163802933Y-54150000D01*
X164749999Y-54150000D01*
X164750000Y-54149999D01*
X164750000Y-53800001D01*
X165250000Y-53800001D01*
X165250000Y-54149999D01*
X165250001Y-54150000D01*
X166197066Y-54150000D01*
X166197066Y-54149999D01*
X166185166Y-54074858D01*
X166185165Y-54074855D01*
X166127640Y-53961954D01*
X166038045Y-53872359D01*
X165925144Y-53814834D01*
X165925141Y-53814833D01*
X165831483Y-53800000D01*
X165250001Y-53800000D01*
X165250000Y-53800001D01*
X164750000Y-53800001D01*
X164749999Y-53800000D01*
X164168517Y-53800000D01*
X164074858Y-53814833D01*
X164074855Y-53814834D01*
X163961954Y-53872359D01*
X163872359Y-53961954D01*
X163814834Y-54074855D01*
X163814833Y-54074858D01*
X163802932Y-54149999D01*
X162787219Y-54149999D01*
X162780016Y-54125207D01*
X162780982Y-54116460D01*
X162787851Y-54110957D01*
X162791059Y-54110500D01*
X163155685Y-54110500D01*
X163155694Y-54110500D01*
X163192569Y-54107598D01*
X163305260Y-54074858D01*
X163350393Y-54061746D01*
X163350394Y-54061744D01*
X163350398Y-54061744D01*
X163491865Y-53978081D01*
X163608081Y-53861865D01*
X163691744Y-53720398D01*
X163691744Y-53720394D01*
X163691746Y-53720393D01*
X163726694Y-53600099D01*
X163737598Y-53562569D01*
X163740500Y-53525694D01*
X163740500Y-52244306D01*
X163737598Y-52207431D01*
X163719479Y-52145066D01*
X163691746Y-52049606D01*
X163648952Y-51977246D01*
X163644860Y-51970325D01*
X163644508Y-51969730D01*
X163990000Y-51969730D01*
X163990000Y-53800268D01*
X163991245Y-53800088D01*
X163991252Y-53800086D01*
X164096188Y-53748786D01*
X164178786Y-53666188D01*
X164230086Y-53561252D01*
X164230087Y-53561249D01*
X164239999Y-53493218D01*
X164239999Y-52964811D01*
X164243367Y-52956679D01*
X164251499Y-52953311D01*
X164259631Y-52956679D01*
X164261061Y-52958422D01*
X164266271Y-52966220D01*
X164363779Y-53063728D01*
X164478423Y-53140330D01*
X164560000Y-53174119D01*
X164560000Y-52686988D01*
X164569940Y-52704205D01*
X164625795Y-52760060D01*
X164694204Y-52799556D01*
X164770504Y-52820000D01*
X164849496Y-52820000D01*
X164925796Y-52799556D01*
X164994205Y-52760060D01*
X165050060Y-52704205D01*
X165060000Y-52686988D01*
X165060000Y-53174119D01*
X165141576Y-53140330D01*
X165256220Y-53063728D01*
X165353728Y-52966220D01*
X165430330Y-52851576D01*
X165483099Y-52724181D01*
X165483099Y-52724178D01*
X165510000Y-52588942D01*
X165510000Y-52220001D01*
X165509999Y-52220000D01*
X165110000Y-52220000D01*
X165110000Y-51720000D01*
X165509999Y-51720000D01*
X165510000Y-51719999D01*
X165510000Y-51351057D01*
X165483099Y-51215821D01*
X165483099Y-51215818D01*
X165430330Y-51088423D01*
X165353728Y-50973779D01*
X165256220Y-50876271D01*
X165141576Y-50799669D01*
X165060000Y-50765879D01*
X165060000Y-51253011D01*
X165050060Y-51235795D01*
X164994205Y-51179940D01*
X164925796Y-51140444D01*
X164849496Y-51120000D01*
X164770504Y-51120000D01*
X164694204Y-51140444D01*
X164625795Y-51179940D01*
X164569940Y-51235795D01*
X164560000Y-51253011D01*
X164560000Y-50765879D01*
X164478423Y-50799669D01*
X164363779Y-50876271D01*
X164266271Y-50973779D01*
X164189669Y-51088423D01*
X164136900Y-51215818D01*
X164136900Y-51215821D01*
X164110000Y-51351057D01*
X164110000Y-51719999D01*
X164110001Y-51720000D01*
X164510000Y-51720000D01*
X164510000Y-52220000D01*
X164104000Y-52220000D01*
X164095868Y-52216632D01*
X164092500Y-52208500D01*
X164092500Y-52019409D01*
X163991247Y-51969912D01*
X163990000Y-51969730D01*
X163644508Y-51969730D01*
X163642526Y-51966378D01*
X163641285Y-51957664D01*
X163646570Y-51950626D01*
X163646608Y-51950603D01*
X163733365Y-51900515D01*
X163840515Y-51793365D01*
X163916281Y-51662135D01*
X163955500Y-51515766D01*
X163955500Y-51364234D01*
X163916281Y-51217865D01*
X163840515Y-51086635D01*
X163733365Y-50979485D01*
X163733364Y-50979484D01*
X163602133Y-50903718D01*
X163602134Y-50903718D01*
X163523414Y-50882625D01*
X163516431Y-50877267D01*
X163515282Y-50868541D01*
X163518256Y-50863387D01*
X164777777Y-49603868D01*
X164785909Y-49600500D01*
X168580230Y-49600500D01*
X168580246Y-49600501D01*
G37*
%TD.AperFunction*%
%TA.AperFunction,Conductor*%
G36*
X168186132Y-47253868D02*
G01*
X168189500Y-47262000D01*
X168189501Y-48388000D01*
X168186133Y-48396132D01*
X168178001Y-48399500D01*
X165456686Y-48399500D01*
X165448554Y-48396132D01*
X165445186Y-48388000D01*
X165446061Y-48383599D01*
X165483099Y-48294181D01*
X165483099Y-48294178D01*
X165510000Y-48158942D01*
X165510000Y-48040001D01*
X165509999Y-48040000D01*
X165110000Y-48040000D01*
X165110000Y-47540000D01*
X165509999Y-47540000D01*
X165510000Y-47539999D01*
X165510000Y-47421057D01*
X165483099Y-47285821D01*
X165483099Y-47285818D01*
X165475056Y-47266401D01*
X165475056Y-47257599D01*
X165481280Y-47251375D01*
X165485681Y-47250500D01*
X168178000Y-47250500D01*
X168186132Y-47253868D01*
G37*
%TD.AperFunction*%
%TD*%
M02*
