%TF.GenerationSoftware,KiCad,Pcbnew,10.0.1*%
%TF.CreationDate,2026-05-06T21:45:56-04:00*%
%TF.ProjectId,devboard,64657662-6f61-4726-942e-6b696361645f,rev?*%
%TF.SameCoordinates,Original*%
%TF.FileFunction,Legend,Bot*%
%TF.FilePolarity,Positive*%
%FSLAX46Y46*%
G04 Gerber Fmt 4.6, Leading zero omitted, Abs format (unit mm)*
G04 Created by KiCad (PCBNEW 10.0.1) date 2026-05-06 21:45:56*
%MOMM*%
%LPD*%
G01*
G04 APERTURE LIST*
%ADD10C,0.100000*%
%ADD11C,0.150000*%
%ADD12C,0.120000*%
%ADD13C,0.000000*%
G04 APERTURE END LIST*
D10*
G36*
X169309309Y-111593970D02*
G01*
X169339471Y-111617768D01*
X169361751Y-111649381D01*
X169368169Y-111676448D01*
X169365116Y-111914951D01*
X169362002Y-112153454D01*
X169368536Y-112368082D01*
X169375008Y-112582711D01*
X169370027Y-112609911D01*
X169355225Y-112632536D01*
X169333094Y-112647838D01*
X169306010Y-112652991D01*
X169299171Y-112652991D01*
X169254376Y-112678027D01*
X169183033Y-112700741D01*
X169120320Y-112712796D01*
X169068972Y-112716434D01*
X168967678Y-112711043D01*
X168885240Y-112696207D01*
X168818555Y-112673541D01*
X168764951Y-112644077D01*
X168706388Y-112596461D01*
X168656577Y-112539474D01*
X168615047Y-112472130D01*
X168584306Y-112399100D01*
X168566105Y-112324775D01*
X168560375Y-112252616D01*
X168698028Y-112252616D01*
X168702356Y-112306642D01*
X168715338Y-112359231D01*
X168737290Y-112411008D01*
X168766885Y-112458770D01*
X168801982Y-112498837D01*
X168842864Y-112531969D01*
X168878490Y-112550759D01*
X168926109Y-112565747D01*
X168988686Y-112575881D01*
X169069644Y-112579658D01*
X169129510Y-112574797D01*
X169179435Y-112561137D01*
X169221257Y-112539480D01*
X169235607Y-112530626D01*
X169224677Y-112158583D01*
X169226753Y-111963066D01*
X169230172Y-111766817D01*
X169001656Y-111872382D01*
X168908443Y-111923499D01*
X168839301Y-111974772D01*
X168786186Y-112026983D01*
X168746854Y-112080296D01*
X168719625Y-112135157D01*
X168703462Y-112192282D01*
X168698028Y-112252616D01*
X168560375Y-112252616D01*
X168560031Y-112248281D01*
X168566187Y-112173609D01*
X168584595Y-112101571D01*
X168615662Y-112031229D01*
X168660437Y-111961819D01*
X168720560Y-111892786D01*
X168791925Y-111829054D01*
X168870398Y-111774044D01*
X168956570Y-111727498D01*
X169051203Y-111689392D01*
X169172775Y-111632789D01*
X169257612Y-111594031D01*
X169282074Y-111587055D01*
X169309309Y-111593970D01*
G37*
G36*
X168155021Y-111940239D02*
G01*
X168209334Y-111955862D01*
X168258454Y-111981537D01*
X168303282Y-112017865D01*
X168344303Y-112066198D01*
X168381038Y-112128061D01*
X168407860Y-112197505D01*
X168424569Y-112275798D01*
X168430399Y-112364480D01*
X168423356Y-112439783D01*
X168403353Y-112503383D01*
X168371080Y-112557588D01*
X168325863Y-112603960D01*
X168276377Y-112636722D01*
X168219202Y-112660789D01*
X168152945Y-112675925D01*
X168075881Y-112681263D01*
X168010706Y-112676300D01*
X167943099Y-112661027D01*
X167872304Y-112634551D01*
X167812444Y-112601440D01*
X167775817Y-112568913D01*
X167756226Y-112536663D01*
X167750000Y-112503332D01*
X167754599Y-112480970D01*
X167768806Y-112461078D01*
X167789090Y-112447329D01*
X167811488Y-112442882D01*
X167827507Y-112446318D01*
X167843870Y-112457535D01*
X167861374Y-112479396D01*
X167880105Y-112499760D01*
X167912843Y-112519598D01*
X167965177Y-112538442D01*
X168027040Y-112552154D01*
X168075819Y-112556210D01*
X168125715Y-112552830D01*
X168169726Y-112543142D01*
X168208749Y-112527573D01*
X168244380Y-112505557D01*
X168276028Y-112477307D01*
X168304003Y-112442210D01*
X168043030Y-112318012D01*
X167942506Y-112267912D01*
X167898194Y-112241198D01*
X167862075Y-112210095D01*
X167838587Y-112179486D01*
X167825338Y-112148853D01*
X167821013Y-112117306D01*
X167821800Y-112110894D01*
X167929640Y-112110894D01*
X167992363Y-112154833D01*
X168105861Y-112215858D01*
X168315605Y-112315997D01*
X168292254Y-112230547D01*
X168264349Y-112166967D01*
X168232929Y-112120847D01*
X168192461Y-112084507D01*
X168146866Y-112063251D01*
X168094260Y-112056001D01*
X168025725Y-112062767D01*
X167971941Y-112081444D01*
X167929640Y-112110894D01*
X167821800Y-112110894D01*
X167826675Y-112071194D01*
X167842883Y-112032812D01*
X167869768Y-112000345D01*
X167909124Y-111972958D01*
X167958437Y-111952741D01*
X168019324Y-111939614D01*
X168094260Y-111934856D01*
X168155021Y-111940239D01*
G37*
G36*
X167166870Y-112122435D02*
G01*
X167190535Y-112119342D01*
X167207467Y-112110957D01*
X167219443Y-112097522D01*
X167227861Y-112075086D01*
X167237212Y-112024738D01*
X167394993Y-112072487D01*
X167449366Y-112099422D01*
X167482338Y-112126136D01*
X167499893Y-112152723D01*
X167505635Y-112180321D01*
X167465334Y-112191189D01*
X167360863Y-112214556D01*
X167285009Y-112240607D01*
X167231716Y-112268187D01*
X167182544Y-112308438D01*
X167148415Y-112355361D01*
X167127657Y-112410209D01*
X167120403Y-112475244D01*
X167126621Y-112528146D01*
X167144437Y-112572568D01*
X167173887Y-112610455D01*
X167216695Y-112642794D01*
X167271855Y-112667564D01*
X167338455Y-112683401D01*
X167418928Y-112689078D01*
X167506676Y-112681570D01*
X167589654Y-112659281D01*
X167640828Y-112635395D01*
X167672273Y-112609985D01*
X167689325Y-112583111D01*
X167694862Y-112553585D01*
X167689613Y-112528490D01*
X167673368Y-112506202D01*
X167650121Y-112490845D01*
X167624520Y-112485868D01*
X167603160Y-112492352D01*
X167569870Y-112518414D01*
X167547657Y-112531009D01*
X167496048Y-112544181D01*
X167418867Y-112552302D01*
X167363423Y-112548681D01*
X167317751Y-112538625D01*
X167279671Y-112520963D01*
X167260365Y-112500302D01*
X167254248Y-112475854D01*
X167258967Y-112442645D01*
X167272756Y-112414331D01*
X167296385Y-112389601D01*
X167332252Y-112368067D01*
X167384063Y-112350314D01*
X167455076Y-112334560D01*
X167538544Y-112310880D01*
X167584220Y-112288032D01*
X167614560Y-112258677D01*
X167632970Y-112221011D01*
X167639541Y-112172322D01*
X167633930Y-112117326D01*
X167617936Y-112070872D01*
X167591896Y-112031170D01*
X167554914Y-111997105D01*
X167504963Y-111968379D01*
X167457500Y-111950063D01*
X167373866Y-111924232D01*
X167290421Y-111898447D01*
X167244722Y-111880757D01*
X167215758Y-111871558D01*
X167183906Y-111868422D01*
X167156903Y-111873316D01*
X167135790Y-111887534D01*
X167121852Y-111909110D01*
X167116983Y-111937360D01*
X167108435Y-111995429D01*
X167099886Y-112053497D01*
X167104755Y-112081748D01*
X167118693Y-112103323D01*
X167139815Y-112117539D01*
X167166870Y-112122435D01*
G37*
G36*
X166816503Y-111786357D02*
G01*
X166847000Y-111780528D01*
X166873229Y-111762909D01*
X166891151Y-111736951D01*
X166897103Y-111706245D01*
X166891149Y-111675550D01*
X166873229Y-111649642D01*
X166846996Y-111631976D01*
X166816503Y-111626133D01*
X166786074Y-111631988D01*
X166760144Y-111649642D01*
X166742463Y-111675526D01*
X166736575Y-111706245D01*
X166742461Y-111736975D01*
X166760144Y-111762909D01*
X166786069Y-111780516D01*
X166816503Y-111786357D01*
G37*
G36*
X166785790Y-112340116D02*
G01*
X166783408Y-112462848D01*
X166780966Y-112585519D01*
X166785724Y-112613282D01*
X166799406Y-112634795D01*
X166820359Y-112648975D01*
X166847889Y-112653907D01*
X166874954Y-112649013D01*
X166896127Y-112634795D01*
X166910045Y-112613257D01*
X166914872Y-112585519D01*
X166917254Y-112462848D01*
X166919635Y-112340116D01*
X166912857Y-112179832D01*
X166906018Y-112019548D01*
X166901161Y-111991240D01*
X166887273Y-111969661D01*
X166866095Y-111955396D01*
X166839035Y-111950488D01*
X166812037Y-111955395D01*
X166790919Y-111969661D01*
X166776983Y-111991245D01*
X166772112Y-112019548D01*
X166778951Y-112179832D01*
X166785790Y-112340116D01*
G37*
G36*
X166281056Y-111955583D02*
G01*
X166347361Y-111970153D01*
X166405792Y-111993500D01*
X166457502Y-112025454D01*
X166503323Y-112066381D01*
X166548657Y-112125482D01*
X166581517Y-112193405D01*
X166602005Y-112271827D01*
X166609202Y-112362953D01*
X166603966Y-112429354D01*
X166589010Y-112486949D01*
X166564943Y-112537255D01*
X166531655Y-112581428D01*
X166490186Y-112618136D01*
X166443593Y-112644155D01*
X166390845Y-112660094D01*
X166330460Y-112665631D01*
X166288124Y-112661125D01*
X166249633Y-112647863D01*
X166214017Y-112625575D01*
X166183202Y-112596222D01*
X166153898Y-112556815D01*
X166126212Y-112505408D01*
X166132018Y-112629957D01*
X166144406Y-112718721D01*
X166161078Y-112779692D01*
X166185591Y-112830102D01*
X166215438Y-112867154D01*
X166250686Y-112893212D01*
X166292310Y-112909455D01*
X166342062Y-112915736D01*
X166410073Y-112913632D01*
X166469129Y-112905111D01*
X166551133Y-112893204D01*
X166578035Y-112897311D01*
X166595593Y-112908262D01*
X166606446Y-112926166D01*
X166610546Y-112953838D01*
X166605956Y-112976714D01*
X166592122Y-112995728D01*
X166566609Y-113011906D01*
X166524450Y-113024607D01*
X166459368Y-113033505D01*
X166372165Y-113036880D01*
X166293320Y-113032188D01*
X166229130Y-113019244D01*
X166177096Y-112999358D01*
X166135127Y-112973255D01*
X166095856Y-112933891D01*
X166062913Y-112880460D01*
X166036758Y-112809734D01*
X166018570Y-112716491D01*
X166008731Y-112586069D01*
X165993039Y-112356175D01*
X165974598Y-112227581D01*
X165963368Y-112150002D01*
X165961855Y-112124572D01*
X166094827Y-112124572D01*
X166112067Y-112256248D01*
X166125540Y-112331934D01*
X166135812Y-112371899D01*
X166157371Y-112413973D01*
X166192524Y-112459124D01*
X166239016Y-112499796D01*
X166283100Y-112521867D01*
X166326369Y-112528855D01*
X166374465Y-112523365D01*
X166411120Y-112508266D01*
X166439087Y-112484220D01*
X166458778Y-112452271D01*
X166471785Y-112408963D01*
X166476639Y-112350863D01*
X166472378Y-112295816D01*
X166460161Y-112247613D01*
X166440445Y-112205097D01*
X166413136Y-112167376D01*
X166375051Y-112133116D01*
X166329921Y-112108317D01*
X166276331Y-112092774D01*
X166212308Y-112087264D01*
X166181302Y-112089581D01*
X166151491Y-112096484D01*
X166122904Y-112107955D01*
X166094827Y-112124572D01*
X165961855Y-112124572D01*
X165960249Y-112097583D01*
X165965414Y-112060848D01*
X165979012Y-112037006D01*
X166000692Y-112022297D01*
X166033339Y-112016189D01*
X166060400Y-111987898D01*
X166098918Y-111966913D01*
X166144852Y-111954946D01*
X166205469Y-111950488D01*
X166281056Y-111955583D01*
G37*
G36*
X165288764Y-112696894D02*
G01*
X165315299Y-112692750D01*
X165334194Y-112681317D01*
X165347436Y-112662195D01*
X165355015Y-112632658D01*
X165374127Y-112483060D01*
X165381408Y-112404216D01*
X165383714Y-112333400D01*
X165381332Y-112268492D01*
X165378951Y-112203585D01*
X165384461Y-112124742D01*
X165397264Y-112082173D01*
X165413678Y-112062073D01*
X165433600Y-112056001D01*
X165468901Y-112060939D01*
X165504389Y-112076294D01*
X165541114Y-112103915D01*
X165579780Y-112146859D01*
X165617252Y-112204380D01*
X165650191Y-112273511D01*
X165678148Y-112355992D01*
X165684316Y-112422976D01*
X165688407Y-112489227D01*
X165684316Y-112550776D01*
X165680225Y-112612264D01*
X165685093Y-112640514D01*
X165699031Y-112662090D01*
X165720150Y-112676356D01*
X165747147Y-112681263D01*
X165774687Y-112676332D01*
X165795690Y-112662151D01*
X165809348Y-112640614D01*
X165814131Y-112612386D01*
X165818588Y-112550959D01*
X165822984Y-112489593D01*
X165813093Y-112294809D01*
X165803140Y-112100087D01*
X165805582Y-112035240D01*
X165807964Y-111970455D01*
X165802989Y-111943482D01*
X165788485Y-111922339D01*
X165766887Y-111908352D01*
X165740308Y-111903593D01*
X165713396Y-111908695D01*
X165693594Y-111923336D01*
X165679245Y-111949405D01*
X165671371Y-111992009D01*
X165669295Y-112071632D01*
X165617725Y-112011169D01*
X165569042Y-111968446D01*
X165522690Y-111940309D01*
X165477879Y-111924383D01*
X165433600Y-111919225D01*
X165381714Y-111925599D01*
X165340469Y-111943518D01*
X165307350Y-111972801D01*
X165281254Y-112015396D01*
X165266033Y-112059370D01*
X165254761Y-112120991D01*
X165249136Y-112205050D01*
X165249136Y-112273927D01*
X165249808Y-112337369D01*
X165246571Y-112397920D01*
X165235153Y-112483731D01*
X165223676Y-112569448D01*
X165220437Y-112629361D01*
X165225441Y-112656913D01*
X165239916Y-112678148D01*
X165261607Y-112692107D01*
X165288764Y-112696894D01*
G37*
G36*
X164840157Y-111940239D02*
G01*
X164894470Y-111955862D01*
X164943590Y-111981537D01*
X164988418Y-112017865D01*
X165029439Y-112066198D01*
X165066174Y-112128061D01*
X165092996Y-112197505D01*
X165109705Y-112275798D01*
X165115535Y-112364480D01*
X165108492Y-112439783D01*
X165088489Y-112503383D01*
X165056216Y-112557588D01*
X165010999Y-112603960D01*
X164961514Y-112636722D01*
X164904338Y-112660789D01*
X164838081Y-112675925D01*
X164761017Y-112681263D01*
X164695842Y-112676300D01*
X164628235Y-112661027D01*
X164557440Y-112634551D01*
X164497580Y-112601440D01*
X164460954Y-112568913D01*
X164441362Y-112536663D01*
X164435136Y-112503332D01*
X164439735Y-112480970D01*
X164453942Y-112461078D01*
X164474226Y-112447329D01*
X164496624Y-112442882D01*
X164512643Y-112446318D01*
X164529006Y-112457535D01*
X164546510Y-112479396D01*
X164565241Y-112499760D01*
X164597980Y-112519598D01*
X164650314Y-112538442D01*
X164712176Y-112552154D01*
X164760956Y-112556210D01*
X164810851Y-112552830D01*
X164854862Y-112543142D01*
X164893885Y-112527573D01*
X164929516Y-112505557D01*
X164961164Y-112477307D01*
X164989139Y-112442210D01*
X164728166Y-112318012D01*
X164627642Y-112267912D01*
X164583330Y-112241198D01*
X164547211Y-112210095D01*
X164523723Y-112179486D01*
X164510475Y-112148853D01*
X164506149Y-112117306D01*
X164506936Y-112110894D01*
X164614776Y-112110894D01*
X164677499Y-112154833D01*
X164790997Y-112215858D01*
X165000741Y-112315997D01*
X164977390Y-112230547D01*
X164949485Y-112166967D01*
X164918065Y-112120847D01*
X164877597Y-112084507D01*
X164832002Y-112063251D01*
X164779396Y-112056001D01*
X164710861Y-112062767D01*
X164657077Y-112081444D01*
X164614776Y-112110894D01*
X164506936Y-112110894D01*
X164511811Y-112071194D01*
X164528020Y-112032812D01*
X164554904Y-112000345D01*
X164594260Y-111972958D01*
X164643573Y-111952741D01*
X164704460Y-111939614D01*
X164779396Y-111934856D01*
X164840157Y-111940239D01*
G37*
G36*
X163749108Y-111566381D02*
G01*
X163769219Y-111585508D01*
X163780931Y-111620943D01*
X163791607Y-111744812D01*
X163803463Y-112010511D01*
X163867698Y-111963372D01*
X163897506Y-111950592D01*
X163937371Y-111941985D01*
X163989942Y-111938764D01*
X164065079Y-111945931D01*
X164130814Y-111966602D01*
X164189036Y-112000484D01*
X164241024Y-112048551D01*
X164282079Y-112105803D01*
X164312133Y-112172288D01*
X164331017Y-112249740D01*
X164337683Y-112340361D01*
X164331342Y-112414352D01*
X164313119Y-112479096D01*
X164283511Y-112536289D01*
X164242062Y-112587168D01*
X164192725Y-112628227D01*
X164138021Y-112657330D01*
X164076858Y-112675111D01*
X164007711Y-112681263D01*
X163951326Y-112676612D01*
X163897435Y-112662761D01*
X163845957Y-112640132D01*
X163795280Y-112608112D01*
X163777735Y-112644860D01*
X163757286Y-112663587D01*
X163733121Y-112669539D01*
X163709421Y-112665130D01*
X163688668Y-112651770D01*
X163674393Y-112631743D01*
X163669556Y-112606646D01*
X163670961Y-112590893D01*
X163685905Y-112460671D01*
X163692088Y-112246938D01*
X163690679Y-112177695D01*
X163815064Y-112177695D01*
X163816468Y-112257745D01*
X163817140Y-112336453D01*
X163815064Y-112453872D01*
X163834909Y-112474938D01*
X163884509Y-112514254D01*
X163910746Y-112531236D01*
X163953247Y-112546699D01*
X164007711Y-112552302D01*
X164061145Y-112545346D01*
X164109470Y-112524697D01*
X164154256Y-112489227D01*
X164189183Y-112444037D01*
X164209736Y-112394360D01*
X164216721Y-112338529D01*
X164212444Y-112269466D01*
X164200720Y-112214147D01*
X164182813Y-112170094D01*
X164159385Y-112135258D01*
X164128494Y-112106706D01*
X164090585Y-112085790D01*
X164044170Y-112072497D01*
X163987194Y-112067725D01*
X163930326Y-112074880D01*
X163884124Y-112095202D01*
X163846100Y-112128656D01*
X163815064Y-112177695D01*
X163690679Y-112177695D01*
X163690044Y-112146463D01*
X163683906Y-112045865D01*
X163661580Y-111748948D01*
X163656612Y-111626011D01*
X163660987Y-111595492D01*
X163672483Y-111575927D01*
X163690869Y-111564100D01*
X163718771Y-111559699D01*
X163749108Y-111566381D01*
G37*
G36*
X169338902Y-113259757D02*
G01*
X169359272Y-113273009D01*
X169377023Y-113296913D01*
X169389737Y-113331222D01*
X169394120Y-113370553D01*
X169394792Y-113559719D01*
X169395464Y-113748213D01*
X169391739Y-113964734D01*
X169387953Y-114181133D01*
X169389663Y-114233646D01*
X169391372Y-114286158D01*
X169386780Y-114311286D01*
X169373299Y-114331465D01*
X169353248Y-114345005D01*
X169329213Y-114349539D01*
X169309905Y-114346121D01*
X169292385Y-114335687D01*
X169275907Y-114316749D01*
X169217766Y-114339042D01*
X169154765Y-114352676D01*
X169086008Y-114357355D01*
X169013401Y-114350386D01*
X168948533Y-114330104D01*
X168889777Y-114296567D01*
X168836025Y-114248667D01*
X168792124Y-114191446D01*
X168761024Y-114129067D01*
X168742093Y-114060453D01*
X168735611Y-113984518D01*
X168859900Y-113984518D01*
X168864091Y-114035725D01*
X168876188Y-114081157D01*
X168895893Y-114121838D01*
X168923464Y-114158541D01*
X168957497Y-114189145D01*
X168995344Y-114210712D01*
X169037796Y-114223850D01*
X169086008Y-114228394D01*
X169137108Y-114225000D01*
X169181018Y-114215389D01*
X169273220Y-114176981D01*
X169273892Y-114064630D01*
X169274563Y-113957773D01*
X169273220Y-113839255D01*
X169174851Y-113771416D01*
X169115536Y-113747447D01*
X169060057Y-113739909D01*
X169014958Y-113744687D01*
X168975893Y-113758474D01*
X168941549Y-113781225D01*
X168911130Y-113813914D01*
X168883266Y-113861937D01*
X168865983Y-113918145D01*
X168859900Y-113984518D01*
X168735611Y-113984518D01*
X168735580Y-113984152D01*
X168741297Y-113907759D01*
X168757786Y-113839760D01*
X168784533Y-113778777D01*
X168821676Y-113723728D01*
X168871449Y-113673946D01*
X168926864Y-113639225D01*
X168989109Y-113618207D01*
X169060057Y-113610949D01*
X169107582Y-113615740D01*
X169160868Y-113631099D01*
X169214262Y-113655398D01*
X169273892Y-113691549D01*
X169272548Y-113518136D01*
X169270472Y-113369820D01*
X169267053Y-113342037D01*
X169263633Y-113314255D01*
X169267362Y-113286750D01*
X169277036Y-113269393D01*
X169292210Y-113259106D01*
X169314863Y-113255331D01*
X169338902Y-113259757D01*
G37*
G36*
X167978916Y-113720980D02*
G01*
X168215282Y-114231753D01*
X168295995Y-114411234D01*
X168349188Y-114543834D01*
X168394251Y-114676336D01*
X168409806Y-114704191D01*
X168429861Y-114719498D01*
X168455739Y-114724696D01*
X168482559Y-114719996D01*
X168505321Y-114706011D01*
X168520941Y-114685073D01*
X168526142Y-114659544D01*
X168517272Y-114610809D01*
X168476862Y-114495277D01*
X168378558Y-114266802D01*
X168623107Y-113794192D01*
X168653881Y-113744122D01*
X168668354Y-113713238D01*
X168672322Y-113691304D01*
X168667070Y-113665947D01*
X168650828Y-113643372D01*
X168627647Y-113627694D01*
X168602651Y-113622672D01*
X168574417Y-113628386D01*
X168554108Y-113644837D01*
X168481688Y-113756458D01*
X168398968Y-113907570D01*
X168304797Y-114106334D01*
X168203681Y-113868258D01*
X168148259Y-113751209D01*
X168098473Y-113657782D01*
X168081436Y-113635193D01*
X168062601Y-113622833D01*
X168041076Y-113618764D01*
X168014884Y-113623708D01*
X167991617Y-113638792D01*
X167975362Y-113660911D01*
X167970062Y-113686420D01*
X167972086Y-113701905D01*
X167978916Y-113720980D01*
G37*
G36*
X167432056Y-114157381D02*
G01*
X167427439Y-114130800D01*
X167412578Y-114109998D01*
X167390357Y-114096301D01*
X167363058Y-114091618D01*
X167342666Y-114095502D01*
X167323358Y-114107644D01*
X167304317Y-114130270D01*
X167268714Y-114177293D01*
X167242158Y-114201467D01*
X167201490Y-114221577D01*
X167146585Y-114235065D01*
X167073447Y-114240118D01*
X167003938Y-114235002D01*
X166938633Y-114219909D01*
X166876709Y-114194872D01*
X166822975Y-114160641D01*
X166787770Y-114122888D01*
X166767443Y-114081071D01*
X166760572Y-114033489D01*
X166766293Y-113994417D01*
X166783297Y-113959766D01*
X166812897Y-113928156D01*
X166858269Y-113899155D01*
X166914878Y-113876012D01*
X166982275Y-113860367D01*
X167062456Y-113853237D01*
X167133326Y-113845726D01*
X167194066Y-113829731D01*
X167246249Y-113805976D01*
X167289902Y-113774112D01*
X167319490Y-113737711D01*
X167337126Y-113695985D01*
X167343213Y-113647219D01*
X167338270Y-113601845D01*
X167323297Y-113557683D01*
X167297403Y-113513830D01*
X167258860Y-113469632D01*
X167205216Y-113424713D01*
X167136511Y-113381911D01*
X167068675Y-113352506D01*
X167000995Y-113335278D01*
X166932641Y-113329581D01*
X166864706Y-113334787D01*
X166783042Y-113351929D01*
X166725463Y-113371344D01*
X166692977Y-113390264D01*
X166677121Y-113408315D01*
X166672400Y-113426362D01*
X166676542Y-113453256D01*
X166687610Y-113470854D01*
X166705763Y-113481766D01*
X166733888Y-113485896D01*
X166766092Y-113483156D01*
X166829509Y-113471913D01*
X166894270Y-113461044D01*
X166935389Y-113458541D01*
X167004857Y-113465376D01*
X167064615Y-113483152D01*
X167116434Y-113511297D01*
X167151538Y-113540769D01*
X167174887Y-113571527D01*
X167188415Y-113604080D01*
X167192943Y-113639403D01*
X167187851Y-113663227D01*
X167172057Y-113684150D01*
X167142131Y-113703153D01*
X167091826Y-113719576D01*
X167045442Y-113727113D01*
X166946318Y-113736001D01*
X166868611Y-113747311D01*
X166803187Y-113767840D01*
X166748084Y-113796783D01*
X166701770Y-113834003D01*
X166666247Y-113876052D01*
X166641355Y-113921587D01*
X166626321Y-113971408D01*
X166621170Y-114026650D01*
X166627179Y-114088846D01*
X166644703Y-114144669D01*
X166673755Y-114195494D01*
X166715353Y-114242254D01*
X166771441Y-114285364D01*
X166838266Y-114321531D01*
X166910373Y-114347598D01*
X166988641Y-114363586D01*
X167074118Y-114369078D01*
X167156349Y-114363525D01*
X167232283Y-114347287D01*
X167302913Y-114320657D01*
X167362589Y-114285155D01*
X167401427Y-114246572D01*
X167423897Y-114204526D01*
X167432056Y-114157381D01*
G37*
G36*
X166209697Y-113622250D02*
G01*
X166279488Y-113643971D01*
X166344199Y-113680227D01*
X166404893Y-113732398D01*
X166454938Y-113794619D01*
X166490083Y-113861692D01*
X166511320Y-113934733D01*
X166518588Y-114015293D01*
X166513359Y-114104775D01*
X166499112Y-114175723D01*
X166477533Y-114231517D01*
X166449590Y-114274984D01*
X166410021Y-114312703D01*
X166359774Y-114340644D01*
X166296423Y-114358635D01*
X166216643Y-114365170D01*
X166181606Y-114361252D01*
X166133356Y-114347402D01*
X166082077Y-114326552D01*
X166017890Y-114294829D01*
X166000284Y-114316260D01*
X165972095Y-114343616D01*
X165939547Y-114367839D01*
X165924956Y-114372986D01*
X165901309Y-114368580D01*
X165880565Y-114355218D01*
X165866287Y-114335199D01*
X165861453Y-114310155D01*
X165865544Y-114298553D01*
X165881236Y-114262344D01*
X165912923Y-114179214D01*
X165916225Y-114168433D01*
X166045184Y-114168433D01*
X166087848Y-114203186D01*
X166114183Y-114220212D01*
X166163179Y-114237702D01*
X166225497Y-114244026D01*
X166275464Y-114237384D01*
X166314173Y-114218787D01*
X166344382Y-114188217D01*
X166364913Y-114148828D01*
X166378777Y-114094467D01*
X166384010Y-114020666D01*
X166379179Y-113965963D01*
X166364939Y-113915205D01*
X166341187Y-113867494D01*
X166307196Y-113822158D01*
X166265761Y-113783560D01*
X166222032Y-113757054D01*
X166175290Y-113741325D01*
X166124441Y-113736001D01*
X166095437Y-113742168D01*
X166052023Y-113761219D01*
X166063319Y-113834431D01*
X166067044Y-113898056D01*
X166062476Y-113999196D01*
X166045184Y-114168433D01*
X165916225Y-114168433D01*
X165924284Y-114142116D01*
X165932948Y-114088530D01*
X165935886Y-114008271D01*
X165931489Y-113855985D01*
X165920865Y-113770561D01*
X165910591Y-113755041D01*
X165907248Y-113737772D01*
X165911851Y-113714540D01*
X165926468Y-113691952D01*
X165954187Y-113669011D01*
X166000122Y-113645570D01*
X166072850Y-113621956D01*
X166133295Y-113614856D01*
X166209697Y-113622250D01*
G37*
G36*
X165285406Y-113748030D02*
G01*
X165319234Y-113746687D01*
X165353000Y-113745282D01*
X165445935Y-113755540D01*
X165432929Y-114158785D01*
X165432257Y-114188766D01*
X165431585Y-114223571D01*
X165434909Y-114288047D01*
X165445395Y-114329401D01*
X165460495Y-114354514D01*
X165479403Y-114368315D01*
X165503332Y-114372986D01*
X165528888Y-114368526D01*
X165550776Y-114355218D01*
X165565897Y-114335200D01*
X165570926Y-114310765D01*
X165568911Y-114232791D01*
X165566835Y-114154877D01*
X165580451Y-113755540D01*
X165732126Y-113744000D01*
X165759754Y-113736240D01*
X165777906Y-113722869D01*
X165788919Y-113703682D01*
X165792943Y-113676589D01*
X165788210Y-113648891D01*
X165774502Y-113626946D01*
X165753679Y-113612185D01*
X165727363Y-113607163D01*
X165583871Y-113618764D01*
X165586985Y-113526135D01*
X165590038Y-113442299D01*
X165585030Y-113416109D01*
X165570254Y-113395160D01*
X165548356Y-113381209D01*
X165521711Y-113376475D01*
X165496035Y-113381825D01*
X165475935Y-113397749D01*
X165460172Y-113427198D01*
X165450026Y-113476493D01*
X165447950Y-113537065D01*
X165449293Y-113576571D01*
X165450026Y-113618764D01*
X165353000Y-113607834D01*
X165288045Y-113610054D01*
X165260127Y-113614673D01*
X165237173Y-113627696D01*
X165223470Y-113648221D01*
X165218422Y-113678970D01*
X165223249Y-113706713D01*
X165237229Y-113728551D01*
X165258381Y-113743052D01*
X165285406Y-113748030D01*
G37*
G36*
X164843088Y-113620239D02*
G01*
X164897401Y-113635862D01*
X164946521Y-113661537D01*
X164991349Y-113697865D01*
X165032370Y-113746198D01*
X165069105Y-113808061D01*
X165095927Y-113877505D01*
X165112636Y-113955798D01*
X165118466Y-114044480D01*
X165111423Y-114119783D01*
X165091420Y-114183383D01*
X165059147Y-114237588D01*
X165013930Y-114283960D01*
X164964444Y-114316722D01*
X164907269Y-114340789D01*
X164841012Y-114355925D01*
X164763948Y-114361263D01*
X164698773Y-114356300D01*
X164631166Y-114341027D01*
X164560371Y-114314551D01*
X164500511Y-114281440D01*
X164463884Y-114248913D01*
X164444293Y-114216663D01*
X164438066Y-114183332D01*
X164442666Y-114160970D01*
X164456873Y-114141078D01*
X164477157Y-114127329D01*
X164499555Y-114122882D01*
X164515574Y-114126318D01*
X164531937Y-114137535D01*
X164549441Y-114159396D01*
X164568172Y-114179760D01*
X164600910Y-114199598D01*
X164653244Y-114218442D01*
X164715107Y-114232154D01*
X164763886Y-114236210D01*
X164813782Y-114232830D01*
X164857793Y-114223142D01*
X164896816Y-114207573D01*
X164932447Y-114185557D01*
X164964095Y-114157307D01*
X164992070Y-114122210D01*
X164731097Y-113998012D01*
X164630573Y-113947912D01*
X164586261Y-113921198D01*
X164550142Y-113890095D01*
X164526654Y-113859486D01*
X164513405Y-113828853D01*
X164509080Y-113797306D01*
X164509867Y-113790894D01*
X164617707Y-113790894D01*
X164680430Y-113834833D01*
X164793928Y-113895858D01*
X165003672Y-113995997D01*
X164980321Y-113910547D01*
X164952416Y-113846967D01*
X164920996Y-113800847D01*
X164880528Y-113764507D01*
X164834933Y-113743251D01*
X164782327Y-113736001D01*
X164713792Y-113742767D01*
X164660008Y-113761444D01*
X164617707Y-113790894D01*
X164509867Y-113790894D01*
X164514742Y-113751194D01*
X164530950Y-113712812D01*
X164557835Y-113680345D01*
X164597191Y-113652958D01*
X164646504Y-113632741D01*
X164707391Y-113619614D01*
X164782327Y-113614856D01*
X164843088Y-113620239D01*
G37*
G36*
X164091913Y-113466357D02*
G01*
X164122381Y-113460609D01*
X164148272Y-113443337D01*
X164166006Y-113418003D01*
X164171842Y-113388565D01*
X164165971Y-113358498D01*
X164148272Y-113333061D01*
X164122381Y-113315789D01*
X164091913Y-113310041D01*
X164061394Y-113315780D01*
X164035249Y-113333061D01*
X164017263Y-113358527D01*
X164011313Y-113388565D01*
X164017228Y-113417975D01*
X164035249Y-113443337D01*
X164061394Y-113460619D01*
X164091913Y-113466357D01*
G37*
G36*
X164097409Y-114486437D02*
G01*
X164101102Y-114376892D01*
X164120612Y-114077941D01*
X164143876Y-113702173D01*
X164138963Y-113669798D01*
X164124398Y-113641479D01*
X164101968Y-113621346D01*
X164074877Y-113614856D01*
X164052264Y-113618900D01*
X164028410Y-113631953D01*
X164009846Y-113650309D01*
X164003803Y-113666758D01*
X163981271Y-114059928D01*
X163962831Y-114480453D01*
X163969161Y-114541867D01*
X163987913Y-114598789D01*
X164019556Y-114652461D01*
X164053554Y-114690673D01*
X164089325Y-114716356D01*
X164127475Y-114731368D01*
X164169094Y-114736420D01*
X164212609Y-114731166D01*
X164254115Y-114715301D01*
X164294667Y-114687756D01*
X164334922Y-114646343D01*
X164375107Y-114587929D01*
X164415047Y-114508602D01*
X164423229Y-114475629D01*
X164417944Y-114450179D01*
X164401735Y-114428124D01*
X164378515Y-114413055D01*
X164352887Y-114408157D01*
X164330022Y-114415193D01*
X164302805Y-114441008D01*
X164268867Y-114497672D01*
X164230582Y-114565205D01*
X164210988Y-114585060D01*
X164190769Y-114596056D01*
X164169155Y-114599644D01*
X164151575Y-114595431D01*
X164134751Y-114581740D01*
X164117925Y-114554642D01*
X164104460Y-114520112D01*
X164097409Y-114486437D01*
G37*
G36*
X162541032Y-113916191D02*
G01*
X162569170Y-114019046D01*
X162608386Y-114108065D01*
X162658267Y-114185079D01*
X162719024Y-114251475D01*
X162775862Y-114297080D01*
X162835662Y-114331922D01*
X162898953Y-114356722D01*
X162966455Y-114371768D01*
X163039043Y-114376894D01*
X163122802Y-114370188D01*
X163190851Y-114351559D01*
X163246204Y-114322394D01*
X163291102Y-114282861D01*
X163325627Y-114234057D01*
X163351834Y-114172719D01*
X163368909Y-114096085D01*
X163375122Y-114000760D01*
X163370150Y-113913767D01*
X163354973Y-113824349D01*
X163329016Y-113731925D01*
X163291468Y-113635922D01*
X163245055Y-113543742D01*
X163193713Y-113463156D01*
X163137573Y-113393086D01*
X163076596Y-113332634D01*
X163030325Y-113297593D01*
X162984473Y-113273782D01*
X162938438Y-113259916D01*
X162891460Y-113255331D01*
X162850553Y-113259053D01*
X162796948Y-113271852D01*
X162727512Y-113296608D01*
X162664304Y-113327100D01*
X162627436Y-113355080D01*
X162608824Y-113380905D01*
X162603192Y-113405907D01*
X162608233Y-113432312D01*
X162623709Y-113456099D01*
X162646369Y-113472649D01*
X162672862Y-113478080D01*
X162688824Y-113474577D01*
X162715239Y-113460678D01*
X162787361Y-113421993D01*
X162845048Y-113401934D01*
X162891460Y-113396015D01*
X162923785Y-113401169D01*
X162959063Y-113417883D01*
X162998743Y-113449321D01*
X163028889Y-113482166D01*
X163079344Y-113546407D01*
X163137247Y-113633402D01*
X163181256Y-113721660D01*
X163212293Y-113811752D01*
X163230881Y-113904375D01*
X163237124Y-114000333D01*
X163231534Y-114085987D01*
X163217368Y-114143332D01*
X163197496Y-114180157D01*
X163174034Y-114202854D01*
X163141592Y-114220254D01*
X163097689Y-114231866D01*
X163039043Y-114236210D01*
X162979147Y-114231239D01*
X162924388Y-114216700D01*
X162873774Y-114192696D01*
X162826552Y-114158724D01*
X162784161Y-114115027D01*
X162747875Y-114062190D01*
X162717698Y-113998924D01*
X162694050Y-113923579D01*
X162819086Y-113936355D01*
X162926442Y-113960399D01*
X163018527Y-113994471D01*
X163049241Y-114001737D01*
X163076772Y-113996085D01*
X163099127Y-113979145D01*
X163112976Y-113956808D01*
X163117568Y-113931273D01*
X163113674Y-113908862D01*
X163102062Y-113889679D01*
X163081359Y-113872777D01*
X163025040Y-113844823D01*
X162950383Y-113820474D01*
X162853256Y-113800923D01*
X162729003Y-113787758D01*
X162572479Y-113782896D01*
X162545356Y-113787917D01*
X162523325Y-113802740D01*
X162508533Y-113824873D01*
X162503480Y-113852627D01*
X162507833Y-113879931D01*
X162520130Y-113900563D01*
X162541032Y-113916191D01*
G37*
G36*
X162133773Y-113622250D02*
G01*
X162203563Y-113643971D01*
X162268275Y-113680227D01*
X162328968Y-113732398D01*
X162379013Y-113794619D01*
X162414159Y-113861692D01*
X162435395Y-113934733D01*
X162442663Y-114015293D01*
X162437435Y-114104775D01*
X162423187Y-114175723D01*
X162401608Y-114231517D01*
X162373665Y-114274984D01*
X162334097Y-114312703D01*
X162283850Y-114340644D01*
X162220498Y-114358635D01*
X162140718Y-114365170D01*
X162105682Y-114361252D01*
X162057431Y-114347402D01*
X162006152Y-114326552D01*
X161941966Y-114294829D01*
X161924360Y-114316260D01*
X161896170Y-114343616D01*
X161863623Y-114367839D01*
X161849031Y-114372986D01*
X161825384Y-114368580D01*
X161804640Y-114355218D01*
X161790362Y-114335199D01*
X161785528Y-114310155D01*
X161789619Y-114298553D01*
X161805312Y-114262344D01*
X161836998Y-114179214D01*
X161840300Y-114168433D01*
X161969260Y-114168433D01*
X162011924Y-114203186D01*
X162038258Y-114220212D01*
X162087255Y-114237702D01*
X162149572Y-114244026D01*
X162199540Y-114237384D01*
X162238248Y-114218787D01*
X162268457Y-114188217D01*
X162288988Y-114148828D01*
X162302852Y-114094467D01*
X162308086Y-114020666D01*
X162303255Y-113965963D01*
X162289014Y-113915205D01*
X162265262Y-113867494D01*
X162231271Y-113822158D01*
X162189836Y-113783560D01*
X162146108Y-113757054D01*
X162099366Y-113741325D01*
X162048517Y-113736001D01*
X162019513Y-113742168D01*
X161976099Y-113761219D01*
X161987395Y-113834431D01*
X161991120Y-113898056D01*
X161986552Y-113999196D01*
X161969260Y-114168433D01*
X161840300Y-114168433D01*
X161848360Y-114142116D01*
X161857023Y-114088530D01*
X161859961Y-114008271D01*
X161855565Y-113855985D01*
X161844940Y-113770561D01*
X161834667Y-113755041D01*
X161831324Y-113737772D01*
X161835927Y-113714540D01*
X161850544Y-113691952D01*
X161878263Y-113669011D01*
X161924197Y-113645570D01*
X161996925Y-113621956D01*
X162057370Y-113614856D01*
X162133773Y-113622250D01*
G37*
G36*
X161142498Y-114376894D02*
G01*
X161169033Y-114372750D01*
X161187927Y-114361317D01*
X161201169Y-114342195D01*
X161208749Y-114312658D01*
X161227861Y-114163060D01*
X161235142Y-114084216D01*
X161237447Y-114013400D01*
X161235066Y-113948492D01*
X161232684Y-113883585D01*
X161238194Y-113804742D01*
X161250998Y-113762173D01*
X161267412Y-113742073D01*
X161287334Y-113736001D01*
X161322635Y-113740939D01*
X161358123Y-113756294D01*
X161394847Y-113783915D01*
X161433513Y-113826859D01*
X161470985Y-113884380D01*
X161503925Y-113953511D01*
X161531882Y-114035992D01*
X161538049Y-114102976D01*
X161542140Y-114169227D01*
X161538049Y-114230776D01*
X161533958Y-114292264D01*
X161538826Y-114320514D01*
X161552765Y-114342090D01*
X161573883Y-114356356D01*
X161600881Y-114361263D01*
X161628420Y-114356332D01*
X161649424Y-114342151D01*
X161663082Y-114320614D01*
X161667864Y-114292386D01*
X161672322Y-114230959D01*
X161676718Y-114169593D01*
X161666826Y-113974809D01*
X161656873Y-113780087D01*
X161659316Y-113715240D01*
X161661697Y-113650455D01*
X161656722Y-113623482D01*
X161642219Y-113602339D01*
X161620620Y-113588352D01*
X161594042Y-113583593D01*
X161567130Y-113588695D01*
X161547327Y-113603336D01*
X161532979Y-113629405D01*
X161525104Y-113672009D01*
X161523028Y-113751632D01*
X161471459Y-113691169D01*
X161422776Y-113648446D01*
X161376424Y-113620309D01*
X161331612Y-113604383D01*
X161287334Y-113599225D01*
X161235448Y-113605599D01*
X161194203Y-113623518D01*
X161161083Y-113652801D01*
X161134987Y-113695396D01*
X161119767Y-113739370D01*
X161108495Y-113800991D01*
X161102869Y-113885050D01*
X161102869Y-113953927D01*
X161103541Y-114017369D01*
X161100305Y-114077920D01*
X161088886Y-114163731D01*
X161077410Y-114249448D01*
X161074171Y-114309361D01*
X161079175Y-114336913D01*
X161093649Y-114358148D01*
X161115340Y-114372107D01*
X161142498Y-114376894D01*
G37*
G36*
X160369764Y-113246381D02*
G01*
X160389875Y-113265508D01*
X160401587Y-113300943D01*
X160412263Y-113424812D01*
X160424118Y-113690511D01*
X160488354Y-113643372D01*
X160518162Y-113630592D01*
X160558027Y-113621985D01*
X160610598Y-113618764D01*
X160685735Y-113625931D01*
X160751470Y-113646602D01*
X160809692Y-113680484D01*
X160861680Y-113728551D01*
X160902735Y-113785803D01*
X160932789Y-113852288D01*
X160951673Y-113929740D01*
X160958339Y-114020361D01*
X160951998Y-114094352D01*
X160933775Y-114159096D01*
X160904167Y-114216289D01*
X160862718Y-114267168D01*
X160813381Y-114308227D01*
X160758677Y-114337330D01*
X160697514Y-114355111D01*
X160628367Y-114361263D01*
X160571982Y-114356612D01*
X160518091Y-114342761D01*
X160466613Y-114320132D01*
X160415936Y-114288112D01*
X160398391Y-114324860D01*
X160377942Y-114343587D01*
X160353777Y-114349539D01*
X160330077Y-114345130D01*
X160309324Y-114331770D01*
X160295049Y-114311743D01*
X160290212Y-114286646D01*
X160291617Y-114270893D01*
X160306561Y-114140671D01*
X160312744Y-113926938D01*
X160311335Y-113857695D01*
X160435720Y-113857695D01*
X160437124Y-113937745D01*
X160437796Y-114016453D01*
X160435720Y-114133872D01*
X160455565Y-114154938D01*
X160505165Y-114194254D01*
X160531402Y-114211236D01*
X160573903Y-114226699D01*
X160628367Y-114232302D01*
X160681801Y-114225346D01*
X160730126Y-114204697D01*
X160774912Y-114169227D01*
X160809839Y-114124037D01*
X160830392Y-114074360D01*
X160837377Y-114018529D01*
X160833100Y-113949466D01*
X160821376Y-113894147D01*
X160803469Y-113850094D01*
X160780041Y-113815258D01*
X160749150Y-113786706D01*
X160711241Y-113765790D01*
X160664826Y-113752497D01*
X160607850Y-113747725D01*
X160550982Y-113754880D01*
X160504780Y-113775202D01*
X160466756Y-113808656D01*
X160435720Y-113857695D01*
X160311335Y-113857695D01*
X160310700Y-113826463D01*
X160304562Y-113725865D01*
X160282236Y-113428948D01*
X160277267Y-113306011D01*
X160281643Y-113275492D01*
X160293139Y-113255927D01*
X160311525Y-113244100D01*
X160339427Y-113239699D01*
X160369764Y-113246381D01*
G37*
G36*
X159580626Y-113826371D02*
G01*
X159587811Y-113867272D01*
X159601755Y-113892479D01*
X159621528Y-113906806D01*
X159648953Y-113911856D01*
X159674948Y-113907536D01*
X159692346Y-113895775D01*
X159703425Y-113875953D01*
X159707693Y-113844567D01*
X159709708Y-113797001D01*
X159711784Y-113739909D01*
X159782331Y-113753304D01*
X159839140Y-113773827D01*
X159884586Y-113800603D01*
X159921320Y-113833488D01*
X159955055Y-113877363D01*
X159985703Y-113934265D01*
X159984359Y-114308018D01*
X159989023Y-114339436D01*
X160001373Y-114359776D01*
X160021366Y-114372223D01*
X160052015Y-114376894D01*
X160078581Y-114372466D01*
X160096379Y-114360399D01*
X160107725Y-114340039D01*
X160112098Y-114307773D01*
X160112098Y-113827287D01*
X160110389Y-113759570D01*
X160108679Y-113691793D01*
X160104305Y-113659527D01*
X160092959Y-113639167D01*
X160075162Y-113627101D01*
X160048595Y-113622672D01*
X160021423Y-113628732D01*
X160001333Y-113646703D01*
X159987040Y-113680513D01*
X159980940Y-113738504D01*
X159925155Y-113690974D01*
X159868688Y-113655415D01*
X159811092Y-113630633D01*
X159751755Y-113615892D01*
X159689924Y-113610949D01*
X159655294Y-113615848D01*
X159628393Y-113629656D01*
X159607309Y-113652653D01*
X159593222Y-113681884D01*
X159583606Y-113722680D01*
X159579954Y-113778499D01*
X159580626Y-113826371D01*
G37*
G36*
X159200101Y-113620239D02*
G01*
X159254415Y-113635862D01*
X159303534Y-113661537D01*
X159348362Y-113697865D01*
X159389384Y-113746198D01*
X159426118Y-113808061D01*
X159452940Y-113877505D01*
X159469649Y-113955798D01*
X159475479Y-114044480D01*
X159468436Y-114119783D01*
X159448433Y-114183383D01*
X159416160Y-114237588D01*
X159370943Y-114283960D01*
X159321458Y-114316722D01*
X159264282Y-114340789D01*
X159198025Y-114355925D01*
X159120961Y-114361263D01*
X159055786Y-114356300D01*
X158988179Y-114341027D01*
X158917384Y-114314551D01*
X158857524Y-114281440D01*
X158820898Y-114248913D01*
X158801306Y-114216663D01*
X158795080Y-114183332D01*
X158799679Y-114160970D01*
X158813886Y-114141078D01*
X158834170Y-114127329D01*
X158856568Y-114122882D01*
X158872587Y-114126318D01*
X158888950Y-114137535D01*
X158906454Y-114159396D01*
X158925186Y-114179760D01*
X158957924Y-114199598D01*
X159010258Y-114218442D01*
X159072120Y-114232154D01*
X159120900Y-114236210D01*
X159170795Y-114232830D01*
X159214806Y-114223142D01*
X159253829Y-114207573D01*
X159289461Y-114185557D01*
X159321108Y-114157307D01*
X159349084Y-114122210D01*
X159088110Y-113998012D01*
X158987586Y-113947912D01*
X158943274Y-113921198D01*
X158907155Y-113890095D01*
X158883667Y-113859486D01*
X158870419Y-113828853D01*
X158866093Y-113797306D01*
X158866880Y-113790894D01*
X158974720Y-113790894D01*
X159037443Y-113834833D01*
X159150942Y-113895858D01*
X159360685Y-113995997D01*
X159337334Y-113910547D01*
X159309429Y-113846967D01*
X159278009Y-113800847D01*
X159237541Y-113764507D01*
X159191946Y-113743251D01*
X159139340Y-113736001D01*
X159070805Y-113742767D01*
X159017022Y-113761444D01*
X158974720Y-113790894D01*
X158866880Y-113790894D01*
X158871755Y-113751194D01*
X158887964Y-113712812D01*
X158914848Y-113680345D01*
X158954204Y-113652958D01*
X159003517Y-113632741D01*
X159064404Y-113619614D01*
X159139340Y-113614856D01*
X159200101Y-113620239D01*
G37*
G36*
X164895654Y-69369455D02*
G01*
X164906986Y-69354673D01*
X164921387Y-69327142D01*
X164935716Y-69299650D01*
X164946688Y-69285261D01*
X165023715Y-69214452D01*
X165101217Y-69143168D01*
X165162182Y-69092565D01*
X165223147Y-69041962D01*
X165236661Y-69024562D01*
X165250176Y-69007162D01*
X165266329Y-68983605D01*
X165269914Y-68959118D01*
X165261142Y-68931171D01*
X165245154Y-68907153D01*
X165208726Y-68867184D01*
X165148358Y-68815236D01*
X165088258Y-68779034D01*
X165027699Y-68756609D01*
X164965686Y-68746851D01*
X164888632Y-68751484D01*
X164698424Y-68781910D01*
X164589831Y-68798226D01*
X164532151Y-68800174D01*
X164476084Y-68790431D01*
X164426448Y-68768217D01*
X164381768Y-68732862D01*
X164367035Y-68710351D01*
X164361353Y-68679820D01*
X164366742Y-68637615D01*
X164385908Y-68585256D01*
X164414021Y-68546815D01*
X164445754Y-68520714D01*
X164482253Y-68501167D01*
X164524336Y-68488051D01*
X164647821Y-68473371D01*
X164681390Y-68466190D01*
X164697690Y-68456576D01*
X164718232Y-68430012D01*
X164725145Y-68407673D01*
X164721776Y-68387323D01*
X164707448Y-68366855D01*
X164681806Y-68350208D01*
X164649591Y-68345699D01*
X164545094Y-68352938D01*
X164473993Y-68366208D01*
X164415041Y-68387288D01*
X164364083Y-68416146D01*
X164320069Y-68452863D01*
X164274127Y-68508529D01*
X164242191Y-68568966D01*
X164223310Y-68635283D01*
X164219164Y-68693001D01*
X164227256Y-68743103D01*
X164246776Y-68787493D01*
X164278360Y-68827548D01*
X164330041Y-68872010D01*
X164383365Y-68904488D01*
X164440627Y-68926604D01*
X164501755Y-68937907D01*
X164554957Y-68938702D01*
X164626752Y-68931141D01*
X164721696Y-68912433D01*
X164858990Y-68885588D01*
X164927604Y-68879748D01*
X164980519Y-68885682D01*
X165028804Y-68901164D01*
X165073466Y-68926318D01*
X165115206Y-68961999D01*
X165007222Y-69053058D01*
X164855500Y-69194073D01*
X164822755Y-69233164D01*
X164798507Y-69276194D01*
X164786635Y-69316383D01*
X164788775Y-69345072D01*
X164801918Y-69366563D01*
X164822853Y-69381053D01*
X164848548Y-69387115D01*
X164874257Y-69383523D01*
X164895654Y-69369455D01*
G37*
G36*
X164050648Y-68950428D02*
G01*
X164132813Y-68975169D01*
X164211664Y-69012485D01*
X164287906Y-69063165D01*
X164362036Y-69128488D01*
X164442985Y-69216827D01*
X164504665Y-69299207D01*
X164549690Y-69376366D01*
X164580250Y-69449116D01*
X164596954Y-69517208D01*
X164601011Y-69579721D01*
X164593529Y-69637975D01*
X164574773Y-69693168D01*
X164544149Y-69746284D01*
X164500244Y-69798025D01*
X164441711Y-69847248D01*
X164382106Y-69880286D01*
X164320502Y-69899011D01*
X164255607Y-69904147D01*
X164185876Y-69895215D01*
X164121084Y-69875205D01*
X164050383Y-69842009D01*
X163972680Y-69793379D01*
X163886908Y-69726605D01*
X163792021Y-69638574D01*
X163728746Y-69566998D01*
X163680726Y-69495145D01*
X163646364Y-69422518D01*
X163624583Y-69348428D01*
X163616181Y-69277149D01*
X163616624Y-69271423D01*
X163745862Y-69271423D01*
X163751392Y-69323084D01*
X163767692Y-69372001D01*
X163796918Y-69426887D01*
X163841962Y-69489042D01*
X163906352Y-69559734D01*
X163993075Y-69638670D01*
X164071467Y-69695642D01*
X164142700Y-69734253D01*
X164209346Y-69757274D01*
X164266851Y-69764156D01*
X164317567Y-69757392D01*
X164363538Y-69737736D01*
X164406249Y-69704116D01*
X164441832Y-69658412D01*
X164461438Y-69609694D01*
X164466390Y-69556199D01*
X164455686Y-69495531D01*
X164433281Y-69439072D01*
X164395702Y-69374446D01*
X164339450Y-69300064D01*
X164260399Y-69214322D01*
X164191255Y-69155343D01*
X164118851Y-69112438D01*
X164042358Y-69084189D01*
X163983946Y-69073657D01*
X163932820Y-69074293D01*
X163887391Y-69084856D01*
X163846330Y-69105053D01*
X163808687Y-69135569D01*
X163773717Y-69179153D01*
X163753328Y-69224018D01*
X163745862Y-69271423D01*
X163616624Y-69271423D01*
X163621200Y-69212298D01*
X163638856Y-69152302D01*
X163669443Y-69095859D01*
X163714303Y-69042048D01*
X163771328Y-68994911D01*
X163832161Y-68962823D01*
X163897903Y-68944547D01*
X163970107Y-68940034D01*
X164050648Y-68950428D01*
G37*
G36*
X163688095Y-70577014D02*
G01*
X163699427Y-70562232D01*
X163713828Y-70534701D01*
X163728157Y-70507209D01*
X163739130Y-70492820D01*
X163816156Y-70422011D01*
X163893658Y-70350726D01*
X163954623Y-70300124D01*
X164015588Y-70249521D01*
X164029103Y-70232121D01*
X164042617Y-70214721D01*
X164058770Y-70191164D01*
X164062355Y-70166677D01*
X164053584Y-70138730D01*
X164037595Y-70114712D01*
X164001168Y-70074743D01*
X163940799Y-70022794D01*
X163880699Y-69986593D01*
X163820140Y-69964168D01*
X163758127Y-69954410D01*
X163681073Y-69959043D01*
X163490865Y-69989469D01*
X163382272Y-70005785D01*
X163324593Y-70007733D01*
X163268525Y-69997990D01*
X163218889Y-69975776D01*
X163174209Y-69940421D01*
X163159476Y-69917910D01*
X163153794Y-69887379D01*
X163159184Y-69845173D01*
X163178349Y-69792815D01*
X163206462Y-69754373D01*
X163238195Y-69728272D01*
X163274694Y-69708725D01*
X163316778Y-69695610D01*
X163440262Y-69680930D01*
X163473831Y-69673748D01*
X163490131Y-69664135D01*
X163510673Y-69637571D01*
X163517586Y-69615231D01*
X163514217Y-69594882D01*
X163499889Y-69574414D01*
X163474247Y-69557767D01*
X163442033Y-69553258D01*
X163337535Y-69560497D01*
X163266434Y-69573766D01*
X163207482Y-69594846D01*
X163156524Y-69623705D01*
X163112510Y-69660421D01*
X163066569Y-69716087D01*
X163034632Y-69776525D01*
X163015752Y-69842842D01*
X163011605Y-69900560D01*
X163019697Y-69950662D01*
X163039217Y-69995052D01*
X163070802Y-70035107D01*
X163122482Y-70079568D01*
X163175807Y-70112047D01*
X163233068Y-70134163D01*
X163294196Y-70145466D01*
X163347398Y-70146261D01*
X163419194Y-70138700D01*
X163514137Y-70119992D01*
X163651431Y-70093147D01*
X163720046Y-70087307D01*
X163772960Y-70093240D01*
X163821245Y-70108723D01*
X163865907Y-70133877D01*
X163907647Y-70169558D01*
X163799663Y-70260617D01*
X163647941Y-70401631D01*
X163615197Y-70440723D01*
X163590948Y-70483753D01*
X163579076Y-70523942D01*
X163581217Y-70552631D01*
X163594359Y-70574121D01*
X163615294Y-70588612D01*
X163640990Y-70594673D01*
X163666698Y-70591081D01*
X163688095Y-70577014D01*
G37*
G36*
X162647413Y-70264719D02*
G01*
X162754040Y-70265005D01*
X162852662Y-70276193D01*
X162944253Y-70297689D01*
X163029682Y-70329205D01*
X163109692Y-70370759D01*
X163184881Y-70422684D01*
X163255683Y-70485610D01*
X163316361Y-70553349D01*
X163360702Y-70617461D01*
X163391019Y-70678600D01*
X163409089Y-70737544D01*
X163415917Y-70796725D01*
X163410443Y-70852922D01*
X163392775Y-70907426D01*
X163361948Y-70961327D01*
X163316001Y-71015428D01*
X163255135Y-71066139D01*
X163192583Y-71099648D01*
X163127265Y-71117859D01*
X163057676Y-71121340D01*
X162991429Y-71110972D01*
X162927578Y-71087616D01*
X162865093Y-71050327D01*
X162803237Y-70997294D01*
X162752363Y-70937937D01*
X162718378Y-70880169D01*
X162698839Y-70823110D01*
X162692384Y-70765825D01*
X162836526Y-70765825D01*
X162840739Y-70811023D01*
X162860313Y-70856498D01*
X162898398Y-70904033D01*
X162955326Y-70951843D01*
X163010327Y-70981501D01*
X163064584Y-70995869D01*
X163109445Y-70996796D01*
X163151262Y-70987386D01*
X163191229Y-70967389D01*
X163230209Y-70935422D01*
X163262538Y-70894047D01*
X163280130Y-70850615D01*
X163284397Y-70803567D01*
X163274594Y-70750799D01*
X163252162Y-70697645D01*
X163215395Y-70640904D01*
X163161386Y-70579648D01*
X163107847Y-70531981D01*
X163007073Y-70557714D01*
X162961899Y-70581262D01*
X162918086Y-70617514D01*
X162872176Y-70672050D01*
X162846428Y-70720898D01*
X162836526Y-70765825D01*
X162692384Y-70765825D01*
X162692360Y-70765609D01*
X162698684Y-70708242D01*
X162718368Y-70650867D01*
X162752956Y-70592280D01*
X162805094Y-70531549D01*
X162828581Y-70512224D01*
X162866275Y-70489366D01*
X162910048Y-70468314D01*
X162968689Y-70444981D01*
X162894966Y-70414323D01*
X162833482Y-70397783D01*
X162782037Y-70392608D01*
X162587614Y-70395241D01*
X162518849Y-70392430D01*
X162485014Y-70385562D01*
X162471340Y-70377496D01*
X162457874Y-70356182D01*
X162453810Y-70330002D01*
X162459236Y-70303927D01*
X162473887Y-70282464D01*
X162497524Y-70270756D01*
X162556009Y-70264158D01*
X162647413Y-70264719D01*
G37*
D11*
X163829819Y-80238095D02*
X164639342Y-80238095D01*
X164639342Y-80238095D02*
X164734580Y-80285714D01*
X164734580Y-80285714D02*
X164782200Y-80333333D01*
X164782200Y-80333333D02*
X164829819Y-80428571D01*
X164829819Y-80428571D02*
X164829819Y-80619047D01*
X164829819Y-80619047D02*
X164782200Y-80714285D01*
X164782200Y-80714285D02*
X164734580Y-80761904D01*
X164734580Y-80761904D02*
X164639342Y-80809523D01*
X164639342Y-80809523D02*
X163829819Y-80809523D01*
X163829819Y-81761904D02*
X163829819Y-81285714D01*
X163829819Y-81285714D02*
X164306009Y-81238095D01*
X164306009Y-81238095D02*
X164258390Y-81285714D01*
X164258390Y-81285714D02*
X164210771Y-81380952D01*
X164210771Y-81380952D02*
X164210771Y-81619047D01*
X164210771Y-81619047D02*
X164258390Y-81714285D01*
X164258390Y-81714285D02*
X164306009Y-81761904D01*
X164306009Y-81761904D02*
X164401247Y-81809523D01*
X164401247Y-81809523D02*
X164639342Y-81809523D01*
X164639342Y-81809523D02*
X164734580Y-81761904D01*
X164734580Y-81761904D02*
X164782200Y-81714285D01*
X164782200Y-81714285D02*
X164829819Y-81619047D01*
X164829819Y-81619047D02*
X164829819Y-81380952D01*
X164829819Y-81380952D02*
X164782200Y-81285714D01*
X164782200Y-81285714D02*
X164734580Y-81238095D01*
X153454819Y-60238095D02*
X154264342Y-60238095D01*
X154264342Y-60238095D02*
X154359580Y-60285714D01*
X154359580Y-60285714D02*
X154407200Y-60333333D01*
X154407200Y-60333333D02*
X154454819Y-60428571D01*
X154454819Y-60428571D02*
X154454819Y-60619047D01*
X154454819Y-60619047D02*
X154407200Y-60714285D01*
X154407200Y-60714285D02*
X154359580Y-60761904D01*
X154359580Y-60761904D02*
X154264342Y-60809523D01*
X154264342Y-60809523D02*
X153454819Y-60809523D01*
X153788152Y-61714285D02*
X154454819Y-61714285D01*
X153407200Y-61476190D02*
X154121485Y-61238095D01*
X154121485Y-61238095D02*
X154121485Y-61857142D01*
%TO.C,C19*%
D12*
X155392164Y-65140000D02*
X155607836Y-65140000D01*
X155392164Y-65860000D02*
X155607836Y-65860000D01*
%TO.C,L1*%
X156600378Y-55440000D02*
X157399622Y-55440000D01*
X156600378Y-56560000D02*
X157399622Y-56560000D01*
%TO.C,C25*%
X156140000Y-74607836D02*
X156140000Y-74392164D01*
X156860000Y-74607836D02*
X156860000Y-74392164D01*
%TO.C,C22*%
X156640000Y-58107836D02*
X156640000Y-57892164D01*
X157360000Y-58107836D02*
X157360000Y-57892164D01*
%TO.C,C23*%
X164590000Y-79288748D02*
X164590000Y-80711252D01*
X166410000Y-79288748D02*
X166410000Y-80711252D01*
%TO.C,U5*%
X155115000Y-78240000D02*
X155115000Y-83760000D01*
X155115000Y-83760000D02*
X155290000Y-83760000D01*
X155290000Y-78240000D02*
X155115000Y-78240000D01*
X163360000Y-83760000D02*
X163535000Y-83760000D01*
X163535000Y-78240000D02*
X163360000Y-78240000D01*
X163535000Y-83760000D02*
X163535000Y-78240000D01*
X163835001Y-84840000D02*
X163365000Y-84500000D01*
X163835000Y-84160000D01*
X163835001Y-84840000D01*
G36*
X163835001Y-84840000D02*
G01*
X163365000Y-84500000D01*
X163835000Y-84160000D01*
X163835001Y-84840000D01*
G37*
%TO.C,C21*%
X160140000Y-53107836D02*
X160140000Y-52892164D01*
X160860000Y-53107836D02*
X160860000Y-52892164D01*
%TO.C,C20*%
X158265000Y-52761253D02*
X158265000Y-52238747D01*
X159735000Y-52761253D02*
X159735000Y-52238747D01*
%TO.C,C18*%
X155859419Y-63490000D02*
X156140581Y-63490000D01*
X155859419Y-64510000D02*
X156140581Y-64510000D01*
D13*
%TO.C,G\u002A\u002A\u002A*%
G36*
X160095929Y-67514890D02*
G01*
X160094341Y-67538194D01*
X160067641Y-67582456D01*
X160007240Y-67661820D01*
X159904554Y-67790431D01*
X159760960Y-67969453D01*
X159918459Y-68163719D01*
X159986623Y-68241266D01*
X160127748Y-68379195D01*
X160264137Y-68490201D01*
X160376968Y-68572921D01*
X160520956Y-68684673D01*
X160671843Y-68806525D01*
X160815371Y-68926539D01*
X160937282Y-69032772D01*
X161023319Y-69113283D01*
X161059225Y-69156130D01*
X161051900Y-69177273D01*
X160993994Y-69192624D01*
X160941150Y-69171827D01*
X160836095Y-69104852D01*
X160694899Y-69001417D01*
X160529949Y-68871571D01*
X160353636Y-68725367D01*
X160178348Y-68572857D01*
X160016474Y-68424092D01*
X159880402Y-68289125D01*
X159662879Y-68061226D01*
X159449479Y-68274627D01*
X159433008Y-68290948D01*
X159310538Y-68401455D01*
X159218654Y-68464821D01*
X159165365Y-68476693D01*
X159158677Y-68432716D01*
X159170896Y-68410920D01*
X159229764Y-68337613D01*
X159326318Y-68229867D01*
X159448941Y-68099440D01*
X159586016Y-67958086D01*
X159725925Y-67817562D01*
X159857050Y-67689623D01*
X159967772Y-67586027D01*
X160046474Y-67518528D01*
X160081539Y-67498883D01*
X160095929Y-67514890D01*
G37*
G36*
X162628392Y-64829757D02*
G01*
X162622171Y-64905796D01*
X162549137Y-65026282D01*
X162544286Y-65032805D01*
X162448031Y-65162224D01*
X162353156Y-65289791D01*
X162255103Y-65421632D01*
X162576164Y-65742099D01*
X162667434Y-65831358D01*
X162864122Y-66016102D01*
X163074163Y-66205889D01*
X163265295Y-66371263D01*
X163404773Y-66491174D01*
X163526425Y-66601671D01*
X163610798Y-66685102D01*
X163645021Y-66729334D01*
X163645774Y-66748802D01*
X163609725Y-66777545D01*
X163561685Y-66754251D01*
X163463185Y-66684311D01*
X163327223Y-66577214D01*
X163165095Y-66442544D01*
X162988099Y-66289885D01*
X162807533Y-66128824D01*
X162634696Y-65968945D01*
X162480882Y-65819832D01*
X162161236Y-65500186D01*
X162084137Y-65609876D01*
X161980012Y-65754011D01*
X161867071Y-65902516D01*
X161766060Y-66027990D01*
X161688639Y-66115985D01*
X161646472Y-66152053D01*
X161632122Y-66154290D01*
X161602426Y-66128451D01*
X161617158Y-66056555D01*
X161671320Y-65952733D01*
X161759919Y-65831115D01*
X161960544Y-65587016D01*
X162165473Y-65332607D01*
X162323081Y-65130339D01*
X162431141Y-64983080D01*
X162487425Y-64893698D01*
X162531722Y-64825848D01*
X162583303Y-64799394D01*
X162628392Y-64829757D01*
G37*
G36*
X158637939Y-68964603D02*
G01*
X158667704Y-69005872D01*
X158672040Y-69075430D01*
X158645792Y-69135788D01*
X158609821Y-69191943D01*
X158567454Y-69285967D01*
X158550605Y-69333218D01*
X158545938Y-69382662D01*
X158571605Y-69431910D01*
X158638168Y-69498539D01*
X158756188Y-69600128D01*
X158890911Y-69711003D01*
X159039051Y-69826941D01*
X159159474Y-69915263D01*
X159161955Y-69916974D01*
X159283437Y-70001870D01*
X159437204Y-70110738D01*
X159590596Y-70220460D01*
X159851644Y-70408364D01*
X159959412Y-70283824D01*
X160003300Y-70236075D01*
X160066399Y-70189945D01*
X160109721Y-70201824D01*
X160118517Y-70215705D01*
X160110533Y-70265135D01*
X160057379Y-70347899D01*
X159952406Y-70475561D01*
X159943089Y-70486410D01*
X159843231Y-70611756D01*
X159766700Y-70723488D01*
X159729410Y-70798564D01*
X159711098Y-70847516D01*
X159658191Y-70923395D01*
X159598311Y-70966911D01*
X159553491Y-70958086D01*
X159553776Y-70921697D01*
X159582670Y-70830254D01*
X159635954Y-70710075D01*
X159642329Y-70697183D01*
X159692753Y-70582334D01*
X159704885Y-70497716D01*
X159670863Y-70425334D01*
X159582826Y-70347192D01*
X159432913Y-70245296D01*
X159212075Y-70098889D01*
X158937809Y-69908353D01*
X158729984Y-69751623D01*
X158591350Y-69630709D01*
X158451850Y-69492268D01*
X158310637Y-69652791D01*
X158297026Y-69668093D01*
X158197588Y-69766261D01*
X158140132Y-69798414D01*
X158127536Y-69769421D01*
X158162675Y-69684151D01*
X158248425Y-69547474D01*
X158334309Y-69418521D01*
X158428245Y-69265658D01*
X158496021Y-69142276D01*
X158521978Y-69092759D01*
X158579388Y-69003791D01*
X158622129Y-68963857D01*
X158637939Y-68964603D01*
G37*
G36*
X161204032Y-66871683D02*
G01*
X161323198Y-66919070D01*
X161478785Y-67001102D01*
X161680455Y-67122313D01*
X161856542Y-67235131D01*
X161937872Y-67287239D01*
X162039919Y-67352896D01*
X162209223Y-67458182D01*
X162358186Y-67546657D01*
X162463224Y-67604094D01*
X162509111Y-67628379D01*
X162598042Y-67686877D01*
X162638400Y-67731592D01*
X162641332Y-67752310D01*
X162621764Y-67780869D01*
X162556846Y-67769206D01*
X162439520Y-67715162D01*
X162262729Y-67616575D01*
X161953979Y-67436862D01*
X161772894Y-67617948D01*
X161671204Y-67724750D01*
X161580265Y-67847243D01*
X161547129Y-67953215D01*
X161567361Y-68061272D01*
X161636528Y-68190017D01*
X161674194Y-68251572D01*
X161732742Y-68371102D01*
X161738372Y-68443124D01*
X161692787Y-68476319D01*
X161681738Y-68475483D01*
X161629853Y-68428828D01*
X161566386Y-68326329D01*
X161544892Y-68286372D01*
X161471123Y-68157639D01*
X161375242Y-67997336D01*
X161272431Y-67831042D01*
X161174328Y-67669504D01*
X161044338Y-67423711D01*
X160963131Y-67214572D01*
X160925027Y-67028974D01*
X160924542Y-67017342D01*
X161051962Y-67017342D01*
X161061694Y-67117486D01*
X161101850Y-67254717D01*
X161167205Y-67411559D01*
X161252540Y-67570533D01*
X161281842Y-67619514D01*
X161343784Y-67727719D01*
X161381691Y-67800593D01*
X161400782Y-67831267D01*
X161430087Y-67835657D01*
X161463736Y-67792519D01*
X161534821Y-67705900D01*
X161627573Y-67595066D01*
X161629675Y-67592571D01*
X161714483Y-67483254D01*
X161767806Y-67397624D01*
X161778182Y-67354028D01*
X161757998Y-67333675D01*
X161659703Y-67255964D01*
X161528607Y-67170953D01*
X161384603Y-67089402D01*
X161247584Y-67022074D01*
X161137441Y-66979727D01*
X161074066Y-66973126D01*
X161051962Y-67017342D01*
X160924542Y-67017342D01*
X160921392Y-66941734D01*
X160950166Y-66894555D01*
X161034313Y-66863274D01*
X161036306Y-66862707D01*
X161111622Y-66854407D01*
X161204032Y-66871683D01*
G37*
G36*
X157307773Y-70509163D02*
G01*
X157336474Y-70553923D01*
X157307280Y-70617907D01*
X157301762Y-70624030D01*
X157278839Y-70712081D01*
X157308890Y-70841565D01*
X157386951Y-70998823D01*
X157508058Y-71170201D01*
X157571483Y-71246067D01*
X157648790Y-71321625D01*
X157721574Y-71359091D01*
X157815715Y-71375759D01*
X157897756Y-71388595D01*
X158052040Y-71422816D01*
X158211322Y-71466887D01*
X158234317Y-71474009D01*
X158471846Y-71546918D01*
X158644902Y-71597002D01*
X158765559Y-71625645D01*
X158845895Y-71634237D01*
X158897987Y-71624166D01*
X158933910Y-71596818D01*
X158965741Y-71553583D01*
X159029350Y-71479381D01*
X159079661Y-71468772D01*
X159104142Y-71531462D01*
X159104595Y-71537983D01*
X159072724Y-71634431D01*
X158979584Y-71705035D01*
X158843347Y-71735574D01*
X158822636Y-71735340D01*
X158703763Y-71718677D01*
X158544557Y-71681768D01*
X158373525Y-71630959D01*
X158331677Y-71617307D01*
X158159418Y-71565810D01*
X158005413Y-71526399D01*
X157898805Y-71506703D01*
X157754807Y-71492350D01*
X157867459Y-71609593D01*
X157983760Y-71754948D01*
X158071599Y-71919684D01*
X158116031Y-72076505D01*
X158112498Y-72208761D01*
X158056442Y-72299803D01*
X158043679Y-72309106D01*
X157972812Y-72335104D01*
X157943305Y-72305176D01*
X157972588Y-72233171D01*
X157995690Y-72174393D01*
X157980324Y-72044703D01*
X157902804Y-71874711D01*
X157764991Y-71669471D01*
X157710186Y-71598435D01*
X157628634Y-71503840D01*
X157569918Y-71458259D01*
X157519886Y-71448962D01*
X157484318Y-71450051D01*
X157361101Y-71444039D01*
X157193435Y-71428886D01*
X157005671Y-71407264D01*
X156822164Y-71381849D01*
X156667265Y-71355315D01*
X156505926Y-71334398D01*
X156341753Y-71337722D01*
X156217516Y-71367709D01*
X156152410Y-71421875D01*
X156147240Y-71459799D01*
X156184850Y-71524118D01*
X156209892Y-71550764D01*
X156208337Y-71599342D01*
X156162557Y-71626413D01*
X156096109Y-71609352D01*
X156074841Y-71590638D01*
X156033992Y-71497470D01*
X156038980Y-71384580D01*
X156090458Y-71288806D01*
X156119651Y-71268004D01*
X156238622Y-71233865D01*
X156412872Y-71223097D01*
X156626326Y-71236026D01*
X156862904Y-71272984D01*
X156981975Y-71294930D01*
X157154195Y-71320897D01*
X157292218Y-71335409D01*
X157466459Y-71346268D01*
X157309770Y-71093480D01*
X157219988Y-70928689D01*
X157158877Y-70752035D01*
X157155680Y-70614793D01*
X157211676Y-70524407D01*
X157244487Y-70506420D01*
X157307773Y-70509163D01*
G37*
G36*
X163757842Y-62221243D02*
G01*
X163892845Y-62246820D01*
X164078300Y-62285460D01*
X164300989Y-62334427D01*
X164547696Y-62390978D01*
X164706280Y-62428487D01*
X164957114Y-62490781D01*
X165140061Y-62541458D01*
X165194309Y-62559798D01*
X165262987Y-62583016D01*
X165333755Y-62617947D01*
X165353152Y-62640515D01*
X165360229Y-62648749D01*
X165361565Y-62670325D01*
X165349478Y-62766437D01*
X165319614Y-62908512D01*
X165276347Y-63074347D01*
X165262777Y-63122030D01*
X165208137Y-63314613D01*
X165156623Y-63496985D01*
X165117836Y-63635174D01*
X165060085Y-63842231D01*
X165746806Y-63988878D01*
X165955121Y-64033533D01*
X166287325Y-64105911D01*
X166551309Y-64165601D01*
X166754554Y-64214704D01*
X166904544Y-64255323D01*
X166979884Y-64280073D01*
X167008764Y-64289559D01*
X167074694Y-64319513D01*
X167109818Y-64347287D01*
X167121621Y-64374983D01*
X167124081Y-64413318D01*
X167121443Y-64453396D01*
X167109090Y-64461105D01*
X167035260Y-64492585D01*
X166914981Y-64537365D01*
X166768705Y-64588548D01*
X166616887Y-64639237D01*
X166479983Y-64682533D01*
X166378443Y-64711541D01*
X166332724Y-64719361D01*
X166309283Y-64717389D01*
X166248680Y-64750264D01*
X166203007Y-64767275D01*
X166086498Y-64795003D01*
X165911063Y-64830406D01*
X165687851Y-64871355D01*
X165428009Y-64915720D01*
X165142686Y-64961376D01*
X165060096Y-64974125D01*
X164749286Y-65020928D01*
X164507383Y-65054695D01*
X164325317Y-65076170D01*
X164194022Y-65086099D01*
X164104424Y-65085225D01*
X164047456Y-65074296D01*
X164014048Y-65054053D01*
X163998556Y-65032739D01*
X163956065Y-64935081D01*
X163911487Y-64789559D01*
X163872257Y-64618979D01*
X163801585Y-64255026D01*
X163568769Y-64249747D01*
X163502452Y-64248210D01*
X163121657Y-64238002D01*
X162776864Y-64226416D01*
X162475619Y-64213842D01*
X162225468Y-64200669D01*
X162033955Y-64187287D01*
X161908627Y-64174085D01*
X161857027Y-64161450D01*
X161847357Y-64149810D01*
X161831115Y-64089860D01*
X161832400Y-64086736D01*
X161866878Y-64034139D01*
X161925546Y-63952498D01*
X162176416Y-63952498D01*
X162180732Y-63958943D01*
X162244295Y-63973586D01*
X162372888Y-63988474D01*
X162555416Y-64002672D01*
X162780789Y-64015242D01*
X163037912Y-64025247D01*
X163151947Y-64028994D01*
X163402712Y-64038618D01*
X163620418Y-64048869D01*
X163793015Y-64059071D01*
X163908456Y-64068551D01*
X163954692Y-64076632D01*
X163963729Y-64096296D01*
X163987492Y-64182537D01*
X164018086Y-64319214D01*
X164051135Y-64487666D01*
X164070671Y-64590443D01*
X164101784Y-64740956D01*
X164127211Y-64848051D01*
X164142812Y-64893401D01*
X164142911Y-64893483D01*
X164188561Y-64892986D01*
X164301378Y-64880978D01*
X164468507Y-64859134D01*
X164677095Y-64829135D01*
X164914288Y-64792659D01*
X165152540Y-64754407D01*
X165364068Y-64719469D01*
X165535053Y-64690204D01*
X165652236Y-64668880D01*
X165702361Y-64657764D01*
X165689875Y-64649380D01*
X165612173Y-64627092D01*
X165476050Y-64594640D01*
X165293670Y-64554885D01*
X165077204Y-64510691D01*
X164921433Y-64479163D01*
X164711352Y-64434381D01*
X164536623Y-64394449D01*
X164412080Y-64362803D01*
X164352558Y-64342879D01*
X164334216Y-64318249D01*
X164328561Y-64253292D01*
X164339271Y-64170603D01*
X164666089Y-64170603D01*
X164677830Y-64189546D01*
X164764066Y-64221197D01*
X164921552Y-64263654D01*
X165145698Y-64315687D01*
X165431916Y-64376062D01*
X165504820Y-64390972D01*
X165748837Y-64442405D01*
X165962362Y-64489710D01*
X166133078Y-64530009D01*
X166248668Y-64560426D01*
X166296815Y-64578084D01*
X166347744Y-64583179D01*
X166452654Y-64564615D01*
X166588078Y-64526144D01*
X166718798Y-64480576D01*
X166824328Y-64438779D01*
X166875550Y-64411921D01*
X166876629Y-64410656D01*
X166866115Y-64393841D01*
X166810934Y-64370234D01*
X166705241Y-64338323D01*
X166543196Y-64296595D01*
X166318958Y-64243538D01*
X166026686Y-64177639D01*
X165660539Y-64097387D01*
X165581534Y-64080301D01*
X165364923Y-64035086D01*
X165208299Y-64007080D01*
X165096914Y-63995353D01*
X165016021Y-63998975D01*
X164950873Y-64017015D01*
X164886721Y-64048541D01*
X164852396Y-64067542D01*
X164742605Y-64128294D01*
X164666089Y-64170603D01*
X164339271Y-64170603D01*
X164343124Y-64140850D01*
X164358373Y-64069250D01*
X164582406Y-64069250D01*
X164586552Y-64071183D01*
X164638055Y-64054709D01*
X164721946Y-64004923D01*
X164734320Y-63996487D01*
X164826337Y-63935484D01*
X164887626Y-63897603D01*
X164895386Y-63890064D01*
X164929997Y-63821385D01*
X164973829Y-63700304D01*
X165019287Y-63547045D01*
X165022628Y-63534636D01*
X165075527Y-63340831D01*
X165130313Y-63144015D01*
X165175642Y-62984980D01*
X165244145Y-62749521D01*
X164995249Y-62902940D01*
X164971564Y-62917620D01*
X164823634Y-63015951D01*
X164740402Y-63088668D01*
X164714263Y-63144282D01*
X164737615Y-63191306D01*
X164744389Y-63223065D01*
X164736458Y-63321478D01*
X164710942Y-63466592D01*
X164670569Y-63640150D01*
X164638528Y-63768653D01*
X164604514Y-63918535D01*
X164584623Y-64024490D01*
X164582406Y-64069250D01*
X164358373Y-64069250D01*
X164379316Y-63970916D01*
X164438551Y-63733478D01*
X164587151Y-63160727D01*
X163868521Y-63077208D01*
X163670850Y-63054257D01*
X163445986Y-63028209D01*
X163254953Y-63006142D01*
X163113386Y-62989864D01*
X163036918Y-62981180D01*
X162923945Y-62968671D01*
X162565297Y-63438135D01*
X162513976Y-63505367D01*
X162389357Y-63669096D01*
X162285099Y-63806736D01*
X162210890Y-63905474D01*
X162176416Y-63952498D01*
X161925546Y-63952498D01*
X161942107Y-63929452D01*
X162050455Y-63783010D01*
X162184290Y-63605149D01*
X162335979Y-63406205D01*
X162364273Y-63369283D01*
X162513247Y-63173542D01*
X162642965Y-63000887D01*
X162745809Y-62861622D01*
X162814158Y-62766044D01*
X162840392Y-62724453D01*
X162841875Y-62722893D01*
X163049071Y-62722893D01*
X163054218Y-62739442D01*
X163128408Y-62765060D01*
X163280636Y-62794773D01*
X163511938Y-62828777D01*
X163823351Y-62867263D01*
X163942916Y-62880962D01*
X164203987Y-62908910D01*
X164400783Y-62925781D01*
X164545014Y-62931821D01*
X164648390Y-62927279D01*
X164722622Y-62912402D01*
X164779419Y-62887436D01*
X164906362Y-62811215D01*
X164990035Y-62757842D01*
X165028537Y-62733283D01*
X165052421Y-62717321D01*
X165112319Y-62671794D01*
X165105482Y-62648625D01*
X165032635Y-62629417D01*
X165018603Y-62626262D01*
X164920497Y-62603475D01*
X164766305Y-62567085D01*
X164574242Y-62521402D01*
X164362523Y-62470742D01*
X164299475Y-62455699D01*
X164097698Y-62408751D01*
X163924829Y-62370285D01*
X163797546Y-62343936D01*
X163732522Y-62333343D01*
X163724012Y-62333949D01*
X163648606Y-62360817D01*
X163530738Y-62418615D01*
X163391130Y-62495532D01*
X163250502Y-62579757D01*
X163129577Y-62659481D01*
X163049071Y-62722893D01*
X162841875Y-62722893D01*
X162869085Y-62694280D01*
X162954041Y-62631735D01*
X163078083Y-62549556D01*
X163223989Y-62458242D01*
X163374538Y-62368287D01*
X163512509Y-62290191D01*
X163620683Y-62234449D01*
X163681835Y-62211559D01*
X163686509Y-62211468D01*
X163757842Y-62221243D01*
G37*
%TO.C,D1*%
D12*
X166010000Y-54350000D02*
X160500000Y-54350000D01*
X166010000Y-54350000D02*
X166010000Y-57650000D01*
X166010000Y-57650000D02*
X160500000Y-57650000D01*
%TO.C,U4*%
X154940000Y-60090000D02*
X154940000Y-61910000D01*
X154940000Y-61910000D02*
X154990000Y-61910000D01*
X154990000Y-60090000D02*
X154940000Y-60090000D01*
X158010000Y-61910000D02*
X158060000Y-61910000D01*
X158060000Y-60090000D02*
X158010000Y-60090000D01*
X158060000Y-61910000D02*
X158060000Y-60090000D01*
X158340000Y-62690000D02*
X158010000Y-62450000D01*
X158340000Y-62210000D01*
X158340000Y-62690000D01*
G36*
X158340000Y-62690000D02*
G01*
X158010000Y-62450000D01*
X158340000Y-62210000D01*
X158340000Y-62690000D01*
G37*
%TO.C,C24*%
X165392164Y-76640000D02*
X165607836Y-76640000D01*
X165392164Y-77360000D02*
X165607836Y-77360000D01*
%TO.C,D2*%
X166010000Y-57850000D02*
X160500000Y-57850000D01*
X166010000Y-57850000D02*
X166010000Y-61150000D01*
X166010000Y-61150000D02*
X160500000Y-61150000D01*
%TD*%
M02*
