%TF.GenerationSoftware,KiCad,Pcbnew,10.0.1*%
%TF.CreationDate,2026-05-06T21:45:56-04:00*%
%TF.ProjectId,devboard,64657662-6f61-4726-942e-6b696361645f,rev?*%
%TF.SameCoordinates,Original*%
%TF.FileFunction,Legend,Top*%
%TF.FilePolarity,Positive*%
%FSLAX46Y46*%
G04 Gerber Fmt 4.6, Leading zero omitted, Abs format (unit mm)*
G04 Created by KiCad (PCBNEW 10.0.1) date 2026-05-06 21:45:56*
%MOMM*%
%LPD*%
G01*
G04 APERTURE LIST*
%ADD10C,0.100000*%
%ADD11C,0.150000*%
%ADD12C,0.120000*%
G04 APERTURE END LIST*
D10*
X166872419Y-112696115D02*
X165872419Y-112696115D01*
X166491466Y-112600877D02*
X166872419Y-112315163D01*
X166205752Y-112315163D02*
X166586704Y-112696115D01*
X166872419Y-111886591D02*
X166205752Y-111886591D01*
X165872419Y-111886591D02*
X165920038Y-111934210D01*
X165920038Y-111934210D02*
X165967657Y-111886591D01*
X165967657Y-111886591D02*
X165920038Y-111838972D01*
X165920038Y-111838972D02*
X165872419Y-111886591D01*
X165872419Y-111886591D02*
X165967657Y-111886591D01*
X166205752Y-111410401D02*
X166872419Y-111410401D01*
X166300990Y-111410401D02*
X166253371Y-111362782D01*
X166253371Y-111362782D02*
X166205752Y-111267544D01*
X166205752Y-111267544D02*
X166205752Y-111124687D01*
X166205752Y-111124687D02*
X166253371Y-111029449D01*
X166253371Y-111029449D02*
X166348609Y-110981830D01*
X166348609Y-110981830D02*
X166872419Y-110981830D01*
X166824800Y-110124687D02*
X166872419Y-110219925D01*
X166872419Y-110219925D02*
X166872419Y-110410401D01*
X166872419Y-110410401D02*
X166824800Y-110505639D01*
X166824800Y-110505639D02*
X166729561Y-110553258D01*
X166729561Y-110553258D02*
X166348609Y-110553258D01*
X166348609Y-110553258D02*
X166253371Y-110505639D01*
X166253371Y-110505639D02*
X166205752Y-110410401D01*
X166205752Y-110410401D02*
X166205752Y-110219925D01*
X166205752Y-110219925D02*
X166253371Y-110124687D01*
X166253371Y-110124687D02*
X166348609Y-110077068D01*
X166348609Y-110077068D02*
X166443847Y-110077068D01*
X166443847Y-110077068D02*
X166539085Y-110553258D01*
X166205752Y-109791353D02*
X166205752Y-109410401D01*
X165872419Y-109648496D02*
X166729561Y-109648496D01*
X166729561Y-109648496D02*
X166824800Y-109600877D01*
X166824800Y-109600877D02*
X166872419Y-109505639D01*
X166872419Y-109505639D02*
X166872419Y-109410401D01*
X166872419Y-109077067D02*
X166205752Y-109077067D01*
X165872419Y-109077067D02*
X165920038Y-109124686D01*
X165920038Y-109124686D02*
X165967657Y-109077067D01*
X165967657Y-109077067D02*
X165920038Y-109029448D01*
X165920038Y-109029448D02*
X165872419Y-109077067D01*
X165872419Y-109077067D02*
X165967657Y-109077067D01*
X166824800Y-108172306D02*
X166872419Y-108267544D01*
X166872419Y-108267544D02*
X166872419Y-108458020D01*
X166872419Y-108458020D02*
X166824800Y-108553258D01*
X166824800Y-108553258D02*
X166777180Y-108600877D01*
X166777180Y-108600877D02*
X166681942Y-108648496D01*
X166681942Y-108648496D02*
X166396228Y-108648496D01*
X166396228Y-108648496D02*
X166300990Y-108600877D01*
X166300990Y-108600877D02*
X166253371Y-108553258D01*
X166253371Y-108553258D02*
X166205752Y-108458020D01*
X166205752Y-108458020D02*
X166205752Y-108267544D01*
X166205752Y-108267544D02*
X166253371Y-108172306D01*
X166348609Y-107410401D02*
X166396228Y-107267544D01*
X166396228Y-107267544D02*
X166443847Y-107219925D01*
X166443847Y-107219925D02*
X166539085Y-107172306D01*
X166539085Y-107172306D02*
X166681942Y-107172306D01*
X166681942Y-107172306D02*
X166777180Y-107219925D01*
X166777180Y-107219925D02*
X166824800Y-107267544D01*
X166824800Y-107267544D02*
X166872419Y-107362782D01*
X166872419Y-107362782D02*
X166872419Y-107743734D01*
X166872419Y-107743734D02*
X165872419Y-107743734D01*
X165872419Y-107743734D02*
X165872419Y-107410401D01*
X165872419Y-107410401D02*
X165920038Y-107315163D01*
X165920038Y-107315163D02*
X165967657Y-107267544D01*
X165967657Y-107267544D02*
X166062895Y-107219925D01*
X166062895Y-107219925D02*
X166158133Y-107219925D01*
X166158133Y-107219925D02*
X166253371Y-107267544D01*
X166253371Y-107267544D02*
X166300990Y-107315163D01*
X166300990Y-107315163D02*
X166348609Y-107410401D01*
X166348609Y-107410401D02*
X166348609Y-107743734D01*
X166872419Y-106600877D02*
X166824800Y-106696115D01*
X166824800Y-106696115D02*
X166777180Y-106743734D01*
X166777180Y-106743734D02*
X166681942Y-106791353D01*
X166681942Y-106791353D02*
X166396228Y-106791353D01*
X166396228Y-106791353D02*
X166300990Y-106743734D01*
X166300990Y-106743734D02*
X166253371Y-106696115D01*
X166253371Y-106696115D02*
X166205752Y-106600877D01*
X166205752Y-106600877D02*
X166205752Y-106458020D01*
X166205752Y-106458020D02*
X166253371Y-106362782D01*
X166253371Y-106362782D02*
X166300990Y-106315163D01*
X166300990Y-106315163D02*
X166396228Y-106267544D01*
X166396228Y-106267544D02*
X166681942Y-106267544D01*
X166681942Y-106267544D02*
X166777180Y-106315163D01*
X166777180Y-106315163D02*
X166824800Y-106362782D01*
X166824800Y-106362782D02*
X166872419Y-106458020D01*
X166872419Y-106458020D02*
X166872419Y-106600877D01*
X166872419Y-105410401D02*
X166348609Y-105410401D01*
X166348609Y-105410401D02*
X166253371Y-105458020D01*
X166253371Y-105458020D02*
X166205752Y-105553258D01*
X166205752Y-105553258D02*
X166205752Y-105743734D01*
X166205752Y-105743734D02*
X166253371Y-105838972D01*
X166824800Y-105410401D02*
X166872419Y-105505639D01*
X166872419Y-105505639D02*
X166872419Y-105743734D01*
X166872419Y-105743734D02*
X166824800Y-105838972D01*
X166824800Y-105838972D02*
X166729561Y-105886591D01*
X166729561Y-105886591D02*
X166634323Y-105886591D01*
X166634323Y-105886591D02*
X166539085Y-105838972D01*
X166539085Y-105838972D02*
X166491466Y-105743734D01*
X166491466Y-105743734D02*
X166491466Y-105505639D01*
X166491466Y-105505639D02*
X166443847Y-105410401D01*
X166872419Y-104934210D02*
X166205752Y-104934210D01*
X166396228Y-104934210D02*
X166300990Y-104886591D01*
X166300990Y-104886591D02*
X166253371Y-104838972D01*
X166253371Y-104838972D02*
X166205752Y-104743734D01*
X166205752Y-104743734D02*
X166205752Y-104648496D01*
X166872419Y-103886591D02*
X165872419Y-103886591D01*
X166824800Y-103886591D02*
X166872419Y-103981829D01*
X166872419Y-103981829D02*
X166872419Y-104172305D01*
X166872419Y-104172305D02*
X166824800Y-104267543D01*
X166824800Y-104267543D02*
X166777180Y-104315162D01*
X166777180Y-104315162D02*
X166681942Y-104362781D01*
X166681942Y-104362781D02*
X166396228Y-104362781D01*
X166396228Y-104362781D02*
X166300990Y-104315162D01*
X166300990Y-104315162D02*
X166253371Y-104267543D01*
X166253371Y-104267543D02*
X166205752Y-104172305D01*
X166205752Y-104172305D02*
X166205752Y-103981829D01*
X166205752Y-103981829D02*
X166253371Y-103886591D01*
X166205752Y-102743733D02*
X166872419Y-102505638D01*
X166872419Y-102505638D02*
X166205752Y-102267543D01*
X165872419Y-101696114D02*
X165872419Y-101600876D01*
X165872419Y-101600876D02*
X165920038Y-101505638D01*
X165920038Y-101505638D02*
X165967657Y-101458019D01*
X165967657Y-101458019D02*
X166062895Y-101410400D01*
X166062895Y-101410400D02*
X166253371Y-101362781D01*
X166253371Y-101362781D02*
X166491466Y-101362781D01*
X166491466Y-101362781D02*
X166681942Y-101410400D01*
X166681942Y-101410400D02*
X166777180Y-101458019D01*
X166777180Y-101458019D02*
X166824800Y-101505638D01*
X166824800Y-101505638D02*
X166872419Y-101600876D01*
X166872419Y-101600876D02*
X166872419Y-101696114D01*
X166872419Y-101696114D02*
X166824800Y-101791352D01*
X166824800Y-101791352D02*
X166777180Y-101838971D01*
X166777180Y-101838971D02*
X166681942Y-101886590D01*
X166681942Y-101886590D02*
X166491466Y-101934209D01*
X166491466Y-101934209D02*
X166253371Y-101934209D01*
X166253371Y-101934209D02*
X166062895Y-101886590D01*
X166062895Y-101886590D02*
X165967657Y-101838971D01*
X165967657Y-101838971D02*
X165920038Y-101791352D01*
X165920038Y-101791352D02*
X165872419Y-101696114D01*
X166777180Y-100934209D02*
X166824800Y-100886590D01*
X166824800Y-100886590D02*
X166872419Y-100934209D01*
X166872419Y-100934209D02*
X166824800Y-100981828D01*
X166824800Y-100981828D02*
X166777180Y-100934209D01*
X166777180Y-100934209D02*
X166872419Y-100934209D01*
X166872419Y-99934210D02*
X166872419Y-100505638D01*
X166872419Y-100219924D02*
X165872419Y-100219924D01*
X165872419Y-100219924D02*
X166015276Y-100315162D01*
X166015276Y-100315162D02*
X166110514Y-100410400D01*
X166110514Y-100410400D02*
X166158133Y-100505638D01*
X169324800Y-111243734D02*
X169372419Y-111148496D01*
X169372419Y-111148496D02*
X169372419Y-110958020D01*
X169372419Y-110958020D02*
X169324800Y-110862782D01*
X169324800Y-110862782D02*
X169229561Y-110815163D01*
X169229561Y-110815163D02*
X169181942Y-110815163D01*
X169181942Y-110815163D02*
X169086704Y-110862782D01*
X169086704Y-110862782D02*
X169039085Y-110958020D01*
X169039085Y-110958020D02*
X169039085Y-111100877D01*
X169039085Y-111100877D02*
X168991466Y-111196115D01*
X168991466Y-111196115D02*
X168896228Y-111243734D01*
X168896228Y-111243734D02*
X168848609Y-111243734D01*
X168848609Y-111243734D02*
X168753371Y-111196115D01*
X168753371Y-111196115D02*
X168705752Y-111100877D01*
X168705752Y-111100877D02*
X168705752Y-110958020D01*
X168705752Y-110958020D02*
X168753371Y-110862782D01*
X168705752Y-110529448D02*
X168705752Y-110148496D01*
X168372419Y-110386591D02*
X169229561Y-110386591D01*
X169229561Y-110386591D02*
X169324800Y-110338972D01*
X169324800Y-110338972D02*
X169372419Y-110243734D01*
X169372419Y-110243734D02*
X169372419Y-110148496D01*
X169372419Y-109386591D02*
X168848609Y-109386591D01*
X168848609Y-109386591D02*
X168753371Y-109434210D01*
X168753371Y-109434210D02*
X168705752Y-109529448D01*
X168705752Y-109529448D02*
X168705752Y-109719924D01*
X168705752Y-109719924D02*
X168753371Y-109815162D01*
X169324800Y-109386591D02*
X169372419Y-109481829D01*
X169372419Y-109481829D02*
X169372419Y-109719924D01*
X169372419Y-109719924D02*
X169324800Y-109815162D01*
X169324800Y-109815162D02*
X169229561Y-109862781D01*
X169229561Y-109862781D02*
X169134323Y-109862781D01*
X169134323Y-109862781D02*
X169039085Y-109815162D01*
X169039085Y-109815162D02*
X168991466Y-109719924D01*
X168991466Y-109719924D02*
X168991466Y-109481829D01*
X168991466Y-109481829D02*
X168943847Y-109386591D01*
X168705752Y-109053257D02*
X168705752Y-108672305D01*
X168372419Y-108910400D02*
X169229561Y-108910400D01*
X169229561Y-108910400D02*
X169324800Y-108862781D01*
X169324800Y-108862781D02*
X169372419Y-108767543D01*
X169372419Y-108767543D02*
X169372419Y-108672305D01*
X169372419Y-108338971D02*
X168705752Y-108338971D01*
X168372419Y-108338971D02*
X168420038Y-108386590D01*
X168420038Y-108386590D02*
X168467657Y-108338971D01*
X168467657Y-108338971D02*
X168420038Y-108291352D01*
X168420038Y-108291352D02*
X168372419Y-108338971D01*
X168372419Y-108338971D02*
X168467657Y-108338971D01*
X169372419Y-107958019D02*
X168705752Y-107434210D01*
X168705752Y-107958019D02*
X169372419Y-107434210D01*
X169372419Y-106910400D02*
X169324800Y-107005638D01*
X169324800Y-107005638D02*
X169229561Y-107053257D01*
X169229561Y-107053257D02*
X168372419Y-107053257D01*
X169372419Y-106100876D02*
X168848609Y-106100876D01*
X168848609Y-106100876D02*
X168753371Y-106148495D01*
X168753371Y-106148495D02*
X168705752Y-106243733D01*
X168705752Y-106243733D02*
X168705752Y-106434209D01*
X168705752Y-106434209D02*
X168753371Y-106529447D01*
X169324800Y-106100876D02*
X169372419Y-106196114D01*
X169372419Y-106196114D02*
X169372419Y-106434209D01*
X169372419Y-106434209D02*
X169324800Y-106529447D01*
X169324800Y-106529447D02*
X169229561Y-106577066D01*
X169229561Y-106577066D02*
X169134323Y-106577066D01*
X169134323Y-106577066D02*
X169039085Y-106529447D01*
X169039085Y-106529447D02*
X168991466Y-106434209D01*
X168991466Y-106434209D02*
X168991466Y-106196114D01*
X168991466Y-106196114D02*
X168943847Y-106100876D01*
X169372419Y-105624685D02*
X168372419Y-105624685D01*
X168753371Y-105624685D02*
X168705752Y-105529447D01*
X168705752Y-105529447D02*
X168705752Y-105338971D01*
X168705752Y-105338971D02*
X168753371Y-105243733D01*
X168753371Y-105243733D02*
X168800990Y-105196114D01*
X168800990Y-105196114D02*
X168896228Y-105148495D01*
X168896228Y-105148495D02*
X169181942Y-105148495D01*
X169181942Y-105148495D02*
X169277180Y-105196114D01*
X169277180Y-105196114D02*
X169324800Y-105243733D01*
X169324800Y-105243733D02*
X169372419Y-105338971D01*
X169372419Y-105338971D02*
X169372419Y-105529447D01*
X169372419Y-105529447D02*
X169324800Y-105624685D01*
X169324800Y-104767542D02*
X169372419Y-104672304D01*
X169372419Y-104672304D02*
X169372419Y-104481828D01*
X169372419Y-104481828D02*
X169324800Y-104386590D01*
X169324800Y-104386590D02*
X169229561Y-104338971D01*
X169229561Y-104338971D02*
X169181942Y-104338971D01*
X169181942Y-104338971D02*
X169086704Y-104386590D01*
X169086704Y-104386590D02*
X169039085Y-104481828D01*
X169039085Y-104481828D02*
X169039085Y-104624685D01*
X169039085Y-104624685D02*
X168991466Y-104719923D01*
X168991466Y-104719923D02*
X168896228Y-104767542D01*
X168896228Y-104767542D02*
X168848609Y-104767542D01*
X168848609Y-104767542D02*
X168753371Y-104719923D01*
X168753371Y-104719923D02*
X168705752Y-104624685D01*
X168705752Y-104624685D02*
X168705752Y-104481828D01*
X168705752Y-104481828D02*
X168753371Y-104386590D01*
X169277180Y-103910399D02*
X169324800Y-103862780D01*
X169324800Y-103862780D02*
X169372419Y-103910399D01*
X169372419Y-103910399D02*
X169324800Y-103958018D01*
X169324800Y-103958018D02*
X169277180Y-103910399D01*
X169277180Y-103910399D02*
X169372419Y-103910399D01*
X169372419Y-103291352D02*
X169324800Y-103386590D01*
X169324800Y-103386590D02*
X169277180Y-103434209D01*
X169277180Y-103434209D02*
X169181942Y-103481828D01*
X169181942Y-103481828D02*
X168896228Y-103481828D01*
X168896228Y-103481828D02*
X168800990Y-103434209D01*
X168800990Y-103434209D02*
X168753371Y-103386590D01*
X168753371Y-103386590D02*
X168705752Y-103291352D01*
X168705752Y-103291352D02*
X168705752Y-103148495D01*
X168705752Y-103148495D02*
X168753371Y-103053257D01*
X168753371Y-103053257D02*
X168800990Y-103005638D01*
X168800990Y-103005638D02*
X168896228Y-102958019D01*
X168896228Y-102958019D02*
X169181942Y-102958019D01*
X169181942Y-102958019D02*
X169277180Y-103005638D01*
X169277180Y-103005638D02*
X169324800Y-103053257D01*
X169324800Y-103053257D02*
X169372419Y-103148495D01*
X169372419Y-103148495D02*
X169372419Y-103291352D01*
X169372419Y-102529447D02*
X168705752Y-102529447D01*
X168896228Y-102529447D02*
X168800990Y-102481828D01*
X168800990Y-102481828D02*
X168753371Y-102434209D01*
X168753371Y-102434209D02*
X168705752Y-102338971D01*
X168705752Y-102338971D02*
X168705752Y-102243733D01*
X168705752Y-101481828D02*
X169515276Y-101481828D01*
X169515276Y-101481828D02*
X169610514Y-101529447D01*
X169610514Y-101529447D02*
X169658133Y-101577066D01*
X169658133Y-101577066D02*
X169705752Y-101672304D01*
X169705752Y-101672304D02*
X169705752Y-101815161D01*
X169705752Y-101815161D02*
X169658133Y-101910399D01*
X169324800Y-101481828D02*
X169372419Y-101577066D01*
X169372419Y-101577066D02*
X169372419Y-101767542D01*
X169372419Y-101767542D02*
X169324800Y-101862780D01*
X169324800Y-101862780D02*
X169277180Y-101910399D01*
X169277180Y-101910399D02*
X169181942Y-101958018D01*
X169181942Y-101958018D02*
X168896228Y-101958018D01*
X168896228Y-101958018D02*
X168800990Y-101910399D01*
X168800990Y-101910399D02*
X168753371Y-101862780D01*
X168753371Y-101862780D02*
X168705752Y-101767542D01*
X168705752Y-101767542D02*
X168705752Y-101577066D01*
X168705752Y-101577066D02*
X168753371Y-101481828D01*
D11*
X161954819Y-109083333D02*
X162669104Y-109083333D01*
X162669104Y-109083333D02*
X162811961Y-109130952D01*
X162811961Y-109130952D02*
X162907200Y-109226190D01*
X162907200Y-109226190D02*
X162954819Y-109369047D01*
X162954819Y-109369047D02*
X162954819Y-109464285D01*
X161954819Y-108130952D02*
X161954819Y-108607142D01*
X161954819Y-108607142D02*
X162431009Y-108654761D01*
X162431009Y-108654761D02*
X162383390Y-108607142D01*
X162383390Y-108607142D02*
X162335771Y-108511904D01*
X162335771Y-108511904D02*
X162335771Y-108273809D01*
X162335771Y-108273809D02*
X162383390Y-108178571D01*
X162383390Y-108178571D02*
X162431009Y-108130952D01*
X162431009Y-108130952D02*
X162526247Y-108083333D01*
X162526247Y-108083333D02*
X162764342Y-108083333D01*
X162764342Y-108083333D02*
X162859580Y-108130952D01*
X162859580Y-108130952D02*
X162907200Y-108178571D01*
X162907200Y-108178571D02*
X162954819Y-108273809D01*
X162954819Y-108273809D02*
X162954819Y-108511904D01*
X162954819Y-108511904D02*
X162907200Y-108607142D01*
X162907200Y-108607142D02*
X162859580Y-108654761D01*
X167657200Y-57833332D02*
X167704819Y-57690475D01*
X167704819Y-57690475D02*
X167704819Y-57452380D01*
X167704819Y-57452380D02*
X167657200Y-57357142D01*
X167657200Y-57357142D02*
X167609580Y-57309523D01*
X167609580Y-57309523D02*
X167514342Y-57261904D01*
X167514342Y-57261904D02*
X167419104Y-57261904D01*
X167419104Y-57261904D02*
X167323866Y-57309523D01*
X167323866Y-57309523D02*
X167276247Y-57357142D01*
X167276247Y-57357142D02*
X167228628Y-57452380D01*
X167228628Y-57452380D02*
X167181009Y-57642856D01*
X167181009Y-57642856D02*
X167133390Y-57738094D01*
X167133390Y-57738094D02*
X167085771Y-57785713D01*
X167085771Y-57785713D02*
X166990533Y-57833332D01*
X166990533Y-57833332D02*
X166895295Y-57833332D01*
X166895295Y-57833332D02*
X166800057Y-57785713D01*
X166800057Y-57785713D02*
X166752438Y-57738094D01*
X166752438Y-57738094D02*
X166704819Y-57642856D01*
X166704819Y-57642856D02*
X166704819Y-57404761D01*
X166704819Y-57404761D02*
X166752438Y-57261904D01*
X166704819Y-56928570D02*
X167704819Y-56690475D01*
X167704819Y-56690475D02*
X166990533Y-56499999D01*
X166990533Y-56499999D02*
X167704819Y-56309523D01*
X167704819Y-56309523D02*
X166704819Y-56071428D01*
X167704819Y-55166666D02*
X167704819Y-55738094D01*
X167704819Y-55452380D02*
X166704819Y-55452380D01*
X166704819Y-55452380D02*
X166847676Y-55547618D01*
X166847676Y-55547618D02*
X166942914Y-55642856D01*
X166942914Y-55642856D02*
X166990533Y-55738094D01*
X163624819Y-55166666D02*
X163148628Y-55499999D01*
X163624819Y-55738094D02*
X162624819Y-55738094D01*
X162624819Y-55738094D02*
X162624819Y-55357142D01*
X162624819Y-55357142D02*
X162672438Y-55261904D01*
X162672438Y-55261904D02*
X162720057Y-55214285D01*
X162720057Y-55214285D02*
X162815295Y-55166666D01*
X162815295Y-55166666D02*
X162958152Y-55166666D01*
X162958152Y-55166666D02*
X163053390Y-55214285D01*
X163053390Y-55214285D02*
X163101009Y-55261904D01*
X163101009Y-55261904D02*
X163148628Y-55357142D01*
X163148628Y-55357142D02*
X163148628Y-55738094D01*
X163624819Y-54214285D02*
X163624819Y-54785713D01*
X163624819Y-54499999D02*
X162624819Y-54499999D01*
X162624819Y-54499999D02*
X162767676Y-54595237D01*
X162767676Y-54595237D02*
X162862914Y-54690475D01*
X162862914Y-54690475D02*
X162910533Y-54785713D01*
X154604819Y-58761904D02*
X155414342Y-58761904D01*
X155414342Y-58761904D02*
X155509580Y-58714285D01*
X155509580Y-58714285D02*
X155557200Y-58666666D01*
X155557200Y-58666666D02*
X155604819Y-58571428D01*
X155604819Y-58571428D02*
X155604819Y-58380952D01*
X155604819Y-58380952D02*
X155557200Y-58285714D01*
X155557200Y-58285714D02*
X155509580Y-58238095D01*
X155509580Y-58238095D02*
X155414342Y-58190476D01*
X155414342Y-58190476D02*
X154604819Y-58190476D01*
X154604819Y-57285714D02*
X154604819Y-57476190D01*
X154604819Y-57476190D02*
X154652438Y-57571428D01*
X154652438Y-57571428D02*
X154700057Y-57619047D01*
X154700057Y-57619047D02*
X154842914Y-57714285D01*
X154842914Y-57714285D02*
X155033390Y-57761904D01*
X155033390Y-57761904D02*
X155414342Y-57761904D01*
X155414342Y-57761904D02*
X155509580Y-57714285D01*
X155509580Y-57714285D02*
X155557200Y-57666666D01*
X155557200Y-57666666D02*
X155604819Y-57571428D01*
X155604819Y-57571428D02*
X155604819Y-57380952D01*
X155604819Y-57380952D02*
X155557200Y-57285714D01*
X155557200Y-57285714D02*
X155509580Y-57238095D01*
X155509580Y-57238095D02*
X155414342Y-57190476D01*
X155414342Y-57190476D02*
X155176247Y-57190476D01*
X155176247Y-57190476D02*
X155081009Y-57238095D01*
X155081009Y-57238095D02*
X155033390Y-57285714D01*
X155033390Y-57285714D02*
X154985771Y-57380952D01*
X154985771Y-57380952D02*
X154985771Y-57571428D01*
X154985771Y-57571428D02*
X155033390Y-57666666D01*
X155033390Y-57666666D02*
X155081009Y-57714285D01*
X155081009Y-57714285D02*
X155176247Y-57761904D01*
X158023809Y-78401128D02*
X158023809Y-78877319D01*
X157690476Y-77877319D02*
X158023809Y-78401128D01*
X158023809Y-78401128D02*
X158357142Y-77877319D01*
X159214285Y-78877319D02*
X158642857Y-78877319D01*
X158928571Y-78877319D02*
X158928571Y-77877319D01*
X158928571Y-77877319D02*
X158833333Y-78020176D01*
X158833333Y-78020176D02*
X158738095Y-78115414D01*
X158738095Y-78115414D02*
X158642857Y-78163033D01*
X159728095Y-67562319D02*
X159728095Y-68371842D01*
X159728095Y-68371842D02*
X159775714Y-68467080D01*
X159775714Y-68467080D02*
X159823333Y-68514700D01*
X159823333Y-68514700D02*
X159918571Y-68562319D01*
X159918571Y-68562319D02*
X160109047Y-68562319D01*
X160109047Y-68562319D02*
X160204285Y-68514700D01*
X160204285Y-68514700D02*
X160251904Y-68467080D01*
X160251904Y-68467080D02*
X160299523Y-68371842D01*
X160299523Y-68371842D02*
X160299523Y-67562319D01*
X161299523Y-68562319D02*
X160728095Y-68562319D01*
X161013809Y-68562319D02*
X161013809Y-67562319D01*
X161013809Y-67562319D02*
X160918571Y-67705176D01*
X160918571Y-67705176D02*
X160823333Y-67800414D01*
X160823333Y-67800414D02*
X160728095Y-67848033D01*
X154238095Y-63954819D02*
X154238095Y-64764342D01*
X154238095Y-64764342D02*
X154285714Y-64859580D01*
X154285714Y-64859580D02*
X154333333Y-64907200D01*
X154333333Y-64907200D02*
X154428571Y-64954819D01*
X154428571Y-64954819D02*
X154619047Y-64954819D01*
X154619047Y-64954819D02*
X154714285Y-64907200D01*
X154714285Y-64907200D02*
X154761904Y-64859580D01*
X154761904Y-64859580D02*
X154809523Y-64764342D01*
X154809523Y-64764342D02*
X154809523Y-63954819D01*
X155190476Y-63954819D02*
X155809523Y-63954819D01*
X155809523Y-63954819D02*
X155476190Y-64335771D01*
X155476190Y-64335771D02*
X155619047Y-64335771D01*
X155619047Y-64335771D02*
X155714285Y-64383390D01*
X155714285Y-64383390D02*
X155761904Y-64431009D01*
X155761904Y-64431009D02*
X155809523Y-64526247D01*
X155809523Y-64526247D02*
X155809523Y-64764342D01*
X155809523Y-64764342D02*
X155761904Y-64859580D01*
X155761904Y-64859580D02*
X155714285Y-64907200D01*
X155714285Y-64907200D02*
X155619047Y-64954819D01*
X155619047Y-64954819D02*
X155333333Y-64954819D01*
X155333333Y-64954819D02*
X155238095Y-64907200D01*
X155238095Y-64907200D02*
X155190476Y-64859580D01*
%TO.C,C9*%
D12*
X165892164Y-73640000D02*
X166107836Y-73640000D01*
X165892164Y-74360000D02*
X166107836Y-74360000D01*
%TO.C,J6*%
X152347500Y-86380000D02*
X160387500Y-86380000D01*
X152347500Y-97120000D02*
X152347500Y-86380000D01*
X155967500Y-87188000D02*
X155967500Y-86380000D01*
X155967500Y-92120000D02*
X155967500Y-90812000D01*
X155967500Y-97120000D02*
X155967500Y-95880000D01*
X156967500Y-87188000D02*
X156967500Y-86380000D01*
X156967500Y-92120000D02*
X156967500Y-90812000D01*
X156967500Y-97120000D02*
X156967500Y-95880000D01*
X158267500Y-88457000D02*
X158267500Y-86380000D01*
X158267500Y-92120000D02*
X158267500Y-89543000D01*
X158267500Y-97120000D02*
X158267500Y-95880000D01*
X160387500Y-86380000D02*
X160387500Y-93700000D01*
X160387500Y-94300000D02*
X160387500Y-97120000D01*
X160387500Y-97120000D02*
X152347500Y-97120000D01*
X160997500Y-94440000D02*
X160387500Y-94000000D01*
X160997500Y-93560000D01*
X160997500Y-94440000D01*
G36*
X160997500Y-94440000D02*
G01*
X160387500Y-94000000D01*
X160997500Y-93560000D01*
X160997500Y-94440000D01*
G37*
%TO.C,R3*%
X161170000Y-67153641D02*
X161170000Y-66846359D01*
X161930000Y-67153641D02*
X161930000Y-66846359D01*
%TO.C,C5*%
X164140000Y-68107836D02*
X164140000Y-67892164D01*
X164860000Y-68107836D02*
X164860000Y-67892164D01*
%TO.C,C1*%
X165669190Y-67821693D02*
X165821693Y-67669190D01*
X166178307Y-68330810D02*
X166330810Y-68178307D01*
%TO.C,J5*%
X151910000Y-99260000D02*
X153650000Y-99260000D01*
X151910000Y-101000000D02*
X151910000Y-99260000D01*
X152150000Y-99500000D02*
X154950000Y-99500000D01*
X152150000Y-114100000D02*
X152150000Y-99500000D01*
X158550000Y-99500000D02*
X161350000Y-99500000D01*
X161350000Y-99500000D02*
X161350000Y-101500000D01*
X161350000Y-105100000D02*
X161350000Y-114100000D01*
X161350000Y-114100000D02*
X152150000Y-114100000D01*
%TO.C,SW1*%
X163430000Y-54430000D02*
X163729999Y-54430000D01*
X163430000Y-58570000D02*
X163430000Y-54430000D01*
X163729999Y-58570000D02*
X163430000Y-58570000D01*
X166270001Y-54430000D02*
X166570000Y-54430000D01*
X166570000Y-54430000D02*
X166570000Y-58570000D01*
X166570000Y-58570000D02*
X166270001Y-58570000D01*
%TO.C,R6*%
X157153641Y-62620000D02*
X156846359Y-62620000D01*
X157153641Y-63380000D02*
X156846359Y-63380000D01*
%TO.C,R1*%
X161620000Y-54846359D02*
X161620000Y-55153641D01*
X162380000Y-54846359D02*
X162380000Y-55153641D01*
%TO.C,C3*%
X154607836Y-74140000D02*
X154392164Y-74140000D01*
X154607836Y-74860000D02*
X154392164Y-74860000D01*
%TO.C,C16*%
X161640000Y-80830336D02*
X161640000Y-80614664D01*
X162360000Y-80830336D02*
X162360000Y-80614664D01*
%TO.C,J7*%
X160580000Y-86380000D02*
X168620000Y-86380000D01*
X160580000Y-89200000D02*
X160580000Y-86380000D01*
X160580000Y-97120000D02*
X160580000Y-89800000D01*
X162700000Y-86380000D02*
X162700000Y-87620000D01*
X162700000Y-91380000D02*
X162700000Y-93957000D01*
X162700000Y-95043000D02*
X162700000Y-97120000D01*
X164000000Y-86380000D02*
X164000000Y-87620000D01*
X164000000Y-91380000D02*
X164000000Y-92688000D01*
X164000000Y-96312000D02*
X164000000Y-97120000D01*
X165000000Y-86380000D02*
X165000000Y-87620000D01*
X165000000Y-91380000D02*
X165000000Y-92688000D01*
X165000000Y-96312000D02*
X165000000Y-97120000D01*
X168620000Y-86380000D02*
X168620000Y-97120000D01*
X168620000Y-97120000D02*
X160580000Y-97120000D01*
X160580000Y-89500000D02*
X159970000Y-89940000D01*
X159970000Y-89060000D01*
X160580000Y-89500000D01*
G36*
X160580000Y-89500000D02*
G01*
X159970000Y-89940000D01*
X159970000Y-89060000D01*
X160580000Y-89500000D01*
G37*
%TO.C,J2*%
X150380000Y-46740000D02*
X151760000Y-46740000D01*
X150380000Y-48120000D02*
X150380000Y-46740000D01*
X150380000Y-49390000D02*
X150380000Y-97760000D01*
X150380000Y-49390000D02*
X153140000Y-49390000D01*
X150380000Y-97760000D02*
X153140000Y-97760000D01*
X153140000Y-49390000D02*
X153140000Y-97760000D01*
%TO.C,C14*%
X156140581Y-54490000D02*
X155859419Y-54490000D01*
X156140581Y-55510000D02*
X155859419Y-55510000D01*
%TO.C,C17*%
X159107836Y-62640000D02*
X158892164Y-62640000D01*
X159107836Y-63360000D02*
X158892164Y-63360000D01*
%TO.C,U6*%
X155990000Y-57240000D02*
X156990000Y-57240000D01*
X155990000Y-58760000D02*
X155990000Y-57240000D01*
X156040000Y-58760000D02*
X155990000Y-58760000D01*
X157940000Y-58760000D02*
X157160000Y-58760000D01*
X158110000Y-57240000D02*
X159110000Y-57240000D01*
X159110000Y-57240000D02*
X159110000Y-58760000D01*
X159110000Y-58760000D02*
X159060000Y-58760000D01*
X157500000Y-59540000D02*
X157170000Y-59300000D01*
X157500000Y-59060000D01*
X157500000Y-59540000D01*
G36*
X157500000Y-59540000D02*
G01*
X157170000Y-59300000D01*
X157500000Y-59060000D01*
X157500000Y-59540000D01*
G37*
%TO.C,Y1*%
X157340000Y-79162500D02*
X157340000Y-82582500D01*
X157340000Y-82582500D02*
X161460000Y-82582500D01*
%TO.C,C6*%
X161640000Y-63607836D02*
X161640000Y-63392164D01*
X162360000Y-63607836D02*
X162360000Y-63392164D01*
%TO.C,C15*%
X156140000Y-80614664D02*
X156140000Y-80830336D01*
X156860000Y-80614664D02*
X156860000Y-80830336D01*
%TO.C,R5*%
X160653641Y-78120000D02*
X160346359Y-78120000D01*
X160653641Y-78880000D02*
X160346359Y-78880000D01*
%TO.C,R7*%
X165120000Y-60846359D02*
X165120000Y-61153641D01*
X165880000Y-60846359D02*
X165880000Y-61153641D01*
%TO.C,C12*%
X160640000Y-63587836D02*
X160640000Y-63372164D01*
X161360000Y-63587836D02*
X161360000Y-63372164D01*
%TO.C,C13*%
X156140581Y-60990000D02*
X155859419Y-60990000D01*
X156140581Y-62010000D02*
X155859419Y-62010000D01*
%TO.C,J1*%
X155790000Y-46840000D02*
X155790000Y-44940000D01*
X155790000Y-50740000D02*
X155790000Y-48740000D01*
X165190000Y-44940000D02*
X155790000Y-44940000D01*
X165190000Y-46840000D02*
X165190000Y-44940000D01*
X165190000Y-50740000D02*
X165190000Y-48740000D01*
%TO.C,C2*%
X161640000Y-78642164D02*
X161640000Y-78857836D01*
X162360000Y-78642164D02*
X162360000Y-78857836D01*
%TO.C,U1*%
X156880000Y-69327500D02*
X157530000Y-69327500D01*
X156880000Y-69977500D02*
X156880000Y-69327500D01*
X156880000Y-76547500D02*
X156880000Y-75897500D01*
X157530000Y-76547500D02*
X156880000Y-76547500D01*
X163450000Y-69327500D02*
X164100000Y-69327500D01*
X164100000Y-69327500D02*
X164100000Y-69977500D01*
X164100000Y-75897500D02*
X164100000Y-76547500D01*
X164100000Y-76547500D02*
X163450000Y-76547500D01*
X156350000Y-70337500D02*
X156020000Y-70577500D01*
X156020000Y-70097500D01*
X156350000Y-70337500D01*
G36*
X156350000Y-70337500D02*
G01*
X156020000Y-70577500D01*
X156020000Y-70097500D01*
X156350000Y-70337500D01*
G37*
%TO.C,R4*%
X162170000Y-66846359D02*
X162170000Y-67153641D01*
X162930000Y-66846359D02*
X162930000Y-67153641D01*
%TO.C,J3*%
X168160000Y-46740000D02*
X169540000Y-46740000D01*
X168160000Y-48120000D02*
X168160000Y-46740000D01*
X168160000Y-49390000D02*
X168160000Y-97760000D01*
X168160000Y-49390000D02*
X170920000Y-49390000D01*
X168160000Y-97760000D02*
X170920000Y-97760000D01*
X170920000Y-49390000D02*
X170920000Y-97760000D01*
%TO.C,U3*%
X156814432Y-63615000D02*
X159610000Y-63615000D01*
X159610000Y-65885000D02*
X156390000Y-65885000D01*
X156520000Y-63610000D02*
X156380000Y-63420000D01*
X156660000Y-63420000D01*
X156520000Y-63610000D01*
G36*
X156520000Y-63610000D02*
G01*
X156380000Y-63420000D01*
X156660000Y-63420000D01*
X156520000Y-63610000D01*
G37*
%TO.C,C8*%
X165392164Y-69140000D02*
X165607836Y-69140000D01*
X165392164Y-69860000D02*
X165607836Y-69860000D01*
%TO.C,C10*%
X162640000Y-78642164D02*
X162640000Y-78857836D01*
X163360000Y-78642164D02*
X163360000Y-78857836D01*
%TO.C,C7*%
X162640000Y-61607836D02*
X162640000Y-61392164D01*
X163360000Y-61607836D02*
X163360000Y-61392164D01*
%TO.C,R2*%
X158120000Y-55153641D02*
X158120000Y-54846359D01*
X158880000Y-55153641D02*
X158880000Y-54846359D01*
%TO.C,C11*%
X163140000Y-67607836D02*
X163140000Y-67392164D01*
X163860000Y-67607836D02*
X163860000Y-67392164D01*
%TO.C,C4*%
X155607836Y-68140000D02*
X155392164Y-68140000D01*
X155607836Y-68860000D02*
X155392164Y-68860000D01*
%TD*%
M02*
